<?xml version="1.0" standalone="no"?>
<!DOCTYPE svg PUBLIC "-//W3C//DTD SVG 20010904//EN"
 "http://www.w3.org/TR/2001/REC-SVG-20010904/DTD/svg10.dtd">
<svg version="1.0" xmlns="http://www.w3.org/2000/svg"
 width="820.000000pt" height="261.000000pt" viewBox="0 0 820.000000 261.000000"
 preserveAspectRatio="xMidYMid meet">

<g transform="translate(0.000000,261.000000) scale(0.100000,-0.100000)"
fill="#000000" stroke="none">
<path d="M991 2185 c-262 -59 -547 -333 -713 -685 -46 -97 -113 -306 -137
-429 -37 -189 -36 -380 4 -536 35 -133 172 -310 290 -372 113 -59 195 -78 340
-78 208 0 287 28 513 179 86 58 167 113 178 121 21 15 22 14 47 -37 58 -118
167 -221 262 -247 146 -40 332 20 473 154 136 128 225 264 320 486 l19 45 114
39 c63 21 119 40 125 42 7 3 19 -18 29 -49 10 -29 35 -97 57 -152 54 -137 70
-211 57 -261 -21 -76 -84 -121 -155 -110 -54 8 -97 42 -118 95 l-16 40 -89 0
c-96 0 -121 -5 -121 -25 0 -35 76 -160 131 -214 92 -92 227 -133 362 -110 151
25 253 78 318 166 53 72 63 105 62 208 -2 110 -22 198 -75 333 -42 108 -61
206 -52 259 9 49 59 93 106 93 87 0 133 -57 144 -181 l7 -72 66 7 c36 3 76 6
89 6 22 0 23 3 17 44 -5 30 -3 46 6 51 17 11 132 34 141 29 8 -5 -65 -217
-167 -484 -79 -207 -155 -417 -155 -431 0 -10 292 -13 351 -3 33 6 38 11 52
53 9 25 29 82 45 126 75 202 186 505 204 554 31 86 54 125 96 163 66 60 120
60 143 0 10 -26 -3 -69 -180 -570 -61 -173 -111 -318 -111 -323 0 -15 386 -12
397 4 5 6 52 136 103 287 51 151 107 310 123 353 26 71 112 216 135 231 12 7
20 -139 28 -519 7 -301 10 -320 52 -359 18 -15 34 -18 99 -15 67 3 90 10 163
45 47 22 125 67 173 98 l87 58 72 -75 c85 -87 143 -117 240 -124 166 -13 331
62 460 209 127 145 207 277 269 447 16 44 28 63 43 66 12 2 68 12 125 21 99
15 105 15 117 -1 31 -42 99 -402 88 -463 -4 -18 -19 -46 -34 -62 -59 -63 -170
-22 -225 83 l-30 57 -107 0 -107 0 6 -32 c23 -119 74 -205 163 -271 86 -65
142 -82 270 -80 124 1 226 27 305 78 62 40 76 56 112 125 26 51 28 63 27 170
-1 109 -6 137 -47 290 -48 174 -57 215 -63 277 -5 60 -4 71 16 96 17 22 29 27
65 27 39 0 47 -5 79 -41 19 -23 45 -70 56 -105 l22 -64 89 0 c103 0 101 -2 74
105 -24 93 -81 199 -137 251 -75 70 -144 98 -253 102 -211 8 -330 -77 -375
-271 l-17 -70 -114 -33 c-63 -19 -119 -34 -125 -34 -7 0 -13 33 -17 84 -10
135 -54 205 -167 262 -79 41 -153 40 -240 -2 -36 -18 -89 -35 -119 -38 -109
-14 -211 -70 -314 -173 -127 -126 -247 -402 -247 -570 0 -32 -4 -63 -8 -70 -9
-14 -112 -54 -124 -47 -4 3 -8 185 -8 405 0 428 -3 454 -50 479 -12 7 -48 12
-79 13 -47 1 -75 -7 -174 -51 -65 -29 -120 -52 -122 -52 -2 0 -19 23 -39 50
-50 70 -89 92 -146 86 -26 -2 -122 -37 -214 -76 -92 -39 -169 -70 -170 -68 -1
2 -10 24 -20 51 -18 47 -39 67 -72 67 -10 0 -81 -24 -158 -54 -266 -101 -397
-149 -400 -145 -1 2 -28 43 -59 91 -93 140 -182 184 -357 176 -75 -4 -108 -10
-152 -30 -113 -52 -179 -142 -196 -266 -5 -34 -11 -64 -13 -66 -14 -12 -235
-84 -240 -78 -4 4 -9 48 -12 97 -3 50 -10 107 -17 129 -17 56 -94 128 -163
155 -86 32 -152 28 -230 -12 -43 -23 -83 -36 -124 -39 -112 -11 -276 -114
-358 -226 -44 -60 -114 -196 -150 -291 -24 -64 -40 -86 -122 -171 -176 -184
-321 -273 -485 -300 -72 -11 -179 2 -216 26 -54 35 -113 146 -138 259 -47 210
37 558 193 808 208 330 442 557 602 583 86 14 117 -31 114 -166 -2 -130 -38
-249 -103 -339 -17 -23 -29 -45 -26 -49 18 -18 321 -171 327 -164 3 4 20 48
37 97 17 50 78 222 135 382 93 263 102 294 88 306 -24 20 -120 77 -130 77 -5
0 -40 -34 -78 -75 -39 -41 -74 -75 -79 -75 -6 0 -30 21 -54 46 -57 57 -131
103 -245 149 -80 33 -102 37 -195 41 -69 2 -127 -1 -169 -11z m1415 -1000 c37
-56 -21 -246 -77 -253 -36 -4 -52 20 -52 81 -1 127 28 197 83 197 20 0 35 -8
46 -25z m3892 13 c17 -17 15 -136 -4 -190 -8 -25 -26 -56 -39 -68 -21 -20 -28
-22 -50 -12 -24 11 -25 15 -25 102 0 93 14 140 49 167 21 16 54 16 69 1z
m-4150 -294 c31 -26 81 -58 110 -72 28 -15 52 -32 52 -39 0 -21 -106 -187
-170 -266 -75 -94 -168 -183 -203 -196 -75 -28 -121 4 -132 90 -13 108 27 240
113 366 42 61 143 163 162 163 6 0 37 -21 68 -46z m3896 -3 c31 -26 83 -61
116 -77 l60 -28 -27 -46 c-91 -158 -242 -349 -320 -403 -53 -37 -125 -38 -148
-3 -54 82 -13 287 86 433 34 50 154 173 169 173 5 0 34 -22 64 -49z"/>
<path d="M7740 1530 c-54 -25 -84 -51 -119 -105 -23 -35 -26 -50 -26 -125 0
-75 3 -90 27 -126 91 -140 272 -164 387 -52 101 99 102 256 2 355 -68 69 -187
92 -271 53z m216 -41 c65 -40 104 -111 104 -188 0 -67 -43 -148 -98 -184 -51
-35 -139 -46 -197 -27 -48 16 -112 73 -132 119 -19 45 -19 135 0 181 17 38 67
90 107 111 61 31 154 27 216 -12z"/>
<path d="M7740 1294 c0 -104 3 -135 13 -132 7 3 13 27 15 61 l3 57 57 0 c31 0
63 -4 71 -9 7 -5 16 -32 19 -60 3 -33 9 -51 18 -51 10 0 12 13 7 53 -3 28 -10
58 -16 65 -7 9 -4 23 8 47 16 28 17 38 7 60 -16 34 -49 45 -133 45 l-69 0 0
-136z m171 95 c31 -49 -8 -89 -88 -89 l-53 0 0 48 c0 27 3 52 8 56 12 13 123
1 133 -15z"/>
</g>
</svg>
