<?xml version="1.0" standalone="no"?>
<!DOCTYPE svg PUBLIC "-//W3C//DTD SVG 20010904//EN"
 "http://www.w3.org/TR/2001/REC-SVG-20010904/DTD/svg10.dtd">
<svg version="1.0" xmlns="http://www.w3.org/2000/svg"
 width="489.000000pt" height="510.000000pt" viewBox="0 0 489.000000 510.000000"
 preserveAspectRatio="xMidYMid meet">

<g transform="translate(0.000000,510.000000) scale(0.100000,-0.100000)"
fill="#000000" stroke="none">
<path d="M2233 5093 c-7 -2 -13 -11 -13 -19 0 -8 -4 -14 -10 -14 -18 0 -10
-45 11 -63 14 -13 19 -26 15 -41 -5 -20 -2 -22 37 -21 38 0 42 2 45 28 2 15
-1 27 -7 27 -6 0 -11 5 -11 10 0 6 7 10 15 10 8 0 15 5 15 10 0 6 -11 10 -24
10 -36 0 -55 10 -49 26 3 9 13 12 29 8 21 -5 94 19 94 31 0 7 -132 5 -147 -2z"/>
<path d="M3066 5056 c-36 -91 -155 -199 -321 -293 -138 -79 -186 -95 -298
-101 -155 -8 -259 23 -339 99 -58 56 -88 115 -88 174 0 25 -4 45 -10 45 -10 0
-257 -140 -455 -258 -264 -157 -358 -239 -468 -405 -107 -163 -170 -426 -217
-917 -11 -113 -26 -268 -34 -345 -8 -77 -18 -187 -21 -245 -4 -58 -18 -161
-31 -229 -28 -139 -25 -162 27 -221 26 -29 29 -40 24 -70 -10 -51 -40 -116
-77 -163 l-33 -42 2 -115 c4 -163 19 -292 45 -385 30 -106 28 -180 -12 -345
-29 -120 -32 -144 -27 -236 4 -94 7 -106 36 -148 18 -25 50 -56 71 -68 45 -26
66 -68 81 -162 6 -32 14 -67 20 -78 17 -31 27 -20 16 20 -17 63 -1 111 52 163
76 74 183 113 256 95 36 -9 102 -71 143 -135 29 -45 36 -68 44 -139 12 -110
32 -149 97 -187 28 -16 51 -35 51 -41 0 -31 -73 -57 -123 -43 -49 13 -104 87
-112 149 -1 8 -7 28 -13 43 -7 15 -11 31 -10 35 3 10 -26 72 -34 72 -4 0 -10
-5 -13 -10 -4 -6 -11 -8 -16 -5 -12 8 -23 -21 -13 -37 7 -11 8 -31 5 -84 -1
-8 -5 -12 -11 -9 -13 8 -12 -8 4 -77 8 -31 21 -67 30 -80 9 -12 16 -36 16 -52
0 -28 1 -28 18 -13 22 20 53 22 70 5 9 -9 12 -9 12 3 0 25 36 39 85 32 l46 -6
-30 -31 c-17 -18 -31 -38 -31 -45 0 -7 -4 -10 -9 -7 -4 3 -17 -1 -27 -9 -10
-8 -36 -15 -58 -15 -21 0 -54 -9 -72 -21 -41 -25 -64 -19 -88 22 -10 17 -20
28 -23 25 -3 -3 7 -24 22 -46 32 -45 76 -69 121 -64 27 2 28 2 10 -12 -11 -8
-25 -14 -30 -14 -6 0 -20 -7 -30 -15 -18 -13 86 -15 875 -15 l894 0 23 35 c12
19 39 46 60 59 52 34 131 111 179 176 39 53 79 147 71 170 -3 10 -78 -81 -78
-95 0 -3 -8 -15 -18 -26 -11 -10 -25 -32 -33 -47 -18 -35 -35 -45 -84 -49 -26
-3 -47 2 -60 12 -20 15 -20 16 5 32 62 41 150 147 195 233 25 50 56 97 68 105
12 8 40 37 62 65 36 46 43 51 70 45 32 -6 135 -65 172 -98 12 -10 19 -25 16
-33 -3 -8 -1 -14 5 -14 11 0 11 -18 -1 -37 -5 -7 -5 -13 -1 -13 4 0 -2 -8 -13
-18 -11 -9 -22 -25 -26 -36 -5 -11 -13 -16 -22 -12 -9 3 -18 -1 -21 -9 -4 -8
-12 -15 -20 -15 -8 0 -19 -9 -26 -20 -7 -11 -18 -20 -25 -20 -7 0 -13 -3 -13
-7 0 -5 -11 -21 -25 -38 -21 -25 -26 -28 -35 -15 -8 13 -10 13 -10 -2 0 -10
-4 -18 -10 -18 -5 0 -10 -9 -10 -20 0 -11 5 -20 10 -20 6 0 10 4 10 8 0 5 12
14 27 21 25 11 24 10 -6 -18 -18 -17 -37 -28 -42 -25 -5 3 -9 -5 -9 -18 0 -13
-7 -34 -16 -46 -20 -29 -15 -34 24 -23 30 9 53 29 107 93 25 30 113 83 122 74
3 -3 0 -12 -7 -21 -7 -8 -9 -15 -4 -15 5 0 -2 -9 -16 -20 -14 -11 -20 -20 -13
-20 6 0 18 7 27 15 18 19 26 19 26 1 0 -22 -56 -64 -101 -76 -90 -24 -339
-149 -369 -185 -11 -13 5 -15 154 -15 132 0 170 3 182 14 8 8 14 17 14 21 0 3
12 17 27 30 21 17 32 21 45 14 20 -11 78 25 78 48 0 7 5 13 10 13 20 0 9 18
-13 22 -35 7 -115 -33 -173 -85 -80 -72 -125 -80 -154 -27 -13 23 7 28 29 7
10 -10 15 -9 24 4 17 23 56 41 69 33 7 -5 9 -2 5 8 -3 10 3 19 19 27 31 14 37
14 29 1 -3 -5 -1 -10 4 -10 6 0 11 4 11 10 0 5 17 17 38 26 20 10 49 30 64 46
25 26 56 40 43 18 -11 -18 8 -11 32 12 17 16 23 18 23 7 0 -8 -6 -21 -12 -29
-11 -12 -10 -12 5 -1 19 15 51 112 49 151 0 14 2 20 4 13 6 -13 74 51 74 70 0
21 68 156 102 203 23 32 44 49 82 63 48 17 53 22 78 82 107 249 188 554 257
969 22 129 57 296 78 370 36 130 38 141 36 275 -1 141 -10 218 -57 485 -13 80
-41 282 -61 450 -45 379 -85 620 -136 820 -50 193 -107 378 -119 385 -6 4 -42
45 -82 93 -141 168 -210 219 -359 261 -206 59 -303 93 -409 143 -81 38 -119
51 -170 55 l-65 5 -19 -46z m22 -1104 c3 -9 -3 -11 -21 -6 -14 3 -31 3 -37 -1
-17 -10 5 -32 40 -39 23 -4 30 -11 30 -29 0 -40 -38 -59 -84 -41 -29 11 -16
25 20 22 51 -4 53 15 4 35 -42 16 -52 41 -28 65 16 16 70 11 76 -6z m-188 -12
c28 -28 27 -84 -2 -104 -74 -52 -157 36 -96 101 27 29 71 30 98 3z m-580 1 c0
-5 -7 -14 -15 -21 -10 -9 -13 -24 -9 -54 6 -38 3 -45 -22 -65 -22 -17 -36 -21
-61 -16 -26 5 -34 2 -43 -16 -9 -15 -15 -18 -23 -10 -8 8 -7 15 5 27 11 11 14
27 11 54 -7 51 21 80 77 80 27 0 43 5 46 15 7 16 34 21 34 6z m374 -28 c3 -21
6 -53 6 -71 0 -50 -24 -35 -30 18 l-5 43 -14 -26 c-17 -32 -27 -34 -43 -7 -19
30 -29 24 -26 -17 2 -21 -1 -40 -7 -43 -6 -3 -11 22 -13 63 -3 74 7 84 40 42
25 -32 29 -31 50 5 23 40 34 38 42 -7z m-232 2 c-1 -5 -16 -8 -32 -7 -40 5
-41 -24 -1 -33 37 -8 54 -28 46 -54 -7 -24 -49 -35 -75 -21 -28 15 -16 32 15
20 17 -6 27 -5 35 5 10 12 9 16 -6 21 -54 17 -64 24 -64 48 0 13 6 27 13 30
20 8 72 2 69 -9z m-384 -24 c3 -10 -2 -12 -20 -8 -29 8 -68 -16 -68 -42 0 -10
9 -26 20 -36 17 -15 24 -16 46 -6 33 15 46 4 19 -15 -21 -16 -68 -12 -92 7
-20 17 -16 76 8 100 23 23 79 23 87 0z m1752 -1011 c6 -47 22 -128 35 -180 13
-52 28 -156 35 -231 13 -152 16 -141 -59 -264 l-36 -60 -6 70 c-4 39 -7 237
-7 440 0 317 2 366 13 340 7 -16 19 -68 25 -115z m-30 -2597 c-11 -17 -11 -17
-6 0 3 10 6 24 7 30 0 9 2 9 5 0 3 -7 0 -20 -6 -30z"/>
<path d="M2820 3920 c-25 -25 -25 -32 -2 -60 39 -48 102 3 68 55 -20 30 -39
32 -66 5z"/>
<path d="M2204 3892 c-16 -10 -27 -49 -16 -56 6 -3 22 10 36 29 24 30 25 35 9
35 -10 0 -23 -4 -29 -8z"/>
<path d="M2237 3842 c-15 -16 -25 -31 -22 -34 11 -11 46 4 56 24 18 34 -5 41
-34 10z"/>
<path d="M3380 509 c0 -5 5 -7 10 -4 6 3 10 8 10 11 0 2 -4 4 -10 4 -5 0 -10
-5 -10 -11z"/>
<path d="M1100 304 c0 -12 44 -74 53 -74 5 0 0 14 -10 31 -19 33 -43 57 -43
43z"/>
<path d="M3795 176 c-6 -8 -38 -50 -73 -95 l-63 -81 87 0 87 0 -7 87 c-8 92
-15 112 -31 89z"/>
<path d="M3322 149 c-8 -12 -8 -20 -2 -24 6 -4 7 -11 4 -17 -4 -7 2 -8 17 -3
29 9 25 5 32 35 5 21 2 25 -17 26 -12 1 -28 -7 -34 -17z"/>
</g>
</svg>
