<?xml version="1.0" standalone="no"?>
<!DOCTYPE svg PUBLIC "-//W3C//DTD SVG 20010904//EN"
 "http://www.w3.org/TR/2001/REC-SVG-20010904/DTD/svg10.dtd">
<svg version="1.0" xmlns="http://www.w3.org/2000/svg"
 width="225.000000pt" height="225.000000pt" viewBox="0 0 225.000000 225.000000"
 preserveAspectRatio="xMidYMid meet">

<g transform="translate(0.000000,225.000000) scale(0.100000,-0.100000)"
fill="#000000" stroke="none">
<path d="M1 1733 c1 -316 5 -496 10 -462 38 263 149 480 336 660 181 174 380
271 632 308 34 5 -146 9 -461 10 l-518 1 1 -517z"/>
<path d="M1271 2239 c354 -52 647 -248 827 -554 71 -122 119 -260 141 -414 5
-34 9 146 10 462 l1 517 -517 -1 c-316 -1 -496 -5 -462 -10z"/>
<path d="M1092 2094 c-60 -42 -127 -254 -152 -484 -7 -58 -13 -110 -15 -117
-3 -8 -33 1 -93 27 -91 39 -270 100 -354 119 -90 21 -178 11 -200 -23 -23 -35
11 -107 95 -201 31 -35 57 -73 57 -85 0 -31 45 -72 76 -68 18 2 49 -15 114
-62 49 -36 89 -69 89 -75 0 -5 -44 -41 -97 -80 -179 -130 -342 -313 -342 -381
1 -58 89 -81 208 -53 84 19 263 80 354 119 60 26 90 35 93 27 1 -7 8 -56 14
-110 10 -84 9 -101 -4 -120 -23 -33 -18 -66 13 -95 18 -17 38 -54 52 -97 42
-130 86 -195 129 -195 8 0 31 18 52 40 29 30 45 62 68 135 31 96 65 266 77
388 3 37 7 67 8 67 1 0 46 -20 101 -43 182 -79 352 -127 451 -127 46 0 59 4
80 26 30 29 28 53 -12 121 -33 58 -180 200 -299 291 -56 43 -101 82 -101 87 0
6 45 44 101 87 119 91 266 233 299 291 40 68 42 92 12 121 -21 22 -34 26 -83
26 -32 0 -95 -9 -140 -20 -73 -17 -85 -18 -110 -5 -42 22 -103 -5 -103 -45 0
-12 -27 -29 -92 -56 -51 -21 -96 -40 -99 -42 -4 -2 -10 28 -13 65 -12 122 -46
292 -77 388 -23 73 -39 105 -68 135 -42 44 -56 48 -89 24z m75 -73 c29 -43 57
-133 83 -265 25 -129 43 -287 33 -296 -4 -4 -41 -24 -80 -46 l-73 -38 -80 39
c-93 45 -90 36 -65 214 29 196 60 315 102 389 29 51 47 52 80 3z m-689 -427
c83 -17 253 -77 369 -130 81 -37 78 -29 66 -147 l-6 -68 -76 -49 -75 -49 -41
30 c-135 100 -153 116 -148 142 4 19 -2 33 -22 52 -21 22 -32 26 -60 21 -30
-6 -37 -2 -80 46 -136 154 -118 191 73 152z m1446 10 c68 -26 -101 -216 -362
-407 l-63 -46 -72 47 c-40 26 -75 52 -79 57 -4 6 -8 49 -8 96 0 74 3 87 18 92
9 3 55 22 101 42 71 32 86 36 106 25 34 -18 67 -8 90 27 17 28 31 35 100 52
83 20 142 25 169 15z m-906 -221 c61 -34 59 -33 42 -43 -8 -5 -34 -21 -57 -35
l-43 -26 0 65 c0 36 3 66 6 66 3 0 26 -12 52 -27z m281 -56 l1 -48 -60 33
c-33 18 -60 35 -60 38 0 3 24 17 53 32 60 30 65 26 66 -55z m-78 -54 l79 -48
0 -101 0 -101 -80 -47 c-44 -25 -84 -46 -90 -46 -12 0 -110 53 -152 82 -27 19
-28 22 -28 114 l0 94 38 23 c73 47 127 76 140 77 8 0 49 -21 93 -47z m-311
-148 c0 -36 -3 -65 -7 -65 -12 0 -95 57 -95 65 0 8 83 65 95 65 4 0 7 -29 7
-65z m496 35 c24 -17 44 -33 44 -35 0 -5 -87 -65 -94 -65 -3 0 -6 29 -6 65 0
36 3 65 6 65 3 0 25 -14 50 -30z m-563 -117 c49 -32 67 -50 67 -66 0 -12 3
-52 7 -89 l6 -68 -69 -31 c-247 -113 -499 -176 -533 -135 -16 19 3 55 68 134
76 91 355 317 376 304 5 -3 40 -26 78 -49z m788 -43 c177 -137 309 -279 309
-332 0 -60 -252 -6 -512 108 l-88 39 0 87 c0 97 -5 89 90 152 47 32 70 41 81
35 10 -5 64 -45 120 -89z m-578 -84 c9 -6 17 -13 17 -16 0 -5 -52 -34 -102
-58 -5 -2 -8 26 -8 63 l0 67 38 -23 c20 -13 45 -28 55 -33z m242 -43 l-6 -32
-54 26 c-30 15 -55 30 -55 33 0 3 26 19 58 37 l57 31 3 -31 c2 -17 1 -45 -3
-64z m-80 -44 l76 -41 -6 -62 c-30 -291 -103 -536 -161 -536 -19 0 -59 74 -83
153 l-21 69 20 25 c28 36 25 61 -14 97 -30 29 -35 41 -45 116 -19 145 -21 140
62 182 39 20 77 37 84 37 6 1 46 -17 88 -40z"/>
<path d="M1044 1206 c-29 -29 -34 -41 -34 -81 0 -40 5 -52 34 -81 26 -26 42
-34 70 -34 75 0 126 51 126 126 0 28 -8 44 -34 70 -29 29 -41 34 -81 34 -40 0
-52 -5 -81 -34z"/>
<path d="M1 518 l-1 -518 518 1 c315 1 495 5 461 10 -263 38 -480 149 -660
336 -174 181 -271 380 -308 632 -5 34 -9 -146 -10 -461z"/>
<path d="M2240 998 c-1 -54 -37 -202 -70 -285 -56 -141 -128 -251 -239 -366
-180 -187 -397 -298 -660 -336 -34 -5 146 -9 462 -10 l517 -1 0 515 c0 283 -2
515 -5 515 -3 0 -5 -15 -5 -32z"/>
</g>
</svg>
