<?xml version="1.0" standalone="no"?>
<!DOCTYPE svg PUBLIC "-//W3C//DTD SVG 20010904//EN"
 "http://www.w3.org/TR/2001/REC-SVG-20010904/DTD/svg10.dtd">
<svg version="1.0" xmlns="http://www.w3.org/2000/svg"
 width="820.000000pt" height="652.000000pt" viewBox="0 0 820.000000 652.000000"
 preserveAspectRatio="xMidYMid meet">

<g transform="translate(0.000000,652.000000) scale(0.100000,-0.100000)"
fill="#000000" stroke="none">
<path d="M4540 6100 c-13 -8 -12 -10 3 -10 9 0 17 5 17 10 0 12 -1 12 -20 0z"/>
<path d="M4758 6103 c7 -3 16 -2 19 1 4 3 -2 6 -13 5 -11 0 -14 -3 -6 -6z"/>
<path d="M4929 6081 c14 -16 28 -24 30 -18 2 6 -6 19 -19 29 -34 28 -41 21
-11 -11z"/>
<path d="M4807 6093 c-4 -3 -8 -20 -8 -37 l-1 -31 -8 30 c-7 32 -10 29 -29
-42 -15 -56 -30 -64 -20 -10 16 82 12 86 -32 39 -22 -23 -45 -40 -50 -36 -5 3
-16 0 -24 -6 -12 -10 -15 -10 -15 2 0 8 5 19 12 26 7 7 8 12 2 12 -5 0 -15 -5
-22 -12 -9 -9 -12 -4 -12 25 0 26 -4 37 -15 37 -10 0 -15 -11 -16 -37 -1 -21
-3 -30 -6 -20 -8 29 -23 19 -23 -16 0 -35 -23 -77 -33 -60 -6 9 4 62 18 96 4
9 3 17 -3 17 -5 0 -13 -8 -17 -17 -7 -17 -8 -16 -15 2 -7 18 -10 16 -30 -18
-23 -39 -40 -45 -20 -7 20 37 3 34 -22 -4 -13 -20 -29 -36 -35 -37 -7 -1 -18
-2 -23 -3 -15 -2 -30 -28 -23 -41 3 -5 -8 6 -26 25 l-32 35 22 17 21 18 -21 0
c-12 0 -21 -5 -21 -11 0 -5 -5 -7 -10 -4 -6 4 -3 -10 7 -29 16 -33 16 -39 0
-83 -15 -44 -16 -28 -1 30 3 15 -1 31 -14 47 l-19 24 1 -31 c0 -17 4 -29 9
-26 4 2 7 -3 7 -12 0 -28 -33 -12 -44 22 -13 38 -31 58 -23 25 3 -12 1 -20 -4
-16 -6 3 -16 1 -24 -6 -10 -9 -19 -8 -36 1 -17 9 -24 9 -27 0 -2 -6 -10 -11
-18 -11 -19 0 -18 -13 5 -42 15 -18 19 -36 16 -68 -5 -56 -11 -59 -19 -11 -9
55 -26 62 -26 11 0 -34 -3 -41 -15 -36 -9 3 -18 -1 -21 -9 -6 -16 -49 -21 -58
-7 -2 4 16 34 40 66 24 33 44 63 44 68 0 18 -16 6 -38 -30 -35 -58 -90 -133
-97 -132 -4 1 -10 -2 -13 -6 -4 -4 -1 -4 6 0 16 9 15 1 -3 -34 -16 -31 -32
-42 -21 -15 8 22 -2 18 -15 -6 -8 -15 -8 -19 0 -15 6 4 11 4 11 0 0 -14 -63
-120 -99 -164 -53 -68 -59 -80 -12 -30 38 42 134 191 162 253 9 20 15 24 21
15 14 -23 9 -46 -13 -53 -19 -7 -20 -7 -2 -21 16 -12 16 -13 2 -14 -20 0 -30
-21 -22 -48 2 -11 0 -23 -6 -26 -6 -4 -11 -17 -11 -28 0 -11 -8 -26 -17 -33
-12 -9 -17 -25 -15 -51 2 -44 -29 -89 -70 -99 -14 -4 -37 -17 -53 -31 -15 -13
-33 -24 -40 -24 -37 0 -65 -59 -42 -87 6 -9 6 -13 -2 -13 -6 0 -18 11 -26 24
-12 17 -24 24 -44 22 -53 -4 -74 -45 -57 -107 7 -24 4 -28 -31 -42 -220 -90
-287 -120 -338 -149 -132 -76 -216 -131 -242 -158 -18 -19 -30 -25 -34 -18 -8
12 -82 -130 -115 -217 -10 -27 -35 -76 -55 -108 -49 -76 -119 -267 -119 -325
0 -11 -4 -24 -10 -27 -20 -13 -10 -24 14 -15 40 15 87 -15 131 -82 32 -48 41
-56 46 -41 7 17 8 17 8 1 1 -29 2 -32 23 -61 15 -21 17 -32 10 -39 -8 -8 -24
-1 -57 26 -24 21 -49 34 -55 31 -5 -3 -10 -1 -10 4 0 6 -7 11 -15 11 -9 0 -26
7 -39 15 -12 8 -34 16 -49 17 -16 1 -28 10 -32 23 -6 19 -7 19 -16 -5 -6 -14
-19 -58 -31 -99 -15 -56 -17 -79 -9 -95 17 -33 17 -50 1 -51 -20 0 -27 -55 -7
-55 8 0 21 -7 28 -17 13 -15 11 -16 -13 -10 -21 6 -33 2 -47 -12 -27 -27 -86
-164 -73 -169 6 -2 8 -10 5 -18 -3 -7 -9 -11 -14 -8 -12 7 -11 -87 0 -105 12
-19 -15 -61 -39 -61 -24 0 -57 -43 -72 -94 -7 -22 -20 -54 -30 -71 -10 -16
-17 -43 -17 -60 1 -19 3 -23 6 -12 4 14 11 17 26 13 12 -3 28 -6 35 -6 27 0 1
-18 -35 -23 -34 -6 -41 -12 -61 -58 -13 -28 -22 -59 -19 -70 4 -17 -1 -19 -39
-19 -43 0 -56 -11 -31 -27 32 -21 149 -55 212 -63 72 -8 135 -28 135 -43 0 -4
4 -6 10 -2 5 3 17 1 27 -4 10 -5 33 -15 51 -22 36 -13 68 -51 57 -69 -3 -5 1
-13 9 -16 35 -13 14 -26 -34 -22 -57 6 -62 0 -20 -25 17 -10 30 -25 30 -32 0
-8 11 -17 25 -21 31 -8 32 -20 3 -35 -18 -10 -20 -9 -15 4 4 10 -1 18 -12 22
-10 3 -54 43 -97 88 -88 92 -175 142 -309 177 -27 8 -61 24 -74 37 -13 13 -25
22 -26 21 -10 -12 -51 -129 -46 -132 3 -2 33 -11 66 -21 33 -9 89 -29 125 -45
36 -15 85 -31 109 -34 43 -7 44 -6 28 12 -10 10 -65 41 -124 67 -107 50 -125
70 -33 40 57 -19 190 -93 190 -106 0 -12 58 -74 120 -129 l35 -31 -40 17 c-22
9 -62 22 -90 30 -27 8 -75 22 -105 31 -30 9 -94 35 -142 59 -73 37 -95 43
-140 41 -29 -1 -64 2 -78 6 -20 6 -32 2 -55 -17 -20 -17 -25 -26 -15 -26 9 0
34 -9 55 -20 l40 -19 -27 22 c-32 26 -35 37 -12 37 9 0 54 -37 98 -82 165
-166 237 -230 253 -223 14 5 13 8 -5 21 -12 8 -22 21 -22 28 0 8 -52 65 -115
127 -63 62 -112 115 -110 117 11 12 57 -19 129 -86 44 -41 106 -91 137 -111
54 -34 57 -37 45 -60 -9 -15 -16 -20 -20 -12 -4 6 -12 11 -19 11 -8 0 -8 -3 0
-11 9 -9 6 -17 -12 -31 -23 -18 -26 -18 -55 -3 -24 13 -35 14 -45 5 -8 -7 -31
-12 -50 -12 -28 0 -35 -3 -31 -15 3 -8 -2 -25 -11 -37 -15 -18 -24 -21 -50
-15 -17 3 -36 2 -41 -3 -14 -14 -56 7 -83 40 -13 17 -46 57 -72 90 -27 33 -59
65 -72 72 -12 7 -28 23 -35 35 -7 14 -18 21 -27 18 -10 -4 -11 -9 -2 -19 10
-12 9 -13 -5 -8 -32 12 -15 -19 39 -73 31 -30 72 -65 92 -79 35 -24 30 -34 -7
-14 -19 10 -19 9 1 -25 12 -19 25 -33 29 -30 5 3 12 0 16 -6 4 -8 3 -9 -4 -5
-7 4 -12 3 -12 -3 0 -16 60 -71 78 -72 11 0 13 -2 4 -6 -7 -3 -25 3 -40 13
-51 35 -69 41 -111 39 -22 -1 -41 1 -41 6 0 5 -7 6 -15 3 -8 -4 -21 -1 -28 4
-19 16 -57 10 -57 -8 0 -9 -3 -11 -8 -4 -7 10 -84 42 -118 48 -35 7 -119 51
-120 64 -3 26 -6 26 -15 2 -9 -23 -11 -23 -20 -7 -6 9 -14 15 -19 12 -5 -3 6
-20 25 -37 25 -22 34 -36 30 -49 -6 -17 3 -23 26 -21 4 1 17 -11 30 -26 l24
-27 -27 24 c-16 14 -28 21 -28 17 0 -6 38 -64 50 -76 3 -3 14 -21 24 -40 l19
-35 -26 24 c-33 30 -122 38 -150 13 -19 -17 -67 -26 -67 -12 0 5 -10 12 -22
15 -57 17 -117 51 -118 66 0 17 -8 19 -107 35 l-38 6 59 -60 c33 -34 55 -65
52 -71 -4 -6 0 -14 8 -17 24 -9 9 -23 -17 -16 -21 5 -21 4 -5 -15 25 -28 23
-32 -17 -26 -36 6 -51 -12 -17 -20 14 -3 12 -6 -8 -14 -32 -13 -53 -5 -47 17
3 13 0 16 -14 13 -11 -3 -26 1 -35 8 -13 10 -17 10 -25 -2 -7 -11 -9 -11 -9 0
0 7 -6 11 -14 8 -8 -3 -34 11 -59 34 -25 21 -56 39 -69 40 -21 1 -21 2 7 14
l30 14 -32 1 c-17 0 -43 -4 -57 -10 -36 -13 -106 -89 -112 -120 -3 -14 -18
-33 -35 -43 -44 -25 -62 -78 -57 -162 11 -152 135 -325 235 -325 18 0 44 -6
56 -14 37 -23 124 -39 175 -31 26 3 83 21 127 40 50 21 106 35 149 39 87 8
237 56 299 96 26 16 60 30 75 30 75 0 230 61 332 129 25 17 58 31 73 31 69 0
260 91 340 163 17 15 40 27 52 27 55 0 286 140 307 186 6 13 18 26 27 29 9 3
28 32 43 63 20 43 33 58 48 58 31 0 24 -20 -28 -78 -27 -29 -54 -68 -60 -87
-15 -42 -10 -51 7 -13 25 52 27 56 39 60 14 4 -34 -85 -52 -95 -16 -11 -38
-62 -31 -74 4 -5 2 -9 -4 -9 -6 0 -14 -12 -17 -27 -4 -16 -17 -46 -30 -68 -28
-49 -96 -213 -113 -275 -7 -25 -17 -55 -22 -68 -5 -13 -9 -30 -9 -38 0 -8 -9
-24 -19 -35 -27 -29 -97 -210 -121 -315 -12 -49 -31 -118 -42 -154 -18 -56
-22 -92 -23 -262 -2 -182 4 -229 20 -179 9 29 91 63 175 72 41 4 100 11 130
14 32 4 112 0 190 -9 290 -34 638 -17 987 49 257 49 609 102 739 112 79 6 82
5 89 -17 5 -17 3 -27 -9 -35 -9 -7 -16 -17 -16 -23 0 -13 37 -79 57 -103 8
-10 11 -27 8 -41 -4 -16 3 -47 18 -84 14 -32 28 -80 32 -106 7 -44 10 -48 34
-48 39 0 41 5 24 58 -8 26 -17 81 -21 122 l-7 75 -35 -2 c-30 -2 -32 -1 -12 7
12 5 22 18 22 29 0 15 22 27 113 59 154 55 174 59 311 72 95 8 176 7 395 -6
273 -16 561 -15 626 4 22 6 31 15 33 35 2 15 11 29 21 32 27 8 68 73 80 125
14 59 13 165 -1 215 -6 22 -10 56 -9 75 1 19 3 46 4 60 2 38 -12 160 -24 205
-6 22 -11 56 -13 75 -2 20 -8 46 -15 57 -6 12 -11 39 -12 60 0 21 -9 70 -19
108 -14 56 -18 63 -19 36 -1 -29 -3 -32 -16 -21 -8 7 -15 27 -15 44 0 18 -4
36 -9 41 -9 10 -32 117 -26 123 2 2 11 -18 20 -45 9 -26 23 -61 31 -78 l14
-30 -6 35 c-8 46 -51 143 -61 137 -5 -3 -9 38 -11 91 -1 53 -7 101 -12 106 -6
6 -11 26 -11 46 -1 34 -2 33 -14 -15 l-13 -50 0 90 c-1 96 -8 127 -44 175 -19
26 -20 33 -9 54 9 17 11 42 6 86 -8 67 -14 70 -25 13 -7 -33 -8 -30 -9 27 -1
58 -23 119 -32 91 -2 -6 -4 16 -5 49 -1 38 2 57 9 53 7 -4 8 0 2 13 -4 10 -13
46 -20 79 -6 33 -14 53 -17 45 -4 -10 -7 -6 -7 10 -1 14 -6 32 -11 40 -8 12
-10 12 -10 -5 0 -11 -6 -27 -13 -36 -10 -13 -12 -2 -11 57 1 71 -16 189 -31
214 -4 6 -8 28 -10 47 -1 19 -8 39 -16 44 -9 6 -10 9 -2 9 6 0 19 -10 27 -22
15 -21 16 -21 16 -3 0 11 7 29 15 39 8 11 13 28 10 37 -3 10 2 41 11 69 13 41
16 73 11 153 -4 76 -2 107 8 120 11 16 21 9 106 -75 51 -50 119 -123 152 -160
32 -38 76 -80 97 -94 49 -32 132 -153 150 -217 7 -27 30 -74 50 -105 41 -63
148 -167 198 -194 28 -15 32 -22 32 -57 0 -28 10 -53 34 -90 l34 -50 5 -173
c4 -172 4 -173 -24 -246 -48 -122 -34 -213 47 -310 138 -164 213 -199 407
-186 79 5 114 11 130 24 12 9 40 26 62 38 51 26 132 112 140 149 4 15 16 65
27 110 12 50 17 90 12 100 -6 13 -10 4 -14 -32 -7 -49 -7 -48 -8 21 -1 44 -7
77 -17 90 -8 10 -15 33 -15 50 0 16 -12 46 -26 65 -26 35 -63 102 -47 84 63
-66 106 -147 118 -220 6 -34 9 -37 15 -19 17 43 22 132 11 167 -11 33 -66 91
-136 146 l-30 23 45 -24 c25 -13 57 -32 72 -42 31 -20 37 -14 49 48 6 33 3 46
-18 80 -21 33 -22 37 -6 23 28 -24 33 -22 33 18 0 30 -9 44 -57 91 -32 30 -70
62 -85 70 -16 8 -28 17 -28 20 0 3 29 -10 65 -30 l65 -35 -3 29 c-4 34 -38 64
-94 85 -21 7 -33 14 -27 14 6 1 30 -5 52 -13 22 -8 42 -12 45 -10 2 2 16 -14
32 -37 20 -31 26 -50 22 -74 -7 -44 8 -66 17 -25 3 18 6 42 6 54 0 41 -50 127
-104 181 -59 59 -36 56 27 -3 52 -50 46 -27 -13 52 -35 45 -46 66 -35 66 9 0
25 -9 37 -20 32 -29 36 -14 5 18 -31 33 -37 54 -7 27 23 -20 26 -14 8 18 -10
21 -10 21 7 7 10 -8 27 -33 37 -55 l19 -40 -4 72 c-4 60 -10 80 -36 121 -17
28 -33 58 -36 68 -18 91 -26 109 -67 151 -24 24 -58 51 -76 58 -32 14 -34 13
-60 -16 -20 -22 -35 -30 -52 -27 -23 3 -21 6 23 31 26 15 45 32 42 38 -4 5 -4
9 0 9 12 0 104 -50 110 -60 3 -5 11 -10 17 -10 19 0 -43 60 -107 102 -33 22
-73 55 -90 72 -16 17 -37 31 -45 31 -8 0 -16 9 -18 20 -5 26 -21 45 -47 55
-16 7 -16 9 -3 9 9 1 30 -11 47 -25 17 -14 31 -23 31 -19 0 5 -158 185 -180
205 -3 3 -25 45 -49 95 -25 49 -80 136 -122 192 -43 56 -90 126 -105 155 -44
88 -94 159 -153 223 -32 33 -77 95 -101 138 -25 43 -68 105 -97 137 -29 32
-53 63 -53 68 0 5 -7 15 -16 23 -9 7 -28 38 -44 68 -33 66 -124 186 -162 214
-26 19 -26 19 -47 0 l-21 -20 37 -17 c21 -9 49 -26 63 -37 15 -11 1 -7 -34 11
-32 16 -67 30 -79 30 -30 0 -10 -14 41 -29 24 -7 42 -14 40 -16 -1 -2 -34 0
-72 4 -70 7 -70 7 -108 -27 -26 -23 -43 -50 -51 -79 -6 -23 -14 -43 -18 -43
-4 0 -1 19 7 43 10 31 12 50 5 68 -9 23 -10 23 -10 2 -1 -30 -21 -40 -22 -11
0 13 -3 17 -6 10 -7 -18 -23 -4 -24 21 0 21 -1 21 -10 -2 -8 -21 -11 -22 -27
-9 -23 21 -52 31 -84 30 -16 0 -29 -1 -30 -2 -2 -1 -22 -3 -45 -4 -23 -1 -45
-5 -49 -8 -3 -4 -13 -4 -22 -1 -10 4 -13 2 -8 -5 5 -8 0 -12 -13 -12 -12 0
-21 6 -21 13 0 8 -3 9 -8 1 -4 -6 -26 -13 -49 -17 -40 -5 -42 -4 -32 14 5 10
6 19 2 19 -4 0 -13 -11 -19 -24 l-11 -25 66 6 c101 8 321 -33 306 -57 -3 -5
-1 -11 5 -15 5 -3 10 -18 9 -33 0 -15 -3 -21 -6 -14 -2 6 -10 9 -16 5 -7 -4
-26 -8 -42 -10 -44 -2 -54 -6 -101 -29 -30 -16 -45 -19 -53 -11 -8 8 -11 6
-11 -7 0 -13 -5 -16 -20 -11 -12 4 -27 2 -35 -5 -9 -7 -15 -8 -19 -1 -4 7 -15
7 -30 1 -13 -5 -27 -6 -30 -3 -3 4 -12 0 -19 -8 -6 -9 -41 -21 -77 -28 -36 -7
-70 -17 -76 -22 -6 -5 -20 -6 -29 -2 -11 4 -16 2 -12 -4 3 -5 -3 -9 -16 -7
-12 1 -22 3 -22 4 0 1 -19 4 -43 5 -24 2 -49 8 -56 15 -8 6 -18 10 -22 9 -5
-2 -30 8 -56 21 -61 31 -88 79 -64 115 18 27 19 27 221 51 77 9 141 20 143 24
1 4 13 5 26 3 20 -4 24 -1 24 21 0 14 -4 23 -9 20 -5 -3 -9 -12 -9 -20 0 -27
-20 -14 -21 14 -1 20 -2 22 -6 7 -5 -20 -30 -45 -45 -45 -5 0 -8 6 -7 13 5 37
-3 41 -29 11 -32 -36 -81 -54 -78 -27 0 8 -5 18 -12 20 -7 3 -10 -1 -6 -11 3
-9 1 -16 -5 -16 -6 0 -11 5 -11 11 0 6 -7 9 -15 5 -10 -3 -17 3 -21 20 -5 21
-11 25 -30 21 -32 -6 -58 24 -50 57 4 15 1 26 -7 29 -7 3 -8 6 -1 6 6 1 9 11
7 24 -11 57 49 166 83 153 8 -3 15 -2 18 2 8 13 95 5 240 -22 77 -14 141 -24
143 -22 3 2 -49 16 -114 31 -65 15 -130 30 -146 34 -15 3 -27 11 -27 16 0 15
49 13 54 -2 3 -8 18 -11 41 -8 22 3 35 1 35 -6 0 -8 4 -8 13 0 10 8 17 7 25
-1 9 -9 12 -8 12 5 0 14 7 16 48 11 131 -16 160 -13 144 13 -24 37 -340 136
-439 137 l-62 1 -21 90 c-22 95 -68 201 -97 228 -17 15 -18 13 -18 -29 0 -29
-4 -44 -12 -44 -16 0 -17 -22 -1 -38 6 -6 9 -15 5 -19 -4 -3 -14 2 -22 13 -20
26 -20 -2 0 -36 19 -33 19 -46 0 -30 -18 15 -19 7 -4 -19 7 -10 9 -30 5 -46
-8 -32 -13 -30 -20 10 -9 48 -24 91 -26 75 -1 -8 -2 -18 -1 -23 1 -4 -6 -24
-14 -43 -18 -43 -18 -47 -5 -39 6 3 10 1 10 -4 0 -6 -5 -11 -10 -11 -6 0 -8
-11 -4 -25 4 -15 2 -25 -4 -25 -6 0 -12 10 -14 22 -2 12 -10 23 -18 26 -12 4
-13 2 -2 -9 18 -19 15 -34 -5 -18 -12 10 -15 10 -9 1 9 -16 -2 -54 -15 -46 -5
3 -6 11 -3 17 4 7 -4 2 -18 -10 -31 -29 -36 -29 -48 2 -13 34 5 84 44 118 17
15 23 24 13 21 -16 -6 -17 -3 -11 22 3 16 11 34 18 39 6 6 19 26 30 45 10 19
32 52 48 73 28 36 28 37 7 37 -17 0 -19 3 -10 14 9 11 8 15 -5 20 -21 8 -69 8
-77 -1z m-97 -112 c-6 -12 -15 -21 -21 -21 -6 0 -2 14 8 30 19 33 31 24 13 -9z
m290 -31 c6 -11 8 -20 6 -20 -3 0 -10 9 -16 20 -6 11 -8 20 -6 20 3 0 10 -9
16 -20z m-293 -42 c-3 -7 -5 -2 -5 12 0 14 2 19 5 13 2 -7 2 -19 0 -25z m-488
-26 c1 -7 -3 -10 -9 -7 -5 3 -10 18 -9 33 0 24 1 25 9 7 5 -11 9 -26 9 -33z
m51 -93 c0 -5 -4 -9 -10 -9 -5 0 -10 7 -10 16 0 8 5 12 10 9 6 -3 10 -10 10
-16z m-310 -179 c11 -21 20 -45 19 -52 0 -7 -7 1 -15 19 -7 17 -18 34 -24 38
-10 6 -14 35 -5 35 2 0 14 -18 25 -40z m1265 -28 c-3 -3 -11 0 -18 7 -9 10 -8
11 6 5 10 -3 15 -9 12 -12z m-635 -192 c-19 -13 -30 -13 -30 0 0 6 10 10 23
10 18 0 19 -2 7 -10z m-38 -30 c4 -25 1 -30 -16 -30 -17 0 -21 6 -21 30 0 21
5 30 16 30 11 0 18 -11 21 -30z m39 -21 c-21 -9 -29 0 -11 11 13 9 13 10 0 10
-13 0 -13 1 0 10 11 7 17 5 21 -8 4 -11 0 -19 -10 -23z m8 -73 c-12 -10 -59
-15 -59 -6 0 5 14 10 32 10 17 0 29 -2 27 -4z m12 -43 c6 -32 5 -54 -1 -58 -4
-2 -7 1 -7 8 0 7 -3 22 -7 35 -5 13 -3 22 3 22 6 0 12 -3 12 -7z m-37 -39 c-2
-50 -4 -54 -15 -54 -6 0 -9 6 -6 13 2 6 0 23 -5 35 -9 27 -2 45 15 39 7 -2 11
-17 11 -33z m1306 -42 c0 -15 -2 -15 -10 -2 -13 20 -13 33 0 25 6 -3 10 -14
10 -23z m37 -4 c-3 -8 -6 -5 -6 6 -1 11 2 17 5 13 3 -3 4 -12 1 -19z m-2335
-51 c14 -29 49 -78 77 -109 44 -48 49 -57 36 -68 -8 -7 -15 -19 -15 -27 0 -8
-5 -11 -11 -8 -6 4 -13 -2 -16 -14 -3 -12 -12 -20 -21 -19 -8 2 -17 -3 -20
-11 -3 -9 0 -11 7 -6 8 4 11 1 9 -11 -2 -13 6 -21 30 -27 22 -7 32 -16 32 -30
0 -19 1 -19 19 -3 19 17 19 17 18 -27 -1 -25 -6 -45 -12 -44 -5 1 -9 -6 -7
-15 7 -41 -159 -78 -264 -59 -29 6 -49 4 -69 -7 -21 -11 -29 -11 -35 -2 -10
17 -100 26 -100 11 0 -8 -8 -10 -20 -6 -12 4 -20 2 -20 -5 0 -6 -5 -8 -10 -5
-6 4 -8 10 -5 15 9 14 -15 23 -29 11 -9 -8 -25 -3 -60 19 -25 17 -49 36 -52
44 -4 11 -12 13 -28 6 -13 -4 -29 -4 -36 0 -24 15 135 80 238 98 77 12 91 18
80 28 -15 15 -58 8 -58 -10 -1 -6 -7 0 -15 14 -8 14 -14 19 -15 13 0 -9 -11
-11 -35 -8 -23 3 -35 0 -35 -8 0 -9 -2 -9 -8 1 -9 14 -112 24 -112 10 0 -4 -5
-8 -11 -8 -8 0 -7 5 1 15 7 9 10 18 7 22 -4 3 -15 -5 -25 -17 -11 -14 -24 -20
-31 -16 -33 20 191 149 459 265 63 27 120 50 125 50 6 1 23 -23 37 -52z m2543
-69 c14 -6 8 -7 -20 -3 -22 2 -49 5 -60 5 -16 0 -17 2 -5 10 15 9 47 5 85 -12z
m-51 -33 c21 -9 25 -14 13 -14 -10 -1 -27 3 -37 9 -13 7 -26 5 -47 -5 -32 -17
-79 -20 -88 -5 -3 6 2 10 12 10 10 0 29 7 43 14 27 15 54 13 104 -9z m-1627
-89 c-4 -10 -1 -13 9 -9 7 3 14 9 14 13 0 11 33 6 37 -6 1 -5 -9 -22 -22 -39
-21 -26 -25 -27 -31 -11 -6 15 -9 14 -25 -11 -18 -27 -19 -27 -19 -5 0 24 26
82 36 82 4 0 4 -7 1 -14z m1073 -51 c14 -3 31 -18 38 -32 14 -32 16 -57 3 -48
-5 3 -13 -4 -16 -16 -7 -19 -7 -20 -21 -2 -13 17 -15 17 -25 0 -5 -9 -14 -15
-20 -12 -5 4 -9 1 -9 -5 0 -6 -8 -10 -17 -9 -10 2 -28 -3 -41 -9 -12 -7 -27
-10 -32 -7 -6 3 -10 1 -10 -5 0 -8 -6 -8 -20 0 -14 8 -20 8 -20 0 0 -7 -8 -9
-21 -5 -16 5 -19 4 -14 -5 5 -8 3 -11 -6 -8 -8 3 -20 -2 -28 -9 -8 -8 -23 -12
-34 -9 -12 3 -28 0 -36 -7 -12 -9 -13 -9 -7 1 4 6 3 12 -3 12 -5 0 -12 -4 -16
-10 -3 -5 -12 -7 -20 -3 -8 3 -15 0 -15 -7 0 -7 -7 -10 -15 -6 -8 3 -15 0 -15
-6 0 -7 -4 -7 -13 0 -9 7 -26 8 -56 1 -24 -5 -46 -7 -49 -4 -3 2 -11 0 -18 -6
-7 -6 -26 -12 -41 -14 -63 -7 -107 -16 -113 -23 -3 -4 -23 -8 -46 -8 -22 -1
-55 -9 -72 -18 -18 -9 -32 -12 -32 -7 0 5 -9 7 -20 4 -11 -3 -20 -9 -20 -14 0
-5 -7 -9 -16 -9 -8 0 -13 4 -9 9 3 6 -6 7 -23 2 -15 -5 -39 -8 -53 -7 -33 3
-59 -11 -59 -32 0 -15 -2 -15 -10 -2 -9 13 -14 11 -33 -12 -28 -34 -45 -37
-24 -5 12 19 13 26 1 41 -9 13 -10 24 -4 36 5 9 6 27 3 40 -6 22 -7 22 -20 5
-7 -11 -13 -14 -13 -8 0 6 7 16 15 23 8 7 15 18 14 24 -1 6 -1 25 0 41 1 29 4
32 59 43 159 34 502 87 632 99 113 11 409 16 440 8z m87 -25 c-3 -11 2 -27 10
-36 8 -8 13 -17 10 -20 -9 -9 -44 14 -52 33 -16 35 -13 43 12 43 20 0 24 -4
20 -20z m58 2 c-3 -3 -11 0 -18 7 -9 10 -8 11 6 5 10 -3 15 -9 12 -12z m-1205
-13 c0 -6 -4 -7 -10 -4 -5 3 -10 11 -10 16 0 6 5 7 10 4 6 -3 10 -11 10 -16z
m-45 -29 c3 -5 1 -10 -4 -10 -6 0 -11 5 -11 10 0 6 2 10 4 10 3 0 8 -4 11 -10z
m-661 -66 c3 -8 2 -12 -4 -9 -6 3 -10 10 -10 16 0 14 7 11 14 -7z m613 -206
c-2 -18 -4 -6 -4 27 0 33 2 48 4 33 2 -15 2 -42 0 -60z m-437 32 c0 -5 -5 -10
-11 -10 -5 0 -7 5 -4 10 3 6 8 10 11 10 2 0 4 -4 4 -10z m437 -142 c-2 -13 -4
-3 -4 22 0 25 2 35 4 23 2 -13 2 -33 0 -45z m-740 27 c82 -17 180 -52 188 -66
4 -5 17 -9 30 -9 34 0 39 -16 16 -49 -12 -16 -21 -34 -21 -41 0 -7 -7 -10 -15
-6 -8 3 -15 1 -15 -4 0 -6 5 -10 10 -10 6 0 10 -5 10 -11 0 -7 -10 -5 -25 5
-29 19 -33 7 -10 -37 14 -27 11 -57 -6 -57 -4 0 -19 11 -33 25 -14 14 -27 21
-30 17 -7 -12 -36 -8 -63 6 -12 7 -28 9 -36 6 -9 -3 -25 0 -37 6 -12 6 -40 14
-63 16 -62 7 -71 9 -83 16 -26 17 -97 35 -114 31 -11 -3 -20 -1 -20 5 0 6 -15
10 -32 10 -54 -1 -112 14 -130 34 -9 10 -19 15 -22 9 -8 -12 -46 -2 -46 13 0
6 17 30 38 53 33 39 43 44 102 52 89 13 319 6 407 -14z m1781 -7 c7 -1 12 -16
12 -35 l0 -33 -26 17 c-23 15 -28 15 -38 2 -6 -8 -22 -13 -35 -11 -15 2 -30
-3 -36 -12 -7 -9 -28 -17 -49 -18 -20 -2 -36 -7 -36 -12 0 -4 -7 -6 -15 -2 -8
3 -15 2 -15 -3 0 -4 -12 -9 -27 -10 -68 -4 -78 -7 -86 -19 -5 -8 -17 -10 -29
-6 -15 4 -18 3 -13 -7 6 -9 3 -11 -9 -6 -10 4 -23 -1 -33 -13 -9 -10 -20 -17
-24 -14 -5 2 -25 -3 -46 -12 -21 -10 -40 -18 -43 -18 -3 -1 -10 -5 -17 -9 -6
-4 -23 -3 -38 3 -17 7 -24 7 -20 0 3 -6 3 -10 -2 -11 -4 0 -28 -3 -53 -6 -25
-3 -62 -6 -82 -6 -21 -1 -38 -4 -38 -7 0 -3 -10 -7 -22 -7 -13 -1 -24 -7 -26
-12 -2 -7 -8 -6 -17 2 -7 7 -11 15 -8 20 2 4 1 7 -4 7 -4 0 -17 -13 -28 -29
-14 -22 -23 -27 -32 -19 -9 7 -13 7 -13 0 0 -6 -6 -9 -14 -6 -9 3 -17 -5 -24
-23 l-9 -28 -10 35 c-6 20 -6 39 -2 44 12 13 11 53 -1 61 -5 3 -7 11 -4 18 2
7 -2 21 -10 32 -14 19 -15 18 -12 -17 1 -21 -1 -38 -6 -38 -4 0 -8 12 -8 28 0
15 -3 44 -6 65 -4 23 -3 37 4 37 6 0 13 -12 15 -27 4 -27 4 -27 6 3 1 27 5 31
30 32 15 0 55 5 87 11 32 5 82 13 109 16 28 3 109 16 180 27 187 31 468 38
623 16z m-2309 -32 c-23 -26 -35 -33 -40 -24 -6 9 -13 8 -28 -6 -34 -31 -24
-2 12 31 27 26 72 45 85 37 2 -2 -11 -19 -29 -38z m2351 24 c0 -5 -4 -10 -10
-10 -5 0 -10 5 -10 10 0 6 5 10 10 10 6 0 10 -4 10 -10z m-2415 -10 c-3 -5
-13 -10 -21 -10 -8 0 -12 5 -9 10 3 6 13 10 21 10 8 0 12 -4 9 -10z m1375 -21
c0 -5 -6 -9 -14 -9 -8 0 -14 9 -13 19 1 15 4 17 14 9 7 -6 13 -14 13 -19z
m-35 -19 c3 -5 -1 -10 -10 -10 -9 0 -13 5 -10 10 3 6 8 10 10 10 2 0 7 -4 10
-10z m-476 -68 c-17 -40 -49 -89 -38 -57 32 88 44 113 50 109 5 -2 -1 -26 -12
-52z m438 -29 c-3 -10 -5 -4 -5 12 0 17 2 24 5 18 2 -7 2 -21 0 -30z m-1687
-41 c0 -7 -4 -10 -10 -7 -5 3 -10 16 -10 28 0 18 2 19 10 7 5 -8 10 -21 10
-28z m1201 -29 c-12 -20 -14 -14 -5 12 4 9 9 14 11 11 3 -2 0 -13 -6 -23z
m526 -35 c-3 -7 -5 -2 -5 12 0 14 2 19 5 13 2 -7 2 -19 0 -25z m-587 -135
c-13 -32 -46 -105 -73 -163 -27 -58 -58 -125 -69 -149 -10 -24 -21 -42 -23
-39 -6 6 39 114 113 268 27 58 53 115 57 128 4 13 9 21 12 18 3 -3 -5 -31 -17
-63z m-317 22 c26 -4 49 -11 52 -15 3 -5 43 -20 90 -35 88 -27 103 -43 65 -67
-11 -7 -20 -18 -20 -25 0 -7 -5 -13 -12 -13 -6 0 -9 -3 -5 -6 3 -3 -8 -18 -25
-32 -32 -27 -106 -39 -119 -19 -4 5 -17 11 -30 13 -13 2 -44 8 -69 14 -25 6
-58 12 -74 15 -16 2 -39 13 -50 24 -12 11 -37 23 -56 26 -19 3 -43 8 -53 11
-12 4 -29 -3 -44 -18 l-26 -23 23 32 c28 39 21 52 -14 29 -24 -15 -25 -15 -19
1 3 10 11 24 17 32 9 12 8 12 -11 2 -13 -6 -23 -9 -23 -5 0 4 -12 -3 -26 -17
l-27 -24 13 25 c7 14 22 33 34 42 25 21 61 24 50 6 -5 -8 -1 -7 10 2 39 31
221 44 349 25z m3592 -15 c4 -6 -5 -7 -23 -4 -21 4 -31 2 -35 -9 -7 -20 -69
-32 -93 -19 -14 8 -10 12 27 25 51 18 115 22 124 7z m-4035 -29 c-5 -11 -15
-23 -21 -27 -6 -3 -3 5 6 20 20 30 30 35 15 7z m1976 -20 c3 5 14 4 25 -1 11
-6 24 -8 30 -4 6 4 16 0 21 -7 7 -11 11 -11 15 -1 7 17 42 15 49 -3 4 -8 10
-15 16 -15 5 0 7 4 3 9 -11 18 14 21 31 4 17 -17 17 -18 0 -21 -14 -3 -17 -11
-14 -32 2 -16 1 -27 -3 -24 -4 2 -12 -4 -18 -13 -9 -17 -10 -17 -16 0 -4 9 -5
24 -1 32 3 8 1 15 -4 15 -6 0 -11 -4 -11 -10 -5 -38 -14 -46 -53 -45 -20 1
-36 -3 -36 -8 0 -5 -7 -7 -15 -3 -8 3 -15 1 -15 -4 0 -14 -34 -12 -48 2 -9 9
-12 8 -12 -4 0 -9 -8 -17 -17 -17 -45 -2 -63 -6 -63 -13 0 -4 -16 -10 -35 -14
-19 -3 -39 -13 -44 -22 -8 -14 -12 -14 -36 2 -15 10 -25 13 -21 8 4 -7 -7 -9
-30 -8 -19 2 -41 -2 -48 -9 -6 -7 -27 -11 -45 -10 -25 2 -41 -4 -58 -21 -15
-15 -36 -24 -55 -24 -17 0 -28 -3 -25 -7 4 -3 -2 -13 -14 -21 -11 -8 -18 -20
-15 -28 3 -8 -1 -14 -10 -14 -15 0 -16 41 -2 56 4 3 2 17 -5 31 -8 19 -8 26 2
33 11 6 11 8 0 13 -11 4 -12 7 -1 18 14 15 16 43 2 34 -6 -3 -10 5 -10 19 0
13 -4 36 -10 50 -10 27 -3 31 48 29 7 -1 43 3 80 7 37 5 101 11 142 15 41 4
77 8 80 10 3 2 39 6 80 10 41 4 76 8 78 10 1 1 21 -1 42 -5 22 -4 43 -3 46 1z
m-1945 -24 c-10 -9 -11 -8 -5 6 3 10 9 15 12 12 3 -3 0 -11 -7 -18z m2149 -42
c0 -8 -2 -15 -4 -15 -2 0 -6 7 -10 15 -3 8 -1 15 4 15 6 0 10 -7 10 -15z
m-815 -85 c3 -5 1 -10 -4 -10 -6 0 -11 5 -11 10 0 6 2 10 4 10 3 0 8 -4 11
-10z m2815 5 c0 -3 -17 -12 -37 -20 -27 -11 -34 -18 -25 -24 9 -5 -2 -10 -30
-14 -24 -3 -53 -9 -63 -12 -11 -4 0 5 25 20 25 15 63 33 85 40 22 7 41 13 43
14 1 1 2 -1 2 -4z m-4610 -163 c0 -4 -5 -13 -12 -20 -8 -8 -9 -12 -1 -12 6 0
13 5 15 12 3 8 13 5 28 -10 14 -12 30 -20 37 -18 16 7 17 -16 1 -32 -8 -8 -2
-10 26 -5 30 5 40 2 56 -17 24 -28 26 -50 4 -50 -9 0 -12 5 -8 12 5 8 2 9 -12
3 -32 -14 -88 -11 -106 5 -9 8 -31 26 -48 40 -17 14 -28 30 -25 38 4 11 -5 13
-45 7 -27 -4 -50 -3 -50 2 0 4 28 18 63 29 73 26 77 26 77 16z m4675 -9 c-38
-8 -83 -25 -100 -37 -16 -13 -50 -33 -75 -46 l-45 -22 30 32 c17 17 46 40 65
50 19 11 28 20 20 20 -10 1 -9 4 5 10 11 5 54 9 95 8 l75 0 -70 -15z m-3699
-121 c-25 -56 -54 -115 -65 -131 -12 -16 -21 -32 -21 -35 0 -6 -48 -78 -57
-86 -4 -3 13 31 37 75 65 119 140 272 141 287 0 7 3 8 5 2 2 -5 -16 -56 -40
-112z m-258 77 c6 -2 12 -7 12 -12 0 -5 7 -3 17 4 12 10 17 11 20 2 2 -7 11
-9 19 -6 18 7 132 -16 140 -28 2 -5 -4 -17 -16 -29 -11 -11 -20 -27 -20 -35 0
-9 -9 -26 -20 -37 -14 -15 -19 -32 -16 -55 3 -28 -2 -37 -30 -58 -25 -19 -34
-22 -34 -11 0 8 -9 18 -21 21 -12 4 -18 12 -15 21 3 8 -6 20 -24 29 -17 9 -30
20 -30 26 0 8 -4 8 -14 0 -12 -10 -23 -9 -66 6 -34 13 -47 15 -82 15 -21 0
-38 3 -38 8 0 10 -33 8 -41 -3 -3 -5 -9 -2 -12 7 -7 18 75 132 101 140 14 4
130 0 170 -5z m-228 -13 c0 -2 -8 -10 -17 -17 -16 -13 -17 -12 -4 4 13 16 21
21 21 13z m-107 -66 c-3 -12 -8 -19 -11 -16 -5 6 5 36 12 36 2 0 2 -9 -1 -20z
m4325 8 c-3 -7 -20 -14 -39 -14 -19 -1 -64 -14 -101 -28 -45 -17 -67 -22 -65
-13 1 7 -7 11 -22 9 -49 -5 -8 13 77 34 101 26 156 30 150 12z m-4488 -8 c0
-5 -4 -10 -9 -10 -6 0 -13 5 -16 10 -3 6 1 10 9 10 9 0 16 -4 16 -10z m1882
-24 c3 2 58 6 122 9 87 4 127 1 161 -10 24 -9 60 -16 80 -17 40 -1 52 -12 36
-32 -7 -8 -10 -19 -9 -26 4 -14 -21 -21 -79 -22 -24 0 -43 -4 -43 -8 0 -4 -11
-6 -25 -5 -14 2 -27 -1 -31 -6 -3 -5 -13 -5 -24 1 -12 7 -20 6 -22 -1 -2 -5
-30 -14 -63 -20 -105 -17 -116 -19 -125 -24 -5 -3 -10 1 -13 7 -3 10 -7 10
-17 1 -7 -6 -19 -9 -26 -6 -8 3 -14 0 -14 -6 0 -8 -11 -10 -34 -6 -27 6 -39 2
-55 -14 -12 -12 -29 -21 -38 -21 -17 1 -17 1 0 11 21 13 23 31 1 22 -9 -3 -20
-15 -24 -27 -9 -20 -9 -20 -9 2 -1 13 8 35 19 50 15 18 17 28 9 33 -6 4 -8 12
-5 18 4 6 1 11 -8 11 -21 0 -31 21 -15 31 11 7 11 9 -3 9 -20 0 -20 37 0 45 7
2 10 0 7 -5 -3 -6 -1 -10 4 -10 6 0 11 4 11 8 0 5 39 9 86 8 47 -1 91 2 97 6
6 4 18 3 28 -2 9 -5 19 -7 21 -4z m2543 -26 c-3 -5 -11 -10 -16 -10 -6 0 -7 5
-4 10 3 6 11 10 16 10 6 0 7 -4 4 -10z m-160 -10 c3 -5 1 -10 -4 -10 -6 0 -11
5 -11 10 0 6 2 10 4 10 3 0 8 -4 11 -10z m-4625 -50 c-14 -10 -33 -26 -42 -34
-14 -13 -17 -13 -22 1 -15 38 -3 47 69 51 18 1 18 -1 -5 -18z m3380 10 c0 -5
-5 -10 -11 -10 -5 0 -7 5 -4 10 3 6 8 10 11 10 2 0 4 -4 4 -10z m1376 -5 c18
-9 23 -15 12 -15 -9 0 -53 -16 -97 -35 -45 -19 -81 -32 -81 -30 0 6 126 65
139 65 18 0 13 18 -6 23 -10 3 -13 5 -7 6 7 0 25 -6 40 -14z m-257 -61 c-50
-51 -62 -57 -25 -13 14 17 26 35 26 40 0 5 6 8 13 7 6 -2 11 3 9 10 -1 8 2 11
9 7 7 -5 -5 -23 -32 -51z m491 46 c18 -12 2 -12 -25 0 -13 6 -15 9 -5 9 8 0
22 -4 30 -9z m-93 -6 c-3 -3 -12 -4 -19 -1 -8 3 -5 6 6 6 11 1 17 -2 13 -5z
m149 -20 c18 -14 18 -14 -6 -3 -31 14 -36 19 -24 19 6 0 19 -7 30 -16z m17
-55 c40 -39 40 -40 4 -10 -21 18 -49 31 -65 31 -21 0 -24 2 -12 10 23 15 28
13 73 -31z m-167 9 c-20 -7 -24 -13 -15 -18 19 -12 20 -40 1 -48 -19 -7 -42
-27 -42 -37 0 -3 6 -5 13 -4 22 2 58 -13 54 -25 -2 -7 -40 -11 -109 -11 -78 0
-109 -4 -123 -15 -17 -14 -14 -16 36 -22 30 -3 81 -7 114 -7 33 -1 74 -8 90
-15 l30 -14 -28 -11 c-16 -6 -25 -16 -22 -22 4 -6 13 -8 19 -6 7 3 19 1 27 -3
10 -7 7 -11 -14 -19 -16 -6 -33 -11 -38 -11 -5 0 -15 -12 -21 -26 -8 -17 -18
-24 -30 -21 -10 3 -18 2 -18 -2 0 -5 -14 -12 -32 -17 -17 -5 -34 -16 -36 -24
-4 -12 -2 -13 9 -3 10 8 20 9 29 3 12 -8 11 -10 -5 -11 -11 -1 -35 -1 -54 1
-19 1 -73 -6 -119 -17 -89 -19 -88 -18 -159 -111 -18 -23 -18 -23 -21 32 -2
33 3 69 13 91 23 58 82 132 123 156 42 25 102 79 102 91 0 17 -26 6 -101 -41
-49 -31 -79 -45 -82 -38 -3 9 -8 8 -20 -2 -20 -16 -47 -8 -47 15 0 9 15 30 33
46 30 29 30 30 7 23 -14 -4 -28 -13 -32 -19 -5 -7 -8 -7 -8 0 0 5 7 19 16 30
8 10 13 13 9 7 -9 -18 1 -16 54 11 25 13 75 37 111 54 36 16 76 39 89 51 21
19 35 21 125 20 82 0 96 -3 72 -11z m-321 -7 c-3 -5 3 -12 12 -14 12 -3 8 -5
-9 -6 -14 0 -41 -13 -60 -27 -19 -15 -15 -9 11 15 42 40 58 51 46 32z m-3700
-161 c17 -19 17 -20 -15 -37 -18 -10 -48 -28 -67 -40 -18 -13 -39 -23 -45 -23
-6 0 -8 -9 -5 -20 5 -21 -9 -28 -15 -8 -4 10 -10 10 -32 0 -25 -11 -28 -10
-37 17 -7 20 -15 28 -25 24 -17 -6 -18 11 -2 37 17 26 4 36 -28 21 -23 -10
-26 -9 -21 4 4 8 1 15 -6 15 -7 0 -3 7 7 15 15 11 51 15 146 15 114 0 129 -2
145 -20z m-685 -15 c-26 -14 -109 -32 -100 -22 15 16 69 37 95 37 l30 -1 -25
-14z m110 -45 c10 -7 -6 -9 -55 -9 -53 1 -63 3 -40 9 44 11 78 11 95 0z m2080
-52 c0 -10 2 -10 8 -1 5 7 13 9 21 3 8 -4 20 -6 28 -3 8 3 13 -2 13 -14 0 -29
11 -35 26 -15 12 15 13 15 14 -8 0 -20 2 -22 10 -10 8 13 10 12 10 -3 0 -14
-5 -17 -22 -12 -16 6 -20 4 -16 -7 7 -17 -45 -43 -68 -34 -8 3 -12 2 -9 -4 6
-9 -33 -35 -41 -27 -3 3 -21 1 -40 -3 -24 -6 -44 -4 -65 7 -16 8 -37 12 -45 9
-15 -6 -59 21 -56 33 1 3 -7 6 -17 6 -11 0 -23 3 -27 8 -4 4 1 7 12 7 15 0 16
2 5 9 -10 7 -4 15 25 35 25 17 40 22 45 15 5 -8 8 -8 13 0 4 6 35 9 77 7 38
-1 72 1 75 6 8 12 24 10 24 -4z m-350 -2 c0 -2 -7 -7 -16 -10 -8 -3 -12 -2 -9
4 6 10 25 14 25 6z m30 -41 c-18 -19 -37 -32 -42 -29 -14 9 -9 22 13 27 15 4
20 11 15 23 -4 12 -2 15 9 11 8 -4 17 -2 21 4 3 6 9 8 12 5 3 -4 -9 -22 -28
-41z m3028 35 c4 0 13 -10 21 -22 13 -22 13 -22 -5 -7 -10 9 -28 22 -39 28
-17 10 -17 12 -2 7 10 -3 22 -6 25 -6z m-4853 -28 c-60 -27 -255 -57 -255 -40
0 4 19 8 43 8 23 0 83 11 132 24 109 29 133 31 80 8z m565 -27 c-13 -15 -30
-12 -30 6 0 6 4 8 9 4 5 -3 13 0 16 6 4 5 9 8 12 5 3 -3 0 -12 -7 -21z m-990
5 l25 -8 -25 -1 c-14 0 -32 4 -40 9 -13 9 -13 10 0 9 8 -1 26 -5 40 -9z m77
-16 c-3 -3 -12 -4 -19 -1 -8 3 -5 6 6 6 11 1 17 -2 13 -5z m3587 -16 c9 -12
16 -32 15 -43 0 -17 -2 -17 -10 5 -6 13 -17 33 -26 42 -9 10 -11 18 -5 18 6 0
18 -10 26 -22z m45 -87 c-1 -31 -4 -45 -6 -31 -2 14 -8 47 -13 75 -7 44 -6 47
6 30 9 -11 13 -40 13 -74z m1346 33 c44 -3 87 -11 95 -16 11 -7 8 -8 -11 -5
-21 3 -25 0 -21 -15 2 -10 0 -18 -6 -18 -5 0 -12 -10 -16 -23 -3 -13 -16 -35
-29 -49 l-24 -26 34 -7 c28 -5 32 -9 23 -20 -13 -16 -39 -13 -104 11 -42 16
-106 12 -166 -10 -19 -7 -50 -18 -69 -24 -33 -11 -33 -11 -15 9 10 11 24 17
31 14 8 -2 26 7 41 21 l27 26 -25 -6 c-14 -4 -36 -8 -50 -9 -35 -4 -118 -65
-137 -101 -11 -21 -18 -25 -26 -17 -8 8 -5 16 11 31 12 12 22 24 23 28 8 81
47 165 87 186 33 17 169 36 217 31 17 -2 66 -7 110 -11z m-3958 -105 c-8 -5
-22 -6 -31 -3 -27 11 -17 21 15 16 24 -4 28 -7 16 -13z m4163 -10 c0 -6 -5 -7
-12 -3 -7 4 -8 3 -4 -5 4 -6 11 -9 16 -6 13 8 61 -71 67 -111 3 -19 10 -37 14
-40 5 -3 9 -10 9 -16 0 -6 -14 8 -30 31 -17 23 -35 39 -39 36 -5 -2 -15 3 -22
13 -12 15 -12 16 2 4 14 -10 18 -10 23 4 5 12 -4 29 -28 53 -26 27 -31 39 -23
47 13 13 27 9 27 -7z m-4400 -39 c15 -12 20 -20 11 -20 -8 0 -23 7 -33 17 -10
9 -18 11 -18 5 0 -6 7 -15 15 -20 17 -9 10 -42 -9 -42 -6 0 -31 -18 -56 -41
-25 -22 -34 -33 -20 -25 39 25 60 19 26 -8 -18 -15 -24 -25 -16 -28 9 -3 4
-13 -14 -32 -14 -16 -26 -35 -26 -43 0 -12 -58 -103 -65 -103 -1 0 6 30 17 68
10 37 30 107 43 156 26 96 32 107 44 87 5 -8 11 -9 15 -3 3 6 1 12 -6 14 -12
4 36 35 57 37 6 0 21 -8 35 -19z m268 13 c-10 -2 -28 -2 -40 0 -13 2 -5 4 17
4 22 1 32 -1 23 -4z m3992 -53 c0 -5 -4 -10 -10 -10 -5 0 -10 5 -10 10 0 6 5
10 10 10 6 0 10 -4 10 -10z m-205 -20 c-16 -4 -52 -8 -80 -7 l-50 0 40 7 c22
4 58 7 80 7 38 1 38 0 10 -7z m119 -21 c15 -12 25 -28 22 -35 -3 -8 -1 -14 4
-14 5 0 7 -27 5 -60 -3 -48 0 -68 16 -95 19 -32 20 -36 4 -57 -16 -23 -16 -23
-10 12 5 28 2 39 -14 54 -27 24 -30 20 -38 -43 -4 -35 -2 -51 6 -51 6 0 11 -9
11 -20 0 -16 -7 -13 -37 20 -20 23 -42 39 -49 36 -7 -3 -15 2 -18 10 -8 21
-34 17 -47 -7 l-11 -21 -22 21 c-12 12 -28 21 -35 21 -7 0 -24 14 -38 30 -26
32 -46 40 -37 15 4 -9 0 -15 -10 -15 -9 0 -16 -5 -16 -11 0 -6 8 -8 18 -5 12
4 23 -5 39 -34 12 -22 17 -40 11 -40 -6 0 -44 16 -85 36 -42 21 -82 34 -93 31
-11 -3 -18 -1 -14 4 3 5 7 18 9 29 2 11 13 34 25 50 13 18 17 30 9 30 -8 0 -8
4 2 16 20 24 58 40 129 53 156 29 222 46 198 52 -20 6 -19 7 8 8 18 1 43 -8
58 -20z m-289 1 c-3 -5 -11 -10 -16 -10 -6 0 -7 5 -4 10 3 6 11 10 16 10 6 0
7 -4 4 -10z m365 0 c12 -8 12 -10 -5 -9 -11 0 -29 4 -40 9 -18 8 -18 9 5 9 14
0 32 -4 40 -9z m-4654 -42 c-27 -36 -62 -68 -73 -68 -4 0 15 23 42 50 57 58
66 63 31 18z m2014 -27 c64 8 133 -2 145 -21 3 -5 13 -6 23 -3 15 5 14 3 -3
-16 -13 -15 -27 -21 -42 -18 -13 2 -20 0 -16 -6 4 -6 -4 -8 -21 -5 -14 3 -26
2 -26 -3 0 -4 -15 -11 -32 -14 -18 -4 -37 -10 -43 -13 -31 -19 -156 -23 -161
-5 -2 7 -7 21 -11 31 -3 9 -5 21 -4 26 1 5 -3 12 -10 16 -6 4 -8 13 -4 20 6 9
9 9 15 -1 7 -10 11 -10 24 0 9 8 16 11 16 8 0 -3 12 -2 28 2 15 5 34 5 42 1 8
-4 44 -4 80 1z m1034 -47 c5 -14 4 -15 -9 -4 -17 14 -19 20 -6 20 5 0 12 -7
15 -16z m75 -38 c-3 -3 -11 5 -18 17 -13 21 -12 21 5 5 10 -10 16 -20 13 -22z
m214 -8 c14 -18 27 -49 31 -68 l5 -35 -17 37 c-9 21 -22 38 -27 38 -6 0 -16
14 -22 30 -15 39 0 38 30 -2z m1544 -45 c-3 -10 -5 -4 -5 12 0 17 2 24 5 18 2
-7 2 -21 0 -30z m-737 -42 c0 -5 -12 -16 -26 -26 l-27 -17 19 26 c19 26 34 33
34 17z m52 -42 c21 -17 37 -34 34 -37 -3 -3 -12 1 -20 7 -8 7 -19 10 -25 7
-13 -9 -55 29 -47 42 10 17 13 16 58 -19z m-3997 -19 c0 -8 -12 -17 -27 -21
-27 -7 -27 -7 -11 17 16 26 38 28 38 4z m-516 -34 c-2 -20 -2 -20 -6 2 -4 22
-23 32 -23 11 0 -5 -4 -8 -9 -4 -5 3 -12 1 -16 -5 -8 -13 -25 -13 -25 -1 0 6
12 16 28 24 32 16 53 5 51 -27z m4796 24 c3 -5 3 -10 -2 -11 -212 -15 -235
-18 -259 -34 -15 -9 -23 -12 -19 -5 9 15 68 41 115 50 53 12 158 11 165 0z
m-360 -10 c3 -5 15 -10 26 -10 10 0 19 -5 19 -11 0 -8 -12 -9 -37 -4 -44 8
-47 10 -38 24 8 14 22 14 30 1z m-4550 -40 c-3 -5 -12 -10 -18 -10 -7 0 -6 4
3 10 19 12 23 12 15 0z m4555 -10 c13 -8 13 -10 -2 -10 -9 0 -20 5 -23 10 -8
13 5 13 25 0z m-4600 -10 c0 -5 -5 -10 -11 -10 -5 0 -7 5 -4 10 3 6 8 10 11
10 2 0 4 -4 4 -10z m760 -4 c0 -3 -4 -8 -10 -11 -5 -3 -10 -1 -10 4 0 6 5 11
10 11 6 0 10 -2 10 -4z m-780 -27 c12 -8 11 -9 -5 -5 -11 3 -33 -1 -49 -9 -42
-22 -57 -17 -16 5 41 22 50 23 70 9z m760 -7 c0 -5 -7 -17 -15 -28 -14 -18
-14 -17 -4 9 12 27 19 34 19 19z m-1415 -42 c3 -5 1 -10 -4 -10 -6 0 -11 5
-11 10 0 6 2 10 4 10 3 0 8 -4 11 -10z m1378 -30 c-6 -23 -33 -49 -33 -31 0 6
4 11 9 11 5 0 11 9 14 20 3 11 7 20 10 20 3 0 3 -9 0 -20z m-1103 -5 c7 -8 8
-15 2 -15 -5 0 -15 7 -22 15 -7 8 -8 15 -2 15 5 0 15 -7 22 -15z m160 -19 c0
-2 -7 -7 -16 -10 -8 -3 -12 -2 -9 4 6 10 25 14 25 6z m3019 -20 c9 -10 8 -15
-4 -20 -10 -4 -15 1 -15 14 0 24 4 25 19 6z m-166 -37 c-7 -24 -17 -31 -36
-23 -16 6 -13 27 6 52 14 18 36 -3 30 -29z m127 23 c0 -18 -38 -57 -47 -49 -7
8 26 67 37 67 6 0 10 -8 10 -18z m-3044 -1 c-6 -9 -46 -22 -46 -15 0 3 10 9
23 14 29 11 29 11 23 1z m2854 1 c0 -5 -9 -17 -20 -27 -16 -14 -20 -15 -20 -4
0 16 19 39 32 39 4 0 8 -4 8 -8z m140 4 c0 -3 -4 -8 -10 -11 -5 -3 -10 -1 -10
4 0 6 5 11 10 11 6 0 10 -2 10 -4z m-3731 -20 c30 -16 59 -46 44 -46 -5 0 -15
6 -23 13 -15 13 10 -31 45 -78 30 -42 41 -65 15 -35 -40 48 -121 160 -115 160
3 0 18 -6 34 -14z m477 -22 l39 -35 -42 22 c-23 12 -44 28 -47 36 -9 23 9 14
50 -23z m1234 32 c0 -3 -4 -8 -10 -11 -5 -3 -10 -1 -10 4 0 6 5 11 10 11 6 0
10 -2 10 -4z m3224 -12 c3 -8 2 -12 -4 -9 -6 3 -10 10 -10 16 0 14 7 11 14 -7z
m-1244 -9 c0 -8 -7 -15 -15 -15 -16 0 -20 12 -8 23 11 12 23 8 23 -8z m1148
-16 c-3 -8 -7 -3 -11 10 -4 17 -3 21 5 13 5 -5 8 -16 6 -23z m52 11 c6 -11 8
-20 6 -20 -3 0 -10 9 -16 20 -6 11 -8 20 -6 20 3 0 10 -9 16 -20z m-4766 -26
c3 -8 2 -12 -4 -9 -6 3 -10 10 -10 16 0 14 7 11 14 -7z m4836 -19 c0 -5 -5 -3
-10 5 -5 8 -10 20 -10 25 0 6 5 3 10 -5 5 -8 10 -19 10 -25z m-4360 11 c-8 -8
-28 -18 -45 -21 -26 -5 -25 -4 10 14 49 24 53 25 35 7z m-992 -45 c-13 -16
-30 -32 -38 -36 -8 -3 1 10 19 29 42 44 51 46 19 7z m482 -3 c15 -21 17 -28 6
-19 -16 13 -41 51 -33 51 2 0 14 -15 27 -32z m4820 2 c0 -11 -2 -20 -4 -20 -2
0 -6 9 -9 20 -3 11 -1 20 4 20 5 0 9 -9 9 -20z m-4705 -12 c29 -13 33 -28 7
-28 -9 0 -23 9 -30 20 -14 23 -12 24 23 8z m-151 -86 c-5 -9 -33 14 -43 36
l-12 27 28 -30 c16 -16 28 -31 27 -33z m77 41 c13 -16 12 -17 -3 -4 -10 7 -18
15 -18 17 0 8 8 3 21 -13z m-428 0 c-7 -2 -19 -2 -25 0 -7 3 -2 5 12 5 14 0
19 -2 13 -5z m643 -10 c-7 -13 -174 -93 -192 -93 -11 0 177 99 189 100 5 0 6
-3 3 -7z m-164 -56 c-2 -5 -10 0 -18 10 -20 26 -17 36 4 16 11 -10 17 -22 14
-26z m-88 -17 c-21 -8 -37 -3 -29 10 3 4 15 6 27 2 21 -5 21 -6 2 -12z m1506
16 c0 -3 -4 -8 -10 -11 -5 -3 -10 -1 -10 4 0 6 5 11 10 11 6 0 10 -2 10 -4z
m2350 -216 c0 -13 -7 -20 -20 -20 -31 0 -18 29 18 39 1 1 2 -8 2 -19z m999
-22 c6 -18 7 -28 2 -23 -10 12 -25 55 -18 55 3 0 10 -15 16 -32z m25 -3 c5
-22 4 -26 -4 -15 -5 8 -10 24 -10 34 0 26 6 18 14 -19z m-994 5 c0 -5 -4 -10
-10 -10 -5 0 -10 5 -10 10 0 6 5 10 10 10 6 0 10 -4 10 -10z m-2539 -73 c-10
-9 -11 -8 -5 6 3 10 9 15 12 12 3 -3 0 -11 -7 -18z"/>
<path d="M3355 4820 c-18 -8 -17 -9 8 -9 15 -1 27 4 27 9 0 12 -8 12 -35 0z"/>
<path d="M7084 3135 c-74 -48 -75 -46 11 -40 102 7 268 36 258 46 -4 4 -60 9
-123 11 -103 4 -118 2 -146 -17z"/>
<path d="M7005 3070 c-3 -5 1 -10 9 -10 8 0 18 5 21 10 3 6 -1 10 -9 10 -8 0
-18 -4 -21 -10z"/>
<path d="M7290 2626 c0 -2 7 -9 15 -16 9 -7 15 -8 15 -2 0 5 -7 12 -15 16 -8
3 -15 4 -15 2z"/>
<path d="M7250 2501 c0 -5 7 -14 15 -21 16 -14 18 -10 9 14 -6 17 -24 22 -24
7z"/>
<path d="M7212 2480 c0 -14 2 -19 5 -12 2 6 2 18 0 25 -3 6 -5 1 -5 -13z"/>
<path d="M4860 5815 c0 -8 5 -15 10 -15 6 0 10 7 10 15 0 8 -4 15 -10 15 -5 0
-10 -7 -10 -15z"/>
<path d="M5551 5496 c12 -10 99 -34 99 -27 0 5 -20 14 -44 20 -46 11 -62 14
-55 7z"/>
<path d="M5933 5469 c-12 -12 -2 -61 17 -85 7 -7 9 -18 5 -24 -4 -6 -1 -17 5
-25 19 -23 2 -18 -33 9 -33 25 -203 109 -246 121 -15 5 -21 3 -17 -3 3 -5 18
-13 32 -16 44 -11 115 -47 198 -100 55 -35 81 -46 84 -37 12 35 65 79 108 90
45 12 46 13 26 27 -48 33 -161 61 -179 43z"/>
<path d="M5430 5260 c-8 -15 -8 -20 3 -20 7 0 13 9 14 20 1 11 0 20 -2 20 -2
0 -9 -9 -15 -20z"/>
<path d="M5235 5240 c3 -5 8 -10 11 -10 2 0 4 5 4 10 0 6 -5 10 -11 10 -5 0
-7 -4 -4 -10z"/>
<path d="M7296 3807 c3 -10 9 -15 12 -12 3 3 0 11 -7 18 -10 9 -11 8 -5 -6z"/>
<path d="M1990 2735 c-8 -9 -8 -15 -2 -15 12 0 26 19 19 26 -2 2 -10 -2 -17
-11z"/>
<path d="M2240 2651 c62 -38 200 -81 200 -61 0 12 -48 40 -69 40 -11 0 -51 11
-89 25 -89 32 -98 31 -42 -4z"/>
<path d="M1545 2430 c3 -5 15 -10 25 -10 10 0 26 -7 34 -16 14 -14 16 -14 16
0 0 8 -9 20 -19 26 -25 13 -64 13 -56 0z"/>
<path d="M1465 2400 c-3 -5 -1 -10 4 -10 6 0 11 5 11 10 0 6 -2 10 -4 10 -3 0
-8 -4 -11 -10z"/>
<path d="M1319 2343 c-21 -3 -25 -8 -21 -28 2 -13 11 -26 19 -29 11 -5 13 -2
9 10 -6 15 -4 15 19 0 15 -10 33 -16 41 -14 11 2 8 10 -13 34 -21 22 -35 29
-54 27z"/>
<path d="M1135 2261 c-6 -11 9 -23 19 -14 9 9 7 23 -3 23 -6 0 -12 -4 -16 -9z"/>
</g>
</svg>
