<?xml version="1.0" standalone="no"?>
<!DOCTYPE svg PUBLIC "-//W3C//DTD SVG 20010904//EN"
 "http://www.w3.org/TR/2001/REC-SVG-20010904/DTD/svg10.dtd">
<svg version="1.0" xmlns="http://www.w3.org/2000/svg"
 width="650.000000pt" height="650.000000pt" viewBox="0 0 650.000000 650.000000"
 preserveAspectRatio="xMidYMid meet">

<g transform="translate(0.000000,650.000000) scale(0.100000,-0.100000)"
fill="#000000" stroke="none">
<path d="M4651 6072 c-1 -7 -5 -10 -11 -7 -5 3 -10 2 -10 -4 0 -5 5 -13 10
-16 16 -10 12 -35 -5 -29 -8 4 -15 13 -15 21 0 21 -22 11 -31 -14 -7 -19 -4
-21 16 -20 13 1 23 -2 22 -8 -1 -5 -9 -9 -17 -8 -9 1 -16 -6 -17 -18 -1 -11 2
-17 8 -14 5 4 9 1 9 -6 0 -6 9 -1 20 12 16 20 19 21 20 7 0 -9 -4 -20 -10 -23
-18 -11 -11 -21 15 -21 26 0 33 10 15 21 -5 3 -10 14 -10 23 1 14 4 13 20 -7
11 -13 20 -18 20 -12 0 7 4 10 9 6 6 -3 9 3 8 14 -1 13 -8 19 -18 18 -10 -1
-18 3 -18 8 0 6 11 9 24 8 20 -1 23 1 16 20 -9 25 -31 35 -31 14 0 -8 -7 -17
-15 -21 -17 -6 -21 19 -5 29 6 3 10 11 10 16 0 6 -4 8 -9 5 -5 -4 -12 0 -14 6
-4 10 -6 10 -6 0z"/>
<path d="M5173 6040 c-48 -22 -63 -34 -63 -49 0 -25 -2 -25 44 -6 l36 15 2
-167 c3 -166 3 -168 26 -171 l22 -3 0 205 c0 113 -1 206 -2 206 -2 -1 -31 -14
-65 -30z"/>
<path d="M5427 6050 c-35 -27 -47 -76 -47 -185 0 -151 28 -205 107 -205 35 0
49 6 68 26 14 15 25 30 25 33 0 3 4 31 9 62 6 32 6 95 1 145 -7 81 -10 90 -39
116 -38 34 -87 37 -124 8z m100 -47 c26 -40 26 -237 0 -277 -23 -35 -66 -33
-84 4 -16 32 -17 233 -2 263 24 45 60 49 86 10z"/>
<path d="M5681 6044 c-12 -15 -21 -34 -21 -44 0 -10 9 -29 21 -44 40 -50 119
-21 119 44 0 65 -79 94 -119 44z m70 -14 c25 -14 24 -46 -2 -60 -37 -20 -67
28 -37 58 15 15 15 15 39 2z"/>
<path d="M5939 6047 c-49 -33 -71 -99 -65 -203 6 -125 48 -184 132 -184 74 0
109 27 125 97 6 30 5 33 -16 33 -16 0 -26 -10 -38 -40 -17 -44 -51 -59 -96
-44 -41 15 -56 57 -56 159 0 71 4 97 18 118 40 61 113 59 133 -4 9 -25 18 -35
37 -37 24 -3 25 -2 17 35 -19 85 -116 121 -191 70z"/>
<path d="M2293 5849 c-7 -7 -13 -20 -14 -28 0 -11 -2 -12 -6 -3 -7 17 -23 5
-23 -19 0 -10 -4 -19 -10 -19 -5 0 -10 -18 -10 -40 0 -23 -9 -58 -20 -80 -11
-22 -20 -50 -20 -64 0 -14 -5 -28 -10 -31 -6 -4 -8 -10 -5 -14 7 -12 -34 -131
-51 -148 -8 -8 -11 -20 -7 -26 4 -6 0 -8 -10 -4 -12 4 -17 1 -17 -11 0 -13 -2
-14 -9 -3 -10 16 -41 3 -84 -38 -23 -21 -27 -22 -21 -7 6 16 4 18 -10 13 -10
-4 -20 -7 -22 -7 -2 0 -4 -7 -4 -16 0 -10 -6 -13 -18 -10 -18 6 -224 -73 -297
-113 -22 -12 -33 -20 -25 -18 23 7 101 38 138 54 19 8 36 12 39 9 3 -3 12 1
20 9 23 23 37 18 20 -7 -8 -13 -20 -22 -25 -21 -6 1 -16 -4 -22 -12 -7 -8 -25
-15 -41 -15 -16 0 -58 -13 -92 -30 -35 -16 -72 -30 -81 -30 -9 0 -19 -7 -22
-15 -4 -8 -14 -15 -24 -15 -11 0 -21 -4 -25 -10 -3 -5 -12 -7 -19 -4 -8 3 -46
-18 -86 -46 -39 -28 -79 -50 -88 -48 -9 2 -30 -12 -46 -30 -16 -18 -31 -30
-34 -27 -3 3 5 17 19 32 13 15 16 21 7 14 -10 -7 -41 -45 -70 -85 -29 -39 -55
-73 -58 -76 -3 -3 -21 -25 -40 -50 -19 -25 -55 -65 -80 -89 -25 -24 -36 -36
-24 -27 49 38 33 11 -27 -46 -93 -90 -198 -234 -191 -261 1 -5 -19 -34 -45
-65 -27 -31 -52 -65 -58 -74 -5 -10 -25 -39 -44 -65 -27 -36 -31 -45 -15 -39
13 5 9 -3 -13 -26 -18 -19 -33 -39 -33 -45 0 -17 -33 -77 -47 -86 -7 -4 -13
-20 -13 -34 0 -17 -11 -36 -31 -53 -17 -14 -33 -37 -34 -51 -2 -14 -24 -56
-49 -93 -26 -38 -52 -88 -58 -112 -7 -24 -16 -44 -21 -44 -11 0 -36 -30 -37
-44 0 -4 7 -5 16 -2 8 3 12 2 9 -4 -3 -6 -12 -10 -19 -10 -11 0 -56 -67 -56
-83 0 -4 18 0 40 8 22 8 40 11 40 7 0 -4 -27 -38 -60 -75 -33 -38 -60 -72 -60
-77 0 -4 -3 -15 -6 -23 -4 -12 2 -14 35 -11 22 2 43 -1 46 -6 3 -6 -3 -10 -15
-10 -24 0 -73 -47 -64 -62 9 -14 -3 -52 -26 -78 -13 -15 -20 -18 -21 -9 -1 33
-20 -39 -25 -100 -6 -63 -5 -68 14 -73 12 -3 22 -2 24 3 2 5 9 0 17 -12 11
-19 11 -21 -4 -16 -13 6 -15 3 -10 -14 5 -15 4 -19 -4 -15 -6 4 -11 16 -11 27
0 11 -4 18 -9 14 -5 -3 -7 -22 -4 -42 4 -25 3 -34 -5 -29 -16 10 -22 -7 -13
-45 9 -41 3 -72 -11 -63 -15 9 -4 -130 13 -171 10 -26 13 -27 17 -10 7 34 19
38 18 6 -1 -17 -5 -31 -10 -31 -24 0 17 -276 48 -325 7 -11 21 -65 30 -120 10
-55 26 -120 38 -145 18 -39 21 -42 28 -25 6 14 9 -1 9 -45 1 -36 7 -85 15
-110 21 -68 47 -130 55 -130 4 0 13 -41 19 -92 7 -57 21 -111 36 -142 13 -28
29 -87 35 -131 13 -97 39 -188 51 -180 6 4 10 -11 10 -35 0 -58 21 -101 77
-158 61 -62 135 -92 231 -92 134 1 280 47 331 105 36 42 91 210 91 281 0 77
-66 368 -91 400 -5 6 -18 46 -29 88 -11 42 -33 105 -49 139 -16 34 -37 91 -46
127 -9 36 -29 97 -45 135 -16 39 -31 92 -35 120 -4 27 -18 87 -31 132 -13 46
-24 97 -24 113 0 16 -5 52 -11 79 -9 44 -8 58 10 106 23 61 27 115 11 145 -8
15 -5 31 16 71 18 36 27 74 31 125 6 72 6 73 50 104 51 37 88 90 98 140 4 19
17 58 30 85 13 28 37 80 54 117 23 48 45 78 83 110 35 29 50 37 44 23 -28 -74
-23 -315 6 -315 7 0 8 -16 5 -42 -7 -48 19 -220 38 -257 9 -18 9 -31 2 -52
-17 -44 15 -255 48 -316 14 -26 27 -47 30 -45 22 11 20 -5 -5 -40 -25 -33 -30
-51 -30 -95 0 -66 17 -142 38 -165 8 -10 11 -18 6 -18 -5 0 -4 -4 3 -8 13 -8
1 -91 -17 -124 -18 -32 -12 -145 10 -188 11 -22 17 -40 13 -40 -5 0 -2 -4 5
-8 9 -6 10 -16 1 -40 -6 -17 -9 -37 -6 -44 3 -7 8 2 12 20 7 30 21 49 30 40 7
-7 -38 -92 -57 -109 -21 -19 -23 -55 -6 -96 10 -25 16 -57 18 -106 1 -9 5 -15
9 -12 5 2 11 -4 14 -15 3 -11 1 -23 -4 -26 -5 -3 -9 -15 -9 -26 0 -21 2 -20
30 7 20 19 30 24 30 14 0 -8 -22 -28 -49 -44 l-50 -28 0 -68 c0 -47 4 -71 14
-79 18 -15 18 -20 4 -57 -10 -26 -12 -27 -19 -8 -7 16 -9 13 -9 -16 -1 -20 5
-41 12 -47 31 -26 214 -35 882 -42 399 -5 715 -12 749 -18 33 -6 64 -8 70 -5
5 4 24 7 40 8 17 1 63 9 101 18 65 14 446 51 667 63 56 3 104 11 115 19 27 20
25 161 -7 650 -6 103 -18 176 -43 275 -19 74 -33 136 -32 138 2 2 60 -35 131
-81 71 -46 209 -130 307 -186 252 -144 276 -161 425 -290 243 -211 251 -216
349 -187 32 9 72 24 90 33 52 26 166 128 190 170 45 80 48 273 6 345 -19 33
-127 126 -173 150 -14 7 -47 34 -73 60 -26 27 -61 55 -78 63 -16 9 -51 37 -77
63 -26 26 -84 79 -128 117 -136 120 -271 272 -305 344 -33 73 -68 212 -76 311
-5 62 -33 151 -55 178 -8 9 -8 16 0 24 15 15 16 200 2 248 -6 19 -12 62 -14
95 -6 89 -24 211 -40 269 -8 28 -24 101 -35 161 -11 61 -27 133 -35 160 -8 28
-20 82 -26 120 -24 136 -71 303 -116 411 -41 100 -152 188 -424 334 -74 40
-197 109 -272 152 l-136 79 -4 123 c-3 116 -5 125 -37 190 -40 77 -71 106
-114 106 -17 0 -50 11 -73 25 -102 60 -278 87 -659 101 -142 5 -183 3 -192 -7z
m952 -1859 c3 -5 1 -10 -4 -10 -6 0 -11 5 -11 10 0 6 2 10 4 10 3 0 8 -4 11
-10z m2 -52 c-3 -8 -6 -5 -6 6 -1 11 2 17 5 13 3 -3 4 -12 1 -19z m13 -79 c0
-33 -4 -58 -9 -55 -9 6 -21 -50 -21 -104 0 -21 -4 -30 -9 -25 -6 6 -13 62 -16
125 -5 82 -4 111 4 100 6 -8 11 -25 11 -37 0 -34 17 -36 22 -3 3 16 0 31 -6
33 -5 2 -6 9 -2 15 16 27 26 9 26 -49z m-1965 -406 c-4 -48 -10 -80 -14 -71
-8 22 -7 60 3 121 13 76 19 46 11 -50z m47 -305 c-8 -8 -9 -4 -5 13 4 13 8 18
11 10 2 -7 -1 -18 -6 -23z m-25 -10 c-3 -7 -5 -2 -5 12 0 14 2 19 5 13 2 -7 2
-19 0 -25z m50 -329 c-10 -16 -13 -17 -20 -3 -11 19 12 51 24 33 4 -7 2 -20
-4 -30z m459 -226 c-12 -13 -22 9 -18 39 l5 33 9 -34 c5 -18 7 -35 4 -38z m14
-23 c0 -5 -4 -10 -10 -10 -5 0 -10 5 -10 10 0 6 5 10 10 10 6 0 10 -4 10 -10z
m-398 -447 c-3 -16 -7 -22 -10 -15 -4 13 4 42 11 42 2 0 2 -12 -1 -27z m28 7
c0 -5 -5 -10 -11 -10 -5 0 -7 5 -4 10 3 6 8 10 11 10 2 0 4 -4 4 -10z m-1123
-482 c-3 -7 -5 -2 -5 12 0 14 2 19 5 13 2 -7 2 -19 0 -25z m2753 -578 c5 0 5
-12 1 -27 -10 -39 -34 -36 -35 5 -1 23 3 31 12 27 8 -3 17 -5 22 -5z"/>
<path d="M4940 5835 c0 -24 3 -25 55 -25 52 0 55 1 55 25 0 24 -3 25 -55 25
-52 0 -55 -1 -55 -25z"/>
<path d="M4637 5833 c-4 -3 -7 -28 -7 -54 0 -27 -5 -59 -11 -73 -15 -31 2 -56
36 -56 32 0 50 25 38 53 -5 12 -11 44 -12 71 -1 28 -4 53 -7 58 -6 10 -28 11
-37 1z m35 -93 c3 -69 2 -75 -17 -75 -19 0 -20 5 -16 75 2 41 5 79 8 83 12 20
21 -13 25 -83z"/>
<path d="M4986 5418 c8 -34 16 -64 19 -66 2 -2 9 16 16 40 7 23 16 47 21 53
11 12 10 35 -1 35 -5 0 -12 -17 -16 -38 -10 -62 -22 -69 -29 -18 -4 25 -11 48
-16 51 -4 3 -2 -23 6 -57z"/>
<path d="M5084 5429 c-7 -49 -18 -55 -27 -14 -2 11 -3 2 0 -20 4 -39 9 -52 17
-44 10 9 33 129 25 129 -5 0 -11 -23 -15 -51z"/>
<path d="M5133 5415 c0 -38 2 -53 4 -32 2 20 2 52 0 70 -2 17 -4 1 -4 -38z"/>
<path d="M5177 5473 c19 -4 23 -12 26 -66 l3 -62 2 62 c2 55 4 62 25 66 12 2
0 4 -28 4 -27 0 -40 -2 -28 -4z"/>
<path d="M5273 5415 c0 -38 2 -55 4 -37 4 28 8 32 33 32 25 0 29 -4 33 -32 2
-18 4 -1 4 37 0 39 -2 55 -4 38 -4 -29 -8 -33 -33 -33 -25 0 -29 4 -33 33 -2
17 -4 1 -4 -38z"/>
<path d="M5432 5418 l-2 -68 33 1 c29 2 30 2 5 6 -26 4 -27 8 -31 66 l-3 62
-2 -67z"/>
<path d="M5545 5468 c-35 -97 -45 -142 -24 -105 5 9 19 17 31 17 11 0 27 -8
35 -17 14 -17 14 -17 8 2 -4 11 -13 41 -21 68 -15 49 -21 56 -29 35z m24 -65
c1 -14 -25 -18 -32 -5 -3 4 0 18 5 32 10 24 11 24 18 5 5 -11 9 -26 9 -32z"/>
<path d="M5620 5443 c11 -23 21 -55 21 -70 1 -25 2 -25 8 7 4 19 15 50 24 68
10 17 15 32 13 32 -3 0 -13 -15 -22 -32 -15 -30 -18 -31 -28 -15 -26 43 -35
49 -16 10z"/>
<path d="M5710 5415 l0 -65 38 2 c36 1 36 1 5 5 -27 4 -33 9 -33 28 0 18 6 25
28 28 l27 4 -27 2 c-23 1 -28 6 -28 25 0 20 6 25 33 29 31 4 31 4 -5 5 l-38 2
0 -65z"/>
<path d="M5801 5413 c1 -37 4 -56 6 -40 6 35 36 36 52 1 6 -15 14 -24 17 -21
3 3 1 15 -5 26 -9 15 -8 26 1 41 18 28 0 54 -41 58 l-31 3 1 -68z m65 42 c7
-18 -13 -45 -33 -45 -17 0 -27 24 -19 45 7 20 45 19 52 0z"/>
<path d="M5913 5415 c0 -38 2 -53 4 -32 2 20 2 52 0 70 -2 17 -4 1 -4 -38z"/>
<path d="M5950 5415 c0 -37 4 -65 10 -65 6 0 10 21 10 48 l1 47 27 -47 c15
-27 30 -48 35 -48 4 0 6 30 5 68 l-1 67 -6 -55 -6 -55 -29 53 c-16 28 -33 52
-38 52 -4 0 -8 -29 -8 -65z"/>
<path d="M6082 5468 c-17 -17 -15 -93 4 -112 29 -29 64 -15 64 25 0 24 -4 29
-22 28 -17 -1 -19 -2 -5 -6 22 -6 22 -39 1 -47 -29 -11 -45 13 -42 63 2 36 7
47 22 49 11 3 26 -4 34 -14 13 -18 14 -18 10 1 -4 24 -47 32 -66 13z"/>
<path d="M1343 5038 c-18 -13 -35 -29 -38 -36 -2 -7 13 2 35 19 36 29 45 39
37 39 -1 0 -17 -10 -34 -22z"/>
<path d="M4545 5050 c-4 -7 267 -10 804 -10 534 0 811 3 811 10 0 7 -275 10
-804 10 -526 0 -807 -3 -811 -10z"/>
<path d="M4494 4734 c4 -39 3 -61 -6 -72 -10 -12 -10 -14 0 -8 14 8 14 9 16
-65 5 -135 130 -234 270 -213 58 9 76 21 76 50 0 44 -82 114 -190 161 -52 23
-96 47 -96 53 -1 5 -2 17 -3 26 0 9 -7 14 -15 11 -23 -9 -36 15 -36 65 0 29
-4 48 -11 48 -8 0 -10 -17 -5 -56z m224 -203 c2 -5 -15 -12 -38 -16 -50 -8
-79 8 -115 65 -14 22 -25 41 -25 43 0 8 175 -83 178 -92z m-178 32 c0 -28 -3
-34 -10 -23 -13 20 -13 60 0 60 6 0 10 -17 10 -37z m16 -71 c-12 -11 -16 6 -9
39 l8 34 3 -33 c2 -19 1 -36 -2 -40z m125 -46 c19 -11 38 -19 43 -17 4 1 25
-4 45 -10 l36 -12 -30 -9 c-16 -4 -39 -5 -50 -1 -11 4 -31 6 -45 4 -14 -1 -44
11 -67 26 -38 25 -43 32 -43 66 l0 39 38 -33 c21 -19 54 -43 73 -53z m113 34
c20 -23 34 -45 31 -49 -6 -11 -90 10 -125 30 l-25 14 30 3 c54 6 48 19 -7 16
l-53 -4 45 14 c64 20 64 20 104 -24z"/>
<path d="M4670 4436 c0 -2 7 -9 15 -16 13 -11 14 -10 9 4 -5 14 -24 23 -24 12z"/>
<path d="M5162 4688 c-48 -81 -132 -247 -132 -262 0 -13 12 -16 75 -16 l75 0
0 -49 c0 -46 1 -48 25 -43 22 4 25 9 25 48 0 37 3 44 20 44 13 0 20 7 20 20 0
13 -7 20 -20 20 -18 0 -20 8 -22 133 -3 126 -4 132 -24 135 -16 2 -27 -6 -42
-30z m18 -148 l0 -90 -49 0 -49 0 46 90 c26 49 48 90 50 90 1 0 2 -40 2 -90z"/>
<path d="M5364 4702 c-47 -38 -58 -92 -19 -92 18 0 25 5 25 18 0 55 81 66 101
15 21 -56 -8 -103 -65 -103 -19 0 -26 -5 -26 -20 0 -16 7 -20 30 -20 41 0 70
-31 70 -75 0 -39 -28 -75 -58 -75 -23 0 -52 30 -52 53 0 11 -8 17 -25 17 -46
0 -28 -68 25 -95 45 -23 85 -19 122 14 30 26 33 35 33 84 0 44 -5 61 -22 79
l-23 24 22 21 c16 17 21 33 20 70 0 40 -5 52 -31 75 -37 33 -94 37 -127 10z"/>
<path d="M5647 4700 c-34 -27 -47 -76 -47 -181 0 -113 7 -144 40 -179 49 -53
127 -35 156 36 9 21 14 71 14 139 0 115 -13 162 -51 189 -32 22 -81 20 -112
-4z m97 -42 c12 -17 16 -49 16 -135 0 -121 -8 -158 -38 -167 -57 -18 -75 28
-70 179 3 102 5 118 22 131 28 20 53 17 70 -8z"/>
<path d="M4476 4625 c-3 -8 -1 -15 3 -15 5 0 11 7 15 15 3 8 1 15 -3 15 -5 0
-11 -7 -15 -15z"/>
<path d="M5921 4604 c-32 -23 -51 -74 -51 -139 0 -31 6 -71 14 -89 25 -61 86
-84 134 -50 21 15 22 14 22 -15 0 -58 -60 -90 -106 -57 -13 10 -23 11 -31 4
-20 -16 -16 -26 17 -43 47 -24 95 -19 132 14 l33 29 3 176 4 176 -26 0 c-14 0
-26 -5 -26 -11 0 -5 -10 -3 -22 5 -29 21 -67 20 -97 0z m109 -53 c5 -11 10
-54 10 -95 0 -69 -2 -77 -24 -91 -31 -21 -70 -11 -85 21 -16 37 -14 135 5 162
20 29 79 31 94 3z"/>
<path d="M4911 3983 c1 -38 4 -56 6 -40 6 35 38 37 47 2 4 -14 11 -25 17 -25
6 0 6 8 -2 21 -8 16 -8 28 0 46 16 35 -2 63 -39 63 l-30 0 1 -67z m54 27 c0
-18 -6 -26 -22 -28 -20 -3 -23 1 -23 28 0 27 3 31 23 28 16 -2 22 -10 22 -28z"/>
<path d="M5010 3985 c0 -37 4 -65 10 -65 6 0 10 27 10 60 0 33 4 60 9 60 31 0
41 -14 41 -56 0 -37 -4 -46 -22 -54 -14 -5 -17 -9 -7 -9 25 -1 39 21 39 64 0
48 -13 65 -52 65 -28 0 -28 0 -28 -65z"/>
<path d="M5127 4044 c-16 -16 -5 -46 23 -62 32 -18 40 -46 15 -56 -8 -3 -22 2
-30 11 -9 8 -18 13 -21 11 -10 -11 36 -39 54 -34 43 14 34 58 -15 77 -27 10
-30 37 -7 46 11 4 22 -1 31 -13 14 -19 15 -19 11 1 -3 20 -46 33 -61 19z"/>
<path d="M5260 3985 c0 -65 0 -65 28 -65 39 0 52 17 52 65 0 48 -13 65 -52 65
-28 0 -28 0 -28 -65z m58 43 c13 -13 16 -56 6 -82 -3 -9 -17 -16 -30 -16 -22
0 -24 4 -24 55 0 46 3 55 18 55 10 0 23 -5 30 -12z"/>
<path d="M5372 3994 c-2 -68 12 -91 47 -79 25 8 34 37 28 96 -3 41 -4 40 -5
-12 -2 -59 -17 -84 -45 -73 -12 4 -17 23 -20 67 l-3 62 -2 -61z"/>
<path d="M5480 4031 c-23 -43 0 -121 35 -121 17 0 45 27 45 43 0 7 -8 2 -18
-11 -23 -30 -50 -20 -58 23 -11 60 30 98 63 58 13 -16 13 -16 3 5 -13 28 -55
30 -70 3z"/>
<path d="M5580 3988 c0 -38 4 -68 9 -68 4 0 8 8 8 18 0 45 4 46 34 12 l31 -35
-22 37 -22 38 22 32 22 33 -31 -32 c-33 -36 -43 -41 -35 -19 3 8 1 23 -5 33
-8 14 -10 3 -11 -49z"/>
<path d="M5730 3985 l0 -65 30 0 c33 0 50 22 50 69 0 36 -23 61 -56 61 -23 0
-24 -3 -24 -65z m60 36 c23 -43 6 -91 -32 -91 -15 0 -18 9 -18 55 0 48 2 55
20 55 10 0 24 -9 30 -19z"/>
<path d="M5840 4031 c-23 -43 0 -121 35 -121 39 0 64 97 33 128 -18 18 -56 14
-68 -7z m64 -7 c13 -34 6 -83 -13 -94 -39 -20 -67 42 -41 91 13 23 46 25 54 3z"/>
<path d="M5944 4030 c2 -14 8 -42 11 -63 9 -47 23 -56 31 -20 17 79 20 81 33
26 7 -29 16 -53 20 -53 9 0 34 120 27 127 -3 3 -8 -8 -11 -23 -11 -46 -23 -80
-24 -64 -2 27 -22 92 -28 87 -2 -3 -10 -27 -17 -54 l-13 -48 -8 40 c-4 22 -12
47 -17 55 -7 11 -8 8 -4 -10z"/>
<path d="M6092 3983 l1 -68 6 55 6 55 30 -52 c17 -29 33 -53 38 -53 4 0 6 30
5 68 l-1 67 -6 -55 -6 -55 -30 52 c-17 29 -33 53 -37 53 -5 0 -7 -30 -6 -67z"/>
</g>
</svg>
