<?xml version="1.0" standalone="no"?>
<!DOCTYPE svg PUBLIC "-//W3C//DTD SVG 20010904//EN"
 "http://www.w3.org/TR/2001/REC-SVG-20010904/DTD/svg10.dtd">
<svg version="1.0" xmlns="http://www.w3.org/2000/svg"
 width="736.000000pt" height="736.000000pt" viewBox="0 0 736.000000 736.000000"
 preserveAspectRatio="xMidYMid meet">

<g transform="translate(0.000000,736.000000) scale(0.100000,-0.100000)"
fill="#000000" stroke="none">
<path d="M6301 6893 c-18 -9 -42 -31 -52 -47 -23 -38 -25 -125 -4 -166 50 -96
227 -94 274 4 19 41 17 119 -6 158 -36 63 -138 87 -212 51z m108 -87 c7 -8 11
-31 9 -52 -6 -73 -70 -72 -76 2 -5 53 38 85 67 50z"/>
<path d="M6613 6753 c-59 -87 -138 -203 -175 -257 -74 -108 -84 -144 -46 -170
12 -9 29 -16 38 -15 8 0 50 50 92 112 42 62 120 175 173 252 102 147 118 176
109 199 -6 14 -46 36 -69 36 -8 0 -62 -71 -122 -157z"/>
<path d="M3206 6869 c-68 -16 -66 -6 -66 -276 0 -142 4 -252 10 -263 12 -23
59 -34 110 -25 l40 7 0 90 0 89 27 -3 c21 -2 36 -18 69 -73 53 -87 84 -115
130 -115 35 0 84 35 84 61 0 6 -25 45 -56 85 l-56 73 40 38 c51 49 67 101 51
174 -14 66 -60 113 -132 134 -56 16 -189 18 -251 4z m210 -130 c26 -26 28 -72
4 -102 -19 -23 -29 -27 -76 -27 l-54 0 0 68 c0 38 3 72 8 76 11 12 102 0 118
-15z"/>
<path d="M4755 6870 c-33 -5 -76 -15 -96 -24 -87 -36 -116 -126 -61 -186 l27
-31 50 22 c58 26 194 32 233 11 60 -34 67 -113 13 -145 -22 -13 -52 -17 -123
-17 -92 0 -95 -1 -106 -25 -7 -14 -12 -48 -12 -75 0 -27 5 -61 12 -75 11 -24
14 -25 114 -25 113 0 146 -10 163 -47 25 -54 1 -108 -58 -133 -50 -20 -176 -9
-244 22 -32 15 -64 25 -72 22 -8 -3 -24 -26 -35 -50 -36 -73 -5 -130 95 -176
44 -20 66 -23 190 -23 163 0 216 14 294 75 80 63 112 154 91 255 -10 48 -20
66 -61 106 -26 27 -55 49 -64 49 -24 0 -18 10 31 53 57 50 74 88 74 165 0 114
-68 200 -187 235 -67 20 -192 28 -268 17z"/>
<path d="M5662 6865 c-197 -43 -312 -220 -312 -478 1 -214 87 -374 238 -445
51 -24 69 -27 167 -27 98 0 116 3 165 26 152 71 228 205 237 419 5 96 2 130
-15 198 -45 178 -154 285 -318 312 -73 12 -83 12 -162 -5z m164 -210 c53 -34
90 -185 78 -315 -14 -152 -65 -230 -151 -230 -60 0 -104 43 -128 124 -22 75
-22 246 -1 319 15 50 59 106 96 120 21 8 81 -2 106 -18z"/>
<path d="M378 6858 c-34 -12 -35 -26 -8 -174 32 -180 71 -324 94 -351 26 -30
113 -42 169 -24 40 13 39 12 73 155 10 42 21 71 24 64 4 -7 17 -51 30 -98 28
-103 43 -121 107 -127 71 -7 128 11 141 45 31 78 82 350 82 438 0 46 -3 56
-25 70 -26 17 -98 15 -115 -3 -5 -4 -18 -89 -29 -188 -12 -99 -24 -191 -28
-205 l-6 -25 -9 30 c-5 17 -22 80 -38 140 -18 64 -37 115 -47 123 -18 13 -121
17 -138 4 -6 -4 -24 -65 -40 -137 -15 -71 -32 -137 -36 -145 -9 -19 -12 -9
-39 185 -11 83 -26 165 -31 183 -16 48 -67 64 -131 40z"/>
<path d="M1190 6608 c0 -145 4 -268 8 -274 19 -29 77 -42 130 -28 l22 6 0 257
c0 308 2 301 -96 301 l-64 0 0 -262z"/>
<path d="M1492 6854 c-22 -15 -22 -17 -19 -270 2 -274 1 -266 56 -281 13 -3
40 -2 60 3 l36 9 -2 173 c-1 104 2 172 7 172 6 0 10 -6 10 -13 0 -21 139 -300
160 -321 23 -23 112 -33 153 -17 l27 11 0 259 c0 302 3 291 -91 291 l-60 0 3
-175 c2 -96 1 -175 -2 -175 -3 0 -39 70 -80 156 -41 87 -85 164 -98 175 -31
24 -127 26 -160 3z"/>
<path d="M2086 6857 c-19 -14 -26 -82 -12 -106 4 -6 36 -11 77 -11 l69 0 0
-189 c0 -104 4 -201 10 -215 11 -29 59 -42 115 -32 l35 7 0 214 0 215 63 0
c73 0 97 17 97 67 0 65 9 63 -224 63 -161 0 -217 -3 -230 -13z"/>
<path d="M2673 6860 c-39 -16 -43 -39 -43 -279 0 -301 -13 -285 235 -279 131
3 148 5 161 22 16 23 18 45 4 80 -9 26 -10 26 -130 26 l-120 0 0 50 0 50 100
0 c95 0 100 1 116 25 13 20 15 33 8 58 l-10 32 -107 3 -108 3 3 45 3 46 108 3
c64 2 114 8 123 15 8 7 14 27 14 45 0 67 4 65 -174 64 -88 0 -171 -4 -183 -9z"/>
<path d="M6735 6603 c-59 -15 -95 -72 -95 -150 0 -98 59 -148 166 -141 54 3
68 9 94 33 75 72 57 206 -34 249 -33 15 -89 19 -131 9z m93 -116 c25 -52 -32
-116 -65 -71 -29 39 -4 110 36 102 9 -2 22 -16 29 -31z"/>
<path d="M6301 6174 c-45 -38 -58 -92 -37 -149 20 -52 59 -78 116 -78 87 0
143 76 120 161 -23 87 -132 123 -199 66z m125 -49 c18 -28 14 -85 -7 -111 -18
-22 -66 -17 -83 8 -36 51 -9 128 44 128 21 0 35 -8 46 -25z"/>
<path d="M6556 6174 c-3 -9 -6 -55 -6 -104 0 -108 4 -120 41 -120 28 0 29 2
29 45 l0 45 44 0 c43 0 58 11 49 38 -3 7 -22 12 -49 12 -40 0 -44 2 -44 24 0
23 4 25 53 28 45 3 52 6 55 26 3 21 1 22 -81 22 -68 0 -86 -3 -91 -16z"/>
<path d="M6774 6177 c-2 -7 -3 -60 -2 -118 l3 -104 28 -3 c21 -3 27 1 28 17 1
12 2 31 3 44 1 19 8 23 46 27 37 4 46 9 48 27 3 20 -2 22 -45 25 -41 3 -48 6
-51 26 -3 20 1 22 45 22 51 0 75 13 66 36 -7 19 -161 20 -169 1z"/>
<path d="M455 6138 c-76 -41 -55 -117 41 -148 24 -8 34 -17 32 -28 -3 -17 -38
-20 -93 -11 -16 3 -20 -1 -20 -21 0 -46 104 -61 163 -22 16 11 22 24 22 52 0
43 -19 64 -76 83 -22 8 -40 22 -42 31 -3 15 4 17 50 15 47 -3 53 -1 56 17 5
37 -85 59 -133 32z"/>
<path d="M702 6140 c-22 -9 -23 -13 -20 -127 l3 -118 33 -3 c31 -3 32 -2 32
37 0 39 2 41 30 41 80 0 124 66 89 132 -21 39 -111 60 -167 38z m82 -50 c46
-17 31 -70 -20 -70 -10 0 -14 12 -14 40 0 45 -1 44 34 30z"/>
<path d="M1284 6143 c-12 -2 -34 -18 -50 -34 -26 -27 -29 -37 -29 -94 0 -53 4
-67 24 -89 43 -45 141 -57 170 -22 22 27 3 44 -43 39 -55 -7 -86 19 -86 71 0
61 39 89 101 73 35 -9 46 16 19 43 -19 19 -54 23 -106 13z"/>
<path d="M2343 6135 c-42 -18 -73 -69 -73 -121 0 -115 135 -173 222 -95 26 23
32 36 35 82 5 64 -9 94 -56 126 -38 26 -81 29 -128 8z m105 -63 c18 -23 15
-92 -5 -114 -23 -25 -68 -23 -87 4 -53 75 36 181 92 110z"/>
<path d="M3392 6140 c-22 -9 -23 -13 -20 -127 l3 -118 33 -3 c31 -3 32 -2 32
37 0 52 19 54 51 4 19 -30 31 -38 53 -38 39 0 42 16 10 54 l-27 32 22 23 c31
33 26 92 -11 119 -30 22 -111 32 -146 17z m87 -50 c40 -21 26 -70 -20 -70 -15
0 -19 7 -19 33 0 46 8 54 39 37z"/>
<path d="M962 6128 c-16 -16 -16 -210 0 -226 7 -7 43 -12 90 -12 77 0 78 0 78
25 0 24 -3 25 -55 25 -52 0 -55 1 -55 24 0 23 5 25 48 28 40 3 47 6 50 26 3
20 0 22 -47 22 -47 0 -51 2 -51 24 0 23 4 25 53 28 45 3 52 6 55 26 3 21 1 22
-75 22 -48 0 -84 -5 -91 -12z"/>
<path d="M1482 6018 l3 -123 33 -3 33 -3 -3 123 -3 123 -33 3 -33 3 3 -123z"/>
<path d="M1683 6118 c-26 -60 -65 -199 -59 -213 10 -26 59 -15 66 14 5 24 22
28 78 22 5 -1 14 -12 20 -26 11 -24 55 -36 65 -17 6 9 -52 213 -65 230 -6 6
-29 12 -53 12 -34 0 -44 -4 -52 -22z m71 -73 c9 -49 9 -49 -19 -51 -29 -1 -28
-3 -13 47 14 48 24 49 32 4z"/>
<path d="M1932 6018 l3 -123 80 0 c75 0 80 1 83 23 3 20 0 22 -47 22 -58 0
-63 8 -61 98 3 103 3 102 -30 102 l-31 0 3 -122z"/>
<path d="M2614 6127 c-2 -7 -3 -62 -2 -123 l3 -109 33 -3 c32 -3 32 -3 32 42
l0 46 38 0 c41 0 63 15 55 36 -3 9 -21 14 -47 14 -50 0 -55 3 -48 35 4 21 10
24 56 27 44 3 51 6 54 26 3 21 1 22 -83 22 -61 0 -87 -4 -91 -13z"/>
<path d="M2872 6132 c-9 -6 -12 -38 -10 -123 l3 -114 33 -3 c32 -3 32 -3 32
42 l0 46 38 0 c41 0 63 15 55 36 -3 9 -21 14 -47 14 -51 0 -55 3 -48 35 4 23
9 25 58 25 51 0 54 1 54 25 0 25 -1 25 -77 25 -43 0 -84 -4 -91 -8z"/>
<path d="M3122 6128 c-18 -18 -16 -212 2 -227 9 -7 42 -11 88 -9 67 3 73 5 76
26 3 21 0 22 -52 22 -53 0 -56 1 -56 24 0 23 5 25 48 28 40 3 47 6 50 26 3 20
0 22 -47 22 -47 0 -51 2 -51 24 0 23 4 25 53 28 45 3 52 6 55 26 3 21 1 22
-75 22 -48 0 -84 -5 -91 -12z"/>
<path d="M1614 5483 c-1 -87 -27 -185 -61 -228 -18 -22 -28 -48 -30 -77 -1
-24 -3 -50 -4 -58 0 -8 -7 -35 -14 -60 -27 -90 -36 -131 -30 -140 3 -6 35 -10
70 -10 55 0 66 -3 79 -22 23 -32 20 -56 -11 -84 -24 -20 -35 -23 -70 -19 -53
8 -68 -13 -54 -74 10 -47 1 -98 -28 -163 -19 -41 -20 -57 -15 -132 7 -82 6
-87 -21 -128 -21 -31 -30 -61 -36 -113 -4 -38 -16 -88 -27 -110 -13 -25 -17
-44 -11 -50 5 -5 9 -35 9 -67 0 -50 -5 -67 -41 -125 -32 -51 -39 -71 -31 -83
7 -12 4 -29 -14 -66 -17 -35 -25 -70 -27 -124 -4 -68 -19 -122 -56 -190 -14
-27 -23 -79 -16 -99 3 -11 15 -23 26 -26 36 -12 47 -53 45 -167 0 -70 -5 -111
-14 -120 -6 -6 -12 -20 -12 -29 0 -10 -5 -21 -10 -24 -13 -8 -13 -62 1 -70 14
-9 9 -93 -8 -127 -9 -19 -11 -43 -5 -85 4 -32 5 -74 1 -93 -5 -23 -2 -54 8
-89 12 -43 14 -81 9 -175 -3 -67 -9 -137 -12 -156 -5 -31 -2 -38 20 -49 28
-15 66 -111 66 -167 0 -45 15 -50 49 -16 l29 28 0 180 c0 98 5 199 11 224 5
25 13 62 16 82 3 22 18 49 36 67 28 28 30 35 28 93 -2 35 -7 69 -12 76 -18 23
-10 99 12 131 19 26 20 34 10 81 -6 28 -8 76 -4 108 3 31 7 88 8 125 2 65 4
70 37 98 42 35 100 92 100 99 -1 21 -26 35 -71 40 -76 7 -93 34 -98 152 -3
100 8 153 43 208 27 41 56 134 56 178 0 17 13 63 29 104 23 57 28 84 25 123
-3 28 -5 55 -5 60 9 204 14 242 39 295 17 37 25 68 23 95 -8 109 -2 187 23
290 15 61 31 130 37 154 5 24 18 58 27 75 13 25 17 64 19 191 2 88 5 190 8
227 3 40 1 69 -5 73 -6 4 -8 11 -5 16 4 5 -25 9 -67 9 l-74 0 0 -67z"/>
<path d="M2225 5521 c-3 -16 -6 -53 -6 -82 0 -55 -21 -97 -84 -169 -30 -35
-49 -101 -41 -143 5 -28 14 -39 44 -54 25 -12 38 -26 40 -43 4 -27 30 -62 42
-55 4 2 3 30 -1 62 -9 57 -4 102 11 133 19 36 54 115 53 120 -16 80 -14 96 13
123 46 46 114 29 114 -29 0 -14 -9 -47 -21 -74 -22 -52 -17 -80 20 -99 14 -8
25 -3 54 24 21 19 42 35 47 35 7 0 7 6 0 19 -5 11 -10 31 -10 46 0 15 -4 24
-10 20 -6 -4 -10 5 -10 19 0 14 4 26 9 26 16 0 32 97 21 125 l-10 25 -134 0
-134 0 -7 -29z m245 -145 c0 -3 -4 -8 -10 -11 -5 -3 -10 -1 -10 4 0 6 5 11 10
11 6 0 10 -2 10 -4z"/>
<path d="M3025 5433 c-8 -23 -6 -71 5 -78 5 -3 18 3 30 15 31 31 24 77 -12 77
-9 0 -20 -7 -23 -14z"/>
<path d="M4290 5101 c0 -4 5 -12 11 -18 6 -6 13 -32 15 -59 2 -26 10 -55 19
-64 8 -9 15 -20 15 -25 0 -4 12 -24 27 -43 15 -20 54 -76 86 -125 41 -62 62
-86 67 -76 13 24 19 88 9 94 -5 4 -9 17 -9 29 0 13 -7 29 -15 36 -8 7 -15 23
-15 36 0 28 -28 64 -50 64 -10 0 -16 9 -15 23 0 12 -3 23 -7 25 -4 2 -30 26
-57 54 -46 47 -81 68 -81 49z"/>
<path d="M2495 5041 c-6 -6 -28 -14 -50 -19 -36 -7 -40 -11 -43 -42 -2 -19 -9
-41 -15 -48 -13 -16 -11 -239 2 -273 5 -13 10 -19 10 -12 1 11 26 23 59 29 8
1 27 -2 44 -8 24 -8 33 -7 45 5 17 17 20 76 4 86 -33 21 -53 150 -30 193 7 13
7 23 1 31 -6 7 -12 25 -14 40 -2 19 -6 25 -13 18z"/>
<path d="M2810 4940 c-9 -6 -7 -11 9 -19 21 -12 41 -8 41 8 0 12 -36 20 -50
11z"/>
<path d="M392 4860 c0 -19 2 -27 5 -17 2 9 2 25 0 35 -3 9 -5 1 -5 -18z"/>
<path d="M3021 4764 c0 -11 3 -14 6 -6 3 7 2 16 -1 19 -3 4 -6 -2 -5 -13z"/>
<path d="M3452 4660 c0 -14 2 -19 5 -12 2 6 2 18 0 25 -3 6 -5 1 -5 -13z"/>
<path d="M3375 4630 c3 -5 8 -10 11 -10 2 0 4 5 4 10 0 6 -5 10 -11 10 -5 0
-7 -4 -4 -10z"/>
<path d="M2030 4600 c-11 -21 2 -60 21 -60 13 0 31 50 25 67 -8 20 -34 16 -46
-7z"/>
<path d="M3527 4605 c-4 -8 -3 -16 1 -19 4 -3 9 4 9 15 2 23 -3 25 -10 4z"/>
<path d="M3487 4595 c-4 -8 -2 -17 3 -20 6 -4 10 3 10 14 0 25 -6 27 -13 6z"/>
<path d="M2357 4585 c-12 -12 -14 -22 -7 -41 6 -14 10 -45 10 -70 0 -66 22
-83 107 -82 37 1 78 -4 89 -10 21 -11 22 -9 26 31 6 51 2 64 -21 70 -23 6 -53
-11 -45 -25 4 -7 2 -8 -5 -4 -6 4 -9 16 -6 27 5 16 -1 22 -32 34 -58 23 -67
30 -73 55 -7 30 -23 35 -43 15z"/>
<path d="M3381 4584 c0 -11 3 -14 6 -6 3 7 2 16 -1 19 -3 4 -6 -2 -5 -13z"/>
<path d="M3301 4554 c0 -11 3 -14 6 -6 3 7 2 16 -1 19 -3 4 -6 -2 -5 -13z"/>
<path d="M3341 4554 c0 -11 3 -14 6 -6 3 7 2 16 -1 19 -3 4 -6 -2 -5 -13z"/>
<path d="M3711 4544 c0 -11 3 -14 6 -6 3 7 2 16 -1 19 -3 4 -6 -2 -5 -13z"/>
<path d="M3380 4510 c0 -5 11 -10 25 -10 14 0 25 5 25 10 0 6 -11 10 -25 10
-14 0 -25 -4 -25 -10z"/>
<path d="M3311 4494 c0 -11 3 -14 6 -6 3 7 2 16 -1 19 -3 4 -6 -2 -5 -13z"/>
<path d="M3852 4480 c0 -14 2 -19 5 -12 2 6 2 18 0 25 -3 6 -5 1 -5 -13z"/>
<path d="M3702 4470 c0 -14 2 -19 5 -12 2 6 2 18 0 25 -3 6 -5 1 -5 -13z"/>
<path d="M3130 4469 c0 -5 5 -7 10 -4 6 3 10 8 10 11 0 2 -4 4 -10 4 -5 0 -10
-5 -10 -11z"/>
<path d="M3741 4464 c0 -11 3 -14 6 -6 3 7 2 16 -1 19 -3 4 -6 -2 -5 -13z"/>
<path d="M3281 4434 c0 -11 3 -14 6 -6 3 7 2 16 -1 19 -3 4 -6 -2 -5 -13z"/>
<path d="M3841 4424 c0 -11 3 -14 6 -6 3 7 2 16 -1 19 -3 4 -6 -2 -5 -13z"/>
<path d="M3181 4404 c0 -11 3 -14 6 -6 3 7 2 16 -1 19 -3 4 -6 -2 -5 -13z"/>
<path d="M3391 4394 c0 -11 3 -14 6 -6 3 7 2 16 -1 19 -3 4 -6 -2 -5 -13z"/>
<path d="M3661 4394 c0 -11 3 -14 6 -6 3 7 2 16 -1 19 -3 4 -6 -2 -5 -13z"/>
<path d="M3492 4370 c0 -19 2 -27 5 -17 2 9 2 25 0 35 -3 9 -5 1 -5 -18z"/>
<path d="M3427 4370 c3 -11 7 -20 9 -20 2 0 4 9 4 20 0 11 -4 20 -9 20 -5 0
-7 -9 -4 -20z"/>
<path d="M3463 4368 c2 -15 6 -30 10 -34 10 -10 8 17 -3 41 -8 17 -9 16 -7 -7z"/>
<path d="M3562 4370 c0 -14 2 -19 5 -12 2 6 2 18 0 25 -3 6 -5 1 -5 -13z"/>
<path d="M3690 4368 c0 -19 2 -20 10 -8 13 19 13 30 0 30 -5 0 -10 -10 -10
-22z"/>
<path d="M3261 4364 c0 -11 3 -14 6 -6 3 7 2 16 -1 19 -3 4 -6 -2 -5 -13z"/>
<path d="M3335 4355 c3 -16 6 -35 7 -42 1 -7 5 -10 10 -7 5 3 6 10 2 15 -3 6
-10 23 -15 37 -9 26 -9 26 -4 -3z"/>
<path d="M3720 4369 c0 -5 5 -7 10 -4 6 3 10 8 10 11 0 2 -4 4 -10 4 -5 0 -10
-5 -10 -11z"/>
<path d="M3401 4348 c-1 -16 4 -28 9 -28 12 0 12 8 0 35 -8 18 -9 17 -9 -7z"/>
<path d="M3896 4354 c-4 -9 -4 -19 -1 -22 2 -3 7 3 11 12 4 9 4 19 1 22 -2 3
-7 -3 -11 -12z"/>
<path d="M3296 4345 c-3 -9 0 -15 9 -15 9 0 12 6 9 15 -4 8 -7 15 -9 15 -2 0
-5 -7 -9 -15z"/>
<path d="M3527 4340 c3 -11 1 -20 -4 -20 -5 0 -52 -9 -104 -21 -151 -33 -144
-33 -159 -4 -7 14 -15 23 -18 20 -3 -2 1 -11 8 -20 10 -12 10 -18 0 -30 -14
-17 -40 -20 -40 -5 0 6 -4 10 -10 10 -5 0 -9 -3 -9 -7 4 -24 -4 -25 -22 -3
-17 21 -19 22 -10 3 11 -22 -2 -43 -14 -23 -5 8 -11 8 -19 1 -7 -6 -15 -8 -19
-5 -3 3 -3 -4 0 -15 4 -17 2 -20 -11 -15 -12 5 -15 2 -9 -12 5 -13 3 -16 -10
-11 -10 4 -18 0 -22 -11 -10 -29 -55 -57 -74 -45 -25 16 -44 -9 -23 -30 24
-24 9 -30 -16 -7 -26 24 -30 15 -5 -12 9 -11 11 -18 5 -18 -7 0 -12 -10 -12
-22 0 -15 -3 -19 -8 -11 -5 8 -12 2 -21 -18 -7 -16 -17 -26 -24 -22 -6 4 -8 0
-4 -10 6 -16 4 -16 -21 0 -27 17 -27 17 -11 -2 24 -29 20 -52 -8 -49 -13 1
-21 -2 -17 -7 3 -5 10 -6 16 -3 6 4 5 -3 -2 -16 -6 -12 -9 -28 -6 -37 4 -11 2
-13 -9 -9 -10 4 -15 -1 -15 -15 0 -11 -4 -17 -10 -14 -6 3 -7 -1 -4 -10 6 -14
9 -14 23 -2 40 34 42 26 4 -14 -25 -27 -42 -54 -42 -69 -1 -14 -2 -56 -4 -93
-2 -38 1 -71 6 -74 5 -3 3 -9 -3 -13 -15 -9 -21 -70 -9 -85 4 -6 7 -26 7 -45
-1 -19 6 -53 16 -75 18 -42 57 -105 66 -105 3 0 5 100 5 223 0 207 4 307 12
307 2 0 9 -12 15 -27 l11 -28 12 40 c9 31 21 44 53 61 59 31 163 47 203 30
l31 -13 -41 -6 c-55 -7 -133 -47 -146 -73 -6 -12 -16 -28 -23 -36 -10 -12 -8
-19 8 -33 11 -10 20 -13 20 -8 0 15 40 24 61 13 9 -6 84 -17 164 -26 142 -15
149 -15 173 3 39 29 39 75 1 107 -17 14 -35 26 -40 26 -5 0 -9 5 -9 10 0 6 11
10 25 10 43 0 177 139 300 310 25 36 70 70 90 70 3 0 5 -8 5 -17 0 -15 2 -14
14 3 22 30 30 10 34 -90 l4 -94 -41 -45 c-28 -30 -40 -52 -39 -68 4 -29 20
-49 33 -41 6 4 24 7 40 8 17 1 44 4 60 8 l30 8 -25 -21 c-14 -11 -29 -21 -34
-21 -17 0 -57 -52 -52 -67 3 -8 1 -11 -4 -8 -15 9 -12 -18 4 -40 12 -17 16
-17 30 -6 13 11 20 11 28 3 14 -14 64 -16 73 -3 3 5 36 10 74 10 41 0 92 8
125 19 42 14 56 16 56 6 0 -14 54 -29 70 -19 5 3 10 15 10 25 0 10 6 21 13 23
6 3 1 6 -12 6 -13 1 -40 18 -62 40 -49 48 -113 66 -208 58 -47 -5 -61 -3 -48
4 36 21 204 42 214 27 2 -5 14 -8 26 -8 17 0 19 -2 7 -10 -10 -6 -1 -9 29 -8
23 0 48 -5 54 -11 6 -6 18 -11 27 -11 18 0 37 -37 69 -134 10 -32 27 -63 36
-69 25 -14 44 -67 51 -147 5 -51 4 -74 -5 -79 -7 -5 -12 -37 -13 -82 -1 -41
-6 -79 -11 -86 -5 -7 -9 -35 -9 -64 1 -40 -2 -50 -14 -45 -11 4 -13 0 -8 -19
3 -13 1 -32 -5 -42 -10 -17 -10 -17 -11 0 0 9 -9 26 -20 37 -19 19 -20 19 -46
-5 -15 -14 -33 -25 -40 -25 -8 0 -14 -5 -14 -11 0 -6 -7 -8 -16 -5 -11 4 -14
1 -10 -12 3 -9 -3 -44 -15 -77 -11 -33 -17 -46 -15 -28 3 17 1 33 -4 35 -6 2
-12 39 -14 82 -4 75 -6 81 -42 117 -21 22 -42 39 -46 39 -4 0 -17 9 -28 20
-11 11 -25 20 -30 20 -6 0 4 -14 21 -31 31 -30 32 -32 14 -46 -11 -7 -25 -11
-31 -9 -7 3 -15 -1 -17 -9 -7 -16 -67 -47 -67 -34 0 4 -13 6 -30 3 -19 -4 -30
-2 -30 4 0 6 -6 9 -14 6 -8 -3 -19 3 -26 16 -9 16 -15 19 -25 10 -9 -8 -13 -7
-12 2 2 53 -2 58 -45 58 -30 0 -51 -8 -77 -27 -46 -36 -62 -42 -82 -32 -11 6
-21 4 -29 -6 -16 -19 -69 -19 -76 -1 -3 9 -12 12 -21 9 -11 -4 -14 -2 -9 5 4
8 1 12 -10 12 -10 0 -14 3 -11 7 10 10 -23 43 -43 43 -9 0 -32 -22 -50 -49
-32 -46 -73 -70 -85 -51 -3 5 -15 6 -26 3 -14 -4 -25 0 -31 11 -7 12 -13 14
-28 6 -11 -6 -21 -6 -24 -1 -3 5 -16 7 -28 3 -19 -5 -17 1 16 42 58 70 36 67
-38 -7 -70 -69 -82 -96 -71 -155 3 -20 7 -57 8 -82 2 -35 -2 -45 -15 -48 -13
-2 -18 3 -18 17 0 12 -4 29 -10 39 -5 9 -15 30 -20 45 -6 16 -16 27 -23 24 -6
-2 -20 2 -29 11 -16 14 -18 13 -18 -4 0 -17 -3 -16 -20 6 -11 14 -20 21 -21
15 0 -5 -9 15 -19 45 l-17 54 -16 -30 c-14 -27 -26 -35 -94 -67 -12 -5 -20
-14 -17 -19 3 -4 10 -6 15 -3 5 4 9 3 9 0 0 -10 -44 -44 -57 -45 -16 0 -33
-61 -22 -76 5 -6 3 -16 -4 -24 -8 -8 -8 -11 -1 -7 14 8 104 -3 104 -12 0 -8
-58 -6 -66 2 -8 7 -64 -13 -64 -23 0 -5 -10 -7 -22 -4 -56 11 -88 12 -88 3 0
-6 -4 -8 -9 -5 -5 4 -11 1 -13 -5 -5 -15 -58 0 -58 17 0 7 -10 18 -21 25 -16
8 -20 8 -14 -1 15 -24 -4 -58 -37 -65 -30 -7 -68 -35 -68 -51 0 -9 -61 -64
-72 -64 -5 0 -6 -4 -3 -10 3 -6 -1 -7 -9 -4 -10 4 -18 -1 -22 -12 -4 -11 -36
-47 -72 -81 -36 -35 -62 -63 -57 -63 4 0 -5 -10 -21 -22 -16 -13 -30 -26 -32
-30 -2 -5 -10 -8 -17 -8 -7 0 -15 -7 -19 -15 -3 -8 0 -15 7 -15 8 0 7 -3 -2
-9 -8 -5 -16 -24 -17 -43 l-2 -33 18 22 c9 12 30 24 45 27 32 6 46 16 22 16
-11 0 -17 8 -17 23 0 18 2 19 10 7 5 -8 10 -11 10 -7 0 4 9 3 20 -3 14 -7 29
-6 58 5 21 9 45 15 53 13 8 -2 13 4 13 15 -2 14 6 17 47 16 26 -1 54 -6 61
-11 8 -6 -4 -8 -34 -4 -43 5 -48 3 -48 -14 0 -23 -18 -36 -32 -22 -15 15 -48
-7 -40 -26 4 -12 1 -12 -15 -3 -18 9 -22 7 -26 -11 -4 -12 -9 -19 -13 -15 -4
3 -20 -8 -35 -24 -17 -19 -35 -29 -44 -25 -9 3 -19 -3 -25 -14 -6 -11 -7 -20
-3 -20 4 0 2 -4 -6 -9 -19 -12 -47 15 -33 32 12 14 4 67 -10 67 -5 0 -6 -5 -3
-10 4 -7 -5 -9 -25 -5 -19 3 -29 2 -26 -4 4 -5 2 -12 -4 -16 -6 -4 -7 -11 -4
-17 4 -6 2 -13 -4 -17 -17 -10 -27 -151 -11 -151 8 0 7 -5 -3 -17 -11 -12 -16
-38 -15 -79 0 -34 -3 -67 -8 -74 -6 -9 -2 -10 16 -5 21 7 22 6 10 -9 -9 -10
-10 -16 -2 -16 6 0 10 -10 10 -22 -1 -20 -2 -20 -6 -4 -4 15 -7 16 -14 5 -7
-11 -9 -11 -9 3 0 11 -6 15 -20 11 -12 -3 -20 -13 -19 -27 0 -11 3 -15 6 -8
10 26 23 10 21 -28 -1 -21 -5 -37 -10 -34 -14 9 -9 -23 7 -36 8 -7 12 -16 9
-21 -3 -5 0 -9 5 -9 6 0 11 -5 11 -11 0 -6 -8 -8 -19 -4 -16 5 -20 1 -18 -17
0 -13 6 -27 12 -31 5 -5 0 -6 -12 -2 -24 7 -32 -3 -49 -55 l-12 -35 -1 30 c0
17 8 41 19 55 11 14 20 36 20 49 l0 23 -117 -5 c-118 -5 -183 -20 -183 -44 0
-7 -9 -17 -19 -23 -29 -15 -39 -12 -16 6 19 16 19 16 -5 9 -32 -10 -148 -97
-149 -112 -1 -6 -10 -15 -22 -18 -23 -8 -59 -61 -59 -88 0 -9 -11 -34 -25 -55
-13 -20 -30 -53 -36 -72 -7 -19 -23 -48 -36 -64 -14 -16 -38 -58 -55 -93 -16
-35 -34 -63 -39 -63 -5 0 -22 -19 -39 -42 -23 -32 -30 -52 -30 -88 0 -31 -5
-50 -13 -53 -21 -8 -57 -93 -57 -135 0 -21 -13 -64 -30 -99 -17 -34 -33 -83
-37 -109 -5 -38 -14 -54 -46 -83 -22 -20 -55 -51 -74 -69 l-33 -32 -155 0
-155 0 0 1144 c0 736 3 1147 10 1151 5 3 18 1 28 -4 11 -6 23 -6 28 -2 5 5 26
14 46 20 28 9 38 19 43 42 4 16 11 29 16 29 5 0 9 5 9 11 0 6 -8 8 -18 5 -12
-4 -25 1 -36 13 -10 11 -24 17 -31 15 -7 -3 -16 -1 -20 5 -3 6 -15 11 -25 11
-10 0 -20 3 -23 8 -2 4 -3 3 -2 -3 1 -5 -1 -19 -5 -30 -9 -24 -25 102 -18 140
3 14 2 25 -1 25 -12 0 -214 -69 -298 -103 l-83 -32 0 -1472 0 -1473 3680 0
3680 0 0 1498 0 1497 -153 48 c-83 26 -159 47 -167 47 -13 0 -15 -149 -12
-1296 l2 -1295 -57 3 c-56 3 -58 4 -70 38 -47 139 -64 177 -98 206 -19 17 -59
71 -89 120 -30 49 -59 88 -66 86 -6 -1 -9 2 -5 7 3 6 -15 38 -40 72 -25 34
-45 67 -45 75 0 8 -5 14 -11 14 -5 0 -7 5 -4 10 3 6 2 10 -4 10 -5 0 -12 8
-15 18 -4 11 -17 25 -31 32 -13 7 -29 27 -36 44 -7 17 -19 39 -27 49 -8 9 -12
17 -8 17 7 0 -36 52 -77 92 -18 17 -26 32 -21 40 6 11 5 11 -8 0 -13 -11 -19
-7 -37 23 -13 23 -16 35 -8 35 7 1 1 9 -12 20 -12 11 -27 17 -32 14 -5 -3 -21
3 -37 13 -49 34 -116 58 -160 58 l-44 0 -26 62 c-16 40 -33 65 -46 69 -12 4
-22 2 -24 -5 -3 -9 -7 -9 -18 0 -11 9 -14 8 -14 -2 0 -9 -5 -7 -12 5 -8 15 -8
21 0 24 7 2 4 14 -10 32 -18 26 -23 27 -33 14 -9 -12 -6 -27 13 -65 14 -27 22
-52 19 -56 -4 -3 -13 10 -22 30 -8 19 -20 39 -27 43 -8 5 -9 2 -4 -12 4 -10 9
-25 10 -32 1 -7 8 -18 14 -24 7 -7 12 -18 12 -25 0 -27 -16 -11 -38 39 -12 28
-25 48 -29 45 -3 -4 -1 -18 6 -31 8 -13 11 -30 8 -38 -3 -7 -12 3 -22 26 -16
38 -16 41 2 54 17 13 17 13 -2 10 -17 -2 -20 3 -22 32 -9 161 -20 213 -47 218
-13 3 -16 0 -11 -10 5 -8 5 -10 -2 -3 -5 6 -20 28 -33 50 -23 39 -23 40 -2 21
19 -17 22 -17 22 -3 0 10 -8 18 -17 18 -10 1 -22 2 -28 4 -5 1 -14 3 -19 3 -5
1 -3 9 4 17 7 9 19 14 27 11 18 -7 16 -1 -4 20 -10 10 -18 26 -18 36 0 10 -4
17 -10 15 -5 -1 -9 -9 -8 -19 1 -9 -5 -22 -14 -30 -15 -11 -16 -10 -11 10 4
12 2 20 -3 16 -5 -3 -9 2 -9 10 0 9 6 16 14 16 8 0 17 7 20 16 3 8 10 12 16 9
16 -10 11 8 -9 35 -16 20 -21 22 -35 11 -17 -15 -22 -46 -6 -36 6 4 7 12 4 18
-5 9 -4 9 5 1 13 -12 5 -44 -11 -44 -18 0 -37 28 -32 48 3 11 1 23 -5 26 -14
9 -14 26 -1 26 6 0 10 -7 10 -15 0 -8 5 -15 10 -15 6 0 10 4 10 9 0 12 -21 27
-50 36 -20 6 -23 5 -12 -6 14 -15 17 -43 3 -35 -5 4 -12 0 -15 -6 -3 -7 -3 -1
0 14 4 18 0 32 -14 46 -11 11 -25 28 -31 38 -10 18 -10 18 -11 0 0 -12 -5 -16
-15 -12 -8 3 -15 1 -15 -4 0 -6 -7 -10 -15 -10 -21 0 -19 9 7 31 11 11 18 22
15 26 -4 3 -16 -2 -27 -12 -20 -18 -21 -18 -50 15 -31 35 -37 46 -20 35 6 -3
10 -1 10 6 0 6 -8 9 -20 6 -11 -3 -23 -1 -26 4 -3 5 0 9 6 9 7 0 6 5 -2 14 -7
8 -16 12 -20 9 -4 -2 -18 2 -30 9 -13 7 -29 11 -35 10 -7 -2 -13 4 -13 11 0 8
-7 17 -15 21 -8 3 -15 1 -15 -4 0 -5 -20 -2 -45 7 -46 15 -68 33 -41 33 8 0
18 -4 21 -10 7 -12 25 -13 25 -2 0 4 -22 19 -49 33 -37 19 -53 23 -61 15 -8
-8 -15 -6 -25 7 -10 14 -21 17 -49 12 -24 -5 -36 -3 -36 4 0 16 48 32 83 29
19 -2 32 2 35 11 3 10 0 12 -12 8 -20 -8 -48 2 -40 14 3 5 -2 9 -10 9 -9 0
-16 5 -16 10 0 6 -7 10 -15 10 -8 0 -15 5 -15 10 0 13 47 13 55 0 4 -6 11 -8
16 -5 5 4 9 -2 10 -12 0 -10 3 -13 5 -7 3 8 19 8 54 1 33 -6 59 -6 80 2 27 9
31 8 26 -4 -3 -9 0 -15 8 -15 8 0 16 7 20 15 7 19 42 20 53 1 13 -22 51 -38
59 -25 9 15 -23 39 -42 32 -8 -3 -14 0 -14 6 0 6 -7 11 -16 11 -8 0 -13 4 -9
9 11 19 -17 23 -36 5 -10 -9 -19 -12 -19 -7 0 6 -9 13 -20 16 -11 3 -20 12
-20 21 0 9 -4 16 -10 16 -5 0 -10 5 -10 10 0 6 10 8 23 6 70 -14 88 -19 93
-27 3 -5 12 -9 21 -9 9 0 24 -6 32 -14 23 -21 73 -25 78 -6 4 13 3 13 -6 0 -8
-12 -12 -10 -20 10 -5 14 -10 19 -10 11 -1 -8 -4 -11 -7 -8 -4 4 -1 13 6 22 7
8 9 15 4 15 -12 0 -114 96 -114 107 0 8 -37 36 -52 39 -5 1 -9 3 -10 4 -8 7
-139 6 -144 -1 -9 -15 -27 -10 -20 6 6 17 -9 21 -19 5 -4 -7 -12 -7 -18 -2
-19 13 -77 15 -92 2 -10 -9 -19 -9 -35 0 -16 9 -25 8 -36 -1 -11 -9 -17 -9
-29 1 -11 9 -15 9 -15 1 0 -7 -4 -10 -10 -6 -5 3 -24 -1 -42 -8 -18 -8 -50
-17 -70 -21 -21 -4 -38 -11 -38 -16 0 -6 -13 -10 -30 -10 -22 0 -30 -5 -30
-17 0 -13 -3 -14 -12 -5 -10 10 -7 15 9 27 12 9 29 22 37 30 8 8 26 15 41 15
15 0 24 4 20 10 -4 6 -11 8 -16 5 -5 -4 -14 -3 -20 1 -19 11 12 23 45 17 21
-4 27 -3 22 5 -4 7 -24 12 -44 12 l-37 1 25 15 c14 8 18 13 10 12 -9 -2 -17 2
-18 7 -1 6 2 10 7 10 5 0 13 3 17 8 4 4 -1 7 -12 7 -18 1 -18 1 0 11 15 9 16
13 5 20 -10 6 -8 9 8 9 12 0 25 5 29 11 4 7 0 9 -14 5 -15 -5 -21 -1 -26 16
-9 35 -7 41 10 34 8 -3 12 -2 9 4 -3 6 1 10 9 10 9 0 16 5 16 11 0 5 -4 8 -9
4 -5 -3 -13 0 -17 6 -3 6 -1 15 5 19 9 5 7 11 -5 21 -10 8 -15 9 -11 3 6 -11
-21 -29 -30 -20 -2 2 3 21 12 42 11 25 15 60 13 99 -1 33 0 65 3 70 2 6 2 30
-2 55 -3 25 -7 35 -7 23 -3 -31 -19 -29 -19 2 0 16 5 25 16 25 9 0 12 3 6 8
-6 4 -10 25 -10 47 0 32 -5 42 -25 52 -14 7 -24 17 -23 22 2 6 -5 12 -15 15
-9 3 -23 15 -31 27 -11 19 -11 21 4 15 9 -3 21 -6 26 -6 6 0 7 -5 4 -11 -4 -6
2 -5 14 3 19 11 19 13 3 22 -26 15 -52 50 -47 64 2 6 0 12 -4 12 -5 0 -11 -5
-13 -11 -2 -6 -17 5 -32 26 -25 32 -26 35 -8 26 18 -10 24 -8 34 9 7 11 22 20
33 21 19 0 -79 32 -135 43 -14 3 -34 12 -45 21 -20 16 -19 16 3 5 24 -12 29
-2 10 19 -8 7 1 6 26 -4 21 -9 51 -18 67 -20 26 -3 28 -1 19 16 -6 10 -15 19
-21 19 -17 0 -36 24 -31 39 3 9 0 11 -8 6 -10 -6 -12 -4 -7 7 4 12 1 14 -15
10 -14 -3 -19 -1 -14 6 4 8 2 10 -7 6 -10 -3 -17 4 -21 21 -4 14 -11 23 -16
20 -5 -3 -13 2 -18 11 -6 11 -11 13 -16 5 -4 -6 -12 -11 -19 -11 -8 0 -8 3 1
12 7 7 12 17 12 22 0 6 -5 5 -12 -2 -17 -17 -28 -15 -28 4 0 9 -5 12 -12 8 -8
-5 -9 -2 -5 9 3 10 2 17 -2 17 -5 0 -11 -5 -13 -11 -5 -14 -38 0 -38 17 0 8
-6 11 -15 8 -10 -4 -15 0 -15 10 0 14 -4 15 -22 5 -19 -9 -21 -9 -10 2 20 21
14 34 -8 14 -23 -20 -26 -14 -8 18 10 19 9 21 -4 9 -11 -8 -18 -9 -22 -3 -4 6
-13 8 -21 4 -8 -3 -15 0 -15 7 0 6 -4 8 -10 5 -5 -3 -10 1 -10 9 0 9 -4 16
-10 16 -5 0 -10 -9 -10 -21 0 -12 -5 -19 -12 -16 -14 5 -14 10 -2 42 7 19 7
19 -9 3 -9 -9 -17 -22 -17 -28 0 -6 -5 -8 -10 -5 -6 4 -8 10 -5 15 6 9 -24 24
-42 21 -7 -1 -13 3 -13 9 0 6 -5 8 -10 5 -6 -3 -14 4 -19 17 -7 17 -10 19 -10
6 -1 -10 -6 -18 -12 -18 -6 0 -8 8 -4 19 3 11 1 22 -4 25 -5 4 -12 -7 -16 -24
-4 -16 -11 -30 -16 -30 -6 0 -7 5 -4 10 3 6 -1 10 -10 10 -10 0 -13 -5 -9 -12
4 -7 3 -8 -4 -4 -6 4 -9 13 -5 21 3 8 0 15 -6 15 -6 0 -10 -3 -10 -7 4 -26 -2
-31 -31 -23 -17 5 -33 9 -37 9 -4 0 -10 8 -14 18 -6 15 -8 14 -9 -7 -1 -24 -1
-24 -15 -6 -8 11 -15 14 -15 8 0 -7 -4 -12 -10 -12 -5 0 -10 9 -10 20 0 11 -4
20 -9 20 -5 0 -7 -9 -4 -20z m333 -64 c0 -11 -19 -15 -25 -6 -3 5 1 10 9 10 9
0 16 -2 16 -4z m145 -46 c3 -5 1 -10 -4 -10 -6 0 -11 5 -11 10 0 6 2 10 4 10
3 0 8 -4 11 -10z m-1015 -132 c0 -13 -23 -5 -28 10 -2 7 2 10 12 6 9 -3 16
-11 16 -16z m967 -4 c10 -14 26 -33 36 -42 29 -27 25 -30 -43 -35 -34 -2 -35
-1 -38 37 -6 68 13 86 45 40z m-371 -48 c-8 -20 -43 -64 -76 -98 l-60 -62 -30
29 -30 29 32 33 c18 18 37 33 43 33 7 0 20 9 30 20 20 22 41 27 29 8 -5 -7 9
2 30 20 21 18 40 31 43 29 2 -3 -3 -21 -11 -41z m684 30 c0 -3 -4 -8 -10 -11
-5 -3 -10 -1 -10 4 0 6 5 11 10 11 6 0 10 -2 10 -4z m-142 -266 c2 -13 -35
-46 -43 -38 -2 2 -1 16 2 31 6 30 35 35 41 7z m-202 -37 c-10 -10 -19 5 -10
18 6 11 8 11 12 0 2 -7 1 -15 -2 -18z m-776 2 c0 -9 7 -27 16 -40 15 -24 15
-25 -3 -25 -29 0 -85 30 -80 43 3 12 44 37 60 37 4 0 7 -7 7 -15z m305 -545
c3 -5 -1 -10 -10 -10 -9 0 -13 5 -10 10 3 6 8 10 10 10 2 0 7 -4 10 -10z
m-670 -150 c3 -5 1 -10 -4 -10 -6 0 -11 5 -11 10 0 6 2 10 4 10 3 0 8 -4 11
-10z m1130 -10 c24 0 50 -24 41 -38 -3 -5 -18 -8 -33 -7 -15 1 -59 3 -97 3
-52 2 -67 5 -59 13 17 17 117 48 121 38 2 -5 14 -9 27 -9z m-578 -30 c13 9 33
10 59 5 37 -7 38 -8 14 -17 -39 -14 -152 -15 -157 0 -3 7 4 12 16 12 12 0 21
5 21 12 0 6 6 4 13 -6 11 -16 17 -16 34 -6z m128 -8 c-3 -3 -11 0 -18 7 -9 10
-8 11 6 5 10 -3 15 -9 12 -12z m229 -2 c17 -7 13 -9 -19 -11 -67 -4 -88 -3
-135 5 -28 4 -40 10 -32 15 15 9 158 2 186 -9z m-839 -9 c-3 -6 -11 -11 -17
-11 -6 0 -6 6 2 15 14 17 26 13 15 -4z m5 -31 c0 -5 -7 -7 -15 -3 -13 4 -15 0
-11 -21 3 -19 -1 -30 -17 -41 -24 -17 -30 -15 -21 9 3 9 11 13 17 9 6 -3 7 -1
3 6 -12 19 4 51 25 51 10 0 19 -4 19 -10z m908 -42 c5 15 49 16 57 1 23 -36
-35 -89 -60 -55 -11 14 -13 13 -23 -9 -10 -21 -18 -25 -57 -25 -42 0 -45 2
-45 26 0 15 -4 23 -10 19 -6 -4 -9 -14 -8 -23 3 -14 -6 -17 -47 -17 l-50 0 0
40 c0 40 0 40 40 41 22 1 46 -3 53 -9 8 -6 16 -6 25 1 18 15 58 19 91 8 21 -7
31 -6 34 2z m-358 -19 c0 -6 -4 -7 -10 -4 -5 3 -10 11 -10 16 0 6 5 7 10 4 6
-3 10 -11 10 -16z m90 6 c19 -23 8 -50 -20 -50 -21 0 -26 5 -28 33 -3 26 0 32
16 32 11 0 25 -7 32 -15z m1565 5 c3 -5 2 -10 -4 -10 -5 0 -13 5 -16 10 -3 6
-2 10 4 10 5 0 13 -4 16 -10z m-1009 -67 c4 -37 12 -72 18 -78 6 -6 34 -12 61
-14 76 -4 175 -9 223 -10 30 -1 42 -5 39 -13 -2 -7 -11 -12 -21 -10 -9 2 -16
-2 -16 -7 0 -16 42 -51 53 -44 6 4 7 1 2 -7 -5 -9 -2 -10 13 -6 11 4 23 2 27
-4 3 -5 3 -10 -2 -11 -18 -2 -72 -7 -148 -13 -44 -3 -127 -12 -185 -20 -58 -8
-134 -17 -170 -21 -36 -3 -92 -10 -125 -15 -33 -5 -82 -12 -110 -15 -27 -3
-86 -12 -130 -20 -48 -8 -81 -10 -83 -4 -2 5 -8 9 -13 9 -6 0 -7 -4 -4 -10 3
-5 -7 -12 -22 -16 -15 -3 -64 -17 -108 -31 -44 -13 -87 -22 -97 -20 -9 3 -19
-1 -22 -8 -2 -7 -19 -15 -38 -18 -18 -3 -44 -8 -58 -12 l-25 -6 24 14 c17 10
20 16 11 22 -6 4 -16 3 -22 -3 -15 -15 -33 6 -35 38 -1 14 1 20 5 15 10 -14
44 -15 39 -1 -2 6 -17 11 -34 11 -22 -1 -29 3 -26 15 2 8 0 26 -5 39 l-8 23
-18 -27 c-16 -25 -16 -27 -2 -22 10 4 16 1 16 -8 0 -8 -4 -15 -9 -15 -13 0
-32 26 -24 33 3 4 1 7 -6 7 -6 0 -11 7 -9 16 2 10 -7 20 -20 25 -15 6 -21 5
-17 -1 3 -6 -5 -10 -19 -10 -14 0 -29 7 -34 16 -6 12 -17 15 -32 11 l-22 -6
20 20 c12 10 30 19 40 19 11 0 25 7 33 16 7 9 22 14 36 11 13 -2 28 2 35 10 7
9 21 12 40 8 18 -4 28 -3 28 5 0 8 11 10 34 6 21 -4 37 -2 41 5 4 6 17 8 29 5
17 -4 24 1 32 22 8 20 7 33 0 45 -8 12 -7 22 2 37 6 11 12 27 12 35 0 21 17
19 30 -4 13 -25 13 -34 -1 -26 -6 4 -5 -3 3 -14 11 -18 11 -23 -2 -31 -9 -6
-10 -10 -3 -10 6 0 14 -9 18 -19 6 -19 60 -34 80 -23 5 4 22 5 36 4 17 -2 29
3 33 13 3 10 2 14 -5 10 -5 -4 -15 -2 -22 3 -7 6 -14 10 -17 11 -29 1 -59 41
-30 41 6 0 10 -3 10 -8 0 -4 30 -18 66 -31 49 -17 76 -22 107 -17 23 4 73 9
111 12 39 3 89 12 111 20 22 7 47 14 56 14 9 0 27 8 40 18 13 10 48 27 77 37
29 11 60 27 69 37 9 10 20 18 24 18 4 0 11 -30 15 -67z m981 51 c-3 -3 -12 -4
-19 -1 -8 3 -5 6 6 6 11 1 17 -2 13 -5z m-2162 -24 c22 -11 35 -19 29 -20 -7
0 -24 6 -39 14 -15 8 -34 12 -43 9 -10 -4 -13 -2 -8 5 9 16 13 15 61 -8z m225
0 c0 -5 -2 -10 -4 -10 -3 0 -8 5 -11 10 -3 6 -1 10 4 10 6 0 11 -4 11 -10z
m1340 -25 c10 -13 9 -15 -11 -14 -13 0 -18 3 -11 6 6 2 10 9 6 14 -9 15 2 10
16 -6z m352 -42 c-3 -9 -11 -5 -23 11 -27 35 -24 56 5 26 13 -14 21 -31 18
-37z m186 21 c61 -27 73 -39 64 -62 -4 -12 -7 -11 -13 5 -8 21 -68 40 -78 24
-3 -4 -15 -5 -26 0 -19 7 -19 8 3 8 12 1 22 6 22 12 0 5 -5 7 -10 4 -6 -4 -26
3 -45 14 -19 11 -34 17 -34 13 1 -4 1 -14 0 -22 -1 -12 -4 -11 -12 3 -8 14
-14 16 -25 6 -10 -8 -14 -9 -14 0 0 18 41 31 79 25 18 -3 59 -17 89 -30z
m-2403 16 c-3 -5 -12 -10 -18 -10 -7 0 -6 4 3 10 19 12 23 12 15 0z m2195 -50
c0 -5 -4 -10 -10 -10 -5 0 -10 5 -10 10 0 6 5 10 10 10 6 0 10 -4 10 -10z m83
-82 c2 -7 1 -22 -4 -33 -7 -18 -8 -19 -8 -1 -1 13 -6 17 -21 13 -11 -3 -23 0
-27 5 -3 6 -1 8 4 5 6 -4 13 0 17 8 7 18 32 20 39 3z m-73 -37 c0 -5 -7 -11
-15 -15 -15 -5 -20 5 -8 17 9 10 23 9 23 -2z m-2530 -11 c0 -5 -4 -10 -10 -10
-5 0 -10 5 -10 10 0 6 5 10 10 10 6 0 10 -4 10 -10z m2247 -16 c-3 -3 -12 -4
-19 -1 -8 3 -5 6 6 6 11 1 17 -2 13 -5z m340 -72 c-10 -10 -14 -22 -10 -25 3
-4 0 -7 -9 -7 -27 0 -29 14 -6 32 30 23 46 23 25 0z m-1862 -11 c-3 -6 -11 -8
-17 -5 -6 4 -5 9 3 15 16 10 23 4 14 -10z m-605 -48 c1 -16 2 -16 15 1 13 17
15 18 21 2 8 -20 7 -21 -28 -30 -25 -6 -28 -4 -26 19 3 28 18 35 18 8z m2405
1 c-7 -8 -18 -14 -24 -14 -6 0 -11 -6 -11 -12 0 -10 -2 -10 -8 -1 -5 8 -11 8
-24 -1 -10 -7 -15 -16 -11 -19 3 -4 -1 -7 -9 -7 -9 0 -18 -4 -20 -8 -1 -5 -16
-12 -33 -16 -23 -6 -14 4 40 42 38 27 79 50 92 50 19 0 20 -3 8 -14z m-1030
-23 c-3 -6 -11 -11 -16 -11 -5 0 -4 6 3 14 14 16 24 13 13 -3z m-687 -11 c-14
-22 -24 -19 -15 5 4 8 11 15 17 15 6 0 6 -7 -2 -20z m757 -1 c0 -8 4 -20 8
-26 10 -15 -2 -17 -23 -3 -13 9 -13 11 0 20 13 9 13 11 0 21 -13 9 -13 10 0 6
8 -2 15 -10 15 -18z m65 -20 c0 -4 -7 -6 -15 -3 -8 4 -15 10 -15 15 0 4 7 6
15 3 8 -4 15 -10 15 -15z m-986 -2 c-12 -7 -19 -18 -17 -24 5 -14 -9 -16 -44
-7 -32 9 -30 33 2 29 14 -1 25 2 25 6 0 5 12 9 28 9 26 -1 26 -1 6 -13z m-590
-13 c8 -21 8 -24 -3 -24 -5 0 -11 9 -14 20 -6 24 8 27 17 4z m346 -2 c0 -4 -9
-8 -20 -8 -11 0 -20 4 -20 8 0 4 9 8 20 8 11 0 20 -4 20 -8z m146 -19 c-10
-10 -19 5 -10 18 6 11 8 11 12 0 2 -7 1 -15 -2 -18z m-268 -3 c7 -12 8 -20 2
-20 -5 0 -10 5 -10 10 0 6 -9 10 -19 10 -28 0 -34 15 -7 18 12 1 27 -7 34 -18z
m212 14 c0 -3 -6 -12 -14 -20 -11 -10 -17 -11 -22 -3 -3 6 0 15 7 20 16 10 29
12 29 3z m1145 -25 c4 -17 12 -32 19 -35 7 -3 10 -18 8 -39 -3 -27 0 -35 11
-35 23 0 27 22 8 44 -9 11 -10 16 -3 12 6 -4 12 -2 12 3 0 6 -4 11 -9 11 -5 0
-11 7 -14 14 -4 10 -1 13 9 9 16 -6 20 13 4 20 -6 3 -5 5 1 3 6 -1 17 -17 23
-35 12 -36 40 -61 53 -48 4 5 3 11 -2 15 -6 4 -12 25 -13 47 -2 22 0 37 4 32
4 -4 8 -15 9 -25 6 -70 34 -106 66 -86 7 4 10 1 7 -7 -3 -8 -15 -13 -26 -11
-12 2 -22 -2 -22 -8 0 -8 -9 -10 -25 -6 -20 5 -23 3 -18 -11 3 -10 10 -23 15
-30 6 -7 7 -17 3 -23 -3 -5 -4 -10 -1 -10 2 0 13 -3 23 -6 14 -5 15 -4 4 4
-12 8 -12 14 -3 25 7 7 9 16 6 20 -3 3 3 3 15 0 12 -3 21 -1 21 6 0 18 30 13
37 -6 3 -10 16 -31 27 -48 12 -16 19 -31 16 -32 -3 -1 3 -12 13 -23 10 -12 15
-25 12 -29 -3 -5 2 -12 11 -15 11 -4 13 -10 7 -19 -5 -6 -10 -23 -11 -36 -1
-30 -9 -38 -24 -23 -9 9 -9 12 0 12 7 0 12 5 12 10 0 7 -7 7 -20 0 -11 -6 -18
-15 -15 -21 4 -5 0 -9 -7 -10 -10 0 -10 -2 0 -6 6 -2 12 -9 12 -15 0 -6 -7 -7
-16 -4 -14 5 -15 4 -4 -9 16 -19 1 -20 -25 -1 -18 12 -20 11 -21 -10 -1 -13 2
-21 7 -18 5 3 9 -1 9 -9 0 -10 27 3 78 37 78 50 79 51 66 77 -12 25 -12 27 6
22 11 -3 16 -11 13 -19 -8 -22 15 -17 27 6 10 19 6 24 -13 21 -5 -1 -5 4 -1
10 4 7 -1 18 -11 26 -14 9 -15 13 -4 13 11 1 10 3 -3 13 -9 7 -20 26 -23 43
-6 28 -6 28 9 10 9 -11 16 -26 16 -33 0 -7 4 -13 9 -13 7 0 23 -35 23 -50 0
-3 6 -11 13 -17 11 -10 20 -8 43 12 16 13 32 22 36 18 3 -3 6 -1 6 5 0 13 28
42 40 42 5 0 7 -7 4 -15 -4 -8 -10 -13 -14 -10 -5 3 -11 -4 -15 -15 -3 -11
-12 -20 -20 -20 -8 0 -17 -9 -20 -20 -3 -11 -13 -20 -20 -20 -8 0 -17 -5 -20
-10 -4 -7 3 -9 22 -6 l28 6 -27 -12 c-16 -7 -28 -15 -28 -19 0 -9 30 -39 75
-78 22 -18 25 -25 14 -32 -9 -5 -15 -4 -17 4 -3 16 -52 38 -65 30 -6 -3 -7 -1
-3 6 9 14 -20 45 -34 36 -5 -3 -10 -11 -10 -17 0 -6 2 -9 5 -6 6 6 95 -81 95
-93 0 -5 4 -9 9 -9 6 0 18 -13 27 -29 10 -17 22 -27 27 -24 5 3 8 0 5 -8 -6
-17 -34 -19 -31 -1 2 6 -6 12 -17 12 -13 0 -18 5 -14 15 4 10 0 15 -11 15 -11
0 -15 5 -11 15 3 10 1 15 -7 13 -12 -3 -36 13 -106 69 -26 20 -27 20 -27 2 0
-12 5 -18 13 -15 7 3 13 1 13 -4 0 -11 59 -70 71 -70 5 0 9 -6 9 -14 0 -8 9
-17 19 -21 11 -3 23 -15 26 -26 4 -10 11 -19 16 -19 5 0 9 -9 9 -21 0 -11 4
-18 9 -15 5 3 24 -12 43 -35 18 -22 43 -53 55 -67 13 -15 23 -36 23 -46 0 -20
0 -20 -15 0 -8 10 -15 25 -15 31 0 7 -3 12 -7 11 -10 -4 -113 99 -113 112 0 5
-8 10 -17 10 -9 0 -14 3 -10 6 3 3 -5 16 -19 29 -15 14 -22 29 -18 39 5 12 2
15 -10 10 -20 -7 -59 24 -49 39 3 6 1 7 -6 3 -6 -4 -14 0 -17 8 -3 9 -12 16
-20 16 -8 0 -14 5 -14 10 0 6 -9 10 -20 10 -24 0 -25 -6 -5 -26 8 -9 15 -13
15 -9 0 3 13 -6 29 -22 16 -16 25 -32 21 -37 -13 -13 -72 14 -66 30 3 8 -1 14
-10 14 -9 0 -12 5 -8 11 4 8 0 9 -15 4 -26 -8 -27 3 -3 21 16 12 16 13 0 14
-9 0 -19 -9 -23 -20 -3 -11 -9 -19 -13 -19 -19 3 -32 -2 -32 -12 0 -9 4 -9 13
0 11 8 21 5 43 -15 16 -14 42 -32 57 -40 15 -8 25 -19 22 -24 -4 -6 -1 -10 6
-10 6 0 22 -11 35 -25 22 -24 24 -25 34 -6 13 25 13 41 0 21 -9 -13 -10 -13
-11 0 -1 8 -1 19 0 24 1 5 -5 6 -14 3 -8 -4 -15 -2 -15 3 0 20 32 9 61 -19 16
-16 29 -33 29 -38 0 -5 9 -15 20 -23 11 -8 20 -20 20 -27 0 -7 6 -13 13 -13
13 0 57 -59 57 -78 0 -7 10 -17 23 -22 21 -8 21 -9 1 -9 -13 -1 -25 8 -32 24
-6 14 -16 25 -22 25 -5 0 -10 8 -10 17 0 9 -3 14 -6 11 -3 -4 -28 17 -55 45
-40 42 -52 49 -59 37 -7 -11 -4 -16 10 -18 11 -2 18 -7 15 -12 -3 -5 8 -24 25
-41 16 -18 30 -36 30 -40 0 -5 5 -9 11 -9 11 0 39 -24 39 -34 0 -3 -9 -6 -20
-6 -12 0 -25 10 -32 25 -6 14 -16 25 -23 25 -6 0 -18 11 -25 25 -7 14 -18 25
-23 25 -6 0 -25 16 -44 35 -19 19 -36 35 -39 35 -3 0 -12 7 -20 15 -9 8 -13
15 -10 15 3 0 -2 9 -11 20 -10 11 -24 20 -32 20 -7 0 -22 10 -32 22 -13 14
-19 16 -19 7 0 -11 -2 -11 -11 1 -9 13 -10 13 -6 0 2 -8 8 -15 13 -15 5 -1 28
-19 51 -40 23 -22 60 -56 82 -75 23 -19 41 -39 41 -44 0 -5 12 -20 27 -34 17
-15 23 -27 16 -29 -7 -3 -29 13 -49 34 -21 21 -41 37 -46 35 -4 -1 -8 5 -8 13
0 8 -4 15 -10 15 -16 0 -12 -30 5 -36 8 -4 15 -13 15 -21 0 -8 4 -12 9 -9 4 3
13 -6 19 -19 7 -14 16 -25 21 -25 6 0 15 -9 21 -20 6 -11 9 -20 7 -20 -2 0
-33 28 -69 63 -99 96 -141 127 -154 116 -7 -6 -21 -2 -40 13 -16 12 -31 23
-33 25 -2 2 -2 6 2 9 3 3 16 -3 28 -15 13 -12 30 -21 38 -20 13 0 12 3 -3 12
-11 7 -28 20 -38 30 -10 9 -23 17 -29 17 -5 0 -7 5 -4 10 4 6 11 7 17 4 7 -5
8 -2 3 5 -5 9 -13 8 -29 -7 -20 -19 -56 -26 -56 -12 0 11 21 25 60 40 37 15
119 70 120 81 0 4 -10 10 -22 14 -14 4 -18 8 -10 12 6 2 12 9 12 14 0 6 -4 8
-8 5 -5 -3 -19 6 -30 19 -12 14 -18 25 -13 25 5 0 4 18 -3 39 -13 46 -24 61
-20 28 1 -12 3 -22 4 -22 1 0 3 -10 4 -22 2 -13 -2 -23 -8 -23 -5 0 -2 -6 9
-13 10 -8 15 -19 11 -25 -3 -6 -2 -13 3 -17 6 -3 8 -12 4 -20 -3 -8 0 -15 7
-15 10 0 10 -3 0 -15 -11 -13 -15 -12 -37 5 -33 25 -46 25 -38 0 10 -32 -4
-41 -27 -18 -14 14 -18 23 -10 26 7 2 9 8 6 13 -3 6 -12 2 -19 -8 -7 -10 -10
-22 -7 -28 4 -5 8 -18 9 -29 3 -16 1 -17 -12 -6 -8 7 -21 24 -28 39 -7 14 -21
27 -32 28 -11 2 -14 0 -7 -3 6 -3 12 -10 12 -15 0 -27 -58 7 -63 37 -1 10 -6
25 -10 32 -5 7 -3 12 3 12 25 0 1 25 -26 27 -21 2 -25 0 -14 -7 8 -5 16 -14
16 -20 1 -5 2 -11 3 -12 2 -2 4 -15 6 -30 5 -42 -10 -34 -24 12 -11 36 -14 39
-32 29 -16 -8 -18 -13 -8 -25 7 -9 8 -14 1 -14 -23 0 -24 41 -2 60 17 15 18
20 7 27 -7 4 -16 16 -20 26 -7 18 -37 24 -37 7 0 -5 8 -10 18 -10 14 0 15 -2
2 -10 -12 -8 -12 -10 3 -16 16 -6 15 -24 -3 -24 -10 0 -52 71 -46 78 3 2 -4
18 -15 33 -11 16 -15 29 -9 29 6 0 5 12 -5 31 -9 17 -14 33 -12 35 7 7 57 -18
57 -28 0 -5 -5 -6 -12 -2 -7 4 -8 3 -4 -4 4 -7 11 -12 15 -12 13 0 21 39 10
46 -6 3 -7 14 -4 25 4 10 2 19 -3 19 -5 0 -8 12 -6 26 3 34 -15 53 -41 43 -11
-4 -14 -8 -7 -8 9 -1 11 -8 7 -22 -5 -16 -4 -19 6 -14 9 6 11 2 7 -13 -4 -14
-2 -22 6 -22 7 0 13 -7 13 -15 0 -20 -16 -19 -39 2 -20 18 -25 38 -6 27 7 -4
8 -3 4 4 -4 6 -20 10 -37 8 -18 -2 -28 1 -26 7 2 6 13 11 25 12 24 2 44 15 23
15 -8 0 -11 6 -7 16 4 9 1 23 -5 30 -8 10 -8 14 -1 14 6 0 9 7 6 15 -5 11 -2
13 10 9 9 -3 16 -11 15 -18 -3 -26 2 -35 21 -33 11 1 22 7 25 15 3 7 9 10 15
7 6 -4 8 -10 5 -15 -3 -5 1 -25 9 -45 8 -19 12 -35 8 -35 -4 -1 4 -10 18 -22
l25 -21 -25 8 -25 7 22 -19 c16 -14 21 -27 17 -47 -6 -33 19 -45 45 -22 16 15
19 15 24 1 4 -8 1 -15 -6 -15 -8 0 -8 -3 2 -9 7 -5 11 -13 7 -19 -3 -6 -1 -14
5 -17 5 -4 8 -13 6 -19 -3 -7 3 -19 14 -27 18 -13 28 -36 10 -25 -4 3 -6 -6
-3 -20 4 -23 5 -23 17 -7 9 12 10 23 4 35 -5 10 -6 18 -2 18 4 0 1 5 -7 10
-13 9 -13 11 0 20 13 8 13 10 -2 10 -11 0 -15 5 -12 15 3 8 0 17 -8 20 -20 8
-19 35 1 36 9 0 3 5 -13 11 -22 8 -31 8 -34 0 -11 -34 -45 28 -37 68 2 11 0
20 -5 20 -5 0 -14 9 -20 20 -9 17 -8 19 7 13 15 -6 16 -4 6 9 -7 8 -10 18 -6
21 3 4 1 13 -6 21 -9 11 -9 15 1 19 10 4 10 8 -2 16 -8 6 -10 11 -5 11 6 0 20
-7 31 -15 12 -8 24 -12 26 -9 11 11 48 13 42 2 -5 -7 0 -9 12 -6 43 12 48 13
49 3 0 -5 4 -16 8 -22 5 -7 5 -17 2 -23 -3 -5 4 -10 16 -10 19 0 20 2 8 17
-12 15 -12 16 4 10 9 -3 17 -2 17 2 0 5 -7 11 -15 15 -17 6 -21 46 -4 46 6 0
9 7 5 15 -3 8 -1 15 4 15 4 0 11 -14 15 -31z m-1538 14 c-4 -3 -3 -11 3 -18 6
-8 -1 -11 -25 -12 -19 -1 -35 3 -35 8 0 5 9 9 20 9 11 0 20 5 20 10 0 6 5 10
12 10 6 0 8 -3 5 -7z m1153 -15 c0 -6 -6 -5 -15 2 -8 7 -15 14 -15 16 0 2 7 1
15 -2 8 -4 15 -11 15 -16z m325 12 c3 -5 2 -10 -4 -10 -5 0 -13 5 -16 10 -3 6
-2 10 4 10 5 0 13 -4 16 -10z m-1150 -10 c-3 -5 -10 -10 -16 -10 -5 0 -9 5 -9
10 0 6 7 10 16 10 8 0 12 -4 9 -10z m-215 -10 c0 -5 -5 -10 -11 -10 -5 0 -7 5
-4 10 3 6 8 10 11 10 2 0 4 -4 4 -10z m165 -6 c10 -10 24 -14 40 -10 16 4 25
2 25 -5 0 -7 -15 -10 -40 -7 -31 3 -40 0 -40 -12 -1 -15 -29 26 -30 43 0 13
28 7 45 -9z m-205 -8 c0 -3 -4 -8 -10 -11 -5 -3 -10 -1 -10 4 0 6 5 11 10 11
6 0 10 -2 10 -4z m415 -6 c-3 -5 -10 -10 -16 -10 -5 0 -9 5 -9 10 0 6 7 10 16
10 8 0 12 -4 9 -10z m-451 -8 c2 -4 -4 -9 -15 -9 -11 -1 -17 2 -14 8 7 11 22
12 29 1z m-47 -8 c-3 -3 -12 -4 -19 -1 -8 3 -5 6 6 6 11 1 17 -2 13 -5z m158
-4 c3 -5 1 -10 -4 -10 -6 0 -11 5 -11 10 0 6 2 10 4 10 3 0 8 -4 11 -10z m225
-11 c0 -11 -4 -18 -10 -14 -5 3 -7 12 -3 20 7 21 13 19 13 -6z m43 -11 c-5
-10 -33 10 -33 23 0 5 9 4 19 -3 11 -7 17 -16 14 -20z m757 8 c0 -3 -4 -8 -10
-11 -5 -3 -10 -1 -10 4 0 6 5 11 10 11 6 0 10 -2 10 -4z m-1285 -16 c3 -6 -1
-7 -9 -4 -18 7 -21 14 -7 14 6 0 13 -4 16 -10z m210 -9 c-3 -6 -11 -8 -17 -5
-6 4 -5 9 3 15 16 10 23 4 14 -10z m350 -21 c-4 -7 -35 -7 -63 -1 -2 1 -1 5 2
9 3 5 19 7 35 4 17 -2 29 -8 26 -12z m149 2 c50 0 74 -21 26 -24 -32 -1 -47
-3 -60 -7 -3 -1 -20 -4 -37 -5 -27 -3 -33 0 -33 15 0 11 7 19 15 19 8 0 15 5
15 10 0 7 6 7 18 1 9 -5 34 -9 56 -9z m-409 -2 c3 -5 1 -10 -4 -10 -6 0 -11 5
-11 10 0 6 2 10 4 10 3 0 8 -4 11 -10z m925 -4 c0 -3 -4 -8 -10 -11 -5 -3 -10
-1 -10 4 0 6 5 11 10 11 6 0 10 -2 10 -4z m-1530 -21 c0 -8 -4 -15 -10 -15 -5
0 -7 7 -4 15 4 8 8 15 10 15 2 0 4 -7 4 -15z m900 0 c0 -8 -4 -15 -9 -15 -5 0
-11 7 -15 15 -3 9 0 15 9 15 8 0 15 -7 15 -15z m1310 5 c0 -5 -4 -10 -10 -10
-5 0 -10 5 -10 10 0 6 5 10 10 10 6 0 10 -4 10 -10z m64 -16 c9 -24 7 -28 -9
-14 -17 14 -20 30 -6 30 5 0 12 -7 15 -16z m-1574 -25 c0 -4 -9 -9 -20 -12
-11 -3 -18 -2 -17 1 2 4 7 16 11 27 6 16 9 17 16 5 6 -8 10 -18 10 -21z m830
21 c13 -8 13 -10 -2 -10 -9 0 -20 5 -23 10 -8 13 5 13 25 0z m-670 -16 c0 -2
-7 -4 -15 -4 -8 0 -15 4 -15 10 0 5 7 7 15 4 8 -4 15 -8 15 -10z m220 12 c0
-3 -4 -8 -10 -11 -5 -3 -10 -1 -10 4 0 6 5 11 10 11 6 0 10 -2 10 -4z m1176
-50 c3 -14 11 -26 16 -26 6 0 8 -7 4 -15 -3 -9 0 -15 8 -15 8 0 14 -11 14 -24
0 -17 -5 -23 -15 -19 -8 3 -12 11 -9 18 3 8 -2 16 -10 19 -9 3 -13 10 -9 16 3
5 -3 19 -13 30 -23 25 -29 78 -6 56 7 -8 16 -25 20 -40z m-1296 32 c0 -4 -4
-8 -9 -8 -6 0 -12 4 -15 8 -3 5 1 9 9 9 8 0 15 -4 15 -9z m646 0 c4 -6 2 -14
-4 -16 -7 -2 -12 -8 -12 -14 0 -6 7 -8 15 -4 12 4 14 0 9 -19 -3 -14 -2 -25 3
-25 5 0 9 -9 9 -20 0 -11 -4 -20 -8 -20 -11 0 -27 42 -21 53 3 4 1 13 -4 20
-12 16 -14 57 -3 57 5 0 12 -5 16 -12z m-872 -5 c4 -5 13 -8 19 -8 7 0 13 -8
15 -17 3 -14 -3 -18 -28 -18 -18 0 -29 4 -25 10 3 6 2 10 -4 10 -6 0 -8 7 -5
15 7 16 17 19 28 8z m-254 -13 c0 -5 -5 -10 -11 -10 -5 0 -7 5 -4 10 3 6 8 10
11 10 2 0 4 -4 4 -10z m146 -5 c-15 -8 -33 -12 -40 -8 -7 4 -6 1 2 -9 10 -13
9 -15 -13 -10 -14 2 -25 8 -25 12 0 8 56 28 85 29 16 1 14 -2 -9 -14z m916 -9
c-2 -10 4 -16 15 -16 12 0 14 -3 6 -11 -15 -15 -30 -5 -35 26 -4 16 -1 24 6
22 6 -2 10 -11 8 -21z m-688 3 c-6 -11 -44 -12 -44 -1 0 4 11 8 25 8 14 1 22
-2 19 -7z m-865 -28 c-3 -6 -10 -7 -18 -2 -7 5 -10 14 -6 21 9 14 29 -2 24
-19z m381 4 c-7 -9 -15 -13 -17 -11 -7 7 7 26 19 26 6 0 6 -6 -2 -15z m375
-15 c3 -5 1 -10 -4 -10 -6 0 -11 5 -11 10 0 6 2 10 4 10 3 0 8 -4 11 -10z m22
-12 c-3 -8 -6 -5 -6 6 -1 11 2 17 5 13 3 -3 4 -12 1 -19z m210 16 c-3 -3 -12
-4 -19 -1 -8 3 -5 6 6 6 11 1 17 -2 13 -5z m207 -9 c3 -8 1 -15 -4 -15 -6 0
-10 7 -10 15 0 8 2 15 4 15 2 0 6 -7 10 -15z m-499 -5 c3 -5 -3 -10 -15 -10
-12 0 -18 -4 -15 -10 3 -5 20 -7 38 -4 25 4 28 3 15 -5 -22 -15 -66 -10 -73 8
-9 24 36 43 50 21z m-655 -13 c0 -6 -11 -13 -25 -13 -33 -2 -33 21 0 24 14 1
25 -4 25 -11z m3560 -13 c-1 -4 4 -11 12 -16 10 -8 10 -9 -2 -5 -8 2 -16 14
-17 28 -1 13 0 18 3 12 3 -7 5 -15 4 -19z m-2070 6 c0 -5 -2 -10 -4 -10 -3 0
-8 5 -11 10 -3 6 -1 10 4 10 6 0 11 -4 11 -10z m-946 -39 c-13 -13 -17 -13
-21 -3 -4 10 -8 10 -19 1 -16 -13 -30 -6 -20 9 3 6 22 10 41 9 32 -1 34 -2 19
-16z m1076 -12 c0 -14 -17 -10 -23 5 -4 10 -1 13 9 9 7 -3 14 -9 14 -14z
m-1650 7 c0 -3 -4 -8 -10 -11 -5 -3 -10 -1 -10 4 0 6 5 11 10 11 6 0 10 -2 10
-4z m562 -21 c3 0 9 -3 13 -7 3 -3 -9 -6 -29 -5 -28 1 -33 4 -24 14 5 7 15 10
22 6 6 -4 14 -8 18 -8z m845 -1 c-3 -3 -12 -4 -19 -1 -8 3 -5 6 6 6 11 1 17
-2 13 -5z m68 -42 c0 -9 -11 -24 -23 -33 -15 -11 -20 -19 -13 -23 6 -4 11 -2
11 3 0 6 8 11 17 11 15 0 14 -2 -3 -19 -10 -10 -22 -17 -26 -14 -16 9 -7 -10
10 -23 15 -12 15 -13 1 -14 -9 0 -22 7 -30 16 -10 13 -10 17 0 24 8 4 10 13 6
19 -4 7 3 21 17 33 l23 20 -25 -7 c-25 -8 -25 -8 -6 14 11 11 14 21 8 21 -7 0
-12 5 -12 11 0 5 10 3 22 -6 13 -8 23 -23 23 -33z m-845 28 c0 -5 -5 -10 -11
-10 -5 0 -7 5 -4 10 3 6 8 10 11 10 2 0 4 -4 4 -10z m1654 1 c3 -5 0 -11 -7
-14 -8 -3 -14 1 -14 9 0 16 13 19 21 5z m-2300 -35 c-10 -8 -21 -12 -23 -10
-3 2 4 11 15 18 10 8 21 12 23 10 3 -2 -4 -11 -15 -18z m1547 1 c9 -7 14 -18
11 -26 -3 -8 0 -11 7 -7 6 4 11 2 11 -5 0 -8 4 -8 15 1 14 12 19 7 16 -13 -1
-5 3 -6 8 -3 13 8 62 -15 55 -25 -3 -5 0 -9 7 -9 7 0 10 -11 7 -30 -4 -24 -2
-27 9 -19 10 9 17 8 30 -2 11 -10 14 -10 9 -1 -4 6 -2 12 3 12 6 0 11 -4 11
-10 0 -5 7 -7 15 -4 8 4 15 1 15 -6 0 -7 6 -10 14 -7 8 3 19 -5 26 -18 7 -14
16 -22 21 -20 4 3 16 -6 27 -20 11 -14 28 -25 37 -25 15 0 16 -2 4 -17 -12
-14 -12 -16 0 -12 8 3 26 -5 39 -18 14 -13 32 -21 39 -18 8 2 11 0 8 -5 -3 -6
-2 -10 3 -10 6 0 8 -9 5 -20 -3 -11 -9 -18 -13 -15 -5 3 -10 0 -12 -6 -2 -7
-13 -9 -26 -5 -25 8 -20 28 5 24 9 -2 18 4 20 12 4 13 3 13 -6 0 -8 -11 -11
-12 -11 -2 0 7 -5 10 -11 6 -6 -3 -16 0 -21 7 -7 11 -8 9 -4 -5 5 -15 4 -17
-8 -7 -11 9 -15 8 -20 -4 -3 -9 -10 -14 -15 -11 -12 8 -2 46 13 46 6 0 2 6 -8
12 -15 8 -21 8 -24 0 -2 -7 -8 -10 -13 -6 -5 3 -9 0 -9 -5 0 -6 -7 -11 -16
-11 -12 0 -15 6 -11 21 4 16 2 19 -10 15 -9 -4 -23 -1 -32 6 -14 12 -14 11 -2
-4 10 -14 10 -18 1 -18 -9 0 -9 -4 1 -17 13 -16 12 -17 -3 -4 -10 7 -16 17
-13 21 3 5 0 12 -6 15 -7 5 -3 15 12 31 19 21 20 24 5 24 -9 0 -14 5 -11 10 4
6 -5 5 -20 -2 -16 -7 -21 -14 -14 -18 13 -8 3 -50 -12 -50 -8 0 -13 15 -10 32
0 5 -4 7 -11 5 -7 -1 -15 12 -19 28 -5 25 -7 26 -8 7 -1 -14 -6 -22 -13 -19
-7 2 -12 10 -10 16 1 6 -3 11 -10 11 -9 0 -9 3 -1 11 15 15 5 46 -18 52 -16 4
-17 2 -8 -16 9 -16 8 -23 -7 -34 -17 -13 -17 -14 2 -29 10 -8 13 -13 7 -9 -16
8 -18 -31 -3 -40 8 -5 8 -11 0 -20 -8 -10 -8 -15 1 -20 8 -6 7 -10 -2 -16 -10
-6 -11 -9 -1 -9 13 0 17 -26 5 -33 -5 -2 -2 -2 4 -1 11 3 12 -21 4 -89 -1 -5
-5 -5 -11 -2 -5 3 -10 1 -10 -4 0 -6 4 -11 9 -11 4 0 6 -11 3 -25 -4 -21 -8
-24 -30 -18 -19 4 -23 3 -18 -8 4 -8 -4 -2 -18 14 -16 17 -23 33 -19 44 5 13
2 15 -13 9 -14 -5 -12 -1 7 16 14 13 24 29 21 37 -3 8 0 11 6 7 11 -7 10 -44
-2 -64 -4 -7 -1 -12 9 -12 9 0 14 -4 11 -8 -2 -4 5 -14 16 -21 19 -12 20 -11
14 6 -5 10 -10 36 -12 58 -5 41 -29 69 -51 61 -7 -3 -11 3 -10 13 0 11 7 17
13 14 8 -3 6 7 -4 30 -16 31 -19 33 -37 21 -23 -17 -35 -18 -35 -4 0 6 7 10
15 10 9 0 27 11 41 25 24 24 25 24 19 4 -6 -17 -4 -21 8 -16 11 4 14 2 10 -9
-3 -7 0 -14 7 -14 6 0 8 -5 4 -11 -4 -8 -9 -7 -15 2 -4 7 -11 11 -14 7 -4 -3
2 -15 14 -27 13 -13 16 -21 8 -25 -13 -5 9 -26 28 -26 6 0 4 4 -3 8 -7 5 -10
16 -7 24 10 27 13 111 4 135 -5 12 -4 25 1 28 11 7 -8 65 -22 65 -6 0 -8 -7
-4 -15 3 -8 -2 -18 -10 -23 -12 -7 -13 -14 -4 -37 6 -15 8 -30 6 -33 -10 -9
-37 21 -32 34 9 24 -9 22 -27 -2 -17 -23 -17 -24 0 -24 17 -1 17 -2 -1 -15
-30 -23 -34 -19 -31 33 1 26 -1 57 -6 70 -10 25 -6 27 23 11 17 -9 18 -13 7
-20 -12 -8 -12 -11 1 -19 23 -14 35 5 32 55 -1 24 3 47 9 50 5 4 7 15 4 26 -4
11 -2 19 5 19 6 0 8 5 5 10 -8 14 7 12 26 -3z m919 3 c0 -5 -4 -10 -9 -10 -6
0 -13 5 -16 10 -3 6 1 10 9 10 9 0 16 -4 16 -10z m-1070 -35 c0 -12 -19 -12
-23 0 -4 9 -1 12 9 8 7 -3 14 -7 14 -8z m-65 -5 c3 -5 1 -10 -4 -10 -6 0 -11
5 -11 10 0 6 2 10 4 10 3 0 8 -4 11 -10z m1196 -17 c13 -16 12 -17 -3 -4 -17
13 -22 21 -14 21 2 0 10 -8 17 -17z m-1191 -27 c0 -2 -8 -10 -17 -17 -16 -13
-17 -12 -4 4 13 16 21 21 21 13z m58 -31 c-3 -3 -9 2 -12 12 -6 14 -5 15 5 6
7 -7 10 -15 7 -18z m-1434 -10 c3 -8 1 -15 -4 -15 -6 0 -10 7 -10 15 0 8 2 15
4 15 2 0 6 -7 10 -15z m2579 -31 c20 -20 37 -40 37 -45 0 -5 0 -11 0 -14 0 -3
-3 -4 -7 -3 -5 1 -7 9 -5 17 2 9 -2 12 -12 8 -10 -4 -13 -1 -9 9 3 9 -2 14
-17 14 -16 0 -20 4 -16 16 4 12 2 15 -9 11 -15 -6 -29 6 -18 17 11 11 17 7 56
-30z m-1129 15 c-2 -4 2 -10 8 -12 8 -4 9 -6 2 -6 -6 -1 -17 5 -23 12 -8 10
-7 14 4 14 8 0 12 -4 9 -8z m341 -89 c3 -5 2 -10 -4 -10 -5 0 -13 5 -16 10 -3
6 -2 10 4 10 5 0 13 -4 16 -10z m889 -42 c23 -25 34 -44 27 -46 -15 -5 -42 17
-35 29 3 5 -2 9 -10 9 -9 0 -16 7 -16 15 0 8 -4 15 -10 15 -5 0 -10 5 -10 10
0 19 16 10 54 -32z m-89 22 c4 -6 -5 -10 -20 -10 -15 0 -24 4 -20 10 3 6 12
10 20 10 8 0 17 -4 20 -10z m-1069 -16 c-9 -8 -21 -12 -28 -8 -8 5 -6 10 8 15
31 12 37 10 20 -7z m1227 9 c-7 -2 -19 -2 -25 0 -7 3 -2 5 12 5 14 0 19 -2 13
-5z m-3077 -18 c-11 -8 -22 -12 -25 -9 -6 6 19 24 34 24 6 -1 1 -7 -9 -15z
m1779 -60 c0 -38 -4 -76 -9 -84 -5 -8 -4 -16 4 -21 8 -5 7 -9 -4 -13 -9 -4
-17 -2 -17 3 -2 14 -6 29 -9 33 -1 1 -3 12 -4 25 -2 15 2 21 10 18 11 -4 11
-2 1 14 -6 11 -13 16 -15 10 -2 -6 -8 -7 -14 -4 -5 3 -1 12 10 20 13 9 18 22
16 42 -2 21 1 28 14 28 15 0 17 -11 17 -71z m1145 55 c0 -5 -4 -10 -10 -10 -5
0 -10 5 -10 10 0 6 5 10 10 10 6 0 10 -4 10 -10z m59 -79 c-1 -12 -2 -12 -6 2
-2 9 -11 17 -19 17 -8 0 -14 7 -14 15 0 8 -4 15 -10 15 -5 0 -7 7 -3 15 4 12
11 8 29 -17 13 -17 23 -39 23 -47z m1311 58 c0 -5 -4 -9 -10 -9 -5 0 -10 7
-10 16 0 8 5 12 10 9 6 -3 10 -10 10 -16z m-2586 -1 c11 -11 10 -16 -6 -30
-11 -9 -17 -22 -13 -27 3 -6 2 -11 -4 -11 -22 0 -22 22 1 42 l23 20 -25 -7
c-22 -7 -23 -6 -11 9 16 19 18 19 35 4z m381 2 c3 -5 2 -10 -4 -10 -5 0 -13 5
-16 10 -3 6 -2 10 4 10 5 0 13 -4 16 -10z m-1803 -28 c-7 -2 -12 -10 -12 -18
0 -8 -4 -14 -10 -14 -11 0 -13 11 -4 34 3 9 12 12 22 9 10 -4 12 -8 4 -11z
m1568 8 c0 -5 -4 -10 -10 -10 -5 0 -10 5 -10 10 0 6 5 10 10 10 6 0 10 -4 10
-10z m165 -13 c0 -8 3 -19 7 -22 4 -4 4 -14 1 -23 -4 -10 -2 -13 5 -8 15 9 16
-6 2 -20 -6 -6 6 -10 35 -10 32 0 45 4 45 14 0 9 6 12 16 8 12 -5 15 -2 10 11
-6 15 -5 15 13 -1 15 -14 18 -23 11 -42 -7 -18 -6 -22 5 -17 8 3 15 11 15 19
0 18 24 18 40 0 6 -8 17 -14 23 -12 7 1 9 1 4 -1 -4 -3 -4 -10 0 -16 4 -7 -1
-6 -10 2 -10 8 -20 12 -22 9 -3 -3 2 -11 10 -18 13 -11 20 -9 41 11 15 14 23
17 19 8 -8 -21 40 -43 63 -29 16 9 15 9 -1 10 -10 0 -16 4 -12 10 3 5 12 7 20
4 21 -8 28 -37 11 -49 -12 -10 -12 -13 5 -23 26 -16 28 -16 25 12 -3 23 19 44
32 31 3 -3 0 -5 -6 -5 -12 0 -12 -27 1 -47 4 -6 0 -18 -8 -26 -8 -9 -15 -20
-15 -26 0 -15 -12 -14 -35 3 -11 8 -16 20 -12 29 3 9 1 19 -5 23 -7 5 -8 2 -3
-6 5 -9 2 -10 -13 -6 -19 6 -20 4 -15 -30 4 -27 3 -35 -6 -30 -6 4 -9 11 -6
16 3 5 -3 11 -14 15 -11 3 -22 13 -25 22 -5 13 -4 14 9 3 11 -9 15 -9 15 -1 0
6 -8 15 -17 19 -10 4 -18 13 -18 21 0 8 -6 16 -13 19 -7 2 -10 -2 -6 -11 3
-10 -2 -18 -15 -22 -11 -3 -18 -12 -15 -20 3 -7 0 -16 -6 -20 -6 -3 -9 -1 -8
6 2 6 -3 14 -11 17 -8 3 -11 0 -7 -7 4 -6 1 -11 -6 -11 -10 0 -9 -3 2 -10 8
-5 11 -12 7 -17 -4 -4 -16 -2 -26 4 -10 6 -24 7 -32 3 -21 -12 -43 4 -36 25 4
9 12 13 17 10 6 -4 18 -1 27 7 15 11 16 11 10 -4 -3 -10 -2 -18 4 -18 6 0 9 8
7 18 -2 12 -12 17 -36 16 -17 -1 -32 3 -32 8 0 6 -6 8 -12 5 -8 -3 -14 5 -14
20 -2 25 -2 25 46 11 8 -3 12 -3 7 -1 -4 3 -5 9 -2 14 4 5 0 6 -8 3 -8 -3 -18
0 -22 5 -3 6 -11 9 -16 6 -5 -4 -9 -2 -9 2 0 5 -9 9 -20 9 -24 0 -24 -1 -4
-30 10 -16 12 -26 5 -31 -6 -3 -11 -1 -11 5 0 6 -5 8 -11 4 -8 -4 -9 1 -4 16
5 16 4 20 -5 15 -9 -5 -10 -2 -5 14 4 12 2 21 -4 21 -6 0 -11 5 -11 11 0 5 4
8 9 5 4 -3 8 17 7 44 -1 32 2 49 8 47 6 -2 11 -11 11 -20z m593 -64 c29 -29
49 -53 44 -53 -5 0 -31 22 -58 50 -27 27 -56 50 -64 50 -9 0 -16 9 -16 20 0
18 1 18 21 2 11 -9 44 -41 73 -69z m-797 44 c-10 -9 -11 -8 -5 6 3 10 9 15 12
12 3 -3 0 -11 -7 -18z m606 -2 c0 -8 -5 -15 -10 -15 -5 0 -4 -7 3 -15 8 -9 9
-15 2 -15 -6 0 -13 4 -16 9 -3 5 -14 8 -24 6 -9 -1 -11 0 -4 2 6 3 12 11 12
18 0 7 8 16 18 18 9 3 17 5 18 6 0 0 1 -6 1 -14z m-2099 -15 c-13 -20 -28 -27
-28 -12 0 10 22 32 32 32 5 0 3 -9 -4 -20z m1746 5 c-4 -8 -8 -15 -10 -15 -2
0 -4 7 -4 15 0 8 4 15 10 15 5 0 7 -7 4 -15z m974 -47 c21 -23 23 -28 9 -28
-9 0 -17 5 -17 10 0 6 -9 20 -20 32 -11 12 -20 29 -20 37 1 12 3 11 12 -4 6
-11 22 -32 36 -47z m-1196 -25 c-3 -9 -9 -10 -23 -2 -24 12 -25 55 -1 68 14 8
18 5 22 -22 4 -18 4 -38 2 -44z m639 36 c11 -11 27 -18 34 -15 8 3 17 0 21 -6
5 -7 2 -8 -6 -3 -10 6 -12 4 -7 -7 4 -12 1 -14 -14 -11 -12 3 -19 0 -19 -8 0
-8 -5 -6 -12 6 -6 11 -20 26 -31 34 -15 11 -16 15 -6 22 18 11 16 12 40 -12z
m-2246 3 c11 -8 13 -41 4 -57 -3 -5 -9 -22 -12 -36 -7 -26 -37 -37 -37 -12 0
7 6 13 14 13 18 0 34 62 17 68 -12 4 -15 32 -3 32 4 0 12 -4 17 -8z m115 -22
c0 -5 -2 -10 -4 -10 -3 0 -8 5 -11 10 -3 6 -1 10 4 10 6 0 11 -4 11 -10z
m-130 -17 c0 -5 -5 -15 -10 -23 -8 -12 -10 -11 -10 8 0 12 5 22 10 22 6 0 10
-3 10 -7z m1373 -25 c-8 -14 -19 -8 -20 12 -1 16 1 17 12 7 7 -6 11 -15 8 -19z
m1183 12 c0 -11 -3 -20 -6 -20 -3 0 -11 9 -18 20 -10 17 -10 20 6 20 11 0 18
-7 18 -20z m-2356 0 c0 -5 -4 -10 -10 -10 -5 0 -10 5 -10 10 0 6 5 10 10 10 6
0 10 -4 10 -10z m2650 -4 c0 -11 -19 -15 -25 -6 -3 5 1 10 9 10 9 0 16 -2 16
-4z m-206 -21 c-4 -9 0 -15 10 -15 9 0 16 -6 16 -12 0 -7 5 -5 11 6 9 14 8 20
-2 27 -10 6 -8 9 8 9 12 0 25 -5 29 -12 4 -7 3 -8 -4 -4 -7 4 -12 2 -12 -3 0
-6 6 -11 14 -11 7 0 16 -9 19 -20 6 -23 -8 -27 -17 -5 -7 20 -26 19 -26 -1 0
-9 5 -13 13 -9 6 4 3 -1 -7 -9 -18 -15 -19 -16 -2 -16 12 0 16 -5 13 -14 -3
-8 -1 -17 6 -20 7 -2 6 -5 -4 -5 -9 -1 -30 15 -48 34 -17 19 -27 35 -22 35 6
0 8 7 5 15 -4 8 -10 12 -15 9 -11 -6 -11 -1 -3 20 3 9 10 16 15 16 4 0 6 -7 3
-15z m187 -39 c5 3 9 0 9 -5 0 -6 -9 -11 -20 -11 -11 0 -20 7 -20 15 0 8 -4
15 -10 15 -5 0 -10 10 -10 23 0 20 2 19 21 -10 12 -18 25 -30 30 -27z m88 7
c2 -2 -8 -3 -23 -3 -16 0 -25 4 -21 10 3 6 1 10 -4 10 -6 0 -11 8 -11 17 0 14
5 12 28 -8 15 -13 29 -25 31 -26z m-392 21 c-3 -3 -12 -4 -19 -1 -8 3 -5 6 6
6 11 1 17 -2 13 -5z m53 -10 c0 -8 -4 -12 -10 -9 -5 3 -10 10 -10 16 0 5 5 9
10 9 6 0 10 -7 10 -16z m-1250 2 c0 -2 -8 -10 -17 -17 -16 -13 -17 -12 -4 4
13 16 21 21 21 13z m1050 -12 c0 -2 -12 -4 -27 -4 -21 0 -24 3 -14 9 13 8 41
5 41 -5z m-147 -21 c-4 -11 -2 -14 5 -9 8 5 10 2 6 -8 -6 -16 -24 -22 -24 -8
0 4 -3 17 -6 30 -5 17 -3 21 9 16 9 -3 13 -12 10 -21z m47 8 c0 -6 -4 -13 -10
-16 -5 -3 -10 1 -10 9 0 9 5 16 10 16 6 0 10 -4 10 -9z m-824 -10 c-4 -5 -1
-12 4 -14 6 -3 5 -4 -2 -3 -15 3 -23 26 -8 26 6 0 9 -4 6 -9z m560 -11 c0 -11
-4 -20 -8 -20 -4 0 -8 9 -8 20 0 11 4 20 8 20 4 0 8 -9 8 -20z m356 8 c-9 -9
-15 -9 -24 0 -9 9 -7 12 12 12 19 0 21 -3 12 -12z m259 -33 c11 -4 18 -9 16
-12 -12 -11 -47 19 -46 40 l2 22 4 -22 c2 -12 13 -25 24 -28z m-2664 13 c-6
-23 -6 -23 10 -3 15 19 15 19 8 -5 -10 -32 -11 -33 -28 -23 -10 6 -12 14 -6
31 5 12 11 22 15 22 3 0 4 -10 1 -22z m2333 12 c0 -5 -4 -10 -10 -10 -5 0 -10
5 -10 10 0 6 5 10 10 10 6 0 10 -4 10 -10z m506 -47 c-4 -8 -56 13 -56 23 0 8
-7 11 -17 8 -16 -5 -16 -4 1 10 16 13 20 12 45 -12 15 -15 27 -28 27 -29z
m-982 31 c5 -14 4 -15 -9 -4 -17 14 -19 20 -6 20 5 0 12 -7 15 -16z m1016 6
c0 -5 -4 -10 -10 -10 -5 0 -10 5 -10 10 0 6 5 10 10 10 6 0 10 -4 10 -10z m17
-22 c-3 -7 -5 -2 -5 12 0 14 2 19 5 13 2 -7 2 -19 0 -25z m88 12 c-3 -5 -13
-6 -21 -3 -12 4 -13 8 -3 14 15 9 32 2 24 -11z m-1415 -10 c0 -5 -2 -10 -4
-10 -3 0 -8 5 -11 10 -3 6 -1 10 4 10 6 0 11 -4 11 -10z m68 -15 c-3 -3 -9 2
-12 12 -6 14 -5 15 5 6 7 -7 10 -15 7 -18z m66 -14 c-9 -10 -26 18 -18 30 5 9
9 8 14 -7 4 -10 6 -21 4 -23z m351 19 c3 -5 -1 -10 -10 -10 -9 0 -13 5 -10 10
3 6 8 10 10 10 2 0 7 -4 10 -10z m376 -27 c-12 -20 -14 -14 -5 12 4 9 9 14 11
11 3 -2 0 -13 -6 -23z m-1047 2 c-4 -8 -1 -15 7 -15 7 0 9 -3 6 -6 -4 -4 -14
-1 -22 6 -13 11 -13 15 -3 21 18 12 18 11 12 -6z m164 -5 c-7 -10 -14 -17 -17
-15 -4 4 18 35 25 35 2 0 -1 -9 -8 -20z m-31 -4 c-9 -23 22 -27 42 -7 19 19
19 19 25 -2 3 -12 -1 -29 -11 -39 -19 -22 -41 -24 -23 -3 15 18 -1 20 -18 3
-9 -9 -15 -9 -24 0 -9 9 -9 12 2 12 11 0 11 3 2 12 -15 15 -16 38 -1 38 6 0 9
-6 6 -14z m138 -35 c-3 -6 -11 -11 -16 -11 -5 0 -4 6 3 14 14 16 24 13 13 -3z
m65 -1 c0 -5 -2 -10 -4 -10 -3 0 -8 5 -11 10 -3 6 -1 10 4 10 6 0 11 -4 11
-10z m340 6 c0 -11 -19 -15 -25 -6 -3 5 1 10 9 10 9 0 16 -2 16 -4z m-460 -25
c0 -5 -7 -12 -16 -15 -14 -5 -15 -4 -4 9 14 17 20 19 20 6z m249 -61 c0 -9 -6
-4 -14 10 -19 33 -19 49 0 24 8 -10 14 -26 14 -34z m91 41 c0 -5 -9 -7 -20 -4
-11 3 -20 7 -20 9 0 2 9 4 20 4 11 0 20 -4 20 -9z m-400 -42 c0 -6 -4 -7 -10
-4 -5 3 -10 11 -10 16 0 6 5 7 10 4 6 -3 10 -11 10 -16z m3050 -34 c7 -8 8
-15 3 -15 -6 0 -8 -11 -5 -25 7 -37 -12 -31 -26 8 -7 18 -12 36 -12 40 0 13
27 7 40 -8z m-2243 -16 c14 -14 5 -49 -13 -49 -8 0 -14 -2 -14 -5 0 -13 24
-55 32 -55 5 0 6 -5 2 -11 -3 -6 0 -15 7 -20 10 -6 3 -9 -21 -9 -23 0 -30 3
-22 9 11 6 10 10 -4 15 -16 6 -16 8 -4 16 12 8 10 10 -10 11 -19 1 -20 2 -6 6
15 4 13 8 -14 24 -18 11 -35 17 -38 14 -4 -3 -2 -9 4 -13 13 -10 46 -62 38
-62 -4 0 -2 -6 3 -12 20 -26 1 -133 -28 -161 -11 -10 -17 -22 -14 -28 4 -5 -1
-9 -10 -9 -11 0 -15 -5 -11 -15 3 -8 1 -15 -4 -15 -6 0 -10 6 -10 13 0 6 -5 4
-11 -6 -5 -9 -7 -22 -3 -29 4 -6 3 -8 -3 -5 -13 8 -46 -40 -38 -54 4 -5 1 -8
-7 -7 -7 2 -12 -4 -12 -14 1 -9 -7 -19 -17 -21 -22 -6 -155 113 -179 159 -8
16 -25 37 -37 47 -13 10 -23 25 -23 34 0 8 -6 13 -12 11 -25 -9 -40 21 -35 67
2 25 8 49 12 53 5 4 5 -1 1 -12 -5 -14 -2 -17 12 -14 15 4 18 1 14 -21 -3 -14
-1 -22 4 -18 4 4 10 20 12 34 2 15 8 34 13 42 7 12 8 7 3 -14 -5 -28 -4 -29 9
-12 11 14 16 15 20 5 4 -9 6 -7 6 4 1 9 6 20 12 24 8 4 9 0 4 -15 -4 -12 -2
-21 4 -21 6 0 11 4 11 10 0 5 11 20 25 34 26 26 33 19 15 -15 -15 -27 -2 -24
22 6 11 14 25 22 31 18 7 -3 4 3 -7 15 -10 12 -27 24 -37 27 -27 9 -23 23 6
23 14 0 25 -5 25 -11 0 -13 102 1 112 16 6 9 11 8 18 -3 7 -11 10 -12 10 -2 0
10 4 10 16 -2 18 -18 40 -21 49 -6 3 6 -4 10 -16 10 -33 0 -18 9 32 19 62 12
64 12 76 0z m-370 -5 c-3 -3 -12 -4 -19 -1 -8 3 -5 6 6 6 11 1 17 -2 13 -5z
m353 -164 c0 -5 -2 -10 -4 -10 -3 0 -8 5 -11 10 -3 6 -1 10 4 10 6 0 11 -4 11
-10z m27 -5 c0 -8 -4 -15 -9 -15 -4 0 -8 7 -8 15 0 8 4 15 8 15 5 0 9 -7 9
-15z m-540 -17 c-3 -8 -6 -5 -6 6 -1 11 2 17 5 13 3 -3 4 -12 1 -19z m513 -32
c0 -2 -7 -9 -15 -16 -13 -11 -14 -10 -9 4 5 14 24 23 24 12z m-260 -343 c-1
-16 -8 -44 -18 -64 l-17 -37 -2 64 c-2 57 0 64 18 64 14 0 19 -7 19 -27z m-63
2 c0 -8 -4 -15 -9 -15 -4 0 -8 -11 -8 -25 0 -15 5 -24 13 -22 17 3 21 -64 5
-86 -12 -16 -13 -13 -10 23 2 23 -1 47 -7 53 -15 15 -14 74 2 80 6 3 12 6 13
6 0 1 1 -6 1 -14z"/>
<path d="M3886 2818 c-62 -25 -109 -51 -63 -35 9 4 28 2 42 -3 17 -7 25 -6 25
1 0 7 10 9 25 5 15 -4 25 -2 25 4 0 7 8 9 20 5 15 -5 20 -2 20 13 0 38 -22 40
-94 10z"/>
<path d="M3260 2766 c0 -2 7 -7 16 -10 8 -3 12 -2 9 4 -6 10 -25 14 -25 6z"/>
<path d="M3180 2605 c0 -8 7 -15 15 -15 9 0 12 6 9 15 -4 8 -10 15 -15 15 -5
0 -9 -7 -9 -15z"/>
<path d="M3120 2580 c-9 -6 -10 -10 -3 -10 6 0 15 5 18 10 8 12 4 12 -15 0z"/>
<path d="M3177 2564 c-8 -14 9 -38 22 -30 6 4 11 12 11 17 0 6 -4 8 -9 5 -5
-4 -11 -1 -13 6 -3 7 -7 8 -11 2z"/>
<path d="M3190 2509 c0 -5 5 -7 10 -4 6 3 10 8 10 11 0 2 -4 4 -10 4 -5 0 -10
-5 -10 -11z"/>
<path d="M3110 2499 c0 -5 5 -7 10 -4 6 3 10 8 10 11 0 2 -4 4 -10 4 -5 0 -10
-5 -10 -11z"/>
<path d="M3703 2383 c4 -3 2 -12 -4 -20 -8 -8 -8 -13 -1 -13 6 0 13 6 15 13 4
10 6 10 6 0 1 -7 6 -13 11 -13 6 0 5 8 -2 20 -7 11 -17 20 -22 20 -5 0 -6 -3
-3 -7z"/>
<path d="M3774 2384 c-18 -7 -4 -44 16 -44 23 0 31 21 14 37 -7 7 -14 13 -16
12 -2 0 -8 -3 -14 -5z"/>
<path d="M3965 2350 c-3 -5 -3 -10 2 -10 4 0 19 -3 33 -7 15 -3 22 -2 17 3 -5
5 -12 9 -15 9 -4 0 -12 4 -19 8 -6 4 -14 3 -18 -3z"/>
<path d="M3700 2326 c0 -2 7 -7 16 -10 8 -3 12 -2 9 4 -6 10 -25 14 -25 6z"/>
<path d="M3794 2314 c-18 -14 -18 -15 4 -4 12 6 22 13 22 15 0 8 -5 6 -26 -11z"/>
<path d="M3930 2307 c0 -8 7 -17 15 -21 8 -3 15 -2 15 3 0 5 -7 14 -15 21 -12
10 -15 10 -15 -3z"/>
<path d="M3720 2294 c0 -6 5 -15 12 -22 9 -9 9 -12 0 -12 -7 0 -12 -5 -12 -11
0 -5 5 -7 10 -4 6 3 10 1 10 -4 0 -6 5 -11 10 -11 16 0 11 25 -10 50 -11 13
-20 19 -20 14z"/>
<path d="M4069 2274 c-10 -13 -10 -17 2 -25 19 -12 29 -11 29 1 0 6 -4 10 -10
10 -5 0 -7 7 -4 15 8 20 0 19 -17 -1z"/>
<path d="M3794 2250 c1 -21 5 -29 14 -25 8 3 17 5 20 5 4 0 0 5 -8 10 -13 8
-12 10 4 10 20 0 20 0 0 15 -27 21 -31 19 -30 -15z"/>
<path d="M3876 2224 c-4 -9 -4 -19 -1 -22 3 -3 5 0 5 7 0 7 4 9 10 6 6 -3 7 1
4 9 -8 20 -10 20 -18 0z"/>
<path d="M3945 2205 c0 -14 4 -25 9 -25 4 0 5 -7 2 -15 -6 -18 24 -17 36 0 14
18 8 26 -12 20 -16 -5 -20 -2 -18 16 2 12 -1 23 -7 25 -5 2 -10 -7 -10 -21z"/>
<path d="M4070 2220 c0 -5 5 -10 10 -10 6 0 10 5 10 10 0 6 -4 10 -10 10 -5 0
-10 -4 -10 -10z"/>
<path d="M3810 2205 c-10 -12 -9 -15 4 -15 9 0 16 -6 15 -12 -3 -25 1 -38 11
-38 6 0 8 12 4 28 -3 15 -6 33 -6 40 -2 16 -13 15 -28 -3z"/>
<path d="M4012 2209 c2 -6 8 -10 13 -10 5 0 11 4 13 10 2 6 -4 11 -13 11 -9 0
-15 -5 -13 -11z"/>
<path d="M4097 2206 c-3 -8 0 -16 6 -19 7 -3 13 3 13 14 0 22 -12 25 -19 5z"/>
<path d="M3628 2178 c12 -6 22 -15 22 -20 0 -5 -4 -7 -9 -3 -5 3 -12 1 -15 -4
-3 -5 1 -12 10 -15 25 -10 32 -7 29 12 -2 9 -4 22 -4 27 -1 6 -13 11 -28 12
-27 2 -27 1 -5 -9z"/>
<path d="M3900 2178 c0 -23 12 -58 19 -58 10 0 1 59 -10 66 -5 3 -9 -1 -9 -8z"/>
<path d="M3690 2155 c9 -10 9 -15 1 -15 -6 0 -11 -4 -11 -10 0 -5 7 -10 15
-10 8 0 15 -4 15 -10 0 -5 -5 -10 -11 -10 -5 0 -8 -4 -5 -9 8 -12 66 -20 72
-9 3 4 -7 8 -21 8 -16 0 -24 4 -20 10 4 6 1 17 -5 25 -10 12 -9 16 4 21 23 9
10 24 -21 24 -21 0 -24 -2 -13 -15z"/>
<path d="M4034 2158 c-4 -7 -3 -8 4 -4 8 5 12 -1 12 -18 0 -14 4 -27 9 -30 5
-4 7 3 4 14 -3 11 0 27 7 35 10 12 9 15 -8 15 -12 0 -24 -5 -28 -12z"/>
<path d="M4110 2150 c8 -5 20 -10 25 -10 6 0 3 5 -5 10 -8 5 -19 10 -25 10 -5
0 -3 -5 5 -10z"/>
<path d="M3830 2121 c0 -6 5 -13 11 -17 8 -4 7 -9 -2 -15 -11 -7 -10 -9 3 -9
9 0 18 -4 20 -9 2 -4 12 -5 23 0 17 6 17 8 3 8 -10 1 -20 12 -24 26 -6 23 -34
36 -34 16z"/>
<path d="M4120 2120 c0 -6 7 -10 15 -10 8 0 15 2 15 4 0 2 -7 6 -15 10 -8 3
-15 1 -15 -4z"/>
<path d="M3917 2080 c-3 -11 -1 -23 5 -26 5 -3 7 -12 4 -20 -3 -8 -1 -14 5
-14 6 0 7 -9 3 -22 -6 -21 -6 -21 10 -5 10 9 22 17 27 17 6 0 7 5 4 11 -4 6
-13 8 -21 5 -11 -4 -13 1 -9 23 6 35 -19 64 -28 31z"/>
<path d="M4270 2055 c-8 -9 -8 -15 -2 -15 12 0 26 19 19 26 -2 2 -10 -2 -17
-11z"/>
<path d="M3808 1993 c6 -2 18 -2 25 0 6 3 1 5 -13 5 -14 0 -19 -2 -12 -5z"/>
<path d="M4003 1855 c4 -9 7 -19 7 -21 0 -2 6 -4 13 -4 7 0 19 -9 27 -20 8
-11 20 -20 27 -20 7 0 13 -4 13 -10 0 -5 10 -10 22 -10 l21 0 -23 20 c-12 11
-30 22 -40 25 -10 3 -21 12 -24 20 -2 7 -15 19 -27 26 -19 10 -21 9 -16 -6z"/>
<path d="M3925 1850 c-3 -5 -1 -10 4 -10 6 0 11 5 11 10 0 6 -2 10 -4 10 -3 0
-8 -4 -11 -10z"/>
<path d="M4134 1762 c-9 -5 -8 -10 2 -19 9 -9 15 -10 20 -2 8 14 -8 30 -22 21z"/>
<path d="M3520 1979 c0 -5 -5 -7 -11 -3 -7 4 -10 1 -7 -7 6 -18 37 -24 52 -9
8 8 6 9 -8 4 -16 -6 -18 -4 -13 9 3 9 2 17 -3 17 -6 0 -10 -5 -10 -11z"/>
<path d="M3437 1964 c-11 -11 3 -24 19 -17 9 3 20 0 25 -8 7 -11 9 -11 9 4 0
9 -4 17 -9 17 -5 0 -16 2 -23 5 -8 3 -17 3 -21 -1z"/>
<path d="M3615 1900 c3 -5 8 -10 11 -10 2 0 4 5 4 10 0 6 -5 10 -11 10 -5 0
-7 -4 -4 -10z"/>
<path d="M3495 1890 c3 -5 8 -10 11 -10 2 0 4 5 4 10 0 6 -5 10 -11 10 -5 0
-7 -4 -4 -10z"/>
<path d="M3370 1880 c0 -5 5 -10 10 -10 6 0 10 5 10 10 0 6 -4 10 -10 10 -5 0
-10 -4 -10 -10z"/>
<path d="M3594 1879 c-8 -13 13 -36 23 -24 5 4 2 10 -5 12 -6 3 -10 9 -6 14 3
5 3 9 0 9 -3 0 -8 -5 -12 -11z"/>
<path d="M3630 1870 c0 -5 5 -10 10 -10 6 0 10 5 10 10 0 6 -4 10 -10 10 -5 0
-10 -4 -10 -10z"/>
<path d="M3735 1800 c3 -5 8 -10 11 -10 2 0 4 5 4 10 0 6 -5 10 -11 10 -5 0
-7 -4 -4 -10z"/>
<path d="M3840 1760 c8 -5 20 -10 25 -10 6 0 3 5 -5 10 -8 5 -19 10 -25 10 -5
0 -3 -5 5 -10z"/>
<path d="M3495 1630 c-3 -5 1 -10 10 -10 9 0 13 5 10 10 -3 6 -8 10 -10 10 -2
0 -7 -4 -10 -10z"/>
<path d="M3300 1760 c0 -5 5 -10 11 -10 5 0 7 5 4 10 -3 6 -8 10 -11 10 -2 0
-4 -4 -4 -10z"/>
<path d="M3300 1720 c0 -5 5 -10 10 -10 6 0 10 5 10 10 0 6 -4 10 -10 10 -5 0
-10 -4 -10 -10z"/>
<path d="M3673 1646 c4 -10 -2 -16 -16 -19 -22 -4 -22 -4 -1 -6 29 -1 51 24
28 33 -11 4 -15 2 -11 -8z"/>
<path d="M3740 1630 c0 -5 5 -10 10 -10 6 0 10 5 10 10 0 6 -4 10 -10 10 -5 0
-10 -4 -10 -10z"/>
<path d="M3725 1599 c-4 -6 -4 -13 -1 -16 3 -4 6 0 6 8 0 12 2 12 9 0 5 -7 15
-11 22 -9 10 3 7 8 -8 16 -15 9 -24 9 -28 1z"/>
<path d="M3725 1560 c-17 -8 -16 -8 8 -7 15 1 27 5 27 9 0 10 -9 9 -35 -2z"/>
<path d="M3860 1560 c0 -5 5 -10 10 -10 6 0 10 5 10 10 0 6 -4 10 -10 10 -5 0
-10 -4 -10 -10z"/>
<path d="M3360 1670 c0 -5 5 -10 10 -10 6 0 10 5 10 10 0 6 -4 10 -10 10 -5 0
-10 -4 -10 -10z"/>
<path d="M3360 1640 c0 -5 5 -10 10 -10 6 0 10 5 10 10 0 6 -4 10 -10 10 -5 0
-10 -4 -10 -10z"/>
<path d="M3290 1420 c0 -5 5 -10 10 -10 6 0 10 5 10 10 0 6 -4 10 -10 10 -5 0
-10 -4 -10 -10z"/>
<path d="M4045 1270 c3 -5 13 -10 21 -10 8 0 12 5 9 10 -3 6 -13 10 -21 10 -8
0 -12 -4 -9 -10z"/>
<path d="M3570 1110 c0 -5 5 -10 10 -10 6 0 10 5 10 10 0 6 -4 10 -10 10 -5 0
-10 -4 -10 -10z"/>
<path d="M3960 1109 c0 -5 5 -7 10 -4 6 3 10 8 10 11 0 2 -4 4 -10 4 -5 0 -10
-5 -10 -11z"/>
<path d="M3576 1083 c-3 -4 -6 -11 -6 -16 0 -6 3 -7 7 -4 3 4 12 2 20 -4 17
-15 17 -2 -1 16 -7 8 -16 11 -20 8z"/>
<path d="M3620 1079 c0 -5 5 -7 10 -4 6 3 10 1 10 -5 0 -6 5 -8 11 -4 8 4 7 9
-2 15 -19 12 -29 11 -29 -2z"/>
<path d="M3640 1040 c0 -5 5 -10 11 -10 5 0 7 5 4 10 -3 6 -8 10 -11 10 -2 0
-4 -4 -4 -10z"/>
<path d="M3692 1005 c0 -16 2 -22 5 -12 2 9 2 23 0 30 -3 6 -5 -1 -5 -18z"/>
<path d="M3640 1010 c0 -5 5 -10 10 -10 6 0 10 5 10 10 0 6 -4 10 -10 10 -5 0
-10 -4 -10 -10z"/>
<path d="M3650 4340 c0 -19 3 -21 12 -12 9 9 9 15 0 24 -9 9 -12 7 -12 -12z"/>
<path d="M3955 4330 c-3 -5 -1 -10 4 -10 6 0 11 5 11 10 0 6 -2 10 -4 10 -3 0
-8 -4 -11 -10z"/>
<path d="M3270 4324 c0 -5 7 -19 15 -30 8 -11 15 -14 15 -6 0 6 8 12 17 12 14
0 14 3 5 12 -10 10 -15 10 -21 -1 -7 -11 -11 -10 -20 5 -6 11 -11 14 -11 8z"/>
<path d="M3210 4291 c0 -5 7 -15 17 -22 15 -13 15 -12 4 9 -12 23 -21 28 -21
13z"/>
<path d="M2970 4156 c0 -2 7 -7 16 -10 8 -3 12 -2 9 4 -6 10 -25 14 -25 6z"/>
<path d="M1856 4118 c-9 -34 -7 -98 3 -98 7 0 21 69 21 106 0 22 -17 16 -24
-8z"/>
<path d="M2902 4064 c-14 -16 -5 -18 17 -5 7 5 9 11 5 14 -5 3 -15 -1 -22 -9z"/>
<path d="M2317 4053 c-4 -3 -7 -12 -7 -20 0 -11 4 -11 20 -3 11 6 18 15 15 21
-7 11 -19 12 -28 2z"/>
<path d="M5315 4027 c-29 -69 -17 -97 40 -97 38 0 50 -26 50 -106 l0 -73 -35
5 c-49 8 -72 -12 -74 -64 -1 -23 3 -43 9 -45 18 -7 10 -126 -10 -149 -28 -33
-11 -143 33 -213 14 -21 27 -60 29 -85 5 -54 21 -90 40 -90 7 0 22 -5 32 -12
46 -28 60 10 66 173 2 60 9 107 18 125 13 25 23 86 17 104 -7 24 -5 94 5 132
l12 48 -52 39 -52 40 0 93 c1 89 -15 158 -36 158 -5 0 -24 12 -43 26 l-34 26
-15 -35z m78 -482 c-3 -13 -11 -26 -19 -29 -11 -4 -14 5 -14 41 0 44 1 45 19
29 11 -10 16 -25 14 -41z"/>
<path d="M2880 4030 c0 -5 5 -10 11 -10 5 0 7 5 4 10 -3 6 -8 10 -11 10 -2 0
-4 -4 -4 -10z"/>
<path d="M2316 3974 c-4 -10 -2 -22 3 -27 7 -7 13 -5 17 7 4 10 2 22 -3 27 -7
7 -13 5 -17 -7z"/>
<path d="M730 3931 c5 -11 7 -27 4 -35 -9 -22 25 -21 42 2 18 23 17 32 -1 32
-8 0 -15 5 -15 10 0 6 -9 10 -20 10 -17 0 -19 -3 -10 -19z"/>
<path d="M6275 3920 c-9 -14 11 -38 47 -56 25 -13 29 -13 35 1 3 9 1 21 -5 27
-6 6 -8 17 -5 24 4 10 -4 14 -30 14 -20 0 -39 -5 -42 -10z"/>
<path d="M1080 3880 c0 -11 5 -20 10 -20 6 0 10 9 10 20 0 11 -4 20 -10 20 -5
0 -10 -9 -10 -20z"/>
<path d="M1010 3840 c-8 -5 -11 -12 -8 -16 4 -3 14 1 23 10 18 17 9 21 -15 6z"/>
<path d="M941 3801 c-21 -16 -22 -22 -13 -47 6 -16 11 -23 11 -16 1 8 10 25
21 39 34 43 23 57 -19 24z"/>
<path d="M1111 3753 c-1 -25 -9 -59 -16 -74 -15 -27 -11 -59 6 -59 5 0 15 13
24 30 8 16 24 34 35 40 17 9 19 17 14 53 -7 43 -18 57 -45 57 -11 0 -16 -12
-18 -47z"/>
<path d="M2296 3768 c-18 -29 -30 -108 -16 -108 5 0 10 -13 10 -30 0 -16 -5
-30 -11 -30 -8 0 -9 -39 -5 -129 4 -86 3 -138 -5 -157 -15 -39 -19 -279 -5
-326 l11 -38 30 16 c17 9 40 17 51 18 32 4 53 29 50 59 -2 14 -24 50 -51 79
-45 50 -47 55 -40 93 4 22 7 64 6 92 -1 41 4 62 24 93 27 43 30 65 15 104 -5
13 -11 78 -14 143 -3 65 -5 124 -5 131 -1 20 -29 14 -45 -10z"/>
<path d="M7013 3720 c0 -25 2 -35 4 -22 2 12 2 32 0 45 -2 12 -4 2 -4 -23z"/>
<path d="M1723 3733 c-15 -5 -18 -53 -4 -53 8 0 41 43 41 55 0 6 -20 5 -37 -2z"/>
<path d="M6292 3582 c-13 -26 -22 -63 -21 -82 1 -19 -2 -52 -6 -72 -6 -28 -4
-41 9 -53 20 -20 32 -68 45 -172 6 -45 17 -98 26 -119 8 -20 12 -41 8 -48 -4
-6 0 -6 9 2 14 11 21 43 28 127 1 6 -1 48 -3 95 -4 90 5 160 29 224 12 32 13
41 2 47 -7 5 -19 7 -26 4 -8 -3 -16 3 -19 14 -3 11 -13 21 -24 24 -11 3 -19
14 -19 25 0 37 -15 31 -38 -16z"/>
<path d="M2658 3433 c-60 -71 -98 -153 -63 -140 32 13 22 -11 -13 -29 -31 -17
-37 -25 -38 -55 -2 -56 -20 -137 -34 -154 -10 -12 -10 -15 4 -15 9 0 16 -7 16
-15 0 -11 7 -9 28 9 15 14 52 42 81 63 50 35 55 42 66 93 6 30 16 64 22 74 7
13 8 28 3 42 -5 13 -5 24 0 26 14 5 -25 113 -42 116 -8 1 -21 -5 -30 -15z"/>
<path d="M908 3258 c-21 -12 -38 -28 -38 -35 0 -8 14 -43 30 -78 17 -35 30
-73 30 -85 0 -24 15 -27 24 -4 4 9 9 14 13 11 3 -4 0 -14 -7 -23 -12 -13 -11
-21 4 -49 17 -31 62 -62 74 -50 3 3 0 16 -6 29 -6 13 -8 33 -6 44 4 13 -3 26
-22 41 -36 28 -36 73 0 136 25 46 25 46 6 65 -26 26 -56 25 -102 -2z"/>
<path d="M4590 3229 c0 -5 5 -7 10 -4 6 3 10 8 10 11 0 2 -4 4 -10 4 -5 0 -10
-5 -10 -11z"/>
<path d="M2505 3210 c-3 -5 -1 -10 4 -10 6 0 11 5 11 10 0 6 -2 10 -4 10 -3 0
-8 -4 -11 -10z"/>
<path d="M686 3141 c-14 -15 -14 -19 -3 -24 21 -8 27 -67 10 -109 -10 -25 -32
-49 -69 -74 -30 -21 -54 -41 -54 -45 0 -4 9 -14 20 -22 13 -9 18 -20 14 -31
-5 -12 0 -16 19 -16 19 0 34 -12 58 -45 l32 -45 14 26 c7 15 13 44 13 66 0 31
4 41 19 45 11 3 22 12 25 21 3 10 12 32 20 50 10 22 12 32 4 30 -16 -6 -55 33
-68 66 -5 15 -10 50 -10 77 0 54 -14 63 -44 30z"/>
<path d="M4796 3119 c-41 -32 -49 -55 -34 -89 15 -34 20 -36 39 -14 31 38 89
36 112 -2 11 -19 37 -18 37 1 0 9 -16 32 -35 52 -19 20 -35 39 -35 43 0 6 -44
30 -54 30 -2 0 -15 -9 -30 -21z"/>
<path d="M488 3093 c7 -3 16 -2 19 1 4 3 -2 6 -13 5 -11 0 -14 -3 -6 -6z"/>
<path d="M5020 3090 c-12 -8 -10 -14 15 -35 17 -13 41 -35 55 -48 42 -40 117
-87 140 -87 13 0 24 8 27 20 3 11 10 20 15 20 6 0 7 11 4 26 -4 14 -2 32 4 39
8 10 6 15 -9 20 -12 3 -21 11 -21 17 0 5 -7 7 -16 4 -10 -4 -13 -2 -8 6 5 7
-1 9 -19 4 -21 -5 -25 -3 -21 9 8 19 -3 19 -22 0 -20 -20 -34 -19 -34 2 0 13
-3 14 -12 5 -15 -15 -32 -16 -23 -2 9 14 -19 12 -33 -2 -10 -10 -15 -10 -20
-1 -5 8 -13 9 -22 3z"/>
<path d="M4570 3079 c0 -5 5 -7 10 -4 6 3 10 8 10 11 0 2 -4 4 -10 4 -5 0 -10
-5 -10 -11z"/>
<path d="M4580 3020 c0 -5 12 -10 28 -9 24 0 25 1 7 9 -27 12 -35 12 -35 0z"/>
<path d="M2650 2969 c0 -5 5 -7 10 -4 6 3 10 8 10 11 0 2 -4 4 -10 4 -5 0 -10
-5 -10 -11z"/>
<path d="M5268 2935 c-10 -13 -18 -26 -18 -30 0 -6 52 -29 62 -27 4 1 19 -3
34 -8 29 -11 47 -2 66 34 10 19 9 19 -4 8 -11 -8 -18 -9 -22 -3 -4 6 -14 7
-23 4 -10 -4 -14 -2 -10 5 4 6 -6 17 -24 26 -40 20 -41 20 -61 -9z"/>
<path d="M2643 2925 c0 -8 4 -15 8 -15 4 0 9 7 13 15 3 9 0 15 -8 15 -7 0 -13
-7 -13 -15z"/>
<path d="M6367 2918 c-6 -21 20 -78 35 -78 9 0 10 45 2 78 -8 28 -30 29 -37 0z"/>
<path d="M2460 2915 c7 -8 17 -15 22 -15 6 0 5 7 -2 15 -7 8 -17 15 -22 15 -6
0 -5 -7 2 -15z"/>
<path d="M2382 2898 c3 -7 13 -15 22 -16 12 -3 17 1 14 10 -3 7 -13 15 -22 16
-12 3 -17 -1 -14 -10z"/>
<path d="M2305 2880 c10 -11 22 -17 27 -14 5 3 1 12 -9 20 -27 20 -39 17 -18
-6z"/>
<path d="M2344 2885 c8 -8 21 -15 28 -15 8 1 6 6 -6 15 -26 20 -42 19 -22 0z"/>
<path d="M2265 2866 c11 -8 24 -12 28 -9 11 7 -12 23 -32 23 -11 0 -9 -4 4
-14z"/>
<path d="M2236 2845 c4 -8 10 -12 15 -9 11 6 2 24 -11 24 -5 0 -7 -7 -4 -15z"/>
<path d="M2212 2821 c4 -13 18 -16 19 -4 0 4 -5 9 -11 12 -7 2 -11 -2 -8 -8z"/>
<path d="M2174 2804 c23 -22 20 -37 -5 -24 -11 6 -25 9 -32 6 -9 -3 -9 -5 1
-5 6 -1 12 -6 12 -12 0 -6 -10 -10 -22 -9 -39 4 -44 0 -19 -13 14 -6 26 -18
29 -25 3 -11 0 -12 -16 -3 -31 16 -46 13 -27 -5 21 -21 14 -27 -17 -15 -15 5
-30 6 -39 0 -11 -7 -9 -9 7 -9 20 0 44 -17 44 -32 0 -5 -9 -3 -20 4 -26 17
-40 0 -15 -18 18 -13 16 -14 -28 -10 -26 3 -47 0 -47 -5 0 -5 11 -9 24 -9 13
0 29 -7 36 -15 11 -13 8 -15 -23 -11 -21 3 -39 0 -43 -6 -4 -7 -3 -8 5 -4 6 4
24 -2 40 -13 30 -21 51 -27 51 -13 0 4 20 28 44 55 24 26 51 68 61 95 10 26
24 54 31 63 12 13 12 18 -4 32 -24 22 -49 23 -28 1z"/>
<path d="M5105 2770 c-3 -5 -2 -10 4 -10 5 0 13 5 16 10 3 6 2 10 -4 10 -5 0
-13 -4 -16 -10z"/>
<path d="M1763 2749 c-12 -4 -25 -14 -30 -22 -4 -7 -16 -16 -25 -20 -27 -10
-22 -34 9 -49 15 -7 37 -28 48 -45 40 -64 96 -12 62 57 -9 18 -14 43 -11 55 6
26 -18 37 -53 24z"/>
<path d="M5263 2654 c-6 -17 25 -50 36 -38 3 3 -1 10 -9 15 -11 8 -12 12 -2
16 17 7 15 23 -3 23 -9 0 -18 -7 -22 -16z"/>
<path d="M6440 2655 c0 -8 4 -15 10 -15 5 0 7 7 4 15 -4 8 -8 15 -10 15 -2 0
-4 -7 -4 -15z"/>
<path d="M5355 2610 c4 -6 11 -8 16 -5 14 9 11 15 -7 15 -8 0 -12 -5 -9 -10z"/>
<path d="M5400 2590 c0 -5 7 -10 16 -10 8 0 12 5 9 10 -3 6 -10 10 -16 10 -5
0 -9 -4 -9 -10z"/>
<path d="M5436 2564 c-3 -9 -2 -12 5 -8 11 6 56 -35 52 -48 -4 -13 15 -9 23 4
4 7 -6 23 -26 40 -39 32 -46 34 -54 12z"/>
<path d="M5515 2550 c8 -9 15 -26 15 -38 0 -12 5 -22 11 -22 5 0 7 -4 4 -10
-3 -5 -2 -10 4 -10 5 0 16 -12 24 -27 7 -16 18 -27 25 -26 6 2 9 -4 6 -12 -4
-8 -3 -27 1 -42 5 -21 8 -24 15 -13 13 25 -1 82 -21 87 -11 3 -19 10 -19 15 0
5 4 7 9 3 5 -3 12 -1 16 5 3 5 1 10 -4 10 -6 0 -10 3 -9 8 5 19 -14 51 -28 45
-14 -5 -46 25 -39 38 2 3 -2 6 -10 6 -13 0 -13 -3 0 -17z m58 -55 c4 -8 3 -16
-1 -19 -4 -3 -9 4 -9 15 -2 23 3 25 10 4z"/>
<path d="M1980 2550 c-12 -8 -11 -10 6 -10 11 0 25 -5 31 -11 8 -8 13 -8 18 1
8 13 6 16 -20 24 -11 3 -27 1 -35 -4z"/>
<path d="M5280 2529 c0 -5 5 -7 10 -4 6 3 10 8 10 11 0 2 -4 4 -10 4 -5 0 -10
-5 -10 -11z"/>
<path d="M5435 2531 c-3 -5 -2 -12 3 -15 5 -3 9 1 9 9 0 17 -3 19 -12 6z"/>
<path d="M5950 2512 c-46 -23 -55 -32 -58 -57 -4 -44 25 -59 69 -37 18 9 35
23 37 31 3 9 0 11 -8 6 -20 -12 0 17 22 33 20 15 25 52 6 51 -7 0 -38 -12 -68
-27z"/>
<path d="M1960 2510 c0 -5 7 -10 16 -10 8 0 12 5 9 10 -3 6 -10 10 -16 10 -5
0 -9 -4 -9 -10z"/>
<path d="M5353 2483 c-15 -5 -17 -23 -4 -23 5 0 11 7 15 15 3 8 4 15 3 14 -1
0 -8 -3 -14 -6z"/>
<path d="M5390 2480 c-12 -8 -12 -10 -1 -10 8 0 11 -7 8 -19 -3 -14 -1 -18 9
-14 9 3 14 -2 14 -13 1 -16 3 -15 16 6 8 14 13 17 10 8 -3 -10 -1 -18 4 -18 6
0 10 5 10 11 0 19 22 -3 36 -37 8 -19 18 -34 24 -34 14 0 21 18 10 25 -6 4 -8
11 -5 16 4 5 1 9 -6 9 -7 0 -10 3 -6 6 3 4 -10 15 -30 25 -25 13 -40 16 -47 9
-7 -7 -14 -2 -20 15 -8 19 -15 22 -26 15z"/>
<path d="M1946 2473 c-11 -12 -6 -19 14 -19 11 0 20 3 20 7 0 10 -27 19 -34
12z"/>
<path d="M1910 2449 c0 -5 5 -7 10 -4 6 3 10 8 10 11 0 2 -4 4 -10 4 -5 0 -10
-5 -10 -11z"/>
<path d="M6460 2428 c0 -29 3 -36 15 -32 19 8 19 25 0 50 -13 18 -14 17 -15
-18z"/>
<path d="M2020 2400 c0 -5 5 -10 11 -10 5 0 7 5 4 10 -3 6 -8 10 -11 10 -2 0
-4 -4 -4 -10z"/>
<path d="M5325 2400 c4 -6 11 -8 16 -5 14 9 11 15 -7 15 -8 0 -12 -5 -9 -10z"/>
<path d="M1992 2368 c-14 -14 -16 -42 -3 -34 7 5 23 46 17 46 -1 0 -7 -5 -14
-12z"/>
<path d="M5832 2278 c-19 -19 -14 -37 23 -88 19 -26 35 -53 35 -59 0 -6 5 -11
10 -11 6 0 10 -8 10 -17 0 -9 7 -24 16 -34 9 -10 17 -29 18 -43 0 -14 6 -26
13 -26 7 0 10 -7 7 -15 -9 -23 16 -87 32 -81 8 3 14 1 14 -4 0 -6 -6 -10 -14
-10 -9 0 -12 -7 -9 -20 3 -11 9 -17 14 -14 5 3 9 -2 9 -10 0 -9 7 -16 16 -16
10 0 12 5 7 13 -6 11 20 -9 100 -76 15 -12 27 -28 27 -35 0 -7 5 -12 11 -12 5
0 7 5 3 12 -4 7 -3 8 5 4 6 -4 9 -11 6 -16 -6 -10 42 -50 62 -50 7 0 16 -7 19
-15 4 -8 12 -15 20 -15 8 0 14 -5 14 -10 0 -6 19 -29 43 -50 33 -31 50 -40 79
-40 49 0 68 -9 68 -30 0 -14 -5 -17 -22 -12 -21 5 -21 6 -2 13 19 7 19 8 -1 8
-11 1 -31 4 -44 8 l-25 6 27 -29 c25 -27 32 -29 97 -28 66 0 80 -7 35 -19 -11
-3 3 -4 30 -2 28 3 57 5 66 6 10 0 16 10 16 30 0 24 -5 29 -23 29 -13 0 -26
-4 -29 -10 -8 -13 -25 -13 -25 0 0 5 16 17 36 25 26 11 34 19 30 31 -3 8 -6
22 -6 30 0 8 -7 14 -15 14 -9 0 -15 9 -15 25 0 14 -5 25 -11 25 -6 0 -8 9 -4
20 4 11 2 20 -4 20 -6 0 -11 7 -11 16 0 40 -202 204 -298 244 -19 7 -39 18
-45 24 -7 7 -33 27 -59 46 -27 18 -48 37 -48 42 0 4 -6 8 -13 8 -8 0 -23 8
-34 18 -12 9 -42 35 -69 57 -26 22 -53 46 -60 53 -7 6 -17 12 -23 12 -6 0 -11
4 -11 10 0 5 -17 17 -37 27 -21 9 -41 21 -44 25 -3 4 -10 3 -17 -4z m608 -682
c0 -11 -19 -15 -25 -6 -3 5 1 10 9 10 9 0 16 -2 16 -4z m90 -96 c0 -5 -7 -10
-16 -10 -8 0 -12 5 -9 10 3 6 10 10 16 10 5 0 9 -4 9 -10z"/>
<path d="M5620 2166 c0 -9 5 -16 10 -16 6 0 10 4 10 9 0 6 -4 13 -10 16 -5 3
-10 -1 -10 -9z"/>
<path d="M1139 1804 c-11 -14 -11 -18 4 -29 21 -15 56 -8 64 12 12 31 -45 44
-68 17z"/>
<path d="M5748 1796 c-10 -7 -18 -16 -18 -20 0 -12 25 -5 50 14 23 18 23 20 5
19 -11 0 -28 -6 -37 -13z"/>
<path d="M6595 1433 c-70 -7 -64 -23 8 -20 45 1 67 6 67 15 0 6 -8 11 -17 10
-10 -1 -36 -3 -58 -5z"/>
<path d="M6630 1390 c20 -13 33 -13 25 0 -3 6 -14 10 -23 10 -15 0 -15 -2 -2
-10z"/>
<path d="M6573 1383 c9 -2 23 -2 30 0 6 3 -1 5 -18 5 -16 0 -22 -2 -12 -5z"/>
<path d="M6584 1352 c5 -8 66 -4 66 4 0 2 -16 4 -36 4 -19 0 -33 -4 -30 -8z"/>
<path d="M6628 1313 c7 -3 16 -2 19 1 4 3 -2 6 -13 5 -11 0 -14 -3 -6 -6z"/>
<path d="M6608 1253 c6 -2 18 -2 25 0 6 3 1 5 -13 5 -14 0 -19 -2 -12 -5z"/>
<path d="M6600 1196 c0 -2 7 -6 15 -10 8 -3 15 -1 15 4 0 6 -7 10 -15 10 -8 0
-15 -2 -15 -4z"/>
<path d="M6590 1166 c0 -2 7 -7 16 -10 8 -3 12 -2 9 4 -6 10 -25 14 -25 6z"/>
</g>
</svg>
