<?xml version="1.0" standalone="no"?>
<!DOCTYPE svg PUBLIC "-//W3C//DTD SVG 20010904//EN"
 "http://www.w3.org/TR/2001/REC-SVG-20010904/DTD/svg10.dtd">
<svg version="1.0" xmlns="http://www.w3.org/2000/svg"
 width="768.000000pt" height="768.000000pt" viewBox="0 0 768.000000 768.000000"
 preserveAspectRatio="xMidYMid meet">

<g transform="translate(0.000000,768.000000) scale(0.100000,-0.100000)"
fill="#000000" stroke="none">
<path d="M6755 7671 c-11 -5 -165 -10 -342 -10 -258 -1 -333 -4 -380 -17 -32
-8 -65 -17 -73 -19 -8 -2 -33 -11 -55 -20 -42 -18 -63 -19 -220 -6 -78 6 -105
5 -122 -5 -12 -8 -29 -14 -38 -14 -8 0 -23 -4 -33 -9 -32 -18 -108 -30 -145
-24 -21 3 -42 1 -50 -5 -25 -21 -103 -34 -252 -43 -82 -5 -158 -14 -169 -20
-31 -18 -118 -36 -163 -34 -24 1 -43 -2 -43 -6 0 -9 -79 -28 -99 -23 -9 2 -2
-2 14 -10 26 -13 27 -15 8 -16 -12 0 -33 4 -46 9 -19 8 -27 6 -31 -5 -3 -8
-10 -14 -17 -14 -6 0 -9 7 -5 15 5 13 2 14 -15 4 -23 -12 -16 -25 16 -31 12
-2 21 -13 23 -27 5 -33 -48 -145 -62 -131 -6 6 -2 18 13 34 23 24 34 96 18
113 -4 3 -7 -13 -7 -36 l0 -42 -22 20 c-11 11 -24 18 -28 16 -12 -7 2 59 18
83 14 21 13 22 -17 22 -17 0 -31 -4 -31 -10 0 -5 -7 -10 -15 -10 -18 0 -20 16
-2 23 6 3 -10 6 -38 7 -27 1 -66 3 -85 5 -38 3 -84 -21 -77 -40 3 -6 -4 -22
-14 -36 -10 -13 -19 -30 -19 -36 0 -14 -26 -18 -33 -5 -13 19 7 62 32 71 14 5
20 10 14 10 -20 1 -15 17 10 29 18 9 11 11 -43 11 -55 1 -67 -2 -78 -19 -7
-11 -17 -20 -24 -20 -6 0 -3 9 7 20 16 18 8 30 -9 13 -4 -4 -13 -8 -19 -9 -7
0 -23 -2 -37 -3 -24 -2 -24 -3 -3 -11 20 -8 20 -11 8 -47 -13 -38 -14 -38 -60
-35 -31 3 -52 -1 -63 -11 -13 -11 -29 -13 -64 -8 -27 5 -48 4 -48 -1 0 -14
-39 -9 -65 8 -23 15 -25 15 -25 0 0 -11 5 -15 13 -10 6 4 9 3 4 -1 -4 -5 -26
-9 -49 -9 -39 -1 -43 -4 -49 -31 -5 -23 -7 -25 -8 -8 -2 38 35 86 81 105 l43
18 -72 -6 c-44 -3 -73 -2 -73 4 0 5 17 9 38 8 20 -1 42 1 47 5 8 6 174 29 305
42 19 2 -3 4 -50 5 -77 2 -364 -38 -378 -53 -3 -3 -1 -5 5 -5 7 0 9 -17 6 -44
-5 -37 -1 -50 21 -79 14 -18 26 -37 26 -40 0 -16 -29 -4 -66 26 -39 33 -78 44
-89 26 -4 -5 -16 -9 -28 -9 -11 0 -35 -12 -51 -27 -27 -25 -28 -25 -9 -3 12
14 26 38 32 53 8 20 26 35 63 52 29 13 48 24 43 24 -10 1 -167 -32 -220 -45
-15 -4 -14 -1 5 10 32 20 26 19 -39 -3 -52 -18 -79 -40 -61 -51 5 -3 11 -43
15 -89 4 -59 3 -81 -5 -76 -6 3 -9 18 -8 32 4 36 -23 51 -58 33 -15 -8 -29
-23 -32 -32 -2 -10 -8 -18 -13 -18 -17 0 -9 31 14 54 12 13 23 30 25 37 2 8
13 25 25 38 l22 24 -22 -12 c-27 -14 -46 -14 -38 -1 3 6 -1 7 -10 3 -12 -4
-13 -8 -5 -13 9 -6 9 -9 0 -15 -7 -4 -15 -3 -19 3 -5 8 -18 6 -44 -5 -28 -13
-37 -23 -38 -43 -1 -17 -3 -19 -6 -7 -6 22 -16 22 -44 -4 l-24 -20 23 11 23
11 -17 -32 c-16 -32 -17 -32 -31 -13 -14 19 -15 19 -31 -5 -31 -43 -62 -72
-72 -66 -5 3 -21 -13 -36 -36 -14 -23 -35 -52 -46 -63 -31 -32 -120 -166 -110
-166 4 0 14 6 22 13 8 6 3 -1 -11 -18 -46 -53 -59 -79 -59 -115 0 -65 -12
-111 -26 -106 -22 8 -16 -21 7 -43 12 -11 18 -24 15 -29 -3 -6 0 -12 6 -15 7
-2 10 -8 6 -12 -5 -5 -16 -1 -26 8 -10 10 -22 17 -25 17 -12 0 0 -119 13 -135
19 -23 -1 -39 -26 -21 -16 13 -17 18 -6 36 12 20 12 21 -10 15 -55 -18 -72
-26 -61 -33 5 -4 10 -18 9 -31 0 -13 6 -27 14 -31 8 -4 24 -11 35 -17 26 -13
45 -6 45 17 0 27 17 34 25 10 4 -11 11 -18 16 -15 5 4 9 -1 9 -9 0 -9 4 -16 8
-16 4 0 6 -15 4 -32 -3 -30 -11 -37 -83 -72 -43 -22 -77 -42 -74 -44 2 -2 36
12 76 32 80 40 94 43 103 20 4 -12 2 -15 -9 -10 -20 7 -45 -3 -40 -17 4 -12
-79 -57 -145 -78 -19 -7 -39 -15 -45 -19 -5 -4 -27 -13 -47 -19 -21 -7 -38
-16 -38 -20 0 -4 -22 -15 -50 -25 -28 -10 -50 -21 -50 -25 0 -4 -19 -17 -43
-29 -99 -52 -152 -89 -111 -80 l21 5 -22 -69 c-12 -39 -27 -73 -33 -77 -8 -5
4 -23 33 -51 l45 -44 0 -73 0 -74 -30 31 c-17 17 -30 36 -29 43 0 7 5 2 11
-10 15 -31 26 -29 20 2 -2 15 0 25 7 25 25 0 8 48 -34 95 -50 54 -52 60 -30
72 18 10 31 88 16 97 -5 4 -12 2 -16 -4 -13 -21 -27 -9 -23 20 l5 30 -28 -32
c-29 -34 -38 -81 -17 -94 7 -5 8 -3 3 6 -5 9 -4 11 3 6 24 -14 13 -64 -17 -85
-32 -23 -51 -27 -51 -11 0 6 6 10 13 10 29 1 38 15 26 48 -14 42 -25 40 -39
-5 -7 -21 -19 -48 -27 -61 -8 -13 -30 -83 -49 -155 -27 -106 -34 -151 -34
-227 1 -94 1 -95 19 -73 18 21 19 21 35 4 9 -10 16 -25 16 -34 0 -13 6 -16 24
-11 14 3 27 1 32 -7 5 -8 2 -11 -8 -6 -9 3 -20 1 -26 -5 -12 -12 -33 5 -45 34
-6 17 -8 17 -40 1 -27 -14 -38 -30 -55 -78 -34 -96 -55 -202 -67 -340 -3 -33
-8 -77 -11 -97 -5 -34 -3 -39 20 -48 25 -9 37 -40 16 -40 -5 0 -10 5 -10 10 0
6 -7 10 -15 10 -12 0 -14 -14 -11 -77 2 -43 1 -82 -3 -88 -4 -5 -17 -39 -29
-75 -20 -59 -31 -121 -61 -327 -12 -82 -13 -210 -2 -298 5 -33 4 -68 -1 -77
-12 -24 1 -22 29 4 13 12 26 18 30 14 4 -4 0 -12 -9 -17 -10 -6 -23 -19 -29
-31 -10 -19 -9 -20 17 -15 27 5 27 4 9 -9 -10 -8 -29 -14 -42 -14 -13 0 -29
-10 -38 -24 -21 -32 -36 -85 -25 -91 5 -3 61 12 124 34 64 21 116 36 116 32 0
-16 -50 -52 -135 -96 -68 -36 -93 -45 -105 -37 -14 9 -19 -3 -34 -98 -20 -126
-22 -240 -6 -271 8 -14 8 -19 1 -15 -7 5 -11 -1 -11 -14 0 -12 4 -18 10 -15 6
4 7 -5 4 -23 -4 -20 3 -50 21 -93 42 -102 40 -96 22 -79 -9 8 -27 46 -40 84
-26 74 -35 73 -44 -3 -4 -37 -1 -54 12 -72 17 -24 17 -23 12 36 -4 39 -3 54 3
45 5 -8 10 -24 10 -35 0 -11 7 -33 16 -50 14 -27 14 -30 -3 -43 -16 -12 -21
-9 -44 18 l-27 31 -8 -58 c-4 -32 -9 -49 -12 -38 -2 11 -20 32 -40 46 -20 14
-56 54 -79 89 -43 63 -43 63 -43 156 0 70 5 107 20 146 11 29 20 67 20 83 0
17 7 54 15 84 13 49 12 57 -6 104 -11 28 -28 62 -38 76 -47 70 -57 172 -21
226 16 24 20 46 19 105 -1 122 -10 164 -37 168 -22 3 -57 54 -45 66 4 3 -35 6
-85 6 -82 0 -116 10 -79 23 6 2 9 7 6 11 -9 10 -61 -12 -89 -39 -14 -12 -35
-26 -47 -30 -22 -6 -23 -12 -25 -118 -2 -126 -2 -126 10 -220 11 -78 3 -128
-28 -169 -12 -16 -28 -52 -37 -81 -8 -29 -22 -60 -31 -70 -13 -14 -17 -56 -22
-221 -3 -116 -10 -210 -16 -217 -6 -8 -16 -40 -23 -71 -7 -31 -17 -58 -23 -60
-26 -9 -1 -104 40 -157 16 -20 39 -27 158 -47 76 -12 163 -31 193 -40 99 -31
257 3 301 65 8 12 17 21 21 21 3 0 -7 -54 -22 -121 -28 -121 -53 -289 -44
-297 2 -3 13 1 22 9 10 7 7 2 -5 -13 -18 -19 -22 -32 -17 -50 8 -24 54 -77 68
-78 11 0 -2 41 -20 62 -13 15 -13 16 5 11 18 -4 42 -48 42 -74 0 -15 -44 -10
-68 6 -12 9 -26 30 -31 48 l-9 32 -17 -39 c-9 -22 -15 -51 -12 -64 3 -16 -4
-39 -19 -61 -13 -20 -30 -63 -38 -96 -8 -33 -26 -105 -40 -160 -27 -103 -33
-183 -17 -214 7 -12 4 -30 -10 -60 -20 -46 -53 -168 -63 -238 -3 -23 -9 -48
-12 -56 -11 -30 103 -81 326 -147 113 -33 285 -64 301 -55 18 12 105 204 138
307 8 24 22 42 39 50 43 21 86 119 182 423 33 104 63 219 67 255 3 35 14 78
24 95 9 16 22 55 29 85 7 30 19 69 26 87 8 17 14 38 14 47 0 20 35 160 85 346
21 74 40 145 42 158 3 12 10 22 16 22 7 0 8 -44 2 -138 -4 -75 -9 -256 -11
-402 -2 -146 -7 -335 -13 -420 -8 -143 -1 -371 14 -459 4 -19 20 -54 36 -77
27 -40 29 -50 33 -161 5 -160 10 -180 55 -202 39 -19 236 -61 401 -86 95 -14
299 -34 332 -32 49 2 50 -1 21 -50 -16 -28 -20 -43 -11 -35 9 7 21 26 28 42 7
17 16 30 21 30 5 0 9 7 9 16 0 8 5 12 11 8 6 -3 10 1 9 12 -4 40 0 53 15 48 8
-4 15 -1 15 5 0 23 21 9 37 -25 16 -32 18 -33 25 -15 4 12 15 21 24 21 12 0
15 6 11 21 -4 16 -3 18 8 9 18 -15 26 -50 12 -50 -7 0 -49 -39 -95 -87 -84
-88 -120 -148 -124 -208 -1 -22 -6 -31 -15 -28 -9 4 -13 -5 -13 -29 0 -19 -5
-39 -11 -45 -8 -8 -4 -16 15 -28 14 -10 26 -24 26 -33 0 -8 3 -12 7 -9 3 4 5
38 4 77 -1 38 1 75 5 82 4 7 9 26 11 42 2 17 15 47 28 68 23 35 29 38 71 38
l45 0 -2 -62 c-1 -52 3 -71 25 -108 27 -44 27 -45 21 -11 -5 23 -4 31 4 27 6
-4 11 -13 11 -21 0 -8 4 -16 10 -20 10 -6 90 40 90 53 0 4 21 16 46 26 56 23
100 13 97 -21 -4 -35 31 -38 84 -9 25 15 48 24 51 21 8 -8 -28 -37 -73 -60
-22 -11 -42 -21 -44 -22 -10 -6 34 -43 46 -39 20 8 26 -14 9 -33 -16 -17 -16
-19 0 -25 23 -9 10 -19 -15 -11 -20 6 -68 73 -63 88 3 11 -13 8 -27 -6 -11
-10 -13 -9 -7 1 5 7 -1 15 -16 21 -22 9 -22 9 -3 17 11 4 26 14 34 22 13 13
13 16 -3 28 -16 11 -24 11 -54 -2 -46 -19 -63 -34 -55 -47 4 -6 6 -31 4 -55
-2 -41 -1 -43 18 -33 11 6 23 16 26 21 11 17 23 2 18 -23 -3 -15 -17 -29 -36
-38 -41 -18 -47 -44 -13 -53 17 -4 26 -13 26 -27 0 -29 18 -59 36 -59 8 0 17
-13 21 -30 3 -17 14 -35 24 -41 23 -12 24 -35 3 -57 -15 -15 -16 -15 -10 5 8
25 -13 46 -34 33 -12 -7 -12 -12 -2 -22 6 -6 12 -20 12 -31 0 -10 5 -15 10
-12 6 3 10 -1 10 -10 0 -10 -5 -13 -12 -9 -8 5 -9 2 -5 -10 4 -10 7 -24 7 -32
0 -8 6 -14 14 -14 8 0 17 -7 20 -16 8 -21 8 -24 -4 -24 -5 0 -10 7 -10 16 0 8
-5 12 -10 9 -7 -4 -7 -12 0 -24 5 -10 6 -21 3 -25 -3 -3 30 -6 75 -6 54 0 82
4 86 13 5 9 7 9 12 0 7 -15 80 -17 89 -3 4 6 -1 36 -11 68 -33 113 -34 122
-12 119 14 -3 28 -24 49 -76 16 -40 29 -83 29 -97 0 -27 15 -32 24 -8 11 29 6
124 -9 159 -8 20 -29 44 -50 56 -38 23 -45 39 -17 39 18 0 56 -23 90 -55 31
-30 65 -114 66 -165 l1 -45 58 -3 c31 -2 57 1 57 6 0 5 -6 25 -14 43 -7 19
-12 48 -9 65 3 18 -2 44 -10 60 -11 21 -12 35 -5 56 6 15 14 28 19 28 5 0 5
-10 -1 -24 -11 -31 -2 -69 16 -62 10 4 13 -6 12 -40 -2 -25 2 -48 8 -52 6 -4
14 -24 18 -44 7 -38 7 -38 54 -38 60 0 81 12 62 34 -23 29 -4 27 29 -3 31 -28
36 -29 142 -30 89 0 109 2 109 14 0 8 4 15 8 15 14 0 33 68 26 94 -4 19 -2 28
10 32 15 6 15 8 -4 21 -11 8 -20 23 -20 33 0 25 -10 50 -21 50 -5 0 -9 -15 -9
-32 -1 -18 -7 -51 -15 -73 -8 -22 -15 -59 -15 -82 0 -46 -16 -56 -44 -28 -8 8
-19 15 -25 15 -6 0 -29 17 -52 37 -39 35 -50 41 -92 47 -31 4 -78 58 -75 86 3
24 6 25 71 26 83 2 109 19 88 57 -9 18 -19 23 -37 19 -13 -2 -27 -8 -30 -13
-3 -5 -21 -9 -41 -9 l-36 0 5 48 5 49 -28 -14 c-16 -8 -31 -18 -34 -24 -4 -5
-15 -9 -26 -9 -12 0 -19 -7 -19 -18 0 -10 -8 -27 -19 -38 -17 -19 -28 -20
-137 -17 -66 2 -120 8 -122 13 -2 6 -23 10 -47 10 -50 0 -55 7 -55 89 0 46 6
66 28 102 16 24 36 50 45 58 9 7 17 20 17 27 0 8 5 14 10 14 6 0 10 -7 10 -16
0 -25 17 -7 23 24 3 16 29 52 56 80 44 45 67 92 44 92 -12 0 -35 -16 -34 -24
3 -21 0 -38 -6 -33 -3 4 -12 -2 -20 -13 -8 -11 -22 -20 -31 -20 -13 1 -12 4 6
13 l22 13 -25 22 c-17 15 -37 22 -63 21 l-37 -1 30 -14 30 -15 -40 5 c-42 6
-95 51 -95 81 0 26 -26 16 -68 -24 -41 -40 -73 -51 -189 -67 -37 -4 -53 -3
-53 5 0 6 7 11 15 11 8 0 15 5 15 10 0 14 -16 13 -40 -2 -16 -11 -22 -9 -33 6
-9 12 -21 17 -35 14 -14 -4 -19 -2 -16 7 3 7 1 16 -5 20 -6 3 -11 15 -11 25 0
18 7 19 88 14 48 -2 108 -6 133 -9 59 -5 67 3 32 32 -16 12 -23 22 -16 23 6 0
23 -14 37 -31 17 -20 26 -25 26 -15 0 8 -13 25 -30 38 -16 12 -30 27 -30 34 0
12 -15 15 -130 30 -52 7 -53 8 -23 14 18 4 41 14 50 21 17 13 17 13 3 -5 -14
-18 -13 -19 3 -13 10 4 23 7 28 7 6 0 8 4 5 9 -4 5 8 13 26 17 29 6 41 8 80
13 10 1 118 113 118 122 0 12 47 11 55 -1 3 -6 -1 -7 -9 -4 -9 3 -16 1 -16 -5
0 -6 -11 -29 -25 -51 -14 -22 -25 -47 -25 -55 0 -9 -4 -13 -10 -10 -5 3 -10
-2 -10 -12 0 -11 -6 -25 -12 -32 -11 -10 -10 -15 4 -25 10 -7 15 -16 12 -19
-13 -13 8 -47 30 -47 12 0 27 -5 34 -12 9 -9 12 -8 12 5 0 9 5 18 10 18 20 3
25 4 39 13 10 7 12 3 6 -15 -4 -13 -8 -28 -9 -33 -1 -11 119 -8 349 9 105 8
224 17 265 21 195 14 473 48 492 60 4 3 32 9 62 14 29 5 72 14 96 20 37 10 42
14 37 36 -3 16 -1 22 5 16 5 -5 10 -34 12 -65 2 -31 8 -62 14 -70 6 -7 9 -31
7 -53 l-5 -39 10 32 c6 18 17 33 24 33 12 0 12 -6 3 -30 -13 -34 -4 -49 17
-31 10 8 13 23 10 39 -7 35 22 106 40 99 9 -4 16 6 20 31 9 58 7 71 -14 89
-11 10 -20 23 -20 29 0 7 -3 14 -7 16 -5 2 -15 19 -24 38 -24 52 -15 196 14
211 14 8 18 8 13 0 -9 -14 32 -91 59 -111 11 -8 34 -20 50 -27 133 -51 123
-49 137 -30 8 11 13 40 11 74 -3 76 -13 80 -13 5 0 -60 -1 -62 -27 -62 -14 0
-49 7 -78 16 l-51 16 -1 99 c-1 54 2 101 8 104 20 13 47 83 58 151 13 83 6
396 -9 425 -6 10 -7 19 -2 19 5 0 3 32 -5 71 -12 55 -12 81 -4 114 21 85 -13
628 -46 740 -19 60 -20 106 -4 163 21 79 0 473 -35 667 -8 44 -12 89 -10 100
3 11 5 39 5 63 1 48 15 56 26 15 12 -51 127 -312 158 -360 26 -41 31 -62 38
-138 4 -49 18 -137 32 -195 14 -58 33 -143 42 -190 26 -135 44 -201 72 -259
22 -47 24 -61 18 -110 -16 -119 13 -613 42 -709 12 -41 14 -76 9 -160 -7 -114
8 -437 25 -537 6 -33 17 -65 25 -72 9 -6 15 -14 15 -17 -1 -3 0 -9 0 -13 9
-45 -27 -93 -69 -93 -18 0 -52 23 -52 35 0 8 51 55 60 55 6 0 10 4 10 9 0 5
-17 7 -37 4 -32 -4 -42 0 -62 21 -14 14 -29 26 -34 26 -14 0 23 -39 55 -58
l27 -16 -25 -22 c-21 -20 -23 -26 -12 -49 6 -14 17 -25 24 -25 7 0 18 -9 24
-20 13 -25 23 -160 10 -140 -11 18 -14 15 -29 -40 -18 -61 -44 -120 -53 -120
-11 0 -10 24 2 56 8 19 8 30 0 38 -7 7 -10 5 -10 -5 0 -10 -16 -21 -40 -28
-22 -6 -40 -16 -40 -21 0 -6 -6 -10 -13 -10 -8 0 -23 -8 -35 -18 -19 -16 -19
-19 -4 -28 14 -9 9 -19 -41 -75 -52 -58 -87 -130 -87 -179 0 -7 -6 -10 -12 -7
-8 3 -14 -5 -14 -19 -1 -15 4 -24 12 -24 8 0 14 -6 14 -14 0 -8 8 -17 17 -20
13 -5 14 -9 5 -15 -10 -6 -10 -10 2 -20 20 -17 36 -6 36 26 0 15 3 23 7 20 6
-7 5 -70 -2 -129 -2 -16 1 -30 6 -34 19 -11 8 -26 -16 -22 -19 4 -26 0 -34
-23 -7 -21 -7 -28 2 -26 8 1 12 -12 11 -37 l-1 -38 34 5 c51 9 63 22 56 65
l-6 37 25 -28 c14 -15 40 -32 58 -38 24 -9 30 -16 27 -30 -4 -14 0 -19 16 -19
15 0 18 3 10 11 -13 13 -5 51 11 46 6 -2 19 -20 29 -40 15 -30 17 -43 8 -67
-13 -39 -6 -38 19 2 13 21 20 51 20 81 0 44 1 47 19 37 30 -16 59 -12 71 10 6
11 16 17 25 14 9 -4 22 -1 30 6 10 9 15 9 15 1 0 -6 4 -11 8 -11 11 0 32 60
32 91 0 35 23 64 45 56 12 -5 16 -3 12 6 -3 7 4 19 14 25 15 10 19 9 19 -2 0
-16 -18 -37 -52 -61 -28 -19 -22 -24 38 -27 l49 -3 5 42 c4 30 13 47 33 63 15
12 25 26 22 31 -4 5 0 9 7 9 15 0 42 -39 34 -48 -3 -3 -19 -5 -36 -5 -16 0
-30 -1 -30 -1 -5 -12 -28 -161 -25 -164 9 -10 25 12 31 43 3 18 12 36 20 39
18 7 18 -12 -1 -90 -16 -68 -13 -157 5 -179 7 -8 26 -15 42 -15 l30 0 -27 36
c-31 41 -43 94 -21 94 7 0 19 14 26 30 7 17 16 33 21 36 5 3 28 -15 52 -41 45
-47 61 -50 51 -9 -8 30 -1 30 41 -2 21 -15 36 -21 40 -15 3 6 0 11 -8 11 -20
0 -86 70 -93 97 -4 13 -10 23 -15 23 -9 0 -10 19 -9 107 l1 53 -36 0 c-28 0
-35 4 -35 20 0 18 -7 20 -54 20 -39 0 -55 4 -60 15 -3 8 -12 15 -21 15 -25 0
-17 22 20 56 19 17 35 38 35 45 -1 9 -6 7 -15 -5 -17 -23 -19 -17 -5 18 9 25
8 26 -17 20 -23 -6 -25 -5 -19 12 5 13 4 16 -3 9 -5 -5 -11 -28 -13 -50 -3
-38 -5 -40 -43 -45 -22 -3 -40 -10 -40 -17 0 -6 -3 -15 -7 -19 -5 -4 -8 -14
-8 -22 0 -12 2 -12 17 -1 15 12 16 12 11 -2 -4 -9 -2 -21 4 -27 17 -17 -38
-92 -69 -92 -7 0 -13 -6 -13 -13 0 -7 -13 -26 -30 -42 -16 -16 -30 -38 -30
-49 -1 -45 -22 -56 -104 -56 -67 0 -76 2 -76 18 0 10 5 23 12 30 9 9 9 12 0
12 -6 0 -16 -9 -22 -21 -17 -31 -52 -21 -72 23 -10 20 -25 42 -35 50 -22 16
-53 103 -53 149 -1 32 -1 33 -15 15 -15 -20 -15 -20 -15 0 0 34 24 74 48 80
13 4 22 14 22 24 0 11 5 22 10 25 6 3 10 20 10 36 0 19 6 31 18 35 9 3 25 10
34 15 10 5 26 9 35 9 30 1 58 33 78 90 18 50 23 55 53 58 25 3 32 7 28 19 -3
8 -9 32 -12 53 -5 32 -3 40 16 50 38 20 49 7 52 -67 l3 -67 44 -13 c24 -7 76
-15 117 -19 58 -5 74 -4 78 7 2 8 9 33 15 57 20 71 47 48 54 -46 1 -23 3 -23
127 -21 149 1 178 6 183 28 3 9 2 -21 -1 -66 -3 -57 -2 -83 6 -83 6 0 14 -17
18 -37 4 -21 11 -44 17 -51 12 -16 -6 -139 -24 -156 -15 -17 -10 -26 15 -26
25 0 31 -14 43 -108 4 -36 7 -41 19 -31 12 10 13 8 4 -15 -5 -15 -10 -44 -10
-65 0 -20 -5 -42 -12 -49 -9 -9 -8 -12 4 -12 12 0 18 -14 23 -58 3 -32 11 -65
16 -73 12 -18 3 105 -13 179 -8 36 -8 56 -2 60 6 4 13 15 17 25 3 9 14 17 24
18 14 0 14 2 -4 9 -21 9 -83 115 -83 143 0 7 12 24 28 37 26 22 27 26 23 107
-2 52 2 95 9 114 11 26 10 33 -14 69 -14 22 -26 45 -26 52 -1 7 -19 31 -41 53
-23 24 -37 32 -33 21 5 -13 4 -17 -4 -12 -7 4 -13 19 -13 34 -1 27 -1 27 -8
-3 l-7 -30 -5 27 c-10 47 17 40 70 -18 87 -94 100 -72 102 168 0 142 2 160 21
183 35 45 49 114 60 309 8 140 8 215 0 293 -8 66 -8 111 -2 122 12 23 12 364
0 516 -13 164 -17 266 -9 254 8 -13 36 -13 119 1 74 12 114 46 105 88 -4 18
-1 25 15 29 11 3 20 9 20 13 0 5 7 16 16 25 21 20 11 60 -19 77 -12 6 -49 12
-82 13 -68 1 -145 22 -152 42 -9 23 -32 14 -35 -14 -2 -16 -7 4 -11 42 -4 39
-14 111 -24 160 -9 50 -18 105 -20 124 -2 19 -8 42 -13 52 -6 10 -10 26 -10
37 0 10 -14 39 -31 63 l-32 44 31 -29 c17 -15 33 -39 37 -53 3 -14 8 -23 11
-21 2 3 -7 54 -21 114 -14 60 -23 119 -20 131 9 38 -46 443 -80 583 l-6 25 13
-23 c8 -12 16 -20 19 -17 9 8 155 25 290 34 69 5 135 14 147 20 17 9 41 9 99
0 43 -7 170 -13 283 -15 113 -2 242 -7 286 -12 45 -4 87 -6 93 -4 8 3 11 131
11 455 -1 517 3 494 -77 482 -95 -14 -119 -17 -173 -22 -30 -3 -59 -8 -65 -12
-41 -30 -168 -55 -197 -40 -14 8 -28 7 -47 -1 -30 -12 -112 2 -140 24 -7 5
-23 15 -35 21 -30 15 -35 74 -7 82 24 6 26 14 9 31 -6 6 -9 15 -5 18 7 8 103
7 128 -1 11 -4 23 2 33 16 12 17 27 23 67 26 29 1 63 10 75 18 17 11 51 15
122 15 82 0 103 3 123 19 28 22 91 41 134 41 17 0 36 5 43 12 9 9 12 262 12
1079 0 587 -3 1074 -6 1083 -7 19 -27 20 -53 4 -16 -9 -27 -8 -60 7 -23 10
-41 21 -41 26 0 15 -103 31 -159 24 -118 -15 -192 -20 -216 -14 -41 12 -369
19 -390 10z m-2615 -256 c0 -8 -6 -15 -14 -15 -20 0 -29 17 -14 23 22 9 28 7
28 -8z m155 5 c3 -5 1 -10 -4 -10 -6 0 -11 5 -11 10 0 6 2 10 4 10 3 0 8 -4
11 -10z m67 -17 c28 -25 18 -97 -11 -79 -15 9 -14 49 1 64 9 9 6 12 -16 12
-15 0 -25 4 -21 10 9 15 26 12 47 -7z m-332 -20 c0 -5 -5 -26 -10 -48 -7 -33
-5 -45 12 -73 23 -37 17 -55 -10 -29 -21 22 -25 157 -4 157 6 0 12 -3 12 -7z
m668 -13 c23 -6 42 -13 42 -16 0 -4 -7 -3 -16 0 -11 4 -18 -1 -21 -14 -4 -15
-14 -20 -39 -20 -22 0 -34 -5 -34 -14 0 -7 -7 -20 -17 -27 -15 -13 -16 -11 -9
13 4 17 1 36 -6 48 -11 16 -9 22 7 34 11 9 27 13 35 11 8 -2 34 -9 58 -15z
m107 -65 c1 -28 -13 -28 -29 -2 -8 13 -7 20 4 27 18 11 23 6 25 -25z m-70 15
c-3 -5 -10 -10 -16 -10 -5 0 -9 5 -9 10 0 6 7 10 16 10 8 0 12 -4 9 -10z m111
-22 c12 -14 13 -18 3 -10 -9 6 -19 9 -22 5 -4 -3 -7 1 -7 10 0 22 3 21 26 -5z
m-1540 -15 c9 -36 -7 -57 -47 -63 -27 -4 -34 -9 -33 -28 0 -13 -5 -22 -14 -22
-11 0 -13 8 -8 38 3 20 7 46 9 57 2 20 37 43 69 44 11 1 20 -9 24 -26z m674
17 c0 -5 -4 -10 -10 -10 -5 0 -10 5 -10 10 0 6 5 10 10 10 6 0 10 -4 10 -10z
m809 -24 c9 -10 9 -20 0 -40 -17 -37 -27 -32 -26 14 2 43 8 48 26 26z m125
-30 c66 -51 178 -176 157 -176 -6 0 -11 -7 -11 -15 0 -8 -4 -15 -10 -15 -13 0
-13 6 1 32 10 18 9 20 -6 14 -12 -4 -16 -2 -12 7 6 16 -39 77 -58 77 -7 0 -15
9 -18 19 -2 11 -24 33 -47 50 -24 17 -39 31 -35 31 4 0 22 -11 39 -24z m-1922
-177 c16 -40 26 -74 23 -77 -3 -3 -7 -3 -8 -1 -8 9 -57 140 -57 151 0 21 13
-1 42 -73z m-122 51 c0 -5 -4 -10 -10 -10 -5 0 -10 -4 -10 -10 0 -15 26 -12
40 5 7 8 18 15 25 15 17 0 6 -50 -12 -57 -8 -3 -30 -22 -49 -41 -33 -34 -34
-34 -59 -18 -21 14 -24 20 -15 37 6 11 22 25 36 31 14 6 23 17 20 24 -5 12 12
34 26 34 4 0 8 -4 8 -10z m1035 -10 c3 -5 -1 -10 -9 -10 -8 0 -18 5 -21 10 -3
6 1 10 9 10 8 0 18 -4 21 -10z m-44 -26 c16 -20 -7 -26 -43 -11 -18 8 -39 12
-45 10 -7 -3 -13 0 -13 6 0 15 88 11 101 -5z m1158 -13 c10 -6 5 -12 -19 -24
-25 -13 -30 -13 -20 -2 6 8 9 19 5 25 -7 12 15 13 34 1z m-495 -28 c-9 -36
-12 -39 -25 -26 -8 8 -8 17 0 32 17 30 33 26 25 -6z m-1524 -69 l25 -14 -29 2
c-16 2 -31 9 -34 16 -5 16 7 15 38 -4z m1216 -21 c-4 -5 -11 -8 -14 -8 -27 -1
-72 -31 -83 -56 -17 -43 -42 -52 -156 -53 -89 -1 -104 -4 -118 -21 -14 -18
-14 -18 -9 -1 6 16 3 17 -27 11 -19 -4 -38 -13 -42 -19 -6 -7 -6 -4 -3 8 5 16
3 17 -21 12 -60 -15 -159 -35 -172 -36 -11 0 -11 3 -1 15 16 19 6 19 -24 0
-13 -9 -28 -15 -32 -13 -5 1 -24 -6 -41 -15 -24 -13 -33 -14 -33 -5 0 7 17 20
38 30 35 15 35 16 7 11 -64 -10 -82 67 -23 98 21 11 22 11 9 -5 -13 -15 -11
-16 30 -11 39 6 42 5 27 -8 -19 -15 -24 -37 -10 -37 5 0 21 14 37 30 29 30 58
43 35 15 -7 -9 -9 -19 -5 -23 4 -4 10 -1 12 6 3 6 13 12 23 12 11 0 24 8 29
18 8 13 10 14 11 2 0 -13 1 -13 10 0 8 12 10 12 16 -3 4 -12 13 -15 29 -11 13
3 26 0 30 -6 5 -8 12 -7 23 3 21 18 72 28 72 14 0 -5 10 -6 23 -2 50 15 108
24 122 19 8 -4 15 -18 15 -34 0 -52 51 -51 85 2 21 33 30 39 80 56 37 12 61
14 51 5z m863 -19 c-13 -7 -26 -10 -29 -7 -8 8 32 33 43 26 5 -3 -1 -12 -14
-19z m-2369 -16 c0 -6 -6 -5 -15 2 -12 10 -15 10 -15 -4 0 -9 -5 -16 -10 -16
-7 0 -7 6 0 20 10 19 40 18 40 -2z m1673 2 c3 -11 1 -23 -4 -26 -5 -3 -7 -9
-4 -14 3 -5 1 -11 -5 -15 -6 -4 -10 9 -10 34 0 43 14 55 23 21z m-613 0 c0 -5
-7 -10 -15 -10 -8 0 -15 5 -15 10 0 6 7 10 15 10 8 0 15 -4 15 -10z m644 4
c23 -9 20 -23 -4 -17 -11 3 -20 9 -20 14 0 11 3 11 24 3z m-784 -14 c0 -5 -4
-10 -10 -10 -5 0 -10 5 -10 10 0 6 5 10 10 10 6 0 10 -4 10 -10z m-549 -42 c5
-10 6 -18 1 -18 -5 0 -14 11 -20 25 -22 49 -11 44 19 -7z m-437 -3 c-13 -19
-14 -28 -5 -39 8 -10 9 -16 1 -21 -5 -3 -10 -14 -10 -23 0 -10 -13 -26 -30
-35 -39 -23 -38 -7 2 38 22 26 28 39 19 44 -8 6 -6 15 9 34 27 34 36 35 14 2z
m66 17 c0 -5 -13 -18 -30 -30 -23 -18 -30 -19 -30 -8 0 9 12 22 28 30 32 18
32 18 32 8z m507 -10 c13 -8 43 -74 43 -94 0 -7 -11 9 -24 36 -13 26 -29 52
-37 57 -8 5 -9 9 -4 9 6 0 15 -4 22 -8z m123 -18 c0 -14 -4 -23 -9 -20 -5 3
-7 15 -4 26 7 28 13 25 13 -6z m-171 0 c-7 -9 -12 -31 -11 -50 3 -32 -10 -45
-23 -24 -3 6 -15 10 -26 10 -11 0 -17 5 -14 10 10 16 -15 11 -50 -10 -30 -19
-35 -19 -69 -5 -20 8 -36 20 -36 25 0 13 17 13 25 0 10 -16 52 -12 92 10 26
14 41 16 54 10 23 -13 32 -13 24 1 -4 6 1 17 11 24 26 19 39 19 23 -1z m2015
-51 c4 -31 3 -53 -3 -53 -10 0 -20 58 -18 97 2 37 14 12 21 -44z m-757 41 c2
-5 -11 -11 -29 -12 -31 -3 -32 -2 -13 12 21 16 37 16 42 0z m108 -2 c-3 -3
-11 0 -18 7 -9 10 -8 11 6 5 10 -3 15 -9 12 -12z m-35 -12 c0 -5 -2 -10 -4
-10 -3 0 -8 5 -11 10 -3 6 -1 10 4 10 6 0 11 -4 11 -10z m-1076 -75 c-5 -11
-10 -13 -19 -5 -13 11 -17 57 -7 75 9 14 33 -51 26 -70z m-72 33 c-8 -8 -9 -4
-5 13 4 13 8 18 11 10 2 -7 -1 -18 -6 -23z m-28 -15 c-3 -21 -11 -42 -16 -48
-10 -10 -2 60 8 77 11 18 14 6 8 -29z m-393 17 c10 0 19 -5 19 -11 0 -13 -50
-3 -65 13 -7 8 -4 9 8 4 10 -3 27 -6 38 -6z m1509 5 c0 -2 -10 -10 -22 -16
-21 -11 -22 -11 -9 4 13 16 31 23 31 12z m-338 -27 c-7 -7 -12 -8 -12 -2 0 14
12 26 19 19 2 -3 -1 -11 -7 -17z m-1036 -12 c-1 -18 -4 -22 -13 -14 -9 7 -13
7 -13 0 0 -7 -7 -9 -17 -5 -14 6 -13 9 7 25 30 24 38 23 36 -6z m-71 4 c3 -6
-1 -7 -9 -4 -18 7 -21 14 -7 14 6 0 13 -4 16 -10z m1116 -52 c-10 -24 -16 -49
-14 -55 6 -16 -19 -17 -35 -1 -14 14 -16 32 -3 24 5 -3 20 12 35 34 34 52 40
51 17 -2z m-1288 12 c-3 -11 -10 -23 -16 -27 -5 -3 -8 -2 -5 3 3 5 8 17 11 27
9 24 16 22 10 -3z m-39 -30 c15 -15 -14 -12 -49 6 l-30 14 35 -5 c19 -3 39
-10 44 -15z m565 -57 c1 -13 -3 -23 -9 -23 -5 0 -10 21 -9 48 1 38 2 42 9 22
4 -14 8 -35 9 -47z m-318 40 c13 -16 12 -17 -3 -4 -10 7 -18 15 -18 17 0 8 8
3 21 -13z m-215 -14 c67 -17 55 -39 -36 -64 -41 -12 -85 -27 -97 -33 -28 -15
-30 -15 -37 4 -7 19 79 103 107 104 10 0 38 -5 63 -11z m1740 -79 c18 -49 34
-66 34 -34 0 8 -5 24 -10 35 -6 10 -7 19 -3 19 10 0 165 -161 160 -166 -8 -8
-67 18 -61 28 7 11 -31 55 -61 70 -12 6 -7 -4 14 -25 29 -31 32 -37 18 -43
-10 -3 -33 3 -53 15 -26 16 -40 19 -47 12 -13 -13 -47 -14 -47 -2 0 5 6 12 13
15 9 3 7 9 -5 19 -36 29 -16 23 58 -15 110 -58 102 -39 -10 24 -53 29 -96 56
-96 61 0 4 19 7 41 7 36 0 40 2 29 15 -7 9 -8 15 -2 15 5 0 18 -22 28 -50z
m674 3 c0 -3 -7 -2 -16 1 -11 4 -15 2 -11 -8 6 -14 -10 -36 -26 -36 -11 0 2
43 16 52 10 6 37 0 37 -9z m-205 -36 c-9 -22 -28 -43 -47 -53 -57 -29 -117
-79 -113 -91 4 -13 -15 -12 -47 2 -27 11 -22 18 35 45 28 13 63 32 77 41 14 9
32 14 40 12 13 -4 13 -3 0 6 -13 9 -12 14 9 33 l23 23 -6 -25 c-5 -17 0 -12
14 13 26 48 36 43 15 -6z m225 29 c0 -2 -8 -10 -17 -17 -16 -13 -17 -12 -4 4
13 16 21 21 21 13z m-2410 -16 c0 -5 -2 -10 -4 -10 -3 0 -8 5 -11 10 -3 6 -1
10 4 10 6 0 11 -4 11 -10z m2310 -49 c-6 -12 -8 -26 -5 -31 3 -5 1 -11 -5 -15
-6 -3 -10 3 -10 15 0 24 19 64 27 57 2 -3 0 -15 -7 -26z m-2505 -31 c3 -5 2
-10 -4 -10 -5 0 -16 -3 -25 -6 -11 -4 -16 -1 -16 10 0 18 35 22 45 6z m168
-10 c-3 -11 -9 -20 -15 -20 -5 0 -4 9 2 20 6 11 12 20 14 20 2 0 2 -9 -1 -20z
m-270 -45 c26 -22 32 -32 19 -28 -21 5 -82 63 -66 63 5 -1 26 -16 47 -35z
m274 -22 c-3 -10 -5 -4 -5 12 0 17 2 24 5 18 2 -7 2 -21 0 -30z m1747 31 c22
-8 10 -24 -19 -24 -13 0 -27 -4 -30 -10 -3 -5 -11 -10 -16 -10 -6 0 -7 5 -4
10 10 16 -1 11 -16 -7 -10 -11 -10 -14 -1 -9 18 11 15 -9 -5 -25 -9 -8 -22
-27 -29 -44 -10 -25 -14 -27 -19 -13 -4 11 3 35 19 62 38 66 75 87 120 70z
m540 -6 c-13 -23 -37 -48 -46 -48 -11 0 33 59 45 59 5 1 5 -5 1 -11z m-2323
-31 c-10 -9 -11 -8 -5 6 3 10 9 15 12 12 3 -3 0 -11 -7 -18z m199 13 c0 -5
-12 -10 -27 -9 l-28 1 25 8 c14 4 26 8 28 9 1 1 2 -3 2 -9z m-57 -25 c20 -8
49 -15 64 -16 25 0 23 -2 -14 -16 -24 -8 -43 -21 -43 -29 0 -19 -13 -18 -71 7
-70 30 -63 43 19 35 64 -6 66 -5 35 9 -18 8 -33 17 -33 20 0 7 4 7 43 -10z
m1813 -16 c19 -21 13 -24 -18 -8 -15 8 -22 8 -28 -2 -5 -7 -7 -3 -7 13 2 29
25 28 53 -3z m-2111 1 c14 -15 15 -20 4 -20 -8 0 0 -10 16 -21 l30 -21 -30 7
c-59 13 -97 54 -62 68 20 9 23 8 42 -13z m-190 -11 c11 -17 -1 -21 -15 -4 -8
9 -8 15 -2 15 6 0 14 -5 17 -11z m2897 -59 c41 -16 55 -26 51 -36 -4 -12 0
-14 21 -8 14 3 32 2 39 -3 6 -5 44 -23 82 -38 64 -26 120 -59 70 -41 -11 4
-42 14 -70 21 -69 19 -146 50 -153 62 -4 6 -56 25 -117 42 -111 33 -149 51
-106 51 12 0 19 4 16 10 -3 5 20 -1 52 -14 32 -13 84 -34 115 -46z m-2777 50
c-3 -5 -11 -10 -16 -10 -6 0 -7 5 -4 10 3 6 11 10 16 10 6 0 7 -4 4 -10z
m2050 0 c-3 -5 -11 -10 -16 -10 -6 0 -7 5 -4 10 3 6 11 10 16 10 6 0 7 -4 4
-10z m-95 -25 c0 -14 -4 -25 -10 -25 -5 0 -10 11 -10 25 0 14 5 25 10 25 6 0
10 -11 10 -25z m-30 -19 c0 -8 -4 -18 -10 -21 -5 -3 -10 3 -10 14 0 12 5 21
10 21 6 0 10 -6 10 -14z m-1815 -22 c14 -9 32 -14 40 -10 16 6 21 -9 5 -19
-12 -8 -80 21 -80 34 0 15 6 14 35 -5z m2058 -3 c4 -4 -8 -7 -27 -7 -24 0 -32
4 -29 13 5 13 39 9 56 -6z m-183 0 c0 -5 -7 -12 -16 -15 -24 -9 -28 -7 -14 9
14 17 30 20 30 6z m-125 -28 c-2 -16 -4 -30 -4 -32 -1 -3 -6 0 -12 6 -12 12
-3 53 11 53 5 0 7 -12 5 -27z m-1780 8 c3 -5 19 -12 35 -16 17 -4 30 -11 30
-17 0 -6 7 -8 15 -4 23 8 18 -7 -6 -23 -19 -11 -21 -11 -16 3 5 12 -7 19 -49
32 -35 12 -50 21 -42 26 17 10 26 10 33 -1z m2125 -48 c0 -7 5 -13 10 -13 6 0
10 -5 10 -12 0 -6 23 -56 51 -110 28 -55 49 -101 47 -102 -42 -31 -193 -107
-235 -120 -13 -4 -23 -12 -23 -17 0 -5 -10 -9 -22 -9 -13 0 -32 -7 -42 -15
-21 -16 -67 -22 -51 -7 6 5 33 17 60 27 28 10 61 26 74 37 13 10 31 18 39 18
8 0 35 11 59 25 23 14 43 23 43 19 0 -3 6 -1 14 5 8 7 12 20 9 31 -5 19 -6 19
-30 0 -14 -11 -35 -20 -47 -20 -17 0 -21 7 -24 35 -2 29 2 37 20 44 13 5 30 6
38 4 10 -3 9 0 -3 7 -9 6 -22 8 -27 5 -6 -3 -10 -2 -10 3 0 6 7 13 16 16 9 4
14 9 11 12 -3 3 -18 0 -34 -8 -15 -8 -73 -38 -128 -66 -56 -28 -125 -58 -155
-66 -71 -18 -161 -52 -185 -69 -16 -12 -10 -14 44 -11 34 1 67 6 74 12 7 5 41
17 77 27 72 19 124 43 188 87 23 16 42 26 43 23 2 -11 1 -55 -2 -62 -1 -5 -3
-15 -3 -23 -1 -8 -8 -15 -17 -15 -9 0 -27 -5 -40 -12 -98 -47 -209 -77 -193
-52 4 7 -2 9 -17 7 -12 -1 -24 -9 -27 -16 -2 -7 2 -10 12 -6 25 10 19 -11 -7
-25 -29 -16 -130 1 -171 29 l-27 17 78 40 c43 22 129 57 191 78 127 43 166 67
158 99 -5 22 16 61 27 49 10 -9 55 24 62 47 3 11 11 20 17 20 6 0 6 -6 -2 -15
-10 -12 -10 -15 3 -15 8 0 25 -21 37 -46 12 -26 28 -53 36 -61 8 -8 14 -23 14
-33 0 -10 5 -22 10 -25 6 -4 7 -11 4 -17 -4 -6 1 -8 12 -6 27 5 20 44 -22 124
-19 36 -34 72 -34 81 0 13 -2 14 -17 2 -16 -13 -17 -12 -5 3 12 14 11 21 -2
40 -21 30 -22 60 -1 32 8 -10 15 -25 15 -31z m-1985 27 c3 -6 -1 -7 -9 -4 -18
7 -21 14 -7 14 6 0 13 -4 16 -10z m1821 -5 c-11 -8 -25 -15 -30 -15 -6 1 0 7
14 15 32 19 40 18 16 0z m-1710 -13 c31 -25 38 -52 17 -68 -17 -12 -17 -13 0
-19 9 -4 17 -16 17 -26 0 -34 36 -59 85 -59 25 0 45 -4 45 -10 0 -5 -8 -10
-17 -10 -24 -1 -102 -38 -82 -39 23 -1 102 28 110 40 4 7 13 7 28 -3 22 -13
23 -35 1 -30 -6 1 -46 -9 -87 -23 -95 -33 -139 -34 -193 -5 -16 9 -20 18 -16
35 8 33 -12 122 -30 129 -8 3 -14 15 -14 26 0 19 1 20 25 4 13 -9 27 -24 30
-35 7 -22 25 -26 25 -5 0 8 -7 16 -15 20 -16 6 -21 51 -6 60 5 3 12 -5 15 -19
7 -27 26 -35 26 -11 0 8 -4 26 -10 40 -8 22 -7 26 8 26 9 0 26 -8 38 -18z
m-149 -64 c-6 -22 14 -63 25 -53 9 10 17 -65 9 -87 -6 -16 -11 -8 -26 41 -10
34 -22 61 -27 61 -7 0 -4 -30 8 -67 2 -7 -1 -13 -5 -13 -5 0 -11 6 -14 13 -3
9 -9 9 -23 1 -11 -6 -19 -15 -19 -20 0 -5 -6 -18 -12 -29 -9 -16 -14 -17 -24
-8 -18 18 2 57 40 79 32 19 43 41 16 30 -26 -10 -16 12 14 30 17 10 27 23 24
31 -3 7 0 13 7 13 8 0 10 -8 7 -22z m2923 -24 c25 -13 34 -22 20 -18 -45 12
-101 45 -72 44 4 -1 27 -12 52 -26z m-1376 -19 c-4 -8 -10 -15 -15 -15 -4 0
-6 7 -3 15 4 8 10 15 15 15 4 0 6 -7 3 -15z m1457 -6 c12 -6 18 -17 15 -25 -4
-10 0 -14 11 -12 20 3 63 -58 125 -177 22 -44 54 -99 70 -123 16 -23 31 -55
34 -70 8 -53 15 -75 39 -125 14 -28 23 -53 20 -55 -6 -6 -71 132 -80 171 -4
15 -11 30 -16 33 -5 3 -7 -1 -4 -8 29 -87 84 -273 81 -275 -2 -2 -25 56 -52
128 -54 150 -71 159 -25 14 17 -52 31 -101 31 -108 -1 -15 -67 156 -75 195 -4
15 -11 30 -16 34 -9 5 -7 -25 12 -135 13 -80 5 -72 -19 16 -29 112 -36 152
-22 133 25 -32 0 67 -45 180 -45 113 -82 176 -91 154 -3 -7 -23 -2 -55 14 -27
14 -48 27 -45 29 2 2 23 -5 46 -17 34 -17 44 -19 51 -9 5 8 2 21 -8 31 -18 20
-11 23 18 7z m-474 -31 c46 -29 53 -38 62 -81 6 -26 11 -58 11 -70 0 -36 30
-170 45 -204 18 -38 19 -49 2 -35 -13 11 -57 5 -57 -7 0 -4 -17 -15 -37 -25
-35 -17 -36 -17 -22 1 8 10 19 21 24 25 6 4 7 8 2 8 -4 0 0 16 8 36 8 20 15
48 15 63 l-1 26 -13 -24 c-16 -29 -29 -13 -20 25 5 20 3 26 -7 22 -8 -3 -18
-13 -24 -24 -5 -10 -34 -41 -62 -68 -46 -42 -53 -46 -53 -27 0 21 -1 21 -30 6
-16 -9 -30 -19 -30 -23 0 -4 -12 -20 -26 -37 -15 -17 -23 -22 -20 -12 7 23 -6
22 -35 -4 l-24 -20 22 6 c19 5 23 3 21 -17 -1 -13 4 -39 10 -58 13 -38 13
-122 0 -114 -18 11 -48 -8 -48 -31 0 -15 -7 -26 -20 -30 -12 -4 -20 -15 -20
-28 0 -20 -19 -63 -20 -44 0 14 -125 -57 -152 -88 -15 -16 -28 -33 -28 -37 0
-5 -9 -8 -21 -8 -14 0 -19 -5 -16 -14 4 -9 -4 -16 -21 -19 -15 -3 -45 -23 -68
-45 -41 -40 -130 -72 -155 -56 -7 4 -9 3 -6 -3 14 -22 -113 -59 -142 -42 -9 5
-28 13 -43 19 -32 11 -37 27 -10 32 10 2 13 6 6 10 -6 4 -22 1 -36 -6 -22 -12
-31 -12 -52 -1 -14 7 -33 11 -43 9 -10 -3 -28 4 -40 15 -13 12 -25 17 -28 11
-9 -14 -27 -12 -22 3 2 6 -4 30 -14 52 -19 41 -27 184 -12 221 6 16 7 16 14
-2 6 -15 8 -16 8 -3 1 18 47 56 101 84 19 10 56 35 81 56 26 22 51 39 56 39 5
0 8 -15 5 -32 l-4 -33 44 43 c24 23 47 42 51 42 14 0 6 -22 -18 -48 -30 -32
-34 -58 -7 -43 9 5 43 33 75 61 34 31 63 50 72 46 9 -3 12 0 9 8 -6 17 12 31
21 17 9 -15 140 59 222 126 40 32 72 61 73 66 0 12 -27 8 -42 -6 -45 -43 -227
-171 -234 -164 -3 3 49 44 116 92 106 77 170 137 170 158 0 4 -17 7 -37 7 -44
0 -38 9 35 45 29 15 56 33 59 41 3 8 -2 32 -11 55 -11 28 -13 38 -4 33 15 -10
48 -13 48 -5 0 13 53 29 83 25 18 -3 61 4 97 14 91 27 108 26 167 -10z m-963
3 c3 -5 -3 -11 -15 -14 -16 -4 -18 -3 -8 9 13 16 16 17 23 5z m-1717 -81 c0
-16 -4 -30 -9 -30 -9 0 -11 22 -2 44 9 23 11 20 11 -14z m1623 13 c0 -5 -13
-17 -28 -27 l-27 -19 24 26 c26 28 31 32 31 20z m-1559 -49 c36 -39 57 -48 77
-32 13 11 15 11 9 -4 -5 -13 0 -16 24 -16 16 1 29 5 29 11 0 5 16 -3 35 -18
21 -15 43 -24 52 -21 10 4 27 -6 49 -29 18 -19 36 -35 41 -35 4 0 -19 27 -52
60 -68 69 -67 81 2 18 29 -27 42 -35 35 -21 -7 12 -17 25 -22 28 -6 3 -10 10
-10 16 0 14 48 11 82 -7 27 -14 29 -19 24 -47 -3 -18 -2 -26 2 -19 7 10 21 9
67 -6 51 -15 62 -23 82 -60 24 -42 16 -59 -10 -22 -8 11 -16 18 -19 15 -9 -9
-74 31 -70 43 4 14 -14 16 -23 2 -8 -13 -55 18 -50 33 6 15 -11 44 -20 35 -4
-3 -3 -22 0 -42 5 -26 12 -36 26 -36 11 0 19 -4 19 -9 0 -5 14 -12 30 -16 17
-4 30 -11 30 -17 0 -6 3 -9 6 -5 3 3 27 -6 54 -19 26 -13 54 -24 62 -24 8 0
21 -12 28 -27 7 -16 15 -23 17 -15 3 6 9 12 15 12 6 0 8 -7 5 -14 -4 -9 1 -17
11 -21 9 -3 28 -15 42 -26 18 -15 11 -13 -25 7 -27 15 -55 31 -61 36 -26 19
-269 138 -284 138 -22 1 -51 25 -43 36 4 5 2 4 -6 -2 -10 -9 -24 -7 -58 8 -25
11 -82 33 -126 49 -93 34 -127 53 -127 74 0 23 24 18 51 -11z m2808 -56 c13
-32 21 -63 18 -70 -3 -7 -10 2 -17 19 -17 47 -33 30 -25 -26 3 -25 2 -57 -3
-71 l-10 -25 -11 28 c-18 45 -25 180 -11 206 15 30 28 17 59 -61z m-2627 31
c27 -23 46 -44 43 -47 -3 -3 -18 6 -33 20 -15 14 -42 33 -59 42 -36 18 -41 26
-17 26 9 0 38 -19 66 -41z m1488 11 c-71 -38 -84 -38 -34 0 21 16 50 29 64 29
20 0 14 -6 -30 -29z m-1625 10 c5 -8 12 -7 23 1 16 12 16 11 0 -5 -16 -19 -48
-16 -48 4 0 13 17 13 25 0z m365 -20 c0 -5 -2 -10 -4 -10 -3 0 -8 5 -11 10 -3
6 -1 10 4 10 6 0 11 -4 11 -10z m1655 -9 c3 -6 -4 -9 -15 -8 -11 1 -20 5 -20
9 0 11 28 10 35 -1z m-1455 -45 c14 -19 38 -42 53 -51 40 -24 28 -29 -17 -7
-33 16 -76 64 -76 85 0 16 16 5 40 -27z m800 10 c0 -2 -7 -7 -16 -10 -8 -3
-12 -2 -9 4 6 10 25 14 25 6z m1547 -2 c-3 -4 5 -15 18 -26 34 -26 23 -39 -23
-26 -48 13 -49 14 -21 37 22 19 40 29 26 15z m-1462 -64 c-3 -5 -12 -10 -18
-10 -7 0 -6 4 3 10 19 12 23 12 15 0z m1450 -30 c17 -19 12 -46 -6 -35 -5 4
-9 -1 -9 -9 0 -10 -9 -16 -26 -16 -19 0 -28 -7 -35 -29 -12 -33 -89 -101 -89
-78 0 8 6 20 14 26 8 6 24 35 36 63 44 103 74 123 115 78z m-1490 10 c-3 -5
-14 -10 -23 -9 -14 0 -13 2 3 9 27 11 27 11 20 0z m1510 0 c3 -5 1 -10 -4 -10
-6 0 -11 5 -11 10 0 6 2 10 4 10 3 0 8 -4 11 -10z m-3635 -10 c0 -5 -4 -10
-10 -10 -5 0 -10 5 -10 10 0 6 5 10 10 10 6 0 10 -4 10 -10z m2500 -22 c0 -4
-9 -8 -20 -8 -11 0 -20 4 -20 8 0 4 9 8 20 8 11 0 20 -4 20 -8z m-446 -4 c26
-10 18 -22 -19 -26 -33 -4 -34 -3 -18 14 18 21 16 20 37 12z m383 -10 c-3 -3
-12 -4 -19 -1 -8 3 -5 6 6 6 11 1 17 -2 13 -5z m-175 -15 c23 -12 23 -28 1
-27 -21 2 -89 -28 -196 -83 -31 -16 -77 -59 -63 -59 3 0 28 11 55 25 26 14 55
23 64 19 9 -3 26 1 39 10 12 9 18 16 12 16 -5 0 -15 -5 -22 -12 -6 -6 -14 -9
-17 -6 -7 7 51 42 99 59 25 9 39 10 47 2 7 -7 6 -12 -6 -17 -9 -3 -13 -2 -10
4 3 5 -8 4 -26 -2 -23 -8 -28 -13 -17 -20 10 -8 9 -9 -4 -4 -11 3 -28 -4 -43
-20 -20 -20 -32 -24 -51 -20 -15 4 -23 3 -20 -2 9 -15 -20 -33 -39 -25 -12 4
-16 3 -12 -4 4 -6 0 -14 -9 -17 -53 -20 -62 11 -18 58 19 20 39 36 44 36 6 0
27 11 48 23 20 13 54 29 75 36 20 7 37 16 37 21 0 11 -61 2 -115 -17 -22 -8
-52 -26 -67 -40 -32 -30 -42 -27 -32 11 4 18 11 25 21 22 7 -3 30 3 49 13 19
11 30 21 25 23 -6 1 22 4 61 5 39 1 79 -2 90 -8z m2768 -8 c19 -37 10 -61 -42
-111 -49 -47 -55 -50 -105 -50 -56 0 -103 -21 -103 -46 0 -8 -7 -14 -15 -14
-8 0 -15 7 -15 15 0 8 -17 26 -39 39 -56 36 -63 114 -12 131 12 3 21 10 21 15
0 17 66 27 142 22 50 -3 78 -1 82 7 12 19 74 13 86 -8z m-4846 -16 c3 -8 1
-15 -3 -15 -5 0 -11 7 -15 15 -3 8 -1 15 3 15 5 0 11 -7 15 -15z m2182 3 c5
-8 0 -9 -15 -5 -16 4 -21 2 -17 -8 2 -7 -2 -16 -10 -19 -10 -4 -12 -2 -8 6 5
8 1 9 -12 5 -15 -6 -14 -3 5 13 26 23 46 26 57 8z m1312 -7 c-2 -11 9 -30 26
-46 31 -29 31 -57 1 -118 -9 -17 -11 -36 -7 -46 10 -20 9 -31 -5 -56 -9 -16
-14 -18 -24 -7 -19 18 -40 15 -84 -14 l-40 -25 38 33 c20 18 37 39 37 46 0 7
16 34 35 59 19 25 35 51 35 56 0 6 -6 3 -12 -6 -17 -22 -110 -87 -125 -87 -6
0 -19 -10 -27 -22 -13 -18 -16 -19 -16 -6 0 10 6 22 13 27 6 6 47 38 89 71 43
34 80 66 84 72 14 22 -14 30 -71 18 -31 -6 -59 -9 -62 -7 -6 7 16 50 30 59 6
4 17 -1 24 -10 12 -16 15 -15 31 5 21 27 34 29 30 4z m824 -32 c45 -29 48 -34
48 -73 0 -82 -44 -93 -279 -71 -85 8 -85 8 -107 -20 -21 -26 -23 -27 -39 -12
-18 19 -30 23 -20 7 3 -5 2 -10 -4 -10 -6 0 -4 -15 5 -36 8 -20 13 -38 10 -41
-7 -8 -37 68 -30 78 3 5 -8 43 -25 84 -17 40 -31 80 -30 87 0 8 2 9 5 2 4 -8
17 -9 47 -2 23 5 110 15 192 22 83 7 156 14 164 15 8 0 36 -13 63 -30z m-3143
-6 c31 -38 16 -42 -22 -5 -23 24 -27 32 -15 32 9 0 26 -12 37 -27z m611 -12
c-14 -9 -41 -31 -60 -49 -19 -19 -57 -45 -85 -58 l-50 -25 52 50 c29 28 64 53
78 57 28 7 31 14 13 33 -10 11 -8 11 9 0 20 -12 25 -11 40 3 9 10 19 15 22 12
3 -4 -5 -14 -19 -23z m1303 9 c-7 -27 -23 -36 -34 -19 -15 24 -10 30 33 38 3
0 4 -8 1 -19z m-731 -24 c-16 -19 -31 -38 -33 -43 -2 -6 -19 -13 -37 -16 -30
-6 -28 -3 30 42 35 27 65 50 67 50 1 1 -10 -14 -27 -33z m-2552 -7 c0 -5 -11
-9 -25 -9 -22 0 -24 2 -13 19 9 15 15 17 25 9 7 -6 13 -14 13 -19z m1430 -13
c0 -24 3 -53 6 -63 5 -16 4 -16 -5 -2 -13 21 -21 109 -10 109 5 0 9 -20 9 -44z
m465 34 c-3 -5 -11 -10 -16 -10 -6 0 -7 5 -4 10 3 6 11 10 16 10 6 0 7 -4 4
-10z m-1620 -37 c26 -40 34 -63 12 -41 -27 28 -58 78 -48 78 6 0 22 -17 36
-37z m1740 -12 c-3 -6 -16 -16 -28 -23 -20 -10 -20 -9 3 15 24 25 39 29 25 8z
m1109 -48 c-1 -26 2 -58 7 -70 5 -13 5 -23 0 -23 -14 0 -41 78 -34 97 5 16 23
43 27 43 1 0 1 -21 0 -47z m-44 15 c0 -10 -2 -18 -5 -18 -2 0 -9 8 -14 18 -8
14 -6 19 5 19 7 0 14 -9 14 -19z m104 -13 c-6 -16 -24 -21 -24 -7 0 11 11 22
21 22 5 0 6 -7 3 -15z m86 -5 c0 -5 -4 -10 -10 -10 -5 0 -10 5 -10 10 0 6 5
10 10 10 6 0 10 -4 10 -10z m-1360 -26 c-75 -35 -100 -44 -100 -38 0 8 123 64
140 63 8 0 -10 -12 -40 -25z m84 -2 c-5 -4 -36 -19 -69 -32 -33 -13 -84 -36
-113 -52 -30 -16 -51 -24 -47 -18 7 12 85 53 170 90 56 25 81 30 59 12z
m-1614 -53 c43 -66 49 -93 7 -37 -27 36 -60 98 -53 98 3 0 24 -28 46 -61z
m-370 -54 c70 -89 81 -120 23 -60 -27 28 -59 71 -71 96 -23 47 -30 79 -10 44
7 -11 33 -47 58 -80z m1679 74 c-11 -21 -76 -109 -87 -119 -11 -9 30 54 48 75
10 11 23 30 29 43 6 12 14 22 17 22 2 0 0 -10 -7 -21z m111 -14 c0 -2 -10 -9
-22 -15 -22 -11 -22 -10 -4 4 21 17 26 19 26 11z m-1736 -30 c9 -13 16 -32 16
-41 0 -26 44 -114 57 -114 24 0 24 -21 1 -63 -24 -41 -26 -72 -6 -92 7 -7 8
-1 4 18 -7 30 20 106 38 107 5 0 5 -23 1 -52 -4 -29 -7 -61 -7 -70 0 -11 -5
-15 -14 -11 -8 3 -14 0 -14 -5 0 -6 -11 -1 -24 11 -19 17 -22 26 -15 44 12 33
-21 86 -65 101 -21 8 -42 26 -55 48 l-21 36 32 -23 c17 -13 50 -32 72 -43 30
-16 41 -27 40 -43 0 -14 5 -23 14 -23 8 0 12 6 8 15 -3 8 -1 15 4 15 6 0 10 5
10 11 0 6 -6 9 -12 7 -14 -5 -71 99 -64 117 2 6 -5 22 -15 36 -10 13 -19 27
-19 32 0 15 18 6 34 -18z m1407 -125 c6 0 7 5 4 10 -3 6 -2 10 3 10 17 0 21
-13 7 -27 -19 -18 -39 -7 -93 51 -59 64 -52 67 14 7 30 -28 60 -51 65 -51z
m2029 80 c-6 -11 -13 -20 -16 -20 -2 0 0 9 6 20 6 11 13 20 16 20 2 0 0 -9 -6
-20z m644 -35 c24 -36 19 -43 -9 -13 -27 29 -30 38 -16 38 5 0 16 -11 25 -25z
m-3964 0 c0 -8 -4 -15 -10 -15 -5 0 -10 7 -10 15 0 8 5 15 10 15 6 0 10 -7 10
-15z m3278 -19 c-20 -18 -24 -26 -15 -35 9 -9 6 -10 -12 -3 -14 5 -27 15 -29
22 -3 9 1 11 12 7 10 -4 23 1 34 12 9 11 22 20 27 20 6 0 -2 -10 -17 -23z
m-3166 -21 c-2 -14 -6 -25 -8 -25 -2 0 -4 11 -4 25 0 14 4 25 9 25 4 0 6 -11
3 -25z m1101 -13 c7 -6 18 -8 22 -4 5 4 5 1 0 -7 -6 -10 -22 -12 -62 -8 -59 6
-68 10 -59 25 8 13 81 9 99 -6z m-1013 -14 c0 -19 -2 -20 -10 -8 -13 19 -13
30 0 30 6 0 10 -10 10 -22z m-460 -7 c0 -5 24 -19 54 -31 36 -14 53 -26 50
-35 -6 -14 27 -37 47 -33 6 2 14 -3 16 -9 6 -18 -22 -16 -58 3 -17 8 -53 15
-81 16 -37 0 -63 7 -90 24 -21 13 -38 28 -38 32 0 9 62 9 78 -1 7 -5 12 -4 12
2 0 6 -4 11 -10 11 -5 0 -10 7 -10 15 0 8 7 15 15 15 8 0 15 -4 15 -9z m1580
-11 c0 -5 -8 -10 -17 -10 -15 0 -16 2 -3 10 19 12 20 12 20 0z m2200 3 c-1 -5
-12 -21 -26 -38 -22 -26 -24 -27 -13 -5 7 14 14 28 15 33 1 4 2 9 3 12 2 8 21
6 21 -2z m61 -17 c-6 -8 -11 -18 -9 -22 8 -29 -86 -234 -107 -234 -4 0 3 13
15 29 20 29 39 75 66 160 13 40 13 42 -3 30 -14 -12 -16 -12 -8 1 13 24 48 60
53 55 3 -2 0 -11 -7 -19z m168 -19 c-1 -31 -1 -31 -9 -7 -11 36 -11 52 0 45 6
-3 10 -21 9 -38z m-2623 12 c8 -7 45 -10 91 -8 l78 4 -3 -25 c-2 -14 -16 -50
-31 -80 -23 -47 -31 -55 -51 -52 -14 1 -32 2 -40 2 -63 -4 -76 -6 -81 -13 -12
-17 -57 15 -63 45 -9 47 -7 95 5 122 10 21 17 24 47 20 19 -2 41 -9 48 -15z
m2114 -21 c0 -4 -9 -8 -20 -8 -15 0 -20 7 -20 27 0 25 0 26 20 8 11 -10 20
-22 20 -27z m428 -35 c-3 -45 -12 -72 -41 -118 -37 -60 -70 -91 -87 -80 -12 7
22 100 47 128 11 12 31 50 44 84 28 73 43 68 37 -14z m938 41 c41 -31 42 -43
9 -92 -42 -64 -51 -72 -82 -72 -28 0 -59 20 -48 31 2 3 0 22 -5 44 -9 40 3 81
21 70 5 -4 9 3 9 14 0 38 49 41 96 5z m-556 -58 c0 -18 -17 8 -24 34 l-7 25
15 -25 c9 -14 15 -29 16 -34z m-55 4 c9 -16 11 -30 6 -30 -5 0 -14 14 -20 30
-5 17 -8 30 -6 30 3 0 11 -13 20 -30z m-2465 -175 c-7 -38 -19 -83 -28 -100
-8 -16 -25 -68 -38 -115 -23 -88 -31 -77 -15 20 35 203 50 271 78 360 14 44
16 -87 3 -165z m67 153 c-3 -8 -6 -5 -6 6 -1 11 2 17 5 13 3 -3 4 -12 1 -19z
m1852 -12 c-3 -3 -11 5 -18 17 -13 21 -12 21 5 5 10 -10 16 -20 13 -22z
m-2099 -11 c-13 -14 -28 -25 -34 -25 -6 1 3 12 19 25 39 32 45 32 15 0z m2070
2 c13 4 13 3 1 -5 -15 -11 -51 5 -51 22 0 5 8 2 18 -6 9 -9 24 -13 32 -11z
m-1835 -47 c-4 -23 -9 -39 -12 -36 -3 2 -2 23 2 46 4 23 9 39 12 36 3 -2 2
-23 -2 -46z m-1845 1 c-19 -35 -19 -77 0 -66 5 3 12 0 16 -6 4 -8 3 -9 -4 -5
-7 4 -12 2 -12 -3 0 -6 7 -11 16 -11 29 0 12 -52 -23 -73 -30 -17 -34 -17 -68
-2 -19 10 -35 23 -35 30 0 10 11 7 39 -8 32 -18 41 -19 54 -8 14 11 14 18 -8
68 -14 31 -25 65 -24 77 0 11 3 16 6 9 3 -8 13 -4 29 12 34 34 37 31 14 -14z
m279 -8 c-3 -51 -16 -93 -31 -93 -4 0 -8 9 -8 20 0 11 -5 20 -11 20 -7 0 -9
10 -4 27 9 36 14 41 25 23 9 -13 10 -13 11 0 1 8 3 20 4 25 2 6 3 13 4 18 0 4
3 7 6 7 3 0 5 -21 4 -47z m3332 -1 c-6 -12 -11 -23 -11 -26 0 -13 29 -5 76 20
l49 25 -53 -47 c-31 -27 -51 -52 -48 -60 9 -23 -15 -27 -36 -7 -20 20 -20 20
2 72 13 28 25 50 27 47 3 -2 0 -13 -6 -24z m-3741 11 c0 -5 -5 -15 -10 -23 -8
-12 -10 -11 -10 8 0 12 5 22 10 22 6 0 10 -3 10 -7z m185 -13 c3 -5 2 -10 -4
-10 -5 0 -13 5 -16 10 -3 6 -2 10 4 10 5 0 13 -4 16 -10z m4269 2 c3 -5 0 -9
-7 -9 -20 -2 -82 -27 -89 -38 -10 -14 2 -67 20 -88 17 -19 44 -17 95 8 15 7
27 9 27 5 0 -13 -29 -27 -71 -35 -30 -5 -39 -2 -62 21 -23 23 -27 35 -25 68 3
38 5 40 53 57 28 10 51 18 52 18 1 1 4 -3 7 -7z m-4159 -29 c-4 -10 -8 -24 -8
-30 0 -9 -6 -7 -17 5 -15 15 -15 18 -1 29 23 18 34 16 26 -4z m4194 -13 c11
-24 11 -24 -3 -6 -9 11 -16 24 -16 30 0 12 5 7 19 -24z m-3022 -1 c38 -14 104
-18 127 -6 17 8 18 6 13 -14 -4 -13 -7 -29 -7 -36 0 -29 -28 -41 -72 -32 -24
6 -48 16 -54 24 -15 20 -22 19 -27 -2 -3 -10 -5 -1 -6 20 0 20 -5 37 -11 37
-5 0 -10 5 -10 10 0 13 12 13 47 -1z m503 -6 c0 -5 -5 -15 -10 -23 -8 -12 -10
-11 -10 8 0 12 5 22 10 22 6 0 10 -3 10 -7z m2535 -43 c3 -5 1 -10 -4 -10 -6
0 -11 5 -11 10 0 6 2 10 4 10 3 0 8 -4 11 -10z m-4181 -15 c-4 -8 -1 -15 5
-15 6 0 11 -6 11 -14 0 -16 -27 -29 -42 -20 -5 3 -8 -2 -6 -12 2 -12 -3 -19
-12 -19 -29 0 -22 41 10 69 36 30 42 32 34 11z m3526 11 c0 -3 -4 -8 -10 -11
-5 -3 -10 -1 -10 4 0 6 5 11 10 11 6 0 10 -2 10 -4z m-30 -26 c0 -5 -5 -10
-11 -10 -5 0 -7 5 -4 10 3 6 8 10 11 10 2 0 4 -4 4 -10z m-2067 -22 c-11 -13
-29 -113 -24 -135 1 -7 -3 -13 -9 -13 -13 0 -13 3 1 76 11 62 27 100 36 90 3
-3 1 -11 -4 -18z m198 -5 c-8 -15 -10 -15 -11 -2 0 17 10 32 18 25 2 -3 -1
-13 -7 -23z m693 -9 c5 -12 2 -15 -10 -10 -8 3 -20 6 -25 6 -5 0 -9 5 -9 10 0
16 37 11 44 -6z m1883 -6 c-3 -8 -6 -5 -6 6 -1 11 2 17 5 13 3 -3 4 -12 1 -19z
m-16 -50 l12 -23 -22 20 -23 20 -19 -24 c-25 -30 -24 -93 1 -148 10 -24 15
-43 11 -43 -5 0 -19 21 -31 47 -24 52 -24 129 0 158 19 23 57 19 71 -7z
m-4163 -18 c50 -31 38 -42 -15 -13 -60 33 -60 33 -37 33 10 0 34 -9 52 -20z
m1182 5 c39 -20 42 -49 4 -35 -37 15 -42 12 -15 -10 13 -11 20 -20 16 -20 -4
0 -3 -6 3 -13 6 -7 7 -18 3 -26 -7 -11 -13 -11 -31 2 -37 26 -48 49 -38 85 10
36 17 38 58 17z m417 -37 c-3 -7 -5 -2 -5 12 0 14 2 19 5 13 2 -7 2 -19 0 -25z
m-1651 -23 c27 -11 34 -19 30 -33 -4 -12 5 -34 28 -63 19 -24 33 -45 30 -48
-2 -2 3 -15 11 -28 15 -23 15 -23 -25 -24 -22 -1 -44 -2 -50 -3 -5 -1 -9 4 -7
9 1 6 6 9 11 7 5 -2 6 4 3 11 -3 8 0 20 6 26 7 7 7 11 1 11 -16 0 -144 132
-138 141 8 14 61 11 100 -6z m3774 -85 c0 -5 -7 -10 -16 -10 -8 0 -12 5 -9 10
3 6 10 10 16 10 5 0 9 -4 9 -10z m460 -21 c0 -5 -4 -9 -10 -9 -5 0 -10 7 -10
16 0 8 5 12 10 9 6 -3 10 -10 10 -16z m-2703 -36 c-3 -10 -5 -4 -5 12 0 17 2
24 5 18 2 -7 2 -21 0 -30z m-1547 11 c0 -8 -4 -12 -10 -9 -5 3 -10 10 -10 16
0 5 5 9 10 9 6 0 10 -7 10 -16z m1716 -11 c-7 -7 -26 7 -26 19 0 6 6 6 15 -2
9 -7 13 -15 11 -17z m913 5 c1 6 8 12 16 12 11 0 13 -7 9 -29 -4 -17 0 -41 10
-59 9 -17 12 -33 7 -36 -5 -4 -7 -16 -4 -27 9 -34 -17 -19 -54 32 -36 50 -40
75 -16 108 16 23 17 23 24 5 4 -10 8 -13 8 -6z m155 -11 c2 -25 0 -27 -11 -11
-7 10 -15 16 -17 13 -6 -6 33 -90 50 -107 14 -14 11 -32 -6 -32 -15 0 -60 85
-60 113 0 38 10 58 28 55 9 -2 16 -14 16 -31z m981 14 c-3 -6 -11 -11 -17 -11
-6 0 -6 6 2 15 14 17 26 13 15 -4z m-3735 -23 c0 -5 -6 -8 -14 -8 -9 0 -12 7
-9 21 4 16 8 17 14 7 5 -7 9 -16 9 -20z m2110 22 c8 12 10 11 10 -7 0 -22 49
-88 50 -67 0 6 -9 19 -20 29 -30 27 -24 38 11 19 23 -11 34 -13 42 -5 18 18
27 13 27 -16 0 -19 16 -42 60 -85 33 -32 60 -65 60 -72 0 -62 -143 -15 -189
61 -14 25 -40 66 -57 93 -18 27 -29 51 -26 55 3 3 9 0 14 -7 6 -10 10 -10 18
2z m175 0 c-8 -14 21 -60 57 -89 44 -35 43 -20 -1 31 -36 40 -38 45 -17 41 13
-3 29 2 37 9 18 19 49 19 49 1 0 -8 18 -36 40 -62 38 -45 50 -71 32 -71 -4 0
-30 29 -57 65 -33 44 -52 62 -59 55 -7 -7 8 -29 47 -68 31 -32 57 -63 57 -70
0 -8 -16 -12 -43 -12 -50 0 -73 17 -131 94 -58 77 -61 86 -31 86 15 0 24 -4
20 -10z m220 -10 c-4 -12 -1 -28 7 -38 10 -13 8 -13 -9 2 -18 14 -20 23 -12
37 13 25 22 24 14 -1z m-870 1 c3 -5 1 -12 -4 -15 -5 -3 -11 1 -15 9 -6 16 9
21 19 6z m1295 -1 c0 -5 -4 -10 -10 -10 -5 0 -10 5 -10 10 0 6 5 10 10 10 6 0
10 -4 10 -10z m-1780 -10 c13 -8 13 -10 -2 -10 -9 0 -20 5 -23 10 -8 13 5 13
25 0z m867 1 c14 12 16 12 8 0 -6 -11 -4 -13 7 -8 12 4 22 -11 43 -61 16 -37
35 -75 43 -84 8 -10 12 -24 9 -32 -3 -8 0 -17 8 -20 11 -4 11 -10 3 -28 l-11
-24 -66 43 c-36 24 -77 55 -92 71 -14 15 -54 53 -88 86 -40 38 -53 56 -38 51
12 -3 28 -7 35 -7 6 -1 12 -5 12 -10 0 -13 28 -9 33 5 7 16 29 -13 22 -30 -2
-6 3 -17 11 -23 16 -14 17 -9 14 50 -2 30 0 32 14 21 13 -11 19 -11 33 0z
m903 -27 c0 -8 -7 -14 -15 -14 -10 0 -15 10 -15 26 0 22 2 25 15 14 8 -7 15
-19 15 -26z m-1320 16 c0 -5 -5 -10 -11 -10 -5 0 -7 5 -4 10 3 6 8 10 11 10 2
0 4 -4 4 -10z m2160 -10 c0 -5 -15 -10 -32 -9 -28 0 -30 2 -13 9 28 12 45 12
45 0z m-3000 -30 c0 -10 -4 -22 -10 -25 -6 -4 -10 7 -10 25 0 18 4 29 10 25 6
-3 10 -15 10 -25z m913 13 c-6 -16 -4 -16 18 2 l24 19 -22 -24 c-18 -19 -25
-22 -35 -12 -10 10 -10 15 2 22 20 13 20 13 13 -7z m97 -13 c17 9 23 5 44 -27
26 -41 62 -76 141 -138 85 -67 88 -75 33 -75 -41 0 -79 22 -154 90 -37 33 -79
68 -95 77 -33 20 -37 33 -11 33 14 0 15 2 2 10 -10 6 -11 10 -2 10 6 0 13 12
13 28 2 23 2 24 6 5 4 -19 8 -21 23 -13z m-1325 -10 c-6 -9 -9 -9 -15 1 -9 14
-26 -20 -65 -128 -12 -35 -27 -68 -32 -75 -6 -7 -23 -37 -37 -66 -15 -30 -30
-52 -32 -49 -8 7 66 199 87 225 10 13 21 36 24 52 8 34 53 76 68 61 5 -5 6
-15 2 -21z m83 -47 c-18 -31 -47 -70 -65 -87 -45 -45 -103 -89 -108 -84 -8 7
39 58 53 58 7 0 12 6 12 13 1 6 23 37 51 67 28 30 58 68 67 83 9 15 18 23 20
17 2 -6 -11 -36 -30 -67z m552 51 c0 -8 -4 -14 -10 -14 -5 0 -10 9 -10 21 0
11 5 17 10 14 6 -3 10 -13 10 -21z m417 -16 c-3 -7 -5 -2 -5 12 0 14 2 19 5
13 2 -7 2 -19 0 -25z m2787 16 c3 -8 2 -12 -4 -9 -6 3 -10 10 -10 16 0 14 7
11 14 -7z m-3695 -34 c-20 -36 -39 -52 -39 -33 0 12 45 73 53 73 5 0 -2 -18
-14 -40z m402 9 c-9 -22 -10 -22 -10 -3 -1 11 2 24 6 27 12 12 14 0 4 -24z
m229 -32 c0 -37 -3 -48 -10 -37 -13 20 -13 103 0 95 6 -3 10 -30 10 -58z
m-940 44 c0 -12 -20 -25 -27 -18 -7 7 6 27 18 27 5 0 9 -4 9 -9z m-66 -16 c-4
-8 -8 -15 -10 -15 -2 0 -4 7 -4 15 0 8 4 15 10 15 5 0 7 -7 4 -15z m4105 -115
c0 -8 -9 8 -19 35 -11 28 -20 57 -19 65 1 18 37 -78 38 -100z m-2832 58 c-3
-7 -5 -2 -5 12 0 14 2 19 5 13 2 -7 2 -19 0 -25z m279 -111 c91 -127 102 -147
86 -147 -11 0 -112 110 -112 122 0 4 -20 37 -45 74 -45 65 -61 110 -30 84 8
-6 53 -66 101 -133z m824 117 c0 -8 -4 -12 -10 -9 -5 3 -10 13 -10 21 0 8 5
12 10 9 6 -3 10 -13 10 -21z m-2409 -31 c-12 -20 -14 -14 -5 12 4 9 9 14 11
11 3 -2 0 -13 -6 -23z m1174 -23 c-4 -23 -9 -39 -11 -37 -3 2 -2 23 2 46 4 23
9 40 11 37 3 -3 2 -23 -2 -46z m2715 -35 c0 -24 -5 -35 -15 -35 -16 0 -18 12
-9 48 10 34 24 26 24 -13z m-2447 -10 c-3 -9 -8 -14 -10 -11 -3 3 -2 9 2 15 9
16 15 13 8 -4z m2308 -61 c-2 -92 -21 -129 -95 -182 -39 -28 -116 -53 -116
-38 0 4 22 28 49 54 49 46 141 197 141 230 0 12 3 13 11 5 7 -7 11 -38 10 -69z
m-2351 51 c-7 -8 -18 -15 -24 -15 -6 0 -2 7 8 15 25 19 32 19 16 0z m-1994
-39 c-21 -49 -28 -46 -9 4 9 22 18 38 20 36 2 -2 -3 -20 -11 -40z m99 -10 c3
-57 25 -113 36 -95 5 9 10 4 14 -14 8 -32 -12 -62 -48 -71 -20 -5 -20 -4 -4 8
22 17 22 34 -3 87 -19 43 -27 119 -13 132 11 11 14 1 18 -47z m1655 28 c0 -14
-4 -23 -9 -20 -5 3 -7 15 -4 26 7 28 13 25 13 -6z m280 -24 c0 -5 -2 -10 -4
-10 -3 0 -8 5 -11 10 -3 6 -1 10 4 10 6 0 11 -4 11 -10z m2190 0 c0 -5 -4 -10
-10 -10 -5 0 -10 5 -10 10 0 6 5 10 10 10 6 0 10 -4 10 -10z m30 -10 c0 -5 -4
-10 -10 -10 -5 0 -15 -11 -22 -24 -14 -26 -98 -122 -98 -113 0 4 20 31 45 61
25 31 45 59 45 64 0 10 22 32 32 32 4 0 8 -4 8 -10z m-3882 -50 c67 -26 86
-26 79 0 -5 18 -4 18 24 -2 32 -24 34 -30 18 -59 -10 -19 -12 -19 -28 -5 -9 8
-47 29 -84 46 -37 17 -67 32 -67 35 0 7 -1 7 58 -15z m3802 7 c0 -1 -23 -25
-52 -52 l-51 -50 44 52 c37 45 59 63 59 50z m-2190 -42 c-7 -9 -15 -13 -18
-10 -3 2 1 11 8 20 7 9 15 13 18 10 3 -2 -1 -11 -8 -20z m50 15 c0 -5 -2 -10
-4 -10 -3 0 -8 5 -11 10 -3 6 -1 10 4 10 6 0 11 -4 11 -10z m-1600 -76 c19
-10 39 -17 43 -16 5 2 7 -3 5 -10 -5 -15 -59 -22 -93 -14 -12 3 -35 23 -51 43
l-28 37 47 -34 c26 -18 49 -31 52 -28 3 2 -15 19 -40 37 -60 43 -69 61 -14 29
24 -14 60 -34 79 -44z m230 36 c-6 -11 -13 -20 -16 -20 -2 0 0 9 6 20 6 11 13
20 16 20 2 0 0 -9 -6 -20z m93 -54 c-11 -11 -27 -34 -37 -49 -10 -16 -20 -26
-23 -23 -9 9 58 106 69 100 5 -4 1 -15 -9 -28z m1275 -11 c-3 -3 -9 2 -12 12
-6 14 -5 15 5 6 7 -7 10 -15 7 -18z m46 -41 c3 -8 2 -12 -4 -9 -6 3 -10 10
-10 16 0 14 7 11 14 -7z m46 -133 c-1 -11 -8 -8 -25 12 -33 37 -32 57 0 27 14
-13 25 -31 25 -39z m-500 -22 c0 -6 -4 -7 -10 -4 -5 3 -10 11 -10 16 0 6 5 7
10 4 6 -3 10 -11 10 -16z m410 -220 c0 -6 -4 -7 -10 -4 -5 3 -10 11 -10 16 0
6 5 7 10 4 6 -3 10 -11 10 -16z m90 -4 c0 -8 19 -28 41 -45 45 -32 69 -28 69
11 0 32 17 21 23 -15 3 -18 26 -65 51 -105 68 -105 60 -155 -14 -91 -36 30
-57 39 -44 18 4 -7 3 -8 -5 -4 -6 4 -9 11 -6 15 2 5 -21 33 -53 63 -31 30 -74
74 -95 96 l-38 42 31 -7 c30 -5 32 -4 25 16 -4 12 -2 21 4 21 6 0 11 -7 11
-15z m855 -32 c17 -27 31 -58 32 -71 2 -25 -4 -22 -65 30 -35 29 -40 43 -17
52 8 3 12 12 9 21 -13 32 12 13 41 -32z m-2158 15 c-3 -8 -6 -5 -6 6 -1 11 2
17 5 13 3 -3 4 -12 1 -19z m1696 2 c26 -21 43 -25 50 -12 2 4 3 2 1 -4 -1 -6
15 -29 37 -50 21 -21 39 -35 39 -31 0 14 -32 72 -51 93 -19 21 -19 21 11 21
25 0 29 -4 24 -19 -3 -11 4 -34 17 -56 48 -81 59 -103 59 -119 0 -9 10 -27 22
-40 30 -32 21 -35 -31 -10 -51 24 -125 95 -194 185 -38 50 -43 62 -28 62 10 0
30 -9 44 -20z m611 -2 c17 -27 31 -78 21 -78 -33 0 -70 54 -59 85 9 21 21 19
38 -7z m-797 -3 c44 -19 53 -19 53 0 0 29 44 -5 81 -63 50 -78 91 -161 84
-172 -3 -4 -1 -20 5 -35 11 -30 13 -30 -65 22 -51 34 -165 148 -165 165 0 5
-11 26 -25 46 -39 57 -32 64 32 37z m431 6 c-2 -18 4 -30 18 -35 14 -5 15 -4
4 9 -7 9 -10 18 -7 22 7 6 87 -76 87 -89 0 -24 -77 17 -110 59 -11 14 -20 21
-20 14 0 -16 -15 -14 -39 7 -21 17 -21 17 23 18 25 1 45 -1 44 -5z m73 -3 c0
-10 2 -10 6 0 8 20 33 14 33 -9 0 -11 5 -29 10 -40 6 -10 7 -19 3 -19 -9 1
-83 68 -83 75 0 11 30 4 31 -7z m402 -35 c6 -32 6 -32 -13 -13 -22 22 -26 40
-9 40 5 0 7 6 3 13 -5 8 -4 9 3 2 6 -5 13 -24 16 -42z m-1023 33 c0 -3 -4 -8
-10 -11 -5 -3 -10 -1 -10 4 0 6 5 11 10 11 6 0 10 -2 10 -4z m-1284 -33 c-10
-10 -19 5 -10 18 6 11 8 11 12 0 2 -7 1 -15 -2 -18z m-125 -6 c-10 -9 -11 -8
-5 6 3 10 9 15 12 12 3 -3 0 -11 -7 -18z m192 9 c3 -8 0 -19 -7 -25 -10 -9
-12 -6 -8 14 5 29 8 31 15 11z m137 -6 c9 -16 8 -20 -5 -20 -8 0 -15 9 -15 20
0 11 2 20 5 20 2 0 9 -9 15 -20z m-449 -23 c-13 -12 -20 -15 -16 -7 14 26 28
41 33 35 3 -3 -5 -16 -17 -28z m45 -4 c-8 -15 -15 -22 -16 -15 0 17 20 55 27
49 2 -3 -2 -18 -11 -34z m38 1 c-20 -48 -8 -60 40 -40 43 18 39 3 -6 -20 -21
-11 -33 -13 -41 -5 -8 8 -16 6 -30 -7 -11 -9 -18 -12 -15 -7 33 74 42 92 50
103 17 20 18 14 2 -24z m1982 -58 c38 -47 81 -90 96 -97 31 -13 54 -36 45 -46
-4 -3 -18 2 -31 11 -34 22 -39 20 -32 -9 9 -36 -1 -31 -23 14 -11 21 -45 75
-76 120 -51 75 -60 91 -51 91 1 0 34 -38 72 -84z m-1300 28 c-3 -8 -10 -14
-16 -14 -11 0 -14 43 -3 54 10 10 26 -23 19 -40z m148 29 c4 -9 2 -21 -4 -27
-7 -7 -10 -7 -10 1 0 6 -3 18 -6 27 -3 9 -2 16 4 16 5 0 13 -8 16 -17z m427 0
c13 -16 12 -17 -3 -4 -17 13 -22 21 -14 21 2 0 10 -8 17 -17z m-1347 -47 c-9
-15 -19 -25 -21 -22 -3 2 3 16 13 30 9 15 19 25 21 22 3 -2 -3 -16 -13 -30z
m257 -9 c-9 -24 -57 -65 -66 -56 -2 3 12 24 32 47 38 47 49 49 34 9z m734 23
c-3 -5 -11 -10 -16 -10 -6 0 -7 5 -4 10 3 6 11 10 16 10 6 0 7 -4 4 -10z m359
-29 c-6 -6 -24 19 -24 34 1 6 7 1 15 -9 8 -11 12 -22 9 -25z m-1880 5 c-6 -15
-24 -23 -24 -11 0 8 24 34 28 30 1 -1 0 -10 -4 -19z m421 -28 l20 -20 -25 15
c-14 8 -46 19 -72 22 -26 4 -55 13 -65 20 -14 11 -3 11 52 -2 40 -8 78 -24 90
-35z m4205 33 c0 -5 -9 -19 -19 -32 -13 -16 -19 -19 -18 -8 2 8 9 23 17 32 17
19 20 20 20 8z m-4339 -81 c29 -22 37 -44 19 -55 -5 -3 -10 3 -10 15 0 25 -55
52 -145 70 -52 11 -115 34 -115 44 0 10 226 -57 251 -74z m124 1 c45 -25 42
-24 -72 13 -46 15 -93 36 -105 46 -19 16 -9 14 57 -9 44 -15 98 -38 120 -50z
m4095 38 c6 -22 8 -60 4 -85 -5 -39 -9 -45 -25 -40 -60 19 -62 19 -55 8 4 -7
16 -12 26 -12 34 0 30 -17 -11 -45 -28 -20 -43 -25 -50 -18 -8 8 -5 13 10 18
27 8 27 22 1 30 l-21 7 21 31 c11 18 32 58 46 90 15 31 30 57 35 57 5 0 13
-18 19 -41z m-147 -11 c5 -30 0 -38 -59 -95 -35 -34 -64 -66 -64 -71 0 -16
-187 -46 -222 -36 -39 11 -47 30 -16 37 77 19 195 70 222 96 37 35 106 75 106
61 0 -5 -12 -17 -27 -27 -16 -10 -49 -34 -74 -53 -25 -20 -74 -46 -108 -59
-33 -12 -61 -24 -61 -27 0 -9 93 8 135 24 22 9 66 38 98 66 54 46 58 53 54 83
-3 18 -2 33 2 33 5 0 11 -15 14 -32z m53 -14 c-5 -14 -9 -15 -19 -5 -9 9 -9
14 3 21 18 11 24 6 16 -16z m-210 -19 c-8 -22 -67 -45 -115 -45 -22 0 -43 -4
-46 -10 -3 -5 -16 -15 -28 -21 -19 -10 -18 -7 6 18 15 16 27 35 27 43 0 10 4
9 18 -3 14 -13 25 -14 65 -5 27 5 53 18 60 28 13 22 22 18 13 -5z m-26 6 c0
-12 -59 -23 -74 -13 -6 4 6 10 29 13 22 3 41 7 43 8 1 0 2 -3 2 -8z m-284 -69
c-12 -11 -18 7 -10 30 l8 23 4 -23 c2 -13 1 -26 -2 -30z m-3536 28 c0 -5 -4
-10 -10 -10 -5 0 -10 5 -10 10 0 6 5 10 10 10 6 0 10 -4 10 -10z m1641 -22
l23 -31 -32 23 c-32 23 -41 40 -23 40 5 0 20 -14 32 -32z m-1790 -18 c26 0 51
-4 54 -10 4 -6 -20 -10 -64 -10 -38 0 -73 -5 -76 -10 -4 -6 -11 -7 -18 -3 -7
4 -4 9 9 14 17 6 15 9 -13 19 -51 18 -39 30 14 14 25 -8 68 -14 94 -14z m779
16 c0 -2 -8 -10 -17 -17 -16 -13 -17 -12 -4 4 13 16 21 21 21 13z m1061 -48
c11 -21 11 -22 -4 -9 -10 7 -17 17 -17 22 0 15 9 10 21 -13z m-1091 8 c0 -2
-8 -10 -17 -17 -16 -13 -17 -12 -4 4 13 16 21 21 21 13z m-717 -99 c29 -13 35
-32 13 -40 -19 -7 -67 16 -92 44 l-19 21 35 -7 c19 -3 47 -12 63 -18z m-171
-53 c-2 -14 -11 -28 -18 -31 -7 -2 -10 -11 -7 -19 3 -9 -2 -14 -15 -14 -36 0
-40 104 -4 113 27 6 50 -20 44 -49z m298 31 c0 -8 -92 -47 -97 -41 -9 8 51 46
73 46 13 0 24 -2 24 -5z m-237 -61 c21 -12 32 -13 35 -5 2 6 8 11 14 11 6 0 6
-6 -2 -15 -21 -26 -100 -17 -100 11 0 18 14 18 53 -2z m1848 -91 c15 -35 25
-63 23 -63 -23 0 -74 104 -73 148 l0 27 12 -25 c6 -14 23 -53 38 -87z m-1941
32 c0 -8 -9 -15 -20 -15 -20 0 -26 11 -13 23 12 13 33 7 33 -8z m4219 -75 c11
-6 30 -6 50 0 35 10 38 5 14 -22 -21 -24 -32 -22 -68 7 -31 25 -28 33 4 15z
m-4274 -61 c-17 -8 -16 -9 8 -6 32 5 34 1 8 -12 -14 -8 -23 -6 -36 9 -18 19
-17 20 11 19 26 0 27 -1 9 -10z m655 -19 c0 -5 -16 -10 -35 -10 -19 0 -35 5
-35 10 0 6 16 10 35 10 19 0 35 -4 35 -10z m-993 -104 c-3 -7 26 -53 64 -101
39 -48 64 -85 57 -83 -23 8 -138 167 -132 183 4 8 8 15 11 15 3 0 3 -6 0 -14z
m5190 -38 c-2 -13 -4 -5 -4 17 -1 22 1 32 4 23 2 -10 2 -28 0 -40z m-2371 -16
c-4 -3 -11 0 -16 8 -15 24 -11 33 6 15 9 -9 13 -19 10 -23z m-422 22 c-16 -7
35 -110 71 -147 43 -42 43 -23 0 40 -59 88 -60 91 -19 47 22 -23 64 -57 94
-76 30 -19 71 -53 90 -75 91 -104 96 -113 55 -113 -47 0 -203 94 -244 146 -15
19 -21 22 -21 10 0 -28 -17 -18 -79 50 -44 49 -61 74 -60 93 2 22 2 23 6 5 4
-23 43 -65 43 -47 0 6 -7 14 -16 17 -9 4 -15 9 -12 11 12 12 40 -10 73 -57 20
-27 39 -48 41 -45 3 3 -6 33 -20 68 -25 62 -26 80 -3 78 9 0 9 -2 1 -5z m2401
-4 c-3 -5 -21 -10 -40 -10 -19 0 -37 5 -40 10 -4 6 12 10 40 10 28 0 44 -4 40
-10z m-4613 -22 c-7 -7 -12 -8 -12 -2 0 14 12 26 19 19 2 -3 -1 -11 -7 -17z
m139 4 c-5 -9 -19 -26 -32 -37 -19 -16 -18 -13 5 18 30 39 43 49 27 19z m2359
2 c0 -20 27 -78 57 -123 13 -19 21 -36 18 -39 -11 -11 -66 66 -80 112 -18 59
-18 66 -5 66 6 0 10 -7 10 -16z m375 6 c11 18 23 11 18 -10 -3 -11 -7 -20 -10
-20 -13 0 -43 22 -43 32 0 7 4 7 14 -1 10 -8 16 -9 21 -1z m-2814 -27 l24 -26
-32 19 c-18 10 -33 22 -33 26 0 15 17 8 41 -19z m2387 21 c17 -5 22 -14 22
-38 0 -18 6 -38 13 -45 10 -11 8 -12 -9 -2 -18 9 -64 71 -64 87 0 5 10 5 38
-2z m347 -13 c-3 -6 -11 -11 -17 -11 -6 0 -6 6 2 15 14 17 26 13 15 -4z
m-2467 -8 c-10 -2 -28 -2 -40 0 -13 2 -5 4 17 4 22 1 32 -1 23 -4z m494 -22
c-11 -19 -19 -26 -24 -18 -4 6 0 20 9 29 25 28 34 21 15 -11z m138 5 c-33 -87
-124 -236 -136 -223 -7 6 131 247 142 247 2 0 -1 -11 -6 -24z m277 -8 c-3 -8
-6 -5 -6 6 -1 11 2 17 5 13 3 -3 4 -12 1 -19z m290 0 c-3 -8 -6 -5 -6 6 -1 11
2 17 5 13 3 -3 4 -12 1 -19z m1075 -40 c19 -24 42 -56 52 -71 17 -28 17 -28
-2 -18 -20 10 -55 52 -102 120 -22 32 -22 33 -2 22 11 -6 36 -30 54 -53z
m-2339 27 c24 -14 51 -23 60 -19 19 7 80 -23 72 -36 -3 -5 -11 -8 -18 -6 -7 1
-9 1 -4 -1 11 -7 8 -43 -3 -43 -6 0 -22 7 -36 16 -22 15 -24 15 -18 0 3 -9 9
-16 13 -16 12 -1 63 -51 58 -57 -3 -3 -42 20 -86 51 -44 31 -84 56 -88 56 -4
0 13 -21 37 -46 61 -63 38 -52 -39 18 l-63 57 31 16 c17 8 31 20 31 25 0 14 2
13 53 -15z m252 15 c3 -5 -1 -10 -9 -10 -9 0 -16 5 -16 10 0 6 4 10 9 10 6 0
13 -4 16 -10z m566 -93 c-32 -64 -115 -166 -126 -156 -3 3 10 28 30 55 19 27
54 80 77 118 50 82 63 71 19 -17z m2637 38 c-3 -3 -9 2 -12 12 -6 14 -5 15 5
6 7 -7 10 -15 7 -18z m862 16 c0 -6 -4 -13 -10 -16 -5 -3 -10 1 -10 9 0 9 5
16 10 16 6 0 10 -4 10 -9z m407 -13 c-3 -8 -6 -5 -6 6 -1 11 2 17 5 13 3 -3 4
-12 1 -19z m-3739 -38 c-28 -48 -95 -128 -77 -90 24 49 80 130 90 130 5 0 -1
-18 -13 -40z m3622 6 c0 -32 -10 -56 -22 -56 -6 0 -5 6 2 15 18 21 0 18 -30
-5 -41 -32 -48 -23 -7 11 20 17 37 37 37 45 0 8 5 14 10 14 6 0 10 -11 10 -24z
m-310 -11 c-15 -18 -150 -117 -150 -110 0 7 144 125 154 125 5 0 3 -7 -4 -15z
m130 -4 c0 -18 -95 -143 -128 -168 -24 -19 -83 -16 -119 7 -33 20 -44 34 -20
24 20 -7 129 50 162 86 29 32 83 70 98 70 4 0 7 -8 7 -19z m-4865 -31 c-3 -5
-13 -10 -21 -10 -8 0 -12 5 -9 10 3 6 13 10 21 10 8 0 12 -4 9 -10z m4530 0
c3 -5 -1 -10 -9 -10 -9 0 -16 5 -16 10 0 6 4 10 9 10 6 0 13 -4 16 -10z m115
6 c0 -2 -7 -9 -15 -16 -12 -10 -15 -10 -15 4 0 9 7 16 15 16 8 0 15 -2 15 -4z
m-237 -33 c-7 -2 -13 -9 -13 -14 0 -6 4 -8 9 -5 4 3 28 2 52 -3 l44 -9 -45 -2
c-25 -1 -55 -3 -67 -4 -13 -2 -23 0 -23 2 0 11 34 42 44 41 6 0 6 -3 -1 -6z
m552 -59 c-50 -43 -195 -106 -195 -85 0 10 21 19 66 27 34 6 71 26 109 58 17
14 35 25 40 25 6 0 -3 -11 -20 -25z m-4849 -532 c-4 -3 -14 2 -24 12 -16 18
-16 18 6 6 13 -6 21 -14 18 -18z m-66 3 c-6 -8 -9 -19 -5 -25 3 -5 2 -10 -3
-10 -12 0 -24 29 -16 41 3 5 12 9 21 9 12 0 13 -3 3 -15z m254 -26 c-25 -28
-67 -49 -96 -49 -17 1 -12 5 16 15 22 8 51 23 65 34 34 26 39 26 15 0z m216
-29 c0 -10 -13 -33 -30 -50 -34 -35 -41 -53 -9 -24 21 19 21 19 18 -1 -6 -32
-103 -74 -171 -74 -32 -1 -58 3 -58 7 0 14 31 37 83 61 26 13 47 29 47 36 0 7
17 20 38 29 20 9 44 21 52 26 23 14 30 12 30 -10z m2640 10 c0 -5 -2 -10 -4
-10 -3 0 -8 5 -11 10 -3 6 -1 10 4 10 6 0 11 -4 11 -10z m-320 -20 c0 -5 -5
-10 -11 -10 -5 0 -7 5 -4 10 3 6 8 10 11 10 2 0 4 -4 4 -10z m-1581 -59 c-17
-29 -33 -50 -36 -47 -6 5 24 65 45 89 28 32 24 10 -9 -42z m1615 35 c-3 -9
-10 -16 -15 -16 -14 0 -11 28 4 33 16 6 19 3 11 -17z m-164 5 c-1 -17 -19 -31
-33 -26 -29 12 -27 32 4 32 16 0 29 -3 29 -6z m-121 -25 c13 -14 18 -26 13
-30 -6 -3 -20 7 -32 24 -25 36 -13 40 19 6z m188 -16 c6 0 16 -7 23 -15 9 -11
9 -15 1 -15 -16 0 -54 20 -63 34 -14 21 -8 29 10 13 10 -10 23 -17 29 -17z
m1949 15 c10 -8 14 -15 8 -15 -5 0 -19 7 -30 15 -10 8 -14 15 -8 15 5 0 19 -7
30 -15z m-2228 -16 c17 -27 5 -40 -14 -15 -8 11 -14 23 -14 28 0 15 15 8 28
-13z m152 -52 c0 -5 -7 -4 -15 3 -8 7 -15 20 -15 29 1 13 3 13 15 -3 8 -11 15
-24 15 -29z m160 3 c0 -5 -6 -10 -14 -10 -8 0 -18 5 -21 10 -3 6 3 10 14 10
12 0 21 -4 21 -10z m1928 -19 c37 14 39 3 3 -16 -34 -17 -51 -13 -51 13 0 12
3 13 11 5 8 -8 19 -9 37 -2z m92 -23 c-19 -35 -41 -58 -58 -58 -9 0 0 16 24
43 42 47 52 52 34 15z m-291 -4 c17 -37 8 -39 -13 -4 -9 17 -13 30 -8 30 5 0
14 -12 21 -26z m-712 -176 c-3 -8 -6 -5 -6 6 -1 11 2 17 5 13 3 -3 4 -12 1
-19z m0 -40 c-3 -8 -6 -5 -6 6 -1 11 2 17 5 13 3 -3 4 -12 1 -19z m743 -78 c6
-11 8 -20 6 -20 -3 0 -10 9 -16 20 -6 11 -8 20 -6 20 3 0 10 -9 16 -20z
m-4850 -101 c0 -6 -4 -7 -10 -4 -5 3 -10 11 -10 16 0 6 5 7 10 4 6 -3 10 -11
10 -16z m4877 -51 c-3 -8 -6 -5 -6 6 -1 11 2 17 5 13 3 -3 4 -12 1 -19z m-842
-48 c-3 -5 -12 -10 -18 -10 -7 0 -6 4 3 10 19 12 23 12 15 0z m-3825 -50 c-12
-23 -30 -27 -30 -7 0 17 10 27 27 27 11 0 11 -5 3 -20z m85 -18 c-7 -8 -35 7
-35 18 0 6 7 6 20 -2 10 -7 17 -14 15 -16z m2318 -2 c3 -11 1 -18 -4 -14 -5 3
-9 12 -9 20 0 20 7 17 13 -6z m-2634 -140 c0 -26 -2 -31 -9 -20 -5 8 -9 49 -8
90 l1 75 7 -55 c5 -30 8 -71 9 -90z m392 60 c-21 -41 -43 -92 -50 -113 -7 -21
-15 -36 -17 -34 -7 7 55 168 77 199 35 48 30 27 -10 -52z m3768 14 c12 -19 16
-32 11 -29 -11 7 -43 65 -36 65 2 0 13 -16 25 -36z m717 14 c-9 -13 -28 -45
-42 -72 -18 -35 -28 -45 -34 -36 -13 21 -24 -74 -11 -98 19 -35 14 -45 -20
-38 -25 5 -32 2 -36 -14 -4 -13 -14 -20 -30 -20 -13 0 -22 4 -18 9 3 5 1 12
-5 16 -18 11 -11 35 23 71 76 84 88 95 97 89 5 -3 17 9 26 27 19 36 55 88 62
88 2 0 -3 -10 -12 -22z m-4340 -16 c-18 -16 -18 -16 -6 6 6 13 14 21 18 18 3
-4 -2 -14 -12 -24z m4271 6 c-3 -8 -6 -5 -6 6 -1 11 2 17 5 13 3 -3 4 -12 1
-19z m-4384 -70 c-19 -45 -38 -99 -41 -120 -4 -37 -22 -64 -22 -35 0 36 80
237 94 237 3 0 -11 -37 -31 -82z m44 32 c-11 -27 -23 -48 -25 -46 -4 5 35 96
42 96 2 0 -5 -22 -17 -50z m4323 0 c-6 -12 -20 -20 -33 -19 -20 1 -20 2 -2 6
11 3 24 11 28 19 13 22 19 16 7 -6z m-4290 -44 c0 -14 -6 -31 -13 -38 -8 -7
-12 -20 -10 -28 3 -11 1 -10 -7 2 -8 12 -6 26 7 52 20 42 23 44 23 12z m3447
-23 c1 -29 -1 -33 -9 -20 -7 14 -3 57 6 57 1 0 3 -17 3 -37z m30 -5 c-3 -8 -6
-5 -6 6 -1 11 2 17 5 13 3 -3 4 -12 1 -19z m727 -2 c-3 -9 -12 -16 -20 -16
-11 0 -10 4 4 18 20 22 25 21 16 -2z m-1524 -6 c0 -5 -5 -10 -11 -10 -5 0 -7
5 -4 10 3 6 8 10 11 10 2 0 4 -4 4 -10z m840 -20 c0 -5 -2 -10 -4 -10 -3 0 -8
5 -11 10 -3 6 -1 10 4 10 6 0 11 -4 11 -10z m786 -15 c-1 -29 -16 -35 -16 -7
0 16 8 32 16 32 1 0 1 -11 0 -25z m453 -21 c-6 -16 -13 -24 -16 -17 -5 13 16
58 23 50 3 -2 -1 -17 -7 -33z m-2581 -41 c-11 -32 -22 -60 -25 -63 -7 -7 8 51
23 88 22 54 24 36 2 -25z m-538 27 c-6 -11 -13 -20 -16 -20 -2 0 0 9 6 20 6
11 13 20 16 20 2 0 0 -9 -6 -20z m-1944 -17 c-10 -10 -19 5 -10 18 6 11 8 11
12 0 2 -7 1 -15 -2 -18z m3782 -24 c-3 -8 -7 -3 -11 10 -4 17 -3 21 5 13 5 -5
8 -16 6 -23z m-1788 -14 c14 -19 14 -19 -2 -6 -10 7 -18 18 -18 24 0 6 1 8 3
6 1 -2 9 -13 17 -24z m2628 -4 c-7 -12 -16 -21 -21 -21 -4 0 0 11 9 25 20 30
31 26 12 -4z m-1843 -1 c-3 -5 -18 -10 -33 -9 -24 0 -25 1 -7 9 28 12 47 12
40 0z m-888 -42 c-3 -8 -6 -5 -6 6 -1 11 2 17 5 13 3 -3 4 -12 1 -19z m3152
-18 c0 -10 -3 -8 -9 5 -12 27 -12 43 0 25 5 -8 9 -22 9 -30z m-459 26 c0 -2
-15 -6 -34 -8 -19 -2 -32 0 -30 4 5 8 64 12 64 4z m-2813 -38 c-3 -8 -6 -5 -6
6 -1 11 2 17 5 13 3 -3 4 -12 1 -19z m94 -11 c-10 -9 -11 -8 -5 6 3 10 9 15
12 12 3 -3 0 -11 -7 -18z m341 -35 c11 -15 11 -15 -3 -5 -10 8 -40 11 -84 9
-60 -4 -73 -8 -92 -31 -13 -14 -23 -22 -23 -16 0 15 41 51 57 51 8 0 12 3 10
8 -3 4 23 6 58 4 45 -3 68 -9 77 -20z m-332 9 c0 -6 -4 -13 -10 -16 -5 -3 -10
1 -10 9 0 9 5 16 10 16 6 0 10 -4 10 -9z m3241 -102 c-9 -22 -10 -22 -10 -3
-1 11 2 24 6 27 12 12 14 0 4 -24z m48 -28 c9 -6 10 -11 2 -15 -6 -4 -18 0
-27 8 -12 12 -12 16 -2 16 7 0 19 -4 27 -9z m-2749 -15 c-6 -8 -28 -20 -48
-27 -20 -6 -41 -15 -47 -19 -21 -15 -105 -38 -110 -30 -3 5 18 16 47 24 29 9
76 27 103 40 59 29 72 31 55 12z m2740 -156 c0 -5 -4 -10 -10 -10 -5 0 -10 5
-10 10 0 6 5 10 10 10 6 0 10 -4 10 -10z m-2730 -180 c0 -5 -5 -10 -11 -10 -5
0 -7 5 -4 10 3 6 8 10 11 10 2 0 4 -4 4 -10z m2250 -15 c0 -8 -4 -15 -10 -15
-5 0 -10 7 -10 15 0 8 5 15 10 15 6 0 10 -7 10 -15z m-137 -145 c-6 -23 -43
-28 -43 -6 0 12 12 20 42 25 3 0 4 -8 1 -19z m-1557 -151 c3 -5 -2 -9 -10 -9
-9 0 -16 -9 -16 -20 0 -11 -7 -20 -15 -20 -9 0 -12 6 -9 15 4 10 0 15 -15 15
-19 0 -27 10 -16 21 8 9 75 7 81 -2z m80 -27 c-4 -3 -14 2 -24 12 -16 18 -16
18 6 6 13 -6 21 -14 18 -18z m-16 -74 c0 -12 -6 -9 -26 13 -19 22 -19 22 4 8
12 -8 22 -17 22 -21z"/>
<path d="M4630 7355 c-11 -13 -8 -15 24 -13 38 3 46 12 20 22 -23 9 -30 8 -44
-9z"/>
<path d="M2693 6608 c-24 -17 -41 -33 -38 -36 5 -6 69 34 85 53 20 24 -2 16
-47 -17z"/>
<path d="M4670 6105 c-20 -24 -5 -28 21 -6 19 16 20 20 8 21 -9 0 -22 -7 -29
-15z"/>
<path d="M4715 6009 c-4 -6 -2 -15 5 -19 7 -4 9 -13 5 -20 -6 -9 -3 -9 14 0
12 6 21 19 19 28 -4 20 -33 28 -43 11z"/>
<path d="M4615 5948 c-16 -10 -56 -31 -87 -45 -51 -23 -74 -43 -50 -43 16 0
149 69 162 85 19 23 9 25 -25 3z"/>
<path d="M2810 6015 c-8 -9 -8 -15 -2 -15 12 0 26 19 19 26 -2 2 -10 -2 -17
-11z"/>
<path d="M2840 6001 c0 -6 4 -13 10 -16 6 -3 7 1 4 9 -7 18 -14 21 -14 7z"/>
<path d="M4969 5772 c-86 -91 -142 -162 -111 -140 20 14 74 74 160 180 41 50
16 30 -49 -40z"/>
<path d="M5008 5763 c-30 -32 -63 -71 -73 -88 -10 -16 -25 -36 -34 -42 -8 -7
-11 -16 -7 -20 5 -5 18 5 30 21 11 16 49 64 83 107 35 44 61 79 59 79 -1 0
-28 -26 -58 -57z"/>
<path d="M5042 5748 c-22 -29 -49 -62 -61 -72 -22 -20 -29 -66 -10 -66 6 0 8
8 4 19 -4 13 3 26 22 42 16 13 39 40 53 59 13 19 30 39 37 43 15 9 17 27 3 27
-5 0 -27 -24 -48 -52z"/>
<path d="M4845 5770 c-93 -83 -159 -150 -154 -154 3 -4 46 32 95 79 49 47 85
85 79 84 -5 0 -14 -4 -20 -9z"/>
<path d="M4835 5695 c-38 -36 -75 -63 -82 -60 -7 2 -10 -2 -6 -11 3 -7 7 -14
10 -14 8 0 111 94 133 123 12 15 20 27 18 27 -2 -1 -34 -30 -73 -65z"/>
<path d="M4606 5595 c-23 -17 -40 -20 -31 -5 15 24 -11 7 -43 -27 -84 -92 -80
-121 5 -43 32 29 72 61 88 72 17 10 23 18 15 18 -8 -1 -24 -7 -34 -15z"/>
<path d="M4687 5576 c-20 -18 -37 -39 -37 -46 0 -18 12 -9 54 38 46 50 35 56
-17 8z"/>
<path d="M4816 5570 c-3 -21 -9 -47 -12 -57 -4 -10 5 -1 20 19 30 43 31 45 12
63 -12 12 -15 8 -20 -25z"/>
<path d="M4981 5595 c0 -18 28 -61 29 -44 0 8 -7 24 -15 35 -8 10 -14 15 -14
9z"/>
<path d="M4338 5028 c5 -5 16 -8 23 -6 8 3 3 7 -10 11 -17 4 -21 3 -13 -5z"/>
<path d="M2620 5966 c0 -2 7 -9 15 -16 9 -7 15 -8 15 -2 0 5 -7 12 -15 16 -8
3 -15 4 -15 2z"/>
<path d="M5531 5773 c0 -25 1 -26 9 -8 12 27 12 35 0 35 -5 0 -10 -12 -9 -27z"/>
<path d="M4640 4678 c0 -14 23 -58 32 -58 4 0 8 3 8 8 -1 9 -39 59 -40 50z"/>
<path d="M5955 4329 c-4 -6 -5 -12 -2 -15 2 -3 7 2 10 11 7 17 1 20 -8 4z"/>
<path d="M3770 3738 c0 -8 14 -29 31 -46 31 -31 59 -42 59 -22 0 6 -5 10 -12
10 -6 0 -27 16 -45 36 -18 21 -33 30 -33 22z"/>
<path d="M4615 3730 c10 -11 20 -20 22 -20 2 0 -1 9 -7 20 -6 11 -16 20 -22
20 -6 0 -3 -9 7 -20z"/>
<path d="M4178 3723 c41 -51 102 -109 102 -97 0 11 -114 134 -125 134 -4 0 7
-17 23 -37z"/>
<path d="M6221 2690 c-45 -38 -81 -60 -96 -60 -14 0 -25 -5 -25 -11 0 -13 67
-3 90 14 50 36 123 117 107 117 -3 0 -37 -27 -76 -60z"/>
<path d="M3820 7410 c-19 -4 -56 -11 -82 -14 l-47 -7 11 -30 c8 -24 15 -29 34
-27 14 2 23 6 22 11 -4 11 50 37 78 37 12 0 26 5 29 10 3 6 16 10 27 10 26 0
21 6 -12 12 -14 3 -41 2 -60 -2z"/>
<path d="M3925 7410 c-3 -5 -1 -10 4 -10 6 0 11 5 11 10 0 6 -2 10 -4 10 -3 0
-8 -4 -11 -10z"/>
<path d="M3340 7359 c-36 -10 -49 -16 -29 -14 41 6 131 33 109 33 -8 0 -44 -8
-80 -19z"/>
<path d="M3488 7363 c7 -3 16 -2 19 1 4 3 -2 6 -13 5 -11 0 -14 -3 -6 -6z"/>
<path d="M3120 7222 c0 -17 4 -34 10 -37 6 -4 7 6 3 27 -8 44 -13 48 -13 10z"/>
<path d="M176 6301 c-4 -6 -16 -11 -27 -11 -11 0 -22 -6 -25 -14 -3 -8 -19
-17 -35 -20 -16 -3 -42 -9 -59 -12 l-30 -6 0 -159 c0 -87 3 -159 6 -159 17 0
63 43 66 62 4 28 54 44 66 21 10 -17 78 -34 108 -27 12 3 26 -1 33 -10 18 -22
101 -22 101 -1 0 26 44 62 86 69 50 9 94 26 94 37 0 5 -4 9 -9 9 -4 0 -16 21
-26 48 -22 60 -38 72 -97 72 -26 0 -48 4 -48 9 0 5 -15 15 -32 22 -18 7 -51
26 -73 40 -48 33 -90 45 -99 30z"/>
<path d="M2360 6110 c-9 -6 -10 -10 -3 -10 6 0 15 5 18 10 8 12 4 12 -15 0z"/>
<path d="M291 5903 c1 -22 2 -23 6 -8 3 11 10 23 17 27 7 5 5 8 -6 8 -13 0
-18 -7 -17 -27z"/>
<path d="M138 5603 c7 -3 16 -2 19 1 4 3 -2 6 -13 5 -11 0 -14 -3 -6 -6z"/>
<path d="M140 5540 c0 -11 5 -20 10 -20 6 0 10 9 10 20 0 11 -4 20 -10 20 -5
0 -10 -9 -10 -20z"/>
<path d="M180 5552 c0 -6 6 -17 13 -24 6 -7 18 -25 26 -40 8 -16 18 -28 23
-28 5 0 0 17 -11 38 -20 40 -51 72 -51 54z"/>
<path d="M1056 5338 c-3 -57 -12 -124 -18 -150 -14 -57 -6 -69 26 -39 21 20
34 22 164 24 97 1 145 6 154 15 6 6 22 12 34 12 12 0 25 7 28 16 8 22 8 24 -9
24 -8 0 -19 9 -25 20 -6 11 -16 20 -23 20 -6 0 -21 12 -33 26 -12 14 -32 26
-43 27 -12 1 -21 4 -21 8 0 3 -11 4 -25 1 -15 -2 -25 0 -25 7 0 6 10 11 23 11
22 1 22 1 -3 15 -33 19 -60 19 -60 0 0 -8 -4 -15 -10 -15 -5 0 -10 5 -10 10 0
6 -17 10 -37 10 -21 0 -45 5 -53 10 -12 8 -11 10 8 10 43 0 16 39 -29 40 -3 0
-9 -46 -13 -102z"/>
<path d="M361 5401 c-16 -10 -4 -81 14 -81 8 0 11 8 8 20 -3 11 0 20 6 20 16
0 14 37 -2 43 -8 3 -19 2 -26 -2z"/>
<path d="M310 5291 c-52 -29 -145 -40 -152 -19 -12 35 -58 -51 -58 -108 0 -26
12 -70 26 -92 1 -2 10 1 21 7 10 5 38 13 63 16 50 7 71 19 89 52 6 13 25 30
41 38 24 13 30 22 30 49 0 62 -19 79 -60 57z"/>
<path d="M29 5084 c-16 -20 -5 -28 25 -18 25 9 25 10 7 21 -16 10 -22 9 -32
-3z"/>
<path d="M138 4680 c-7 -11 -20 -20 -30 -20 -9 0 -24 -17 -35 -40 -10 -22 -23
-38 -30 -35 -30 10 -36 -26 -41 -263 l-4 -237 103 -53 c57 -29 109 -52 116
-52 13 0 164 -76 172 -88 12 -15 35 -6 67 26 17 17 41 32 52 32 11 0 25 7 33
16 23 29 70 46 104 40 l34 -7 -2 63 c-2 55 0 63 18 66 11 2 39 25 62 51 37 40
42 43 43 24 0 -16 6 -23 21 -23 19 0 20 5 18 98 l-3 97 -35 34 c-20 19 -56 43
-81 54 -24 11 -50 26 -58 33 -18 18 -70 18 -106 -1 -15 -8 -34 -15 -41 -15 -7
0 -15 -7 -18 -14 -8 -21 -112 -66 -152 -66 -45 0 -77 39 -74 91 2 20 -2 43 -7
51 -6 7 -16 31 -22 53 -11 38 -64 105 -83 105 -5 0 -14 -9 -21 -20z"/>
<path d="M903 4273 c-28 -5 -31 -33 -4 -33 11 0 22 -6 24 -12 4 -10 6 -10 6 0
1 6 7 12 14 12 6 0 19 5 27 10 13 9 13 11 0 20 -15 10 -28 11 -67 3z"/>
<path d="M727 3974 c-9 -10 2 -24 19 -24 8 0 14 7 14 15 0 15 -21 21 -33 9z"/>
<path d="M7563 3230 c-13 -15 -23 -37 -23 -48 0 -11 -7 -25 -16 -33 -8 -7 -22
-25 -29 -40 -16 -30 -68 -44 -97 -26 -12 8 -24 8 -41 0 -13 -6 -43 -10 -65 -7
-28 2 -46 -1 -57 -12 -8 -8 -15 -12 -15 -7 0 13 -47 -61 -64 -101 -13 -30 -13
-46 -4 -86 11 -47 13 -49 62 -66 42 -14 81 -17 224 -15 121 2 177 -1 187 -9 8
-6 24 -9 35 -5 22 7 22 9 18 223 -4 243 -8 262 -61 261 -23 0 -38 -8 -54 -29z"/>
<path d="M5464 1809 c3 -17 6 -44 6 -60 0 -28 2 -29 45 -29 29 0 45 4 45 13 0
14 -81 107 -94 107 -5 0 -6 -14 -2 -31z"/>
<path d="M5510 1335 c0 -8 53 -54 63 -55 5 0 6 4 2 10 -8 13 -65 53 -65 45z"/>
<path d="M714 1155 c0 -37 4 -55 12 -55 7 0 19 -3 27 -6 10 -3 18 5 25 25 6
17 16 31 21 31 34 0 -15 44 -60 55 -23 6 -24 4 -25 -50z"/>
<path d="M7561 1082 c-1 -29 -5 -60 -11 -70 -11 -20 -30 -165 -22 -172 2 -3 7
1 9 8 3 6 13 12 23 12 15 0 18 13 24 88 4 62 2 101 -8 137 l-14 50 -1 -53z"/>
<path d="M5520 1071 c-14 -3 -39 -15 -57 -25 -27 -16 -30 -22 -20 -35 9 -11 9
-15 0 -18 -18 -6 -16 -20 3 -27 28 -11 62 5 74 35 7 15 21 31 31 34 21 7 26
31 7 37 -7 2 -24 2 -38 -1z"/>
<path d="M45 863 c-15 -15 -15 -17 -1 -25 9 -5 25 -7 35 -3 11 3 22 1 26 -4 3
-7 0 -8 -9 -5 -23 9 -20 1 15 -37 22 -25 27 -28 19 -11 -14 28 -8 39 10 17 7
-8 18 -15 25 -15 7 0 16 -12 19 -26 4 -15 9 -24 12 -22 18 18 -48 108 -98 134
-34 17 -33 17 -53 -3z m25 -7 c0 -3 -4 -8 -10 -11 -5 -3 -10 -1 -10 4 0 6 5
11 10 11 6 0 10 -2 10 -4z"/>
<path d="M5265 843 c-12 -56 -12 -60 -1 -60 6 0 17 -2 24 -4 25 -7 37 25 22
60 -15 38 -38 40 -45 4z"/>
<path d="M1167 833 c-10 -9 -8 -56 3 -73 7 -12 12 -12 29 4 12 11 21 27 21 36
0 29 -35 51 -53 33z"/>
<path d="M897 768 c-5 -51 1 -77 10 -50 3 6 11 12 19 12 8 0 14 4 14 10 0 5
-8 6 -17 3 -13 -5 -15 -2 -10 11 4 10 7 24 7 32 0 10 5 12 13 8 8 -5 8 -2 -2
9 -22 27 -28 20 -34 -35z"/>
<path d="M3811 804 c0 -11 3 -14 6 -6 3 7 2 16 -1 19 -3 4 -6 -2 -5 -13z"/>
<path d="M6051 784 c0 -11 3 -14 6 -6 3 7 2 16 -1 19 -3 4 -6 -2 -5 -13z"/>
<path d="M951 774 c0 -11 3 -14 6 -6 3 7 2 16 -1 19 -3 4 -6 -2 -5 -13z"/>
<path d="M1390 772 c0 -12 9 -40 20 -62 11 -22 20 -53 20 -70 0 -35 12 -38 41
-9 15 15 19 28 14 47 -6 31 -46 82 -63 82 -6 0 -16 8 -21 18 -9 15 -10 14 -11
-6z"/>
<path d="M3565 770 c-28 -7 -28 -8 -5 -9 14 0 32 4 40 9 17 11 8 11 -35 0z"/>
<path d="M160 716 c0 -14 -4 -28 -10 -31 -20 -12 -10 -26 10 -15 11 6 25 8 30
5 14 -9 12 -59 -2 -73 -18 -18 -6 -23 22 -9 14 7 27 23 28 36 3 17 0 21 -9 15
-9 -5 -11 -2 -6 9 3 10 3 17 -2 17 -4 0 -16 16 -27 35 -22 41 -34 45 -34 11z"/>
<path d="M2147 734 c-3 -6 -2 -16 4 -24 14 -24 10 -67 -11 -107 -11 -21 -21
-49 -23 -63 -3 -18 -10 -24 -25 -23 -15 2 -19 -2 -15 -17 3 -11 0 -20 -6 -20
-6 0 -11 -8 -11 -19 0 -10 -7 -24 -15 -31 -21 -18 -2 -47 30 -47 29 0 80 -51
91 -91 3 -12 10 -22 15 -22 16 0 10 15 -23 54 -30 37 -31 40 -20 85 7 25 13
79 14 119 1 51 6 72 15 72 7 0 13 5 13 10 0 21 15 9 16 -12 1 -13 4 -47 7 -76
2 -30 -1 -72 -8 -97 -13 -41 -13 -44 15 -70 l28 -26 7 68 c3 37 9 79 12 93 4
21 3 22 -7 10 -10 -13 -11 -12 -6 3 3 10 6 23 6 29 0 6 7 8 14 5 10 -4 13 -1
10 7 -3 8 5 21 18 30 31 22 45 20 23 -4 -10 -11 -15 -20 -10 -20 9 0 34 31 35
42 0 4 -10 16 -22 28 -15 14 -35 20 -68 20 -43 0 -47 2 -58 33 -15 43 -37 73
-45 61z"/>
<path d="M5120 700 c-14 -10 -23 -21 -20 -23 3 -3 19 6 35 19 35 28 22 32 -15
4z"/>
<path d="M346 692 c-10 -29 1 -94 17 -104 7 -4 19 -8 27 -8 11 1 10 5 -5 16
-19 15 -19 15 8 9 17 -5 27 -3 27 4 0 6 -3 11 -7 11 -20 1 -46 32 -52 62 -7
31 -8 32 -15 10z"/>
<path d="M2920 675 c0 -14 5 -25 10 -25 6 0 10 11 10 25 0 14 -4 25 -10 25 -5
0 -10 -11 -10 -25z"/>
<path d="M3134 686 c-4 -10 -2 -22 4 -28 8 -8 13 -7 18 6 4 10 2 22 -4 28 -8
8 -13 7 -18 -6z"/>
<path d="M6741 656 c-15 -35 -19 -59 -15 -83 12 -65 46 -28 39 43 -3 38 -2 42
4 19 l9 -30 0 30 c0 17 -3 39 -7 50 -7 17 -11 13 -30 -29z"/>
<path d="M7018 656 c-4 -33 15 -76 28 -63 8 8 -5 85 -16 92 -4 3 -10 -11 -12
-29z"/>
<path d="M1285 649 c9 -17 19 -28 22 -25 8 8 -17 56 -29 56 -5 0 -1 -14 7 -31z"/>
<path d="M5136 668 c-5 -10 -14 -18 -22 -18 -17 0 -17 -10 1 -33 13 -18 14
-18 25 3 6 11 10 31 7 43 -3 19 -4 20 -11 5z"/>
<path d="M1742 628 c-2 -33 -5 -38 -27 -38 -21 0 -25 5 -25 28 -1 23 -2 24
-11 10 -12 -21 -55 -24 -62 -5 -4 7 -19 -3 -42 -28 -20 -22 -43 -48 -52 -57
-8 -9 -29 -18 -47 -20 -23 -2 -32 -8 -34 -25 -2 -15 -10 -23 -23 -23 -10 0
-19 4 -19 9 0 5 -7 17 -16 26 -25 25 -34 3 -34 -82 0 -71 -1 -73 -25 -73 -14
0 -25 -4 -25 -10 0 -16 42 -12 61 6 10 9 23 13 28 9 16 -9 13 -35 -3 -35 -20
0 -28 -28 -15 -51 8 -16 17 -19 42 -14 l32 7 -26 -25 c-38 -37 -69 -44 -76
-18 -13 49 -43 5 -74 -109 -7 -25 -18 -52 -24 -60 -7 -8 -15 -23 -18 -32 -5
-15 0 -18 28 -18 39 0 55 18 32 35 -23 17 -21 28 3 20 21 -7 70 17 70 35 0 4
-8 17 -17 26 -17 17 -17 18 0 11 19 -7 68 8 66 20 -1 5 8 31 21 58 19 40 24
67 24 137 0 48 4 82 8 75 4 -7 8 -22 8 -34 0 -13 5 -22 11 -20 6 1 16 -11 22
-28 11 -33 36 -67 46 -61 3 2 7 -12 9 -32 3 -46 29 -87 45 -74 11 9 18 12 31
12 2 0 -2 25 -8 55 -8 33 -9 53 -3 52 5 -1 13 10 17 24 9 31 40 69 56 69 15 0
31 20 36 45 2 12 -2 19 -9 18 -18 -4 -16 6 7 50 17 31 20 53 17 105 -2 37 -4
50 -5 30z m-160 -255 c-3 -12 -10 -27 -17 -33 -20 -16 -38 24 -31 65 l7 34 22
-22 c14 -14 21 -31 19 -44z m118 27 c0 -5 -4 -10 -9 -10 -5 0 -18 -3 -28 -6
-16 -5 -16 -4 1 10 23 18 36 20 36 6z m-60 -27 c0 -5 -7 -17 -15 -27 -15 -20
-15 -20 -15 0 0 12 3 24 7 27 9 9 23 9 23 0z"/>
<path d="M1001 632 c-5 -10 -24 -54 -41 -97 -17 -44 -35 -84 -38 -90 -4 -5 -7
-17 -8 -25 -1 -27 -28 -80 -40 -80 -7 0 0 -23 17 -56 16 -30 29 -62 29 -70 0
-9 5 -12 11 -8 9 5 10 -1 5 -20 -9 -38 13 -145 36 -168 25 -25 31 -23 14 5
-17 28 -30 90 -16 82 6 -3 10 -13 10 -21 0 -8 6 -14 14 -14 25 0 81 23 93 39
11 14 12 14 13 0 0 -8 -6 -21 -12 -27 -20 -20 8 -31 46 -18 34 12 122 97 132
129 9 29 -5 104 -25 128 l-17 22 -35 -37 c-25 -26 -46 -38 -81 -45 -55 -10
-59 -7 -79 62 -13 44 -29 63 -29 33 0 -9 -8 -12 -25 -8 -14 2 -25 8 -25 13 0
5 11 32 25 61 14 28 25 59 25 68 0 34 22 81 36 76 7 -3 16 0 20 6 4 7 9 6 15
-3 6 -10 9 -6 9 14 0 29 -31 67 -55 67 -8 0 -19 -8 -24 -18z m-26 -434 c4 -20
2 -45 -4 -55 -8 -15 -10 -9 -11 27 0 25 -3 56 -6 70 -4 19 -3 22 5 10 5 -8 13
-31 16 -52z"/>
<path d="M4689 619 c-7 -14 -9 -58 -6 -125 4 -92 8 -108 33 -148 28 -45 55
-65 34 -26 -6 10 -9 23 -8 27 1 4 -4 19 -11 31 -17 32 -24 72 -11 72 5 0 10
-11 10 -24 0 -15 11 -31 34 -47 38 -25 63 -88 43 -108 -7 -7 -3 -8 12 -4 19 5
21 12 21 82 0 47 -5 82 -12 89 -7 7 -8 12 -2 12 6 0 16 -6 22 -12 10 -10 15
-10 22 2 5 8 10 18 10 23 0 11 -33 39 -79 67 -27 16 -40 29 -36 39 3 7 -4 20
-15 28 -11 8 -20 21 -20 29 0 21 -28 17 -41 -7z m31 -139 c0 -5 -2 -10 -4 -10
-3 0 -8 5 -11 10 -3 6 -1 10 4 10 6 0 11 -4 11 -10z"/>
<path d="M650 588 c0 -15 -37 -28 -84 -28 -23 -1 -63 -27 -54 -36 4 -3 15 -1
26 5 17 9 19 6 20 -26 1 -20 9 -47 18 -61 l17 -25 14 26 c20 38 28 33 30 -18
3 -88 34 -80 54 13 9 37 14 49 17 35 4 -27 6 -28 31 -6 20 16 20 17 0 55 -11
21 -24 36 -29 33 -6 -3 -7 1 -4 9 4 11 0 16 -13 16 -10 0 -24 5 -31 12 -9 9
-12 9 -12 -4z"/>
<path d="M415 581 c-3 -5 -1 -12 5 -16 5 -3 10 1 10 9 0 18 -6 21 -15 7z"/>
<path d="M3054 582 c-6 -4 -13 -15 -17 -24 -3 -10 -12 -18 -18 -18 -8 0 -8 4
1 15 7 9 8 15 2 15 -14 0 -22 -24 -15 -49 3 -14 13 -21 29 -21 13 0 40 -11 60
-25 20 -14 44 -25 53 -25 9 1 -1 10 -22 21 -21 11 -35 24 -32 29 3 5 1 11 -5
15 -5 3 -10 19 -10 35 0 31 -10 43 -26 32z"/>
<path d="M4816 581 c-4 -5 3 -7 13 -4 11 3 35 -3 54 -12 19 -9 40 -15 48 -13
8 2 14 -5 14 -14 0 -16 31 -47 46 -48 4 0 9 8 13 18 3 9 9 23 12 30 3 7 -1 12
-11 12 -9 0 -35 9 -57 20 -43 21 -122 27 -132 11z"/>
<path d="M5115 580 c-4 -7 -16 -10 -26 -7 -11 3 -17 2 -15 -2 2 -3 -16 -27
-40 -51 -41 -41 -43 -45 -24 -48 12 -2 30 4 39 12 10 9 24 16 32 16 15 0 56
77 46 86 -3 3 -8 0 -12 -6z"/>
<path d="M3110 559 c0 -5 5 -7 10 -4 6 3 10 8 10 11 0 2 -4 4 -10 4 -5 0 -10
-5 -10 -11z"/>
<path d="M3458 558 c-26 -9 -28 -14 -28 -64 0 -46 3 -54 19 -54 20 0 35 47 25
74 -3 8 -1 24 6 35 6 12 9 21 8 20 -2 0 -15 -5 -30 -11z"/>
<path d="M4784 555 c22 -17 40 -20 32 -6 -3 5 -16 11 -28 14 -22 6 -22 5 -4
-8z"/>
<path d="M1190 540 c0 -5 5 -10 10 -10 6 0 10 5 10 10 0 6 -4 10 -10 10 -5 0
-10 -4 -10 -10z"/>
<path d="M1211 508 c0 -9 -4 -25 -7 -35 -5 -14 -4 -15 5 -7 7 7 11 22 8 35 -2
13 -5 16 -6 7z"/>
<path d="M3381 503 c1 -10 5 -31 9 -48 7 -28 8 -28 9 12 0 23 -3 45 -9 48 -5
3 -9 -2 -9 -12z"/>
<path d="M2593 491 c-13 -20 -8 -31 14 -31 7 0 13 11 13 25 0 30 -11 32 -27 6z"/>
<path d="M3205 490 c-3 -5 1 -10 9 -10 9 0 16 5 16 10 0 6 -4 10 -9 10 -6 0
-13 -4 -16 -10z"/>
<path d="M6530 474 c0 -8 5 -12 10 -9 6 4 8 11 5 16 -9 14 -15 11 -15 -7z"/>
<path d="M7540 464 c-14 -36 -13 -49 8 -74 27 -33 44 -7 36 54 -8 52 -28 62
-44 20z"/>
<path d="M5481 454 c0 -11 3 -14 6 -6 3 7 2 16 -1 19 -3 4 -6 -2 -5 -13z"/>
<path d="M5901 454 c0 -11 3 -14 6 -6 3 7 2 16 -1 19 -3 4 -6 -2 -5 -13z"/>
<path d="M471 445 c0 -13 28 -50 33 -44 3 2 -4 15 -14 29 -11 14 -20 21 -19
15z"/>
<path d="M1200 426 c0 -8 5 -18 10 -21 6 -3 10 3 10 14 0 12 -4 21 -10 21 -5
0 -10 -6 -10 -14z"/>
<path d="M2914 424 c3 -9 6 -29 6 -45 0 -19 4 -28 11 -23 6 3 8 17 4 33 -4 14
-8 32 -8 39 0 6 -5 12 -10 12 -5 0 -6 -7 -3 -16z"/>
<path d="M5086 432 c-4 -7 -5 -16 -1 -21 3 -6 -10 -13 -29 -17 -20 -3 -41 -13
-47 -20 -12 -15 -10 -21 21 -84 11 -22 60 -48 100 -52 35 -3 35 -3 38 40 2 32
-3 54 -22 85 -39 67 -52 81 -60 69z"/>
<path d="M5886 405 c-9 -14 -13 -25 -8 -25 5 0 14 11 20 25 6 14 10 25 8 25
-2 0 -11 -11 -20 -25z"/>
<path d="M890 409 c0 -5 5 -7 10 -4 6 3 10 8 10 11 0 2 -4 4 -10 4 -5 0 -10
-5 -10 -11z"/>
<path d="M3335 400 c0 -9 8 -27 18 -40 l16 -23 11 27 c16 43 12 53 -18 53 -20
0 -28 -5 -27 -17z"/>
<path d="M7103 397 c-18 -12 -32 -27 -33 -33 0 -7 -7 -15 -16 -18 -9 -4 -14
-9 -10 -13 3 -3 15 2 26 12 31 28 35 11 5 -21 -18 -19 -22 -30 -14 -33 7 -2
21 8 31 23 11 14 28 26 38 26 54 0 65 -32 25 -75 -18 -21 -23 -34 -18 -56 4
-22 -4 -43 -42 -99 -45 -69 -46 -73 -29 -91 9 -10 24 -19 33 -19 13 0 15 9 12
51 -3 46 0 54 28 81 17 17 31 26 31 22 0 -5 8 7 18 26 l17 35 5 -80 c3 -55 11
-89 24 -108 10 -15 21 -25 24 -22 3 3 -3 14 -13 25 -37 41 -30 124 23 268 2 6
-3 12 -12 12 -12 0 -16 11 -16 49 0 46 -1 49 -31 55 -49 9 -71 6 -106 -17z
m77 3 c0 -5 -3 -9 -7 -9 -25 4 -43 -3 -43 -16 0 -8 -4 -15 -10 -15 -19 0 -10
27 13 38 28 14 47 15 47 2z m40 -59 c0 -10 -7 -21 -15 -25 -11 -4 -15 1 -15
19 0 16 6 25 15 25 8 0 15 -9 15 -19z"/>
<path d="M2710 401 c0 -5 7 -14 15 -21 12 -10 19 -10 28 -1 9 9 9 14 -3 21
-19 12 -40 13 -40 1z"/>
<path d="M3400 358 c-14 -28 -26 -54 -28 -58 -1 -4 4 -7 13 -7 8 0 15 6 15 14
0 7 10 13 21 13 16 0 20 5 16 20 -3 10 -2 18 2 17 8 -3 11 7 11 33 0 36 -25
21 -50 -32z"/>
<path d="M3465 399 c-4 -6 -5 -12 -2 -15 2 -3 7 2 10 11 7 17 1 20 -8 4z"/>
<path d="M6557 403 c-4 -3 -7 -11 -7 -17 0 -6 5 -5 12 2 6 6 9 14 7 17 -3 3
-9 2 -12 -2z"/>
<path d="M522 370 c7 -10 14 -18 15 -16 6 6 -9 36 -18 36 -5 0 -4 -9 3 -20z"/>
<path d="M850 375 c-19 -22 -8 -25 13 -3 9 10 13 18 8 18 -5 0 -14 -7 -21 -15z"/>
<path d="M1171 374 c-7 -8 -11 -17 -9 -20 3 -2 13 5 23 16 10 11 14 20 9 20
-5 -1 -15 -8 -23 -16z"/>
<path d="M2677 376 c-9 -7 -17 -18 -17 -24 0 -12 -24 -22 -52 -22 -20 0 -20
-1 -5 -18 21 -23 22 -52 2 -52 -14 0 -14 -4 1 -32 22 -42 71 -85 111 -99 35
-11 38 -16 24 -38 -19 -29 -151 67 -151 110 0 10 -5 21 -11 25 -6 3 -9 14 -6
24 3 13 -4 22 -24 31 -17 6 -32 9 -36 5 -3 -3 -1 -6 5 -6 20 0 13 -24 -18 -57
-20 -22 -42 -35 -70 -39 -22 -4 -40 -10 -40 -15 0 -18 -50 -8 -78 16 -17 14
-35 25 -40 25 -6 0 -20 12 -31 27 -33 40 -36 20 -6 -32 18 -31 32 -44 42 -41
19 8 63 -3 63 -16 0 -13 -39 -53 -53 -54 -27 -2 -67 -28 -67 -45 0 -9 -3 -24
-6 -33 -5 -14 9 -16 114 -16 112 0 121 1 127 20 4 11 11 17 17 14 7 -4 6 -9
-2 -14 -17 -10 24 -20 87 -20 46 0 51 2 46 20 -3 11 -9 20 -13 20 -4 0 -7 6
-7 13 2 21 -23 97 -33 97 -15 0 -34 70 -21 83 7 7 12 5 16 -9 15 -48 44 -89
62 -86 14 2 15 1 4 -6 -17 -12 -7 -74 14 -92 8 -7 15 -19 15 -26 0 -11 17 -14
70 -14 68 0 69 1 61 23 -4 12 -7 40 -7 62 1 30 6 41 19 43 15 3 17 -1 11 -22
-4 -18 -2 -26 7 -26 10 0 14 16 14 60 1 66 3 70 37 74 13 1 30 6 38 11 13 8
13 6 2 -8 -8 -9 -11 -25 -7 -35 3 -12 -1 -26 -10 -35 -13 -14 -13 -17 0 -31
17 -16 20 -36 6 -36 -6 0 -13 5 -17 12 -12 18 -23 -24 -12 -44 9 -18 33 -24
41 -10 2 4 3 2 1 -4 -4 -20 19 -34 59 -34 38 0 39 1 32 28 -10 38 -10 41 13
94 14 31 32 52 52 63 44 23 46 14 8 -23 -66 -62 -73 -81 -51 -127 16 -33 20
-35 63 -35 46 0 47 1 44 28 l-4 27 12 -27 c12 -27 14 -28 93 -28 l81 0 22 44
c12 24 22 57 22 73 0 30 33 83 51 83 6 0 1 -12 -10 -26 -24 -31 -27 -66 -7
-83 10 -8 12 -21 6 -46 -4 -19 -5 -37 -1 -39 3 -1 33 -3 66 -4 33 0 52 2 42 5
-15 4 -18 12 -14 41 7 51 12 70 20 78 13 13 7 33 -14 53 -18 17 -21 27 -15 61
4 26 2 40 -5 40 -7 0 -8 12 -5 33 5 25 4 27 -3 11 -5 -12 -14 -25 -20 -29 -6
-3 -11 -15 -11 -27 0 -11 -8 -22 -19 -25 -12 -3 -17 -11 -14 -19 3 -8 -1 -14
-10 -14 -9 0 -31 -8 -49 -19 -35 -20 -134 -35 -142 -22 -3 4 13 13 34 20 43
13 54 31 19 31 -11 0 -27 6 -35 14 -16 17 -19 30 -4 21 17 -11 11 7 -7 21 -31
23 -58 16 -100 -28 -108 -114 -149 -138 -147 -89 0 16 -4 21 -15 18 -14 -3
-15 5 -12 52 1 31 8 59 14 62 5 4 7 15 3 24 -5 14 -13 16 -38 11 -31 -6 -124
19 -178 49 -20 11 -28 11 -43 1z m138 -115 c3 -5 1 -12 -5 -16 -5 -3 -10 1
-10 9 0 18 6 21 15 7z m-540 -71 c3 -5 1 -10 -4 -10 -6 0 -11 5 -11 10 0 6 2
10 4 10 3 0 8 -4 11 -10z m1152 -94 c-16 -15 -28 -20 -30 -13 -5 16 36 55 47
45 6 -4 -2 -18 -17 -32z m-1041 -1 c3 -17 1 -24 -6 -20 -6 4 -18 1 -27 -7 -9
-7 -15 -8 -12 -3 36 74 37 74 45 30z m578 -1 c8 -20 8 -24 -1 -24 -17 0 -35
19 -29 29 10 16 23 14 30 -5z m506 -4 c0 -5 -2 -10 -4 -10 -3 0 -8 5 -11 10
-3 6 -1 10 4 10 6 0 11 -4 11 -10z m-50 -70 c0 -5 -4 -10 -10 -10 -5 0 -10 5
-10 10 0 6 5 10 10 10 6 0 10 -4 10 -10z"/>
<path d="M145 360 c-3 -5 -1 -10 4 -10 6 0 11 5 11 10 0 6 -2 10 -4 10 -3 0
-8 -4 -11 -10z"/>
<path d="M5505 360 c3 -5 8 -10 11 -10 2 0 4 5 4 10 0 6 -5 10 -11 10 -5 0 -7
-4 -4 -10z"/>
<path d="M711 343 c-1 -12 -5 -25 -11 -28 -21 -13 -9 -90 25 -160 18 -38 34
-62 34 -53 2 28 50 19 66 -12 8 -15 21 -32 29 -39 9 -8 16 -23 16 -34 0 -16 3
-18 12 -9 9 9 4 23 -22 59 -44 63 -71 93 -84 93 -21 1 -57 39 -66 69 -5 17 -4
47 1 72 5 23 8 47 5 53 -2 6 -5 1 -5 -11z"/>
<path d="M6587 339 c4 -13 8 -18 11 -10 2 7 -1 18 -6 23 -8 8 -9 4 -5 -13z"/>
<path d="M7657 336 c-22 -32 -19 -40 6 -21 10 7 17 21 15 31 -2 15 -6 13 -21
-10z"/>
<path d="M1075 340 c-4 -6 7 -10 25 -10 18 0 29 4 25 10 -3 6 -15 10 -25 10
-10 0 -22 -4 -25 -10z"/>
<path d="M6436 343 c-3 -3 -6 -14 -6 -24 0 -9 -11 -24 -25 -33 -14 -9 -25 -22
-25 -28 0 -6 3 -8 7 -5 11 12 33 -14 33 -39 0 -12 5 -26 10 -29 15 -9 12 -52
-6 -87 -12 -24 -13 -32 -3 -38 6 -5 9 -15 6 -23 -8 -21 12 -37 49 -37 30 0 32
2 36 41 4 41 1 49 -40 122 -12 21 -22 45 -21 55 0 10 6 5 14 -14 8 -17 21 -34
29 -37 12 -5 13 1 9 31 -18 116 -18 117 -41 115 -23 -3 -31 12 -10 19 8 3 9 6
1 11 -5 4 -13 4 -17 0z m15 -96 c-13 -13 -15 11 -4 40 7 16 8 15 11 -6 2 -13
-1 -28 -7 -34z m32 -148 c10 -18 15 -34 13 -36 -10 -10 -51 33 -48 50 5 25 15
21 35 -14z"/>
<path d="M156 325 c4 -8 8 -15 10 -15 2 0 4 7 4 15 0 8 -4 15 -10 15 -5 0 -7
-7 -4 -15z"/>
<path d="M1480 330 c0 -5 5 -10 11 -10 5 0 7 5 4 10 -3 6 -8 10 -11 10 -2 0
-4 -4 -4 -10z"/>
<path d="M4934 332 c-15 -10 -34 -69 -34 -104 0 -19 10 -38 27 -54 24 -22 28
-23 42 -9 19 19 21 137 2 143 -6 2 -11 10 -11 18 0 15 -9 18 -26 6z"/>
<path d="M7020 321 c0 -6 4 -13 10 -16 6 -3 7 1 4 9 -7 18 -14 21 -14 7z"/>
<path d="M4781 304 c0 -11 3 -14 6 -6 3 7 2 16 -1 19 -3 4 -6 -2 -5 -13z"/>
<path d="M156 241 c-6 -49 -4 -67 6 -78 12 -12 14 -4 11 49 -6 95 -8 99 -17
29z"/>
<path d="M1280 276 c0 -9 5 -16 10 -16 6 0 10 4 10 9 0 6 -4 13 -10 16 -5 3
-10 -1 -10 -9z"/>
<path d="M3575 280 c3 -5 8 -10 11 -10 2 0 4 5 4 10 0 6 -5 10 -11 10 -5 0 -7
-4 -4 -10z"/>
<path d="M4761 287 c-1 -4 6 -21 14 -38 9 -16 13 -34 10 -39 -3 -6 -1 -10 4
-10 6 0 11 11 11 25 0 14 -4 25 -8 25 -5 0 -14 10 -20 23 -6 12 -11 18 -11 14z"/>
<path d="M569 248 c-2 -41 -2 -38 6 -69 5 -21 2 -27 -20 -37 -34 -16 -31 -18
-56 33 -25 51 -39 57 -39 19 0 -18 -6 -28 -20 -31 -19 -5 -20 -7 -5 -24 21
-23 16 -50 -12 -65 l-23 -11 25 -21 c14 -12 32 -22 41 -22 8 0 12 -4 9 -10 -4
-6 35 -10 109 -10 127 0 141 8 86 48 -16 12 -41 41 -54 65 -23 38 -24 47 -14
74 9 24 9 37 -1 62 -17 40 -31 40 -32 -1z m-21 -186 c4 -24 -7 -29 -26 -10
-18 18 -15 40 6 36 9 -2 18 -13 20 -26z"/>
<path d="M3298 263 c7 -3 16 -2 19 1 4 3 -2 6 -13 5 -11 0 -14 -3 -6 -6z"/>
<path d="M2181 244 c0 -11 3 -14 6 -6 3 7 2 16 -1 19 -3 4 -6 -2 -5 -13z"/>
<path d="M3233 249 c11 -7 23 -7 35 0 14 9 11 10 -18 10 -29 0 -32 -1 -17 -10z"/>
<path d="M6700 240 c-8 -5 -25 -10 -37 -10 -13 0 -23 -4 -23 -10 0 -5 7 -10
15 -10 20 0 65 22 65 32 0 10 -1 10 -20 -2z"/>
<path d="M2171 213 c0 -6 -4 -20 -7 -30 -5 -14 -4 -15 5 -7 7 7 11 20 8 30 -3
11 -5 14 -6 7z"/>
<path d="M5052 203 c2 -12 15 -18 41 -20 45 -4 49 11 6 26 -43 15 -51 14 -47
-6z"/>
<path d="M6387 187 c-5 -34 6 -57 18 -36 5 8 4 10 -3 5 -7 -4 -12 -2 -12 3 0
6 5 11 10 11 12 0 13 37 1 44 -5 3 -11 -9 -14 -27z"/>
<path d="M2836 182 c-4 -13 -5 -26 -2 -29 10 -11 18 4 14 29 l-4 23 -8 -23z"/>
<path d="M640 174 c0 -17 18 -36 30 -32 7 2 4 10 -9 22 -12 11 -21 15 -21 10z"/>
<path d="M4772 167 c-6 -7 -9 -23 -5 -35 4 -18 10 -21 27 -16 11 4 22 7 23 8
1 0 -1 13 -4 29 -6 29 -24 35 -41 14z"/>
<path d="M127 157 c-6 -15 0 -97 7 -105 3 -3 6 2 6 12 0 9 4 15 9 11 5 -3 7
-21 4 -40 l-6 -35 108 0 108 0 -29 25 -29 25 25 0 c14 0 33 7 43 14 15 12 14
14 -20 20 -21 3 -48 6 -61 6 -13 0 -38 11 -56 25 -52 40 -50 29 6 -25 28 -27
47 -50 43 -50 -5 0 -35 17 -67 37 -41 27 -60 46 -64 66 -7 29 -19 35 -27 14z"/>
<path d="M7657 110 c-19 -68 -21 -81 -7 -60 6 10 10 11 10 3 0 -7 4 -13 8 -13
5 0 10 29 11 65 1 36 0 65 -2 65 -2 0 -11 -27 -20 -60z"/>
<path d="M6012 143 c-13 -23 -6 -35 31 -51 27 -11 27 -11 15 9 -7 12 -18 30
-25 41 -11 20 -11 20 -21 1z"/>
<path d="M1 73 c-1 -48 2 -63 13 -63 8 0 20 -2 28 -5 10 -4 13 8 13 50 0 50
-2 55 -22 55 -12 0 -24 6 -26 13 -3 6 -6 -16 -6 -50z"/>
<path d="M687 99 c6 -42 34 -100 48 -96 25 8 16 56 -18 93 l-34 37 4 -34z"/>
<path d="M2011 90 c7 -18 15 -27 22 -23 8 5 8 8 -1 11 -7 2 -12 12 -12 23 0
10 -4 19 -9 19 -6 0 -6 -12 0 -30z"/>
<path d="M7585 110 c-3 -5 -1 -10 4 -10 6 0 11 5 11 10 0 6 -2 10 -4 10 -3 0
-8 -4 -11 -10z"/>
<path d="M1382 87 c-12 -13 -22 -28 -22 -34 0 -7 -10 -13 -22 -15 -13 -2 -24
-11 -26 -20 -3 -14 3 -18 30 -18 31 0 34 3 50 53 9 28 15 53 14 54 -2 2 -12
-7 -24 -20z"/>
<path d="M1642 80 c0 -14 2 -19 5 -12 2 6 2 18 0 25 -3 6 -5 1 -5 -13z"/>
<path d="M2140 58 c0 -34 13 -29 25 10 5 16 2 22 -9 22 -11 0 -16 -10 -16 -32z"/>
<path d="M5455 81 c-16 -4 -31 -13 -33 -22 -3 -14 2 -15 38 -6 57 16 54 39 -5
28z"/>
<path d="M1680 66 c0 -9 7 -16 16 -16 9 0 14 5 12 12 -6 18 -28 21 -28 4z"/>
<path d="M1840 58 c0 -15 -3 -34 -6 -43 -6 -14 5 -15 92 -13 90 3 99 5 102 23
2 18 2 18 -8 3 -8 -14 -24 -18 -63 -18 -47 0 -54 3 -84 37 -33 36 -33 36 -33
11z"/>
<path d="M4790 60 c-23 -20 -23 -20 -2 -20 18 0 52 23 52 36 0 11 -29 2 -50
-16z"/>
<path d="M5720 39 c0 -11 5 -17 10 -14 6 3 10 13 10 21 0 8 -4 14 -10 14 -5 0
-10 -9 -10 -21z"/>
<path d="M1623 33 c-4 -10 -11 -21 -17 -25 -6 -4 -1 -8 12 -8 17 0 22 6 22 25
0 29 -8 33 -17 8z"/>
<path d="M4835 30 c3 -5 8 -10 11 -10 2 0 4 5 4 10 0 6 -5 10 -11 10 -5 0 -7
-4 -4 -10z"/>
<path d="M4000 16 c0 -9 5 -16 10 -16 6 0 10 4 10 9 0 6 -4 13 -10 16 -5 3
-10 -1 -10 -9z"/>
<path d="M5250 14 l-25 -15 34 5 c18 3 38 6 43 6 5 0 6 4 3 10 -9 14 -26 12
-55 -6z"/>
<path d="M5485 19 c-100 -14 -95 -16 42 -16 119 1 129 2 102 14 -35 14 -56 15
-144 2z"/>
<path d="M6730 15 c0 -8 7 -15 16 -15 14 0 14 3 4 15 -7 8 -14 15 -16 15 -2 0
-4 -7 -4 -15z"/>
<path d="M5805 10 c-3 -5 -1 -10 4 -10 6 0 11 5 11 10 0 6 -2 10 -4 10 -3 0
-8 -4 -11 -10z"/>
</g>
</svg>
